<?xml version="1.0" encoding="utf-8"?>
<!-- Generator: Adobe Illustrator 21.0.0, SVG Export Plug-In . SVG Version: 6.00 Build 0)  -->
<!DOCTYPE svg PUBLIC "-//W3C//DTD SVG 1.1//EN" "http://www.w3.org/Graphics/SVG/1.1/DTD/svg11.dtd">
<svg version="1.1" id="Layer_1" xmlns="http://www.w3.org/2000/svg" xmlns:xlink="http://www.w3.org/1999/xlink" x="0px" y="0px"
	 viewBox="0 0 300 300" style="enable-background:new 0 0 300 300;" xml:space="preserve">
<style type="text/css">
	.st0{opacity:0.65;fill:#006699;}
	.st1{opacity:0.9;fill:#006699;}
</style>
<g>
	<path class="st0" d="M90.2,157.2c-7.1-9.3-12.1-20.4-14.3-32.4c-12.8-1.2-24.4-6.5-33.4-14.6C18.9,117.9,3,134.6,3,163.5v23
		c0,6.1,4.9,11,11,11h30.2c2.4-4.9,5.2-9.5,8.6-13.8C61.9,172.2,74.5,163.3,90.2,157.2z"/>
	<path class="st0" d="M74.8,112.8c0-0.4,0-0.9,0-1.3c0-31.4,19.2-58.4,46.5-69.8c-8.3-13.3-23-22.2-39.8-22.2
		c-25.9,0-46.9,21-46.9,46.9C34.6,90,52.1,109.6,74.8,112.8z"/>
	<path class="st0" d="M257.5,110.2c-8.9,7.9-20.2,13.1-32.6,14.5c-2.1,12.1-7.1,23.2-14.3,32.5c15.7,6.1,28.3,15,37.5,26.5
		c3.4,4.3,6.3,8.9,8.6,13.8H286c6.1,0,11-4.9,11-11v-23C297,134.6,281.1,117.9,257.5,110.2z"/>
	<path class="st0" d="M226,111.5c0,0.4,0,0.8,0,1.2c22.3-3.6,39.4-22.9,39.4-46.3c0-25.9-21-46.9-46.9-46.9
		c-16.7,0-31.4,8.7-39.7,21.9C206.5,52.7,226,79.8,226,111.5z"/>
	<path class="st1" d="M200.6,168c-5.8,5.2-12.5,9.5-19.8,12.7c-3.1,1.4-6.3,2.5-9.6,3.5c-6.6,1.9-13.6,2.9-20.8,2.9
		c-7.2,0-14.2-1-20.8-2.9c-3.3-0.9-6.5-2.1-9.6-3.5c-7.3-3.2-13.9-7.5-19.8-12.7c-30.4,9.9-50.9,31.5-50.9,68.7v27.8
		c0,8.9,7.2,16,16,16h170.3c8.9,0,16-7.2,16-16v-27.8C251.6,199.4,231,177.9,200.6,168z"/>
	<circle class="st1" cx="150.4" cy="111.5" r="60.5"/>
</g>
</svg>
