<?xml version="1.0" encoding="utf-8"?>
<!-- Generator: Adobe Illustrator 21.0.0, SVG Export Plug-In . SVG Version: 6.00 Build 0)  -->
<!DOCTYPE svg PUBLIC "-//W3C//DTD SVG 1.1//EN" "http://www.w3.org/Graphics/SVG/1.1/DTD/svg11.dtd">
<svg version="1.1" id="Layer_1" xmlns="http://www.w3.org/2000/svg" xmlns:xlink="http://www.w3.org/1999/xlink" x="0px" y="0px"
	 viewBox="0 0 298.3 274.5" style="enable-background:new 0 0 298.3 274.5;" xml:space="preserve">
<style type="text/css">
	.st0{fill:#FFFFFF;}
	.st1{fill:#006699;}
</style>
<g>
	<path class="st0" d="M26.2,131c-0.1,2.1-0.2,4.2-0.2,6.3c0,22.8,6.9,44,18.7,61.7h185.4c11.8-17.7,18.7-38.9,18.7-61.7
		c0-2.1-0.1-4.2-0.2-6.3H26.2z M110,167.4c0,10.7-8.7,19.4-19.4,19.4c-10.7,0-19.4-8.7-19.4-19.4c0-9.2,6.4-16.9,15-18.9
		c-3.6-1.9-7.4-3.5-11.2-5c18.7-2.1,36.1,9.6,41.3,27.4c-2.1-2.2-4.3-4.3-6.6-6.2C110,165.5,110,166.4,110,167.4z M184.2,186.8
		c-10.7,0-19.4-8.7-19.4-19.4c0-1,0.1-1.9,0.2-2.8c-2.3,2-4.5,4.1-6.6,6.2c5.2-17.8,22.6-29.5,41.3-27.4c-3.8,1.5-7.5,3.2-11.2,5
		c8.6,2,15,9.7,15,18.9C203.6,178.1,194.9,186.8,184.2,186.8z"/>
	<path class="st1" d="M262.3,61l34-3l-5.8-18.1l-23.2,4.3l15.8-15.1L272.9,13l-23.7,27.2c-0.8-0.1-1.7-0.2-2.6-0.2
		c-4.2,0-8.1,1.6-10.9,4.2C211,18.1,176.1,1.8,137.4,1.8C62.7,1.8,2,62.6,2,137.3C2,212,62.7,272.7,137.4,272.7
		S272.9,212,272.9,137.3c0-24.4-6.5-47.3-17.8-67.1C258.5,68.1,261.1,64.9,262.3,61z M230.1,199H44.7C32.9,181.3,26,160.1,26,137.3
		c0-2.1,0.1-4.2,0.2-6.3h222.4c0.1,2.1,0.2,4.2,0.2,6.3C248.8,160.1,241.9,181.3,230.1,199z"/>
	<path class="st1" d="M75.1,143.5c3.8,1.5,7.5,3.2,11.2,5c-8.6,2-15,9.7-15,18.9c0,10.7,8.7,19.4,19.4,19.4
		c10.7,0,19.4-8.7,19.4-19.4c0-1-0.1-1.9-0.2-2.8c2.3,2,4.5,4.1,6.6,6.2C111.1,153.1,93.8,141.3,75.1,143.5z"/>
	<path class="st1" d="M188.6,148.5c3.6-1.9,7.4-3.5,11.2-5c-18.7-2.1-36.1,9.6-41.3,27.4c2.1-2.2,4.3-4.3,6.6-6.2
		c-0.1,0.9-0.2,1.8-0.2,2.8c0,10.7,8.7,19.4,19.4,19.4c10.7,0,19.4-8.7,19.4-19.4C203.6,158.2,197.2,150.5,188.6,148.5z"/>
</g>
</svg>
