<?xml version="1.0" encoding="utf-8"?>
<!-- Generator: Adobe Illustrator 21.0.0, SVG Export Plug-In . SVG Version: 6.00 Build 0)  -->
<!DOCTYPE svg PUBLIC "-//W3C//DTD SVG 1.1//EN" "http://www.w3.org/Graphics/SVG/1.1/DTD/svg11.dtd">
<svg version="1.1" id="Layer_1" xmlns="http://www.w3.org/2000/svg" xmlns:xlink="http://www.w3.org/1999/xlink" x="0px" y="0px"
	 viewBox="0 0 146.1 230.5" style="enable-background:new 0 0 146.1 230.5;" xml:space="preserve">
<style type="text/css">
	.st0{fill:#DF4054;}
</style>
<g>
	<path class="st0" d="M144,54.5l-13.8-14l-5-19l-18.9-5.2l-13.8-14l-19,5L54.5,2.1l-14,13.8l-19,5l-5.2,18.9l-14,13.8l5,19L2.1,91.6
		l13.8,14l5,19l18.9,5.2l0.4,0.4v98.3L73,203.3l32.9,25.1v-98.3l18.6-4.9l5.2-18.9l14-13.8l-5-19L144,54.5z M55,57.5
		c7.9-1.1,13.6-4.4,17-10.1h10.3v55.4H68.5V63.6c-2.8,2.2-7.3,3.9-13.5,5.1V57.5z"/>
</g>
</svg>
