<?xml version="1.0" encoding="utf-8"?>
<!-- Generator: Adobe Illustrator 21.0.0, SVG Export Plug-In . SVG Version: 6.00 Build 0)  -->
<!DOCTYPE svg PUBLIC "-//W3C//DTD SVG 1.1//EN" "http://www.w3.org/Graphics/SVG/1.1/DTD/svg11.dtd">
<svg version="1.1" id="Layer_1" xmlns="http://www.w3.org/2000/svg" xmlns:xlink="http://www.w3.org/1999/xlink" x="0px" y="0px"
	 viewBox="0 0 371.9 194.8" style="enable-background:new 0 0 371.9 194.8;" xml:space="preserve">
<style type="text/css">
	.st0{fill:#DF4054;}
	.st1{fill:#F4F4F4;}
	.st2{fill:#FFFFFF;}
	.st3{fill:#7E6E7A;}
	.st4{fill:#C9C6C7;}
</style>
<polygon class="st0" points="184.3,17.3 187.5,17.3 185.9,14 "/>
<path class="st0" d="M371.9,0H0v29.4h371.9V0z M165.1,20.9l-0.9-1.9h-4.8l-0.9,1.9h-2.2l5.5-11l5.5,11H165.1z M173.9,14.4l-3.2,7
	l-4.5-11h2.2l2.4,6.4l3.1-6.9l3.1,6.9l2.4-6.4h2.2l-4.4,11L173.9,14.4z M189.2,20.9l-0.9-1.9h-4.8l-0.9,1.9h-2.2l5.5-11l5.5,11
	H189.2z M198.4,20.9l-3.9-3.9h-0.2v3.9h-2V10.4h2.2c2,0,4.7,0.4,4.7,3.2c0,2-1.2,2.8-2.5,3.2l4.5,4.1H198.4z M204.4,20.9h-2.9V10.4
	h3.2c3.2,0,5.7,1.8,5.7,5.3C210.5,19,208.1,20.9,204.4,20.9z"/>
<path class="st0" d="M197.1,13.6c0-0.9-0.6-1.5-2.1-1.5h-0.7v3h0.7C196.4,15.2,197.1,14.7,197.1,13.6z"/>
<path class="st0" d="M205,12.2h-1.5v6.9h1.2c1.9,0,3.6-0.9,3.6-3.5C208.4,13.6,207,12.2,205,12.2z"/>
<polygon class="st0" points="160.3,17.3 163.4,17.3 161.8,14 "/>
<path class="st1" d="M148.7,66.2c0.5,0,0.9-0.1,1.2-0.2v-1.2c-0.3-0.2-0.8-0.4-1.3-0.4c-0.6,0-1.1,0.3-1.1,0.8
	C147.4,65.8,147.9,66.2,148.7,66.2z"/>
<path class="st1" d="M155.6,66c0.8,0,1.4-0.8,1.4-1.9c0-1.1-0.7-1.9-1.8-1.9c-0.4,0-0.8,0.1-1,0.2v2.9C154.7,65.9,155.1,66,155.6,66
	z"/>
<path class="st1" d="M175.4,66.1c1,0,1.7-0.8,1.7-2c0-1.2-0.7-2-1.6-2c-1,0-1.7,0.8-1.7,2C173.7,65.3,174.5,66.1,175.4,66.1z"/>
<path class="st1" d="M34.8,62.1c-0.9,0-1.5,0.5-1.7,1.4h3.1C36.2,62.8,35.7,62.1,34.8,62.1z"/>
<path class="st1" d="M48.9,66.1c0.3,0,0.8,0,1.1-0.3v-3.1c-0.3-0.3-0.8-0.5-1.2-0.5c-1,0-1.6,0.8-1.6,2
	C47.1,65.3,47.9,66.1,48.9,66.1z"/>
<path class="st1" d="M371.9,29.4H0v165.4h371.9V29.4z M180.8,61.7c0.5,0,1,0.4,1,0.9c0,0.5-0.4,0.9-1,0.9c-0.5,0-0.9-0.5-0.9-0.9
	C179.8,62.1,180.3,61.7,180.8,61.7z M180.8,65.4c0.5,0,1,0.4,1,1c0,0.5-0.4,0.9-1,0.9c-0.5,0-0.9-0.5-0.9-0.9
	C179.8,65.9,180.3,65.4,180.8,65.4z M175.4,60.9c1.9,0,3.3,1.5,3.3,3.2c0,1.8-1.5,3.2-3.3,3.2c-1.9,0-3.3-1.4-3.3-3.2
	C172.1,62.3,173.5,60.9,175.4,60.9z M167.4,61.1h1.2V59h1.6v2.1h1.5v1.2h-1.5v4.8h-1.6v-4.8h-1.2V61.1z M159.7,62.7
	c0-0.9,0.8-1.8,2.1-1.8c1.1,0,1.8,0.5,2.1,0.7l-0.6,1.1c-0.1-0.1-0.7-0.6-1.2-0.6c-0.4,0-0.7,0.2-0.7,0.5c0,0.9,2.6,1.1,2.6,2.8
	c0,1.2-0.9,1.9-2.3,1.9c-1.1,0-1.9-0.4-2.4-0.8l0.6-1.1c0.4,0.4,1.1,0.7,1.7,0.7c0.4,0,0.8-0.2,0.8-0.7
	C162.3,64.7,159.7,64.3,159.7,62.7z M152.7,61.6c0.9-0.5,1.9-0.7,2.7-0.7c1.7,0,3.3,1.1,3.3,3.2c0,1.7-1.1,3.2-3,3.2
	c-0.5,0-1.1-0.2-1.5-0.5v3.4h-1.6V61.6z M148.3,63.2c0.4,0,1.2,0.1,1.5,0.4V63c0-0.5-0.4-0.8-1.2-0.8c-0.8,0-1.5,0.2-1.7,0.4
	l-0.5-1.1c0.5-0.3,1.3-0.5,2.3-0.5c2,0,2.6,1,2.6,2.5v3.2c-0.5,0.4-1.4,0.8-2.8,0.8c-1.9,0-2.7-1-2.7-2.2
	C145.8,63.7,147.1,63.2,148.3,63.2z M139.3,61.1h1.6v0.6c0.3-0.3,1-0.8,1.9-0.8c1.3,0,2,0.7,2,2.2v4.1h-1.6v-3.2
	c0-1-0.1-1.6-1.1-1.6c-0.5,0-1.1,0.4-1.3,0.7v4.2h-1.6V61.1z M133.9,62.7c0-0.9,0.8-1.8,2.1-1.8c1.1,0,1.8,0.5,2.1,0.7l-0.6,1.1
	c-0.1-0.1-0.7-0.6-1.2-0.6c-0.4,0-0.7,0.2-0.7,0.5c0,0.9,2.6,1.1,2.6,2.8c0,1.2-0.9,1.9-2.3,1.9c-1.1,0-1.9-0.4-2.4-0.8l0.6-1.1
	c0.4,0.4,1.1,0.7,1.7,0.7c0.4,0,0.8-0.2,0.8-0.7C136.5,64.7,133.9,64.3,133.9,62.7z M63.3,74.8V46.9h51v27.9v5.5h-51V74.8z
	 M48.7,60.9c0.4,0,0.9,0.1,1.3,0.4v-3.9h1.6v9.2c-0.9,0.5-1.8,0.7-2.7,0.7c-1.7,0-3.4-1.1-3.4-3.1C45.5,62.3,46.8,60.9,48.7,60.9z
	 M38.9,61.1h1.6v0.6c0.3-0.3,1-0.8,1.9-0.8c1.3,0,2,0.7,2,2.2v4.1h-1.6v-3.2c0-1-0.1-1.6-1.1-1.6c-0.5,0-1.1,0.4-1.3,0.7v4.2h-1.6
	V61.1z M34.8,60.9c2,0,3,1.5,3,3.2v0.6h-4.6c0.2,1.1,1.2,1.4,2.1,1.4c0.9,0,1.6-0.4,1.8-0.6l0.5,1.1c-0.3,0.3-1.2,0.8-2.6,0.8
	c-2,0-3.4-1.2-3.4-3.2C31.5,62.3,32.9,60.9,34.8,60.9z M24.8,60.4c0-1.6,1.4-2.5,2.9-2.5c1.4,0,2.4,0.9,2.6,1l-0.8,1.3
	c-0.5-0.5-1.1-0.8-1.7-0.8s-1.2,0.3-1.2,0.9c0,1.6,4,1.2,4,4.4c0,1.4-1.2,2.6-3.3,2.6c-1.3,0-2.6-0.8-3.1-1.3l0.9-1.2
	c0.5,0.4,1.3,1,2.3,1c0.9,0,1.4-0.4,1.4-1.1C28.8,62.9,24.8,63.2,24.8,60.4z M215.6,181.8h-65.2v-22.4h65.2V181.8z M342.8,143v5.5
	H24.9V143V93.4h317.9V143z M342.8,74.8v5.5H196.7v-5.5V46.9h146.1V74.8z"/>
<path class="st2" d="M156.4,20.9h2.2l0.9-1.9h4.8l0.9,1.9h2.2l-5.5-11L156.4,20.9z M160.3,17.3l1.6-3.3l1.6,3.3H160.3z"/>
<polygon class="st2" points="179.4,10.4 177,16.8 173.9,9.9 170.8,16.8 168.4,10.4 166.2,10.4 170.7,21.4 173.9,14.4 177.1,21.4 
	181.5,10.4 "/>
<path class="st2" d="M180.4,20.9h2.2l0.9-1.9h4.8l0.9,1.9h2.2l-5.5-11L180.4,20.9z M184.3,17.3l1.6-3.3l1.6,3.3H184.3z"/>
<path class="st2" d="M199.2,13.6c0-2.8-2.7-3.2-4.7-3.2h-2.2v10.5h2V17h0.2l3.9,3.9h2.7l-4.5-4.1C198,16.4,199.2,15.6,199.2,13.6z
	 M194.3,15.2v-3h0.7c1.5,0,2.1,0.6,2.1,1.5c0,1-0.7,1.6-2.2,1.6H194.3z"/>
<path class="st2" d="M204.8,10.4h-3.2v10.5h2.9c3.7,0,6-1.9,6-5.2C210.5,12.2,207.9,10.4,204.8,10.4z M204.8,19.1h-1.2v-6.9h1.5
	c2,0,3.3,1.4,3.3,3.4C208.4,18.1,206.7,19.1,204.8,19.1z"/>
<path class="st3" d="M27.4,65.8c-1,0-1.9-0.5-2.3-1l-0.9,1.2c0.5,0.5,1.8,1.3,3.1,1.3c2.1,0,3.3-1.2,3.3-2.6c0-3.2-4-2.8-4-4.4
	c0-0.6,0.6-0.9,1.2-0.9s1.3,0.3,1.7,0.8l0.8-1.3c-0.2-0.2-1.2-1-2.6-1c-1.5,0-2.9,0.9-2.9,2.5c0,2.7,4,2.5,4,4.4
	C28.8,65.4,28.4,65.8,27.4,65.8z"/>
<path class="st3" d="M34.9,67.3c1.4,0,2.3-0.5,2.6-0.8l-0.5-1.1c-0.2,0.2-0.9,0.6-1.8,0.6c-1,0-2-0.3-2.1-1.4h4.6v-0.6
	c0-1.7-1-3.2-3-3.2c-1.9,0-3.2,1.4-3.2,3.2C31.5,66.1,32.9,67.3,34.9,67.3z M34.8,62.1c0.8,0,1.4,0.7,1.4,1.4h-3.1
	C33.3,62.7,33.9,62.1,34.8,62.1z"/>
<path class="st3" d="M40.4,63c0.2-0.2,0.8-0.7,1.3-0.7c0.9,0,1.1,0.6,1.1,1.6v3.2h1.6v-4.1c0-1.5-0.7-2.2-2-2.2
	c-0.9,0-1.6,0.5-1.9,0.8v-0.6h-1.6v6.1h1.6V63z"/>
<path class="st3" d="M48.9,67.3c0.9,0,1.8-0.2,2.7-0.7v-9.2H50v3.9c-0.4-0.2-0.9-0.4-1.3-0.4c-1.9,0-3.2,1.4-3.2,3.3
	C45.5,66.3,47.1,67.3,48.9,67.3z M48.7,62.2c0.5,0,1,0.2,1.2,0.5v3.1c-0.3,0.2-0.8,0.3-1.1,0.3c-0.9,0-1.7-0.7-1.7-1.9
	C47.1,63,47.8,62.2,48.7,62.2z"/>
<path class="st3" d="M135.7,66.2c-0.6,0-1.3-0.4-1.7-0.7l-0.6,1.1c0.5,0.4,1.3,0.8,2.4,0.8c1.4,0,2.3-0.7,2.3-1.9
	c0-1.7-2.6-1.9-2.6-2.8c0-0.3,0.3-0.5,0.7-0.5c0.6,0,1.1,0.5,1.2,0.6l0.6-1.1c-0.3-0.2-1-0.7-2.1-0.7c-1.3,0-2.1,0.9-2.1,1.8
	c0,1.6,2.6,2,2.6,2.8C136.5,66,136.1,66.2,135.7,66.2z"/>
<path class="st3" d="M140.9,63c0.2-0.2,0.8-0.7,1.3-0.7c0.9,0,1.1,0.6,1.1,1.6v3.2h1.6v-4.1c0-1.5-0.7-2.2-2-2.2
	c-0.9,0-1.6,0.5-1.9,0.8v-0.6h-1.6v6.1h1.6V63z"/>
<path class="st3" d="M148.5,67.3c1.4,0,2.3-0.4,2.8-0.8v-3.2c0-1.5-0.5-2.5-2.6-2.5c-1,0-1.7,0.2-2.3,0.5l0.5,1.1
	c0.2-0.1,0.9-0.4,1.7-0.4c0.8,0,1.2,0.3,1.2,0.8v0.6c-0.3-0.3-1.1-0.4-1.5-0.4c-1.1,0-2.5,0.5-2.5,1.9
	C145.8,66.3,146.7,67.3,148.5,67.3z M148.5,64.3c0.5,0,1,0.2,1.3,0.4v1.2c-0.3,0.2-0.7,0.2-1.2,0.2c-0.8,0-1.2-0.4-1.2-1
	C147.4,64.6,148,64.3,148.5,64.3z"/>
<path class="st3" d="M154.2,66.8c0.4,0.3,1,0.5,1.5,0.5c1.9,0,3-1.5,3-3.2c0-2.1-1.6-3.2-3.3-3.2c-0.8,0-1.9,0.2-2.7,0.7v8.6h1.6
	V66.8z M154.2,62.4c0.2-0.2,0.7-0.2,1-0.2c1.1,0,1.8,0.8,1.8,1.9c0,1.2-0.7,1.9-1.4,1.9c-0.5,0-1-0.1-1.4-0.7V62.4z"/>
<path class="st3" d="M161.5,66.2c-0.6,0-1.3-0.4-1.7-0.7l-0.6,1.1c0.5,0.4,1.3,0.8,2.4,0.8c1.4,0,2.3-0.7,2.3-1.9
	c0-1.7-2.6-1.9-2.6-2.8c0-0.3,0.3-0.5,0.7-0.5c0.6,0,1.1,0.5,1.2,0.6l0.6-1.1c-0.3-0.2-1-0.7-2.1-0.7c-1.3,0-2.1,0.9-2.1,1.8
	c0,1.6,2.6,2,2.6,2.8C162.3,66,161.9,66.2,161.5,66.2z"/>
<polygon class="st3" points="168.6,67.2 170.1,67.2 170.1,62.3 171.6,62.3 171.6,61.1 170.1,61.1 170.1,59 168.6,59 168.6,61.1 
	167.4,61.1 167.4,62.3 168.6,62.3 "/>
<path class="st3" d="M175.4,67.3c1.8,0,3.3-1.4,3.3-3.2c0-1.8-1.4-3.2-3.3-3.2c-1.9,0-3.3,1.4-3.3,3.2
	C172.1,65.9,173.5,67.3,175.4,67.3z M175.4,62.2c0.9,0,1.6,0.8,1.6,2c0,1.2-0.7,2-1.7,2c-0.9,0-1.7-0.8-1.7-2
	C173.7,63,174.4,62.2,175.4,62.2z"/>
<path class="st3" d="M180.8,63.5c0.5,0,1-0.5,1-0.9c0-0.5-0.4-0.9-1-0.9c-0.5,0-0.9,0.4-0.9,0.9C179.8,63.1,180.3,63.5,180.8,63.5z"
	/>
<path class="st3" d="M180.8,67.3c0.5,0,1-0.5,1-0.9c0-0.5-0.4-1-1-1c-0.5,0-0.9,0.4-0.9,1C179.8,66.9,180.3,67.3,180.8,67.3z"/>
<path class="st0" d="M150.4,181.8h65.2v-22.4h-65.2V181.8z M191.1,167.2h2.3c2.3,0,4.1,1.3,4.1,3.8c0,2.4-1.7,3.7-4.3,3.7h-2V167.2z
	 M182.6,167l5.5,5l0-4.8h1.4l0,7.8l-5.5-4.9l0,4.6h-1.4L182.6,167z M176.6,167.3h4.5v1.3H178v1.6h2.5v1.3H178v2h3.4v1.3h-4.8V167.3z
	 M170.5,169.1c0-1.3,1.2-2.1,2.4-2.1c1.2,0,2,0.7,2.1,0.9l-0.7,1.1c-0.4-0.4-0.9-0.7-1.4-0.7s-1,0.2-1,0.7c0,1.3,3.4,1,3.4,3.7
	c0,1.2-1,2.2-2.8,2.2c-1.1,0-2.2-0.6-2.6-1.1l0.7-1c0.4,0.4,1.1,0.8,1.9,0.8c0.8,0,1.2-0.4,1.2-0.9
	C173.9,171.2,170.5,171.4,170.5,169.1z"/>
<path class="st0" d="M195.9,171c0-1.4-1-2.4-2.4-2.4h-1.1v4.9h0.9C194.7,173.5,195.9,172.8,195.9,171z"/>
<path class="st2" d="M172.7,173.7c-0.8,0-1.5-0.5-1.9-0.8l-0.7,1c0.4,0.4,1.5,1.1,2.6,1.1c1.8,0,2.8-1,2.8-2.2
	c0-2.6-3.4-2.4-3.4-3.7c0-0.5,0.5-0.7,1-0.7s1.1,0.3,1.4,0.7l0.7-1.1c-0.1-0.2-1-0.9-2.1-0.9c-1.2,0-2.4,0.7-2.4,2.1
	c0,2.3,3.3,2,3.3,3.6C173.9,173.3,173.5,173.7,172.7,173.7z"/>
<polygon class="st2" points="181.4,173.5 178,173.5 178,171.4 180.4,171.4 180.4,170.1 178,170.1 178,168.5 181,168.5 181,167.3 
	176.6,167.3 176.6,174.7 181.4,174.7 "/>
<polygon class="st2" points="183.9,170.2 189.4,175 189.5,167.2 188.1,167.2 188.1,172 182.6,167 182.5,174.8 183.9,174.8 "/>
<path class="st2" d="M197.4,171c0-2.5-1.8-3.8-4.1-3.8h-2.3v7.5h2C195.7,174.8,197.4,173.4,197.4,171z M192.5,168.5h1.1
	c1.4,0,2.4,1,2.4,2.4c0,1.8-1.2,2.5-2.6,2.5h-0.9V168.5z"/>
<path class="st2" d="M24.9,143h317.9V93.4H24.9V143z M91.4,102.2c1.5,0,2.2,1.2,2.2,2.4v0.2h-3.9c0,1.2,0.8,1.9,1.9,1.9
	c0.8,0,1.3-0.4,1.5-0.6l0.3,0.4c-0.3,0.4-1,0.8-2,0.8c-1.4,0-2.5-1-2.5-2.5C89,103.2,89.9,102.2,91.4,102.2z M85.8,102.2
	c1,0,1.6,0.3,2,0.6v4.6c0,1.8-1.2,2.3-2.2,2.3c-0.7,0-1.4-0.2-1.9-0.6l0.3-0.5c0.4,0.3,1.1,0.5,1.7,0.5c0.7,0,1.6-0.3,1.6-1.7v-1
	c-0.4,0.5-1,0.8-1.6,0.8c-1.1,0-2.3-0.9-2.3-2.5C83.2,103.1,84.5,102.2,85.8,102.2z M80,103.9c0.5,0,1.1,0.2,1.5,0.5v-0.7
	c0-0.6-0.5-1.1-1.3-1.1c-0.6,0-1.2,0.2-1.3,0.3l-0.2-0.5c0.3-0.2,0.9-0.4,1.6-0.4c1.5,0,1.9,0.7,1.9,1.8v2.6
	c-0.4,0.4-1.2,0.7-2.1,0.7c-1.4,0-2-0.8-2-1.7C78,104.4,79.2,103.9,80,103.9z M74.3,106.1c0.2,0.3,0.7,0.6,1.3,0.6
	c0.6,0,1-0.3,1-0.9c0-1.1-2.3-1-2.3-2.3c0-0.7,0.6-1.3,1.5-1.3c0.6,0,1.2,0.3,1.4,0.6l-0.3,0.5c-0.1-0.1-0.6-0.5-1.1-0.5
	c-0.6,0-0.8,0.4-0.8,0.7c0,0.9,2.3,0.8,2.3,2.3c0,0.9-0.7,1.5-1.7,1.5c-0.8,0-1.4-0.4-1.7-0.7L74.3,106.1z M70.3,106.1
	c0.2,0.3,0.7,0.6,1.3,0.6c0.6,0,1-0.3,1-0.9c0-1.1-2.3-1-2.3-2.3c0-0.7,0.6-1.3,1.5-1.3c0.6,0,1.2,0.3,1.4,0.6l-0.3,0.5
	c-0.1-0.1-0.6-0.5-1.1-0.5c-0.6,0-0.8,0.4-0.8,0.7c0,0.9,2.3,0.8,2.3,2.3c0,0.9-0.7,1.5-1.7,1.5c-0.8,0-1.4-0.4-1.7-0.7L70.3,106.1z
	 M67.1,102.2c1.5,0,2.2,1.2,2.2,2.4v0.2h-3.9c0,1.2,0.8,1.9,1.9,1.9c0.8,0,1.3-0.4,1.5-0.6l0.3,0.4c-0.3,0.4-1,0.8-2,0.8
	c-1.4,0-2.5-1-2.5-2.5C64.7,103.2,65.6,102.2,67.1,102.2z M56.7,102.3h0.7v0.5c0.3-0.2,0.8-0.6,1.6-0.6c0.7,0,1.1,0.4,1.3,0.7
	c0.4-0.3,1-0.7,1.8-0.7c0.9,0,1.5,0.5,1.5,1.7v3.2h-0.7V104c0-0.9-0.4-1.2-1.1-1.2c-0.6,0-1.2,0.4-1.4,0.6c0,0.1,0,0.3,0,0.4v3.2
	h-0.7V104c0-0.9-0.4-1.2-1.1-1.2c-0.6,0-1.1,0.4-1.3,0.6v3.7h-0.7V102.3z M50.8,103.9c0.5,0,1.1,0.2,1.5,0.5v-0.7
	c0-0.6-0.5-1.1-1.3-1.1c-0.6,0-1.2,0.2-1.3,0.3l-0.2-0.5c0.3-0.2,0.9-0.4,1.6-0.4c1.5,0,1.9,0.7,1.9,1.8v2.6
	c-0.4,0.4-1.2,0.7-2.1,0.7c-1.4,0-2-0.8-2-1.7C48.8,104.4,50,103.9,50.8,103.9z M43.3,102.2c0.5,0,1.1,0.2,1.5,0.5V99h0.7v7.6
	c-0.6,0.4-1.3,0.6-2,0.6c-1.3,0-2.6-0.8-2.6-2.4C40.8,103.2,41.8,102.2,43.3,102.2z M37.5,102.2c0.5,0,1.1,0.2,1.5,0.5V99h0.7v7.6
	c-0.6,0.4-1.3,0.6-2,0.6c-1.3,0-2.6-0.8-2.6-2.4C35.1,103.2,36.1,102.2,37.5,102.2z M31.8,103.9c0.5,0,1.1,0.2,1.5,0.5v-0.7
	c0-0.6-0.5-1.1-1.3-1.1c-0.6,0-1.2,0.2-1.3,0.3l-0.2-0.5c0.3-0.2,0.9-0.4,1.6-0.4c1.5,0,1.9,0.7,1.9,1.8v2.6
	c-0.4,0.4-1.2,0.7-2.1,0.7c-1.4,0-2-0.8-2-1.7C29.9,104.4,31,103.9,31.8,103.9z"/>
<path class="st2" d="M37.7,106.7c0.4,0,0.9-0.1,1.3-0.4v-2.8c-0.2-0.4-0.9-0.7-1.5-0.7c-1.1,0-1.8,0.8-1.8,2
	C35.8,106,36.7,106.7,37.7,106.7z"/>
<path class="st2" d="M31.9,106.7c0.6,0,1.1-0.2,1.4-0.4V105c-0.3-0.3-0.7-0.6-1.4-0.6c-0.6,0-1.4,0.3-1.4,1
	C30.6,106.3,31.2,106.7,31.9,106.7z"/>
<path class="st2" d="M85.7,106.6c0.6,0,1.2-0.4,1.5-0.9v-2.6c-0.2-0.1-0.6-0.4-1.3-0.4c-1,0-1.9,0.6-1.9,2
	C83.9,105.6,84.5,106.6,85.7,106.6z"/>
<path class="st2" d="M67.1,102.8c-0.8,0-1.6,0.5-1.7,1.5h3.2C68.5,103.4,68,102.8,67.1,102.8z"/>
<path class="st2" d="M91.4,102.8c-0.8,0-1.6,0.5-1.7,1.5h3.2C92.8,103.4,92.3,102.8,91.4,102.8z"/>
<path class="st2" d="M50.9,106.7c0.6,0,1.1-0.2,1.4-0.4V105c-0.3-0.3-0.7-0.6-1.4-0.6c-0.6,0-1.4,0.3-1.4,1
	C49.5,106.3,50.2,106.7,50.9,106.7z"/>
<path class="st2" d="M80.1,106.7c0.6,0,1.1-0.2,1.4-0.4V105c-0.3-0.3-0.7-0.6-1.4-0.6c-0.6,0-1.4,0.3-1.4,1
	C78.7,106.3,79.4,106.7,80.1,106.7z"/>
<path class="st2" d="M43.4,106.7c0.4,0,0.9-0.1,1.3-0.4v-2.8c-0.2-0.4-0.9-0.7-1.5-0.7c-1.1,0-1.8,0.8-1.8,2
	C41.5,106,42.4,106.7,43.4,106.7z"/>
<rect x="24.9" y="143" class="st4" width="317.9" height="5.5"/>
<rect x="196.7" y="74.8" class="st4" width="146.1" height="5.5"/>
<path class="st2" d="M82.5,58.8c-2.2,0-3.9,1.6-3.9,3.8c0,2.1,1.7,3.9,3.8,3.9c2.2,0,3.9-1.7,3.9-3.9C86.3,60.4,84.6,58.8,82.5,58.8
	z"/>
<path class="st2" d="M114.4,46.9h-51v27.9h51V46.9z M86.7,68.3l-1.8-1.6c-0.7,0.4-1.5,0.6-2.4,0.6c-2.7,0-4.8-2.1-4.8-4.7
	c0-2.6,2.1-4.7,4.8-4.7c2.7,0,4.7,2,4.7,4.7c0,1.4-0.7,2.7-1.7,3.5l1.7,1.4L86.7,68.3z M93.7,58.9h-2.6v8.2h-0.9v-8.2h-2.6v-0.8h6.1
	V58.9z M97.7,63.3v3.9h-0.9v-3.9l-3-5.1h1l2.4,4.2c0,0.1,0,0.1,0.1,0.2c0-0.1,0-0.2,0.1-0.2l2.4-4.2h0.9L97.7,63.3z"/>
<rect x="63.3" y="74.8" class="st4" width="51" height="5.5"/>
<path class="st4" d="M87.2,62.7c0-2.7-2.1-4.7-4.7-4.7c-2.7,0-4.8,2.1-4.8,4.7c0,2.6,2.1,4.7,4.8,4.7c0.9,0,1.7-0.2,2.4-0.6l1.8,1.6
	l0.6-0.7l-1.7-1.4C86.5,65.4,87.2,64.1,87.2,62.7z M82.4,66.6c-2.1,0-3.8-1.9-3.8-3.9c0-2.2,1.7-3.8,3.9-3.8c2.1,0,3.9,1.6,3.9,3.9
	C86.3,64.9,84.6,66.6,82.4,66.6z"/>
<polygon class="st4" points="87.6,58.9 90.3,58.9 90.3,67.2 91.1,67.2 91.1,58.9 93.7,58.9 93.7,58.2 87.6,58.2 "/>
<path class="st4" d="M97.4,62.4c0,0.1-0.1,0.1-0.1,0.2c0-0.1,0-0.2-0.1-0.2l-2.4-4.2h-1l3,5.1v3.9h0.9v-3.9l3-5.1h-0.9L97.4,62.4z"
	/>
<path class="st4" d="M31.9,107.2c0.9,0,1.6-0.3,2.1-0.7V104c0-1.1-0.4-1.8-1.9-1.8c-0.7,0-1.3,0.2-1.6,0.4l0.2,0.5
	c0.1-0.1,0.7-0.3,1.3-0.3c0.9,0,1.3,0.5,1.3,1.1v0.7c-0.4-0.4-1-0.5-1.5-0.5c-0.8,0-2,0.5-2,1.6C29.9,106.4,30.5,107.2,31.9,107.2z
	 M31.9,104.5c0.7,0,1.2,0.3,1.4,0.6v1.2c-0.3,0.2-0.8,0.4-1.4,0.4c-0.8,0-1.4-0.4-1.4-1.2C30.6,104.8,31.3,104.5,31.9,104.5z"/>
<path class="st4" d="M37.7,107.2c0.7,0,1.4-0.2,2-0.6V99H39v3.7c-0.4-0.3-0.9-0.5-1.5-0.5c-1.4,0-2.4,1-2.4,2.6
	C35.1,106.4,36.3,107.2,37.7,107.2z M37.5,102.8c0.6,0,1.2,0.3,1.5,0.7v2.8c-0.4,0.3-0.9,0.4-1.3,0.4c-1,0-1.9-0.6-1.9-1.9
	C35.8,103.5,36.5,102.8,37.5,102.8z"/>
<path class="st4" d="M43.4,107.2c0.7,0,1.4-0.2,2-0.6V99h-0.7v3.7c-0.4-0.3-0.9-0.5-1.5-0.5c-1.4,0-2.4,1-2.4,2.6
	C40.8,106.4,42.1,107.2,43.4,107.2z M43.3,102.8c0.6,0,1.2,0.3,1.5,0.7v2.8c-0.4,0.3-0.9,0.4-1.3,0.4c-1,0-1.9-0.6-1.9-1.9
	C41.5,103.5,42.2,102.8,43.3,102.8z"/>
<path class="st4" d="M50.9,107.2c0.9,0,1.6-0.3,2.1-0.7V104c0-1.1-0.4-1.8-1.9-1.8c-0.7,0-1.3,0.2-1.6,0.4l0.2,0.5
	c0.1-0.1,0.7-0.3,1.3-0.3c0.9,0,1.3,0.5,1.3,1.1v0.7c-0.4-0.4-1-0.5-1.5-0.5c-0.8,0-2,0.5-2,1.6C48.8,106.4,49.5,107.2,50.9,107.2z
	 M50.9,104.5c0.7,0,1.2,0.3,1.4,0.6v1.2c-0.3,0.2-0.8,0.4-1.4,0.4c-0.8,0-1.4-0.4-1.4-1.2C49.5,104.8,50.3,104.5,50.9,104.5z"/>
<path class="st4" d="M57.4,103.4c0.2-0.2,0.7-0.6,1.3-0.6c0.7,0,1.1,0.3,1.1,1.2v3.1h0.7v-3.2c0-0.1,0-0.3,0-0.4
	c0.2-0.2,0.8-0.6,1.4-0.6c0.7,0,1.1,0.3,1.1,1.2v3.1h0.7v-3.2c0-1.2-0.6-1.7-1.5-1.7c-0.8,0-1.4,0.4-1.8,0.7
	c-0.2-0.4-0.6-0.7-1.3-0.7c-0.8,0-1.3,0.4-1.6,0.6v-0.5h-0.7v4.8h0.7V103.4z"/>
<path class="st4" d="M67.1,107.2c0.9,0,1.7-0.4,2-0.8l-0.3-0.4c-0.2,0.2-0.7,0.6-1.5,0.6c-1.2,0-1.9-0.7-1.9-1.9h3.9v-0.2
	c0-1.2-0.7-2.4-2.2-2.4c-1.5,0-2.4,1.1-2.4,2.5C64.7,106.2,65.7,107.2,67.1,107.2z M67.1,102.8c0.9,0,1.4,0.7,1.5,1.5h-3.2
	C65.5,103.3,66.2,102.8,67.1,102.8z"/>
<path class="st4" d="M71.6,107.2c1,0,1.7-0.6,1.7-1.5c0-1.6-2.3-1.4-2.3-2.3c0-0.3,0.2-0.7,0.8-0.7c0.5,0,1,0.4,1.1,0.5l0.3-0.5
	c-0.2-0.3-0.8-0.6-1.4-0.6c-0.9,0-1.5,0.6-1.5,1.3c0,1.3,2.3,1.2,2.3,2.3c0,0.6-0.4,0.9-1,0.9c-0.7,0-1.1-0.4-1.3-0.6l-0.3,0.5
	C70.2,106.9,70.8,107.2,71.6,107.2z"/>
<path class="st4" d="M75.6,107.2c1,0,1.7-0.6,1.7-1.5c0-1.6-2.3-1.4-2.3-2.3c0-0.3,0.2-0.7,0.8-0.7c0.5,0,1,0.4,1.1,0.5l0.3-0.5
	c-0.2-0.3-0.8-0.6-1.4-0.6c-0.9,0-1.5,0.6-1.5,1.3c0,1.3,2.3,1.2,2.3,2.3c0,0.6-0.4,0.9-1,0.9c-0.7,0-1.1-0.4-1.3-0.6l-0.3,0.5
	C74.2,106.9,74.8,107.2,75.6,107.2z"/>
<path class="st4" d="M80.1,107.2c0.9,0,1.6-0.3,2.1-0.7V104c0-1.1-0.4-1.8-1.9-1.8c-0.7,0-1.3,0.2-1.6,0.4l0.2,0.5
	c0.1-0.1,0.7-0.3,1.3-0.3c0.9,0,1.3,0.5,1.3,1.1v0.7c-0.4-0.4-1-0.5-1.5-0.5c-0.8,0-2,0.5-2,1.6C78,106.4,78.7,107.2,80.1,107.2z
	 M80.1,104.5c0.7,0,1.2,0.3,1.4,0.6v1.2c-0.3,0.2-0.8,0.4-1.4,0.4c-0.8,0-1.4-0.4-1.4-1.2C78.7,104.8,79.5,104.5,80.1,104.5z"/>
<path class="st4" d="M85.5,107.2c0.6,0,1.2-0.3,1.6-0.8v1c0,1.5-0.9,1.7-1.6,1.7c-0.6,0-1.2-0.2-1.7-0.5l-0.3,0.5
	c0.5,0.4,1.2,0.6,1.9,0.6c1.1,0,2.2-0.5,2.2-2.3v-4.6c-0.3-0.3-1-0.6-2-0.6c-1.3,0-2.6,0.9-2.6,2.5
	C83.2,106.3,84.4,107.2,85.5,107.2z M85.8,102.8c0.7,0,1.2,0.3,1.3,0.4v2.6c-0.3,0.5-0.9,0.9-1.5,0.9c-1.2,0-1.8-1.1-1.8-1.9
	C83.9,103.4,84.9,102.8,85.8,102.8z"/>
<path class="st4" d="M91.4,107.2c0.9,0,1.7-0.4,2-0.8l-0.3-0.4c-0.2,0.2-0.7,0.6-1.5,0.6c-1.2,0-1.9-0.7-1.9-1.9h3.9v-0.2
	c0-1.2-0.7-2.4-2.2-2.4c-1.5,0-2.4,1.1-2.4,2.5C89,106.2,90,107.2,91.4,107.2z M91.4,102.8c0.9,0,1.4,0.7,1.5,1.5h-3.2
	C89.8,103.3,90.5,102.8,91.4,102.8z"/>
<rect x="196.7" y="46.9" class="st2" width="146.1" height="27.9"/>
<g>
	<path class="st2" d="M266.5,62c-1,0-1.9,0.6-2,1.8h3.9C268.2,62.8,267.6,62,266.5,62z"/>
	<path class="st2" d="M308.6,62c-1,0-1.9,0.6-2,1.8h3.9C310.3,62.8,309.7,62,308.6,62z"/>
	<path class="st2" d="M298.4,66.7c0.7,0,1.3-0.2,1.7-0.5v-1.5c-0.3-0.3-0.9-0.7-1.7-0.7c-0.7,0-1.6,0.4-1.6,1.2
		C296.8,66.2,297.5,66.7,298.4,66.7z"/>
	<path class="st2" d="M244.5,66.7c0.5,0,1.1-0.1,1.6-0.5v-3.4c-0.3-0.5-1-0.8-1.8-0.8c-1.3,0-2.1,0.9-2.1,2.4
		C242.2,65.9,243.2,66.7,244.5,66.7z"/>
	<path class="st2" d="M272.5,66.7c0.7,0,1.3-0.2,1.7-0.5v-1.5c-0.3-0.3-0.9-0.7-1.7-0.7c-0.7,0-1.6,0.4-1.6,1.2
		C270.8,66.2,271.6,66.7,272.5,66.7z"/>
	<path class="st2" d="M253.4,66.7c0.7,0,1.3-0.2,1.7-0.5v-1.5c-0.3-0.3-0.9-0.7-1.7-0.7c-0.7,0-1.6,0.4-1.6,1.2
		C251.8,66.2,252.5,66.7,253.4,66.7z"/>
	<rect x="232.6" y="61.5" class="st4" width="0.8" height="5.7"/>
	<path class="st4" d="M233,60.4c0.3,0,0.6-0.3,0.6-0.6c0-0.3-0.3-0.6-0.6-0.6c-0.3,0-0.6,0.3-0.6,0.6
		C232.4,60.2,232.6,60.4,233,60.4z"/>
	<path class="st4" d="M229.2,67.2h0.8v-5h1.4v-0.7H230v-1.8c0-0.9,0.3-1.5,1-1.5c0.4,0,0.7,0.2,0.8,0.2l0.3-0.7
		c-0.1-0.1-0.5-0.3-1.1-0.3c-0.4,0-1,0.1-1.4,0.6c-0.4,0.5-0.5,1.1-0.5,1.8v1.6h-1v0.7h1V67.2z"/>
	<path class="st4" d="M236,62.8c0.2-0.3,0.9-0.8,1.7-0.8c1.1,0,1.5,0.5,1.5,1.8v3.4h0.8v-3.7c0-1.5-0.7-2.1-2.1-2.1
		c-1,0-1.6,0.5-1.9,0.8v-0.6h-0.8v5.7h0.8V62.8z"/>
	<path class="st4" d="M244.5,67.4c0.8,0,1.7-0.2,2.4-0.8v-9.1h-0.8V62c-0.4-0.4-1.1-0.6-1.8-0.6c-1.7,0-2.9,1.2-2.9,3.1
		C241.4,66.4,242.9,67.4,244.5,67.4z M244.3,62c0.7,0,1.5,0.3,1.8,0.8v3.4c-0.5,0.4-1.1,0.5-1.6,0.5c-1.2,0-2.3-0.8-2.3-2.2
		C242.2,62.9,243,62,244.3,62z"/>
	<path class="st4" d="M253.4,67.4c1.1,0,2-0.3,2.5-0.8v-3.1c0-1.3-0.5-2.2-2.3-2.2c-0.9,0-1.5,0.2-1.9,0.4l0.3,0.6
		c0.2-0.1,0.8-0.3,1.6-0.3c1,0,1.6,0.5,1.6,1.3v0.8c-0.4-0.5-1.2-0.6-1.8-0.6c-1,0-2.4,0.6-2.4,1.9C251,66.4,251.7,67.4,253.4,67.4z
		 M253.4,64.1c0.8,0,1.4,0.4,1.7,0.7v1.5c-0.4,0.3-0.9,0.5-1.7,0.5c-0.9,0-1.7-0.5-1.7-1.4C251.8,64.5,252.7,64.1,253.4,64.1z"/>
	<polygon class="st4" points="260.8,67.2 261.6,67.2 261.6,62.2 263,62.2 263,61.5 261.6,61.5 261.6,59.5 260.8,59.5 260.8,61.5 
		259.8,61.5 259.8,62.2 260.8,62.2 	"/>
	<path class="st4" d="M266.6,67.4c1.1,0,2-0.4,2.4-1l-0.4-0.5c-0.3,0.3-0.9,0.8-1.8,0.8c-1.4,0-2.3-0.9-2.3-2.3h4.7v-0.2
		c0-1.5-0.8-2.9-2.6-2.9c-1.8,0-2.9,1.3-2.9,3C263.6,66.2,264.9,67.4,266.6,67.4z M266.5,62c1.1,0,1.7,0.8,1.8,1.8h-3.9
		C264.6,62.6,265.5,62,266.5,62z"/>
	<path class="st4" d="M272.4,67.4c1.1,0,2-0.3,2.5-0.8v-3.1c0-1.3-0.5-2.2-2.3-2.2c-0.9,0-1.5,0.2-1.9,0.4l0.3,0.6
		c0.2-0.1,0.8-0.3,1.6-0.3c1,0,1.6,0.5,1.6,1.3v0.8c-0.4-0.5-1.2-0.6-1.8-0.6c-1,0-2.4,0.6-2.4,1.9C270,66.4,270.8,67.4,272.4,67.4z
		 M272.5,64.1c0.8,0,1.4,0.4,1.7,0.7v1.5c-0.4,0.3-0.9,0.5-1.7,0.5c-0.9,0-1.7-0.5-1.7-1.4C270.8,64.5,271.7,64.1,272.5,64.1z"/>
	<path class="st4" d="M277.4,62.8c0.2-0.3,0.9-0.8,1.6-0.8c0.8,0,1.3,0.4,1.3,1.4v3.7h0.8v-3.8c0-0.2,0-0.3,0-0.5
		c0.3-0.3,0.9-0.8,1.7-0.8c0.8,0,1.3,0.4,1.3,1.4v3.7h0.8v-3.8c0-1.4-0.7-2.1-1.8-2.1c-0.9,0-1.7,0.5-2.1,0.9
		c-0.3-0.5-0.7-0.9-1.6-0.9c-0.9,0-1.6,0.5-1.9,0.8v-0.6h-0.8v5.7h0.8V62.8z"/>
	<path class="st4" d="M287.3,62.8c0.2-0.3,0.9-0.8,1.6-0.8c0.8,0,1.3,0.4,1.3,1.4v3.7h0.8v-3.8c0-0.2,0-0.3,0-0.5
		c0.3-0.3,0.9-0.8,1.7-0.8c0.8,0,1.3,0.4,1.3,1.4v3.7h0.8v-3.8c0-1.4-0.7-2.1-1.8-2.1c-0.9,0-1.7,0.5-2.1,0.9
		c-0.3-0.5-0.7-0.9-1.6-0.9c-0.9,0-1.6,0.5-1.9,0.8v-0.6h-0.8v5.7h0.8V62.8z"/>
	<path class="st4" d="M298.4,67.4c1.1,0,2-0.3,2.5-0.8v-3.1c0-1.3-0.5-2.2-2.3-2.2c-0.9,0-1.5,0.2-1.9,0.4l0.3,0.6
		c0.2-0.1,0.8-0.3,1.6-0.3c1,0,1.6,0.5,1.6,1.3v0.8c-0.4-0.5-1.2-0.6-1.8-0.6c-1,0-2.4,0.6-2.4,1.9
		C295.9,66.4,296.7,67.4,298.4,67.4z M298.4,64.1c0.8,0,1.4,0.4,1.7,0.7v1.5c-0.4,0.3-0.9,0.5-1.7,0.5c-0.9,0-1.7-0.5-1.7-1.4
		C296.8,64.5,297.7,64.1,298.4,64.1z"/>
	<polygon class="st4" points="303,67.2 303.8,67.2 303.8,62.2 305.2,62.2 305.2,61.5 303.8,61.5 303.8,59.5 303,59.5 303,61.5 
		301.9,61.5 301.9,62.2 303,62.2 	"/>
	<path class="st4" d="M308.7,67.4c1.1,0,2-0.4,2.4-1l-0.4-0.5c-0.3,0.3-0.9,0.8-1.8,0.8c-1.4,0-2.3-0.9-2.3-2.3h4.7v-0.2
		c0-1.5-0.8-2.9-2.6-2.9c-1.8,0-2.9,1.3-2.9,3C305.7,66.2,307,67.4,308.7,67.4z M308.6,62c1.1,0,1.7,0.8,1.8,1.8h-3.9
		C306.7,62.6,307.6,62,308.6,62z"/>
</g>
</svg>
