<?xml version="1.0" encoding="utf-8"?>
<!-- Generator: Adobe Illustrator 21.0.0, SVG Export Plug-In . SVG Version: 6.00 Build 0)  -->
<!DOCTYPE svg PUBLIC "-//W3C//DTD SVG 1.1//EN" "http://www.w3.org/Graphics/SVG/1.1/DTD/svg11.dtd">
<svg version="1.1" id="Layer_1" xmlns="http://www.w3.org/2000/svg" xmlns:xlink="http://www.w3.org/1999/xlink" x="0px" y="0px"
	 viewBox="0 0 958.5 256.2" style="enable-background:new 0 0 958.5 256.2;" xml:space="preserve">
<style type="text/css">
	.st0{fill:#C9C6C7;}
</style>
<g>
	<path id="path3024_2_" class="st0" d="M437.1,124.9h-53.5c-1.4,0-2.5,1.1-2.5,2.5v26.2c0,1.4,1.1,2.5,2.5,2.5h20.9v32.5
		c0,0-4.7,1.6-17.7,1.6c-15.3,0-36.7-5.6-36.7-52.6c0-47,22.2-53.2,43.1-53.2c18.1,0,25.9,3.2,30.8,4.7c1.6,0.5,3-1.1,3-2.5l6-25.3
		c0-0.6-0.2-1.4-1-2c-2-1.4-14.3-8.3-45.3-8.3c-35.7,0-72.4,15.2-72.4,88.3c0,73.1,42,84,77.3,84c29.3,0,47-12.5,47-12.5
		c0.7-0.4,0.8-1.4,0.8-1.9v-81.6C439.6,126.1,438.4,124.9,437.1,124.9"/>
	<path id="path3026_2_" class="st0" d="M713,60c0-1.4-1.1-2.5-2.5-2.5h-30.1c-1.4,0-2.5,1.1-2.5,2.5c0,0,0,58.3,0,58.3h-47V60
		c0-1.4-1.1-2.5-2.5-2.5h-30.1c-1.4,0-2.5,1.1-2.5,2.5v157.7c0,1.4,1.1,2.5,2.5,2.5h30.1c1.4,0,2.5-1.1,2.5-2.5v-67.5h47
		c0,0-0.1,67.5-0.1,67.5c0,1.4,1.1,2.5,2.5,2.5h30.2c1.4,0,2.5-1.1,2.5-2.5V60"/>
	<path id="path3028_2_" class="st0" d="M493.9,80.7c0-10.9-8.7-19.6-19.4-19.6c-10.7,0-19.4,8.8-19.4,19.6
		c0,10.8,8.7,19.6,19.4,19.6C485.2,100.3,493.9,91.5,493.9,80.7"/>
	<path id="path3030_2_" class="st0" d="M491.8,184.4c0-4,0-72.8,0-72.8c0-1.4-1.1-2.5-2.5-2.5h-30c-1.4,0-2.6,1.4-2.6,2.8
		c0,0,0,87.6,0,104.3c0,3.1,1.9,4,4.4,4c0,0,12.8,0,27.1,0c3,0,3.7-1.5,3.7-4C491.8,210.6,491.8,188.7,491.8,184.4"/>
	<path id="path3032_2_" class="st0" d="M827.5,109.3h-29.9c-1.4,0-2.5,1.1-2.5,2.5v77.3c0,0-7.6,5.6-18.4,5.6
		c-10.8,0-13.6-4.9-13.6-15.5c0-10.6,0-67.4,0-67.4c0-1.4-1.1-2.5-2.5-2.5h-30.4c-1.4,0-2.5,1.1-2.5,2.5c0,0,0,41.2,0,72.6
		c0,31.4,17.5,39,41.5,39c19.7,0,35.6-10.9,35.6-10.9s0.8,5.7,1.1,6.4c0.3,0.7,1.2,1.4,2.2,1.4l19.3-0.1c1.4,0,2.5-1.1,2.5-2.5
		l0-105.9C830,110.5,828.9,109.3,827.5,109.3"/>
	<path id="path3034_2_" class="st0" d="M897.5,194.7c-10.4-0.3-17.4-5-17.4-5v-49.9c0,0,6.9-4.3,15.5-5c10.8-1,21.2,2.3,21.2,28
		C916.7,189.8,912,195.1,897.5,194.7L897.5,194.7z M909.3,105.8c-17,0-28.5,7.6-28.5,7.6V60c0-1.4-1.1-2.5-2.5-2.5H848
		c-1.4,0-2.5,1.1-2.5,2.5v157.7c0,1.4,1.1,2.5,2.5,2.5c0,0,21,0,21,0c0.9,0,1.7-0.5,2.2-1.3c0.5-0.8,1.3-7.3,1.3-7.3
		s12.4,11.7,35.8,11.7c27.5,0,43.2-13.9,43.2-62.6C951.4,112.1,926.3,105.8,909.3,105.8"/>
	<path id="path3036_2_" class="st0" d="M578.4,109.1h-22.6c0,0,0-29.9,0-29.9c0-1.1-0.6-1.7-1.9-1.7h-30.8c-1.2,0-1.8,0.5-1.8,1.7
		v30.9c0,0-15.4,3.7-16.5,4c-1,0.3-1.8,1.3-1.8,2.4v19.4c0,1.4,1.1,2.5,2.5,2.5h15.8c0,0,0,20.3,0,46.7c0,34.7,24.3,38.1,40.7,38.1
		c7.5,0,16.5-2.4,17.9-3c0.9-0.3,1.4-1.3,1.4-2.3l0-21.3c0-1.4-1.2-2.5-2.5-2.5c-1.3,0-4.7,0.5-8.2,0.5c-11.1,0-14.9-5.2-14.9-11.8
		c0-6.7,0-44.3,0-44.3h22.6c1.4,0,2.5-1.1,2.5-2.5v-24.3C580.9,110.2,579.8,109.1,578.4,109.1"/>
</g>
<g>
	<path class="st0" d="M240,68.5c-11.2-19.1-26.3-34.3-45.4-45.4c-19.1-11.2-40-16.7-62.7-16.7c-22.7,0-43.6,5.6-62.7,16.7
		C50.1,34.2,34.9,49.4,23.8,68.5C12.6,87.6,7,108.5,7,131.2c0,27.2,7.9,51.7,23.8,73.4c15.9,21.7,36.4,36.8,61.5,45.1
		c2.9,0.5,5.1,0.2,6.5-1.1c1.4-1.3,2.1-2.9,2.1-4.9c0-0.3,0-3.3-0.1-8.8c-0.1-5.5-0.1-10.4-0.1-14.5l-3.7,0.6
		c-2.4,0.4-5.4,0.6-9,0.6c-3.6-0.1-7.4-0.4-11.3-1.1c-3.9-0.7-7.5-2.3-10.9-4.9c-3.4-2.5-5.7-5.9-7.2-10l-1.6-3.7
		c-1.1-2.5-2.8-5.3-5.1-8.3c-2.3-3-4.7-5.1-7.1-6.2l-1.1-0.8c-0.8-0.5-1.5-1.2-2.1-2c-0.7-0.8-1.1-1.5-1.5-2.3
		c-0.3-0.8-0.1-1.4,0.8-1.9c0.9-0.5,2.4-0.7,4.7-0.7l3.3,0.5c2.2,0.4,4.8,1.7,8,3.9c3.2,2.2,5.8,5,7.9,8.5c2.5,4.4,5.5,7.8,9,10.2
		c3.5,2.3,7.1,3.5,10.6,3.5c3.6,0,6.7-0.3,9.3-0.8c2.6-0.5,5-1.4,7.3-2.4c1-7.3,3.6-12.8,8-16.7c-6.2-0.6-11.7-1.6-16.7-2.9
		c-4.9-1.3-10-3.4-15.3-6.3c-5.3-2.9-9.6-6.6-13.1-10.9c-3.5-4.3-6.3-10-8.5-17.1c-2.2-7-3.3-15.2-3.3-24.4
		c0-13.1,4.3-24.3,12.8-33.5c-4-9.9-3.6-20.9,1.1-33.2c3.1-1,7.8-0.2,14,2.2c6.2,2.4,10.7,4.5,13.6,6.3c2.9,1.7,5.2,3.2,6.9,4.4
		c10.1-2.8,20.5-4.2,31.2-4.2s21.1,1.4,31.2,4.2l6.2-3.9c4.2-2.6,9.2-5,15-7.2c5.7-2.2,10.1-2.8,13.2-1.8
		c4.9,12.2,5.3,23.3,1.3,33.2c8.6,9.2,12.8,20.4,12.8,33.5c0,9.2-1.1,17.4-3.3,24.5c-2.2,7.1-5.1,12.8-8.6,17.1
		c-3.5,4.3-7.9,7.9-13.2,10.8c-5.3,2.9-10.4,5-15.3,6.3c-4.9,1.3-10.5,2.3-16.7,2.9c5.6,4.9,8.5,12.6,8.5,23.1v34.3
		c0,1.9,0.7,3.6,2,4.9c1.4,1.3,3.5,1.7,6.4,1.1c25.2-8.3,45.7-23.4,61.5-45.1c15.9-21.7,23.8-46.2,23.8-73.4
		C256.8,108.5,251.2,87.6,240,68.5z"/>
</g>
</svg>
