<?xml version="1.0" encoding="utf-8"?>
<!-- Generator: Adobe Illustrator 21.0.0, SVG Export Plug-In . SVG Version: 6.00 Build 0)  -->
<!DOCTYPE svg PUBLIC "-//W3C//DTD SVG 1.1//EN" "http://www.w3.org/Graphics/SVG/1.1/DTD/svg11.dtd">
<svg version="1.1" id="Layer_1" xmlns="http://www.w3.org/2000/svg" xmlns:xlink="http://www.w3.org/1999/xlink" x="0px" y="0px"
	 viewBox="0 0 366.6 199.8" style="enable-background:new 0 0 366.6 199.8;" xml:space="preserve">
<style type="text/css">
	.st0{fill:#7E6E7A;}
	.st1{fill:#FFFFFF;}
	.st2{fill:#C9C6C7;}
</style>
<g>
	<g>
		<rect y="27.4" class="st0" width="366.6" height="172.4"/>
	</g>
	<g>
		<rect class="st0" width="366.6" height="27.7"/>
	</g>
	<g>
		<polygon class="st1" points="316.1,60.7 273.3,91.8 241.2,84 215.9,107.6 185.4,77.6 155.3,103.7 134.6,113.6 110.6,97.7 
			79.7,119.8 51.6,140.2 53.2,165.2 316.1,165.2 		"/>
	</g>
	<g>
		<path class="st1" d="M48.6,21.2v-8.7h-3.1v-1.8h8.1v1.8h-3.1v8.7H48.6z"/>
		<path class="st1" d="M58.1,14.1h1.8v6.3c-0.8,0.7-1.9,1-3.2,1c-1.9,0-3.2-0.9-3.2-2.7v-4.5h1.8v4.1c0,1.4,0.8,1.7,1.6,1.7
			c0.6,0,1-0.2,1.2-0.3V14.1z"/>
		<path class="st1" d="M61.7,21.2v-7.1h1.8v1.1c0.2-0.4,0.7-1.3,1.5-1.3c0.6,0,1,0.2,1.3,0.3L65.7,16c-0.2-0.2-0.5-0.4-1-0.4
			c-0.8,0-1.2,1-1.2,1.7v3.9H61.7z"/>
		<path class="st1" d="M67,11.8c0-0.7,0.5-1.1,1.1-1.1c0.7,0,1.1,0.5,1.1,1.1c0,0.7-0.5,1.1-1.1,1.1C67.5,12.9,67,12.5,67,11.8z
			 M67.3,21.2v-7.1h1.8v7.1H67.3z"/>
		<path class="st1" d="M75.4,21.2v-3.8c0-1.2-0.2-1.9-1.2-1.9c-0.6,0-1.3,0.5-1.5,0.8v4.9h-1.8v-7.1h1.8v0.7
			c0.3-0.3,1.2-0.9,2.2-0.9c1.5,0,2.3,0.8,2.3,2.5v4.7H75.4z"/>
		<path class="st1" d="M83.7,20.6c-0.4,0.5-1.2,0.8-1.8,0.8c-1.7,0-3.3-1.4-3.3-3.7c0-2.4,1.9-3.7,3.9-3.7c1.5,0,2.3,0.3,3,0.7v6.9
			c0,2.7-1.8,3.4-3.4,3.4c-1.6,0-2.8-0.6-3.3-0.9l0.7-1.3c0.3,0.2,1.2,0.7,2.5,0.7c0.9,0,1.7-0.5,1.7-1.7V20.6z M83.7,15.6
			c-0.3-0.1-0.7-0.2-1.1-0.2c-1.1,0-2.1,0.6-2.1,2.2c0,1,0.5,2.3,1.7,2.3c0.7,0,1.2-0.4,1.5-0.8V15.6z"/>
		<path class="st1" d="M90.6,18.5l0.2-1.5h3.8l-0.2,1.5H90.6z"/>
		<path class="st1" d="M100.2,18.5c0.5,0.5,1.5,1.1,2.7,1.1c1.1,0,1.6-0.5,1.6-1.3c0-2.2-4.6-1.9-4.6-5.1c0-1.9,1.7-2.9,3.4-2.9
			c1.6,0,2.8,1,3,1.2l-1,1.5c-0.5-0.5-1.3-0.9-2-0.9c-0.7,0-1.4,0.3-1.4,1c0,1.8,4.7,1.4,4.7,5.1c0,1.6-1.4,3.1-3.9,3.1
			c-1.5,0-3-0.9-3.6-1.5L100.2,18.5z"/>
		<path class="st1" d="M112.5,21.2v-3.8c0-1.2-0.2-1.9-1.2-1.9c-0.6,0-1.3,0.5-1.5,0.8v4.9h-1.8v-7.1h1.8v0.7
			c0.3-0.3,1.2-0.9,2.2-0.9c1.5,0,2.3,0.8,2.3,2.5v4.7H112.5z"/>
		<path class="st1" d="M121.9,20.5c-0.5,0.4-1.6,0.9-3.2,0.9c-2.2,0-3.2-1.2-3.2-2.6c0-1.6,1.5-2.2,2.9-2.2c0.5,0,1.4,0.2,1.8,0.5
			v-0.7c0-0.6-0.4-1-1.4-1c-0.9,0-1.7,0.3-2,0.4l-0.5-1.3c0.6-0.3,1.5-0.6,2.6-0.6c2.4,0,3,1.1,3,2.9V20.5z M120.2,18.4
			c-0.3-0.2-0.9-0.5-1.5-0.5c-0.7,0-1.3,0.3-1.3,1c0,0.7,0.6,1.2,1.4,1.2c0.6,0,1-0.1,1.3-0.3V18.4z"/>
		<path class="st1" d="M123.5,24.7v-10c1-0.5,2.2-0.8,3.2-0.8c2,0,3.8,1.2,3.8,3.7c0,2-1.2,3.7-3.4,3.7c-0.6,0-1.3-0.3-1.8-0.6v3.9
			H123.5z M125.3,19.1c0.5,0.7,1,0.8,1.6,0.8c0.9,0,1.7-0.9,1.7-2.2c0-1.3-0.8-2.2-2.1-2.2c-0.4,0-0.9,0.1-1.2,0.3V19.1z"/>
		<path class="st1" d="M131.8,19.2c0.4,0.4,1.3,0.8,2,0.8c0.4,0,0.9-0.2,0.9-0.8c0-0.9-3-1.4-3-3.3c0-1.1,1-2.1,2.5-2.1
			c1.3,0,2.1,0.5,2.4,0.8l-0.7,1.2c-0.1-0.1-0.8-0.7-1.5-0.7c-0.5,0-0.9,0.2-0.9,0.6c0,1.1,3,1.3,3,3.3c0,1.4-1,2.2-2.7,2.2
			c-1.3,0-2.2-0.5-2.7-0.9L131.8,19.2z"/>
		<path class="st1" d="M147.1,20.5c-0.5,0.4-1.6,0.9-3.2,0.9c-2.2,0-3.2-1.2-3.2-2.6c0-1.6,1.5-2.2,2.9-2.2c0.5,0,1.4,0.2,1.8,0.5
			v-0.7c0-0.6-0.4-1-1.4-1c-0.9,0-1.7,0.3-2,0.4l-0.5-1.3c0.6-0.3,1.5-0.6,2.6-0.6c2.4,0,3,1.1,3,2.9V20.5z M145.4,18.4
			c-0.3-0.2-0.9-0.5-1.5-0.5c-0.7,0-1.3,0.3-1.3,1c0,0.7,0.6,1.2,1.4,1.2c0.6,0,1-0.1,1.3-0.3V18.4z"/>
		<path class="st1" d="M154.7,21.3l-1.5-3.9l-1.5,3.9h-0.9l-3-7.2h1.9l1.6,4.2l1.7-4.1h0.3l1.7,4.2l1.7-4.2h1.9l-3,7.2H154.7z"/>
		<path class="st1" d="M165.1,20.5c-0.5,0.4-1.6,0.9-3.2,0.9c-2.2,0-3.2-1.2-3.2-2.6c0-1.6,1.5-2.2,2.9-2.2c0.5,0,1.4,0.2,1.8,0.5
			v-0.7c0-0.6-0.4-1-1.4-1c-0.9,0-1.7,0.3-2,0.4l-0.5-1.3c0.6-0.3,1.5-0.6,2.6-0.6c2.4,0,3,1.1,3,2.9V20.5z M163.4,18.4
			c-0.3-0.2-0.9-0.5-1.5-0.5c-0.7,0-1.3,0.3-1.3,1c0,0.7,0.6,1.2,1.4,1.2c0.6,0,1-0.1,1.3-0.3V18.4z"/>
		<path class="st1" d="M166.8,21.2v-7.1h1.8v1.1c0.2-0.4,0.7-1.3,1.5-1.3c0.6,0,1,0.2,1.3,0.3l-0.6,1.7c-0.2-0.2-0.5-0.4-1-0.4
			c-0.8,0-1.2,1-1.2,1.7v3.9H166.8z"/>
		<path class="st1" d="M176.9,9.8h1.8v10.7c-1,0.6-2.1,0.9-3.1,0.9c-2,0-3.9-1.3-3.9-3.7c0-2.3,1.5-3.8,3.7-3.8
			c0.5,0,1.1,0.1,1.5,0.4V9.8z M176.9,16c-0.3-0.3-0.9-0.5-1.4-0.5c-1.1,0-1.9,1-1.9,2.3c0,1.3,0.9,2.2,2,2.2c0.4,0,0.9-0.1,1.3-0.3
			V16z"/>
		<path class="st1" d="M187,20.5c-0.4,0.3-1.5,0.9-3,0.9c-2.3,0-3.9-1.5-3.9-3.7c0-2.2,1.6-3.8,3.8-3.8c2.3,0,3.4,1.7,3.4,3.7v0.7
			h-5.4c0.2,1.3,1.4,1.6,2.5,1.6c1.1,0,1.8-0.4,2.1-0.7L187,20.5z M185.4,17c0-0.9-0.6-1.7-1.6-1.7c-1,0-1.8,0.6-2,1.7H185.4z"/>
		<path class="st1" d="M193.4,9.8h1.8v10.7c-1,0.6-2.1,0.9-3.1,0.9c-2,0-3.9-1.3-3.9-3.7c0-2.3,1.5-3.8,3.7-3.8
			c0.5,0,1.1,0.1,1.5,0.4V9.8z M193.4,16c-0.3-0.3-0.9-0.5-1.4-0.5c-1.1,0-1.9,1-1.9,2.3c0,1.3,0.9,2.2,2,2.2c0.4,0,0.9-0.1,1.3-0.3
			V16z"/>
		<path class="st1" d="M203.6,18.5l0.2-1.5h3.8l-0.2,1.5H203.6z"/>
		<path class="st1" d="M213,21.2V10.7h2v8.7h4.4v1.8H213z"/>
		<path class="st1" d="M228.2,21.2l-0.9-1.9h-4.7l-0.9,1.9h-2.2l5.5-10.9l5.5,10.9H228.2z M224.9,14.3l-1.6,3.3h3.2L224.9,14.3z"/>
		<path class="st1" d="M231.5,18.5c0.5,0.5,1.5,1.1,2.7,1.1c1.1,0,1.6-0.5,1.6-1.3c0-2.2-4.6-1.9-4.6-5.1c0-1.9,1.7-2.9,3.4-2.9
			c1.6,0,2.8,1,3,1.2l-1,1.5c-0.5-0.5-1.3-0.9-2-0.9c-0.7,0-1.4,0.3-1.4,1c0,1.8,4.7,1.4,4.7,5.1c0,1.6-1.4,3.1-3.9,3.1
			c-1.5,0-3-0.9-3.6-1.5L231.5,18.5z"/>
		<path class="st1" d="M241.8,21.2v-8.7h-3.1v-1.8h8.1v1.8h-3.1v8.7H241.8z"/>
		<path class="st1" d="M252.9,21.2V13l-1.8,0.5l-0.5-1.4l4.2-1.6v10.7H252.9z"/>
		<path class="st1" d="M261.3,15.4c1.3,0.6,1.9,1.8,1.9,3c0,1.5-1.4,3-3.8,3c-1.7,0-2.8-0.8-3.1-1.1l0.8-1.3
			c0.3,0.3,1.3,0.9,2.3,0.9c1.3,0,1.9-0.9,1.9-1.7c0-1.2-1-2.1-2.5-2.1c-0.1,0-0.3,0-0.4,0v-1.1c0.2,0,0.3,0,0.5,0
			c1.2,0,2-0.8,2-1.6c0-0.8-0.5-1.2-1.4-1.2c-0.5,0-1.3,0.3-1.6,0.5l-0.6-1.3c0.3-0.3,1.4-0.8,2.5-0.8c1.8,0,2.9,1.4,2.9,2.5
			C262.8,13.9,262.5,14.8,261.3,15.4L261.3,15.4z"/>
		<path class="st1" d="M274.7,14.7l-3.2,7l-4.5-11h2.2l2.4,6.4l3.1-6.9l3.1,6.8l2.4-6.4h2.2l-4.4,11L274.7,14.7z"/>
		<path class="st1" d="M283.4,21.2V10.7h6.2v1.8h-4.3v2.3h3.4v1.8h-3.4v2.8h4.7v1.8H283.4z"/>
		<path class="st1" d="M291.7,21.2V10.7h6.2v1.8h-4.3v2.3h3.4v1.8h-3.4v2.8h4.7v1.8H291.7z"/>
		<path class="st1" d="M306.4,21.2l-4.4-4v4h-2V10.7h2v4l3.8-4h2.5l-5.1,5.1l6.1,5.4H306.4z"/>
		<path class="st1" d="M310.1,18.5c0.5,0.5,1.5,1.1,2.7,1.1c1.1,0,1.6-0.5,1.6-1.3c0-2.2-4.6-1.9-4.6-5.1c0-1.9,1.7-2.9,3.4-2.9
			c1.6,0,2.8,1,3,1.2l-1,1.5c-0.5-0.5-1.3-0.9-2-0.9c-0.7,0-1.4,0.3-1.4,1c0,1.8,4.7,1.4,4.7,5.1c0,1.6-1.4,3.1-3.9,3.1
			c-1.5,0-3-0.9-3.6-1.5L310.1,18.5z"/>
	</g>
	<g>
		<path class="st2" d="M294.9,180.5v-4.2h-0.9v-0.6h0.9V174h0.7v1.7h1.2v0.6h-1.2v4.2H294.9z"/>
		<path class="st2" d="M301,180.5v-2.8c0-1-0.3-1.5-1.3-1.5c-0.7,0-1.2,0.4-1.4,0.6v3.6h-0.7v-8.1h0.7v3.9c0.3-0.2,0.8-0.6,1.6-0.6
			c1.1,0,1.7,0.5,1.7,1.8v3.1H301z"/>
		<path class="st2" d="M303.4,174.8c-0.3,0-0.5-0.2-0.5-0.5c0-0.3,0.2-0.5,0.5-0.5c0.3,0,0.5,0.2,0.5,0.5
			C303.9,174.6,303.7,174.8,303.4,174.8z M303.1,180.5v-4.8h0.7v4.8H303.1z"/>
		<path class="st2" d="M305.1,179.5c0.2,0.3,0.7,0.6,1.3,0.6c0.6,0,1-0.3,1-0.9c0-1.1-2.3-1-2.3-2.3c0-0.7,0.6-1.3,1.5-1.3
			c0.6,0,1.2,0.3,1.4,0.6l-0.3,0.5c-0.1-0.1-0.6-0.5-1.1-0.5c-0.6,0-0.8,0.4-0.8,0.7c0,0.9,2.3,0.8,2.3,2.3c0,0.9-0.7,1.5-1.7,1.5
			c-0.8,0-1.4-0.4-1.7-0.7L305.1,179.5z"/>
		<path class="st2" d="M315.9,180.6l-1.4-3.6l-1.4,3.6h-0.2l-1.9-4.9h0.7l1.4,3.6l1.4-3.7h0.1l1.4,3.7l1.4-3.6h0.7l-1.9,4.9H315.9z"
			/>
		<path class="st2" d="M322.9,179.8c-0.3,0.4-1,0.8-2,0.8c-1.4,0-2.5-1-2.5-2.5c0-1.5,1-2.5,2.4-2.5c1.5,0,2.1,1.2,2.1,2.4v0.2h-3.9
			c0,1.2,0.8,1.9,1.9,1.9c0.8,0,1.3-0.4,1.5-0.6L322.9,179.8z M322.4,177.6c-0.1-0.8-0.6-1.5-1.5-1.5c-0.8,0-1.6,0.5-1.7,1.5H322.4z
			"/>
		<path class="st2" d="M328.3,179.8c-0.3,0.4-1,0.8-2,0.8c-1.4,0-2.5-1-2.5-2.5c0-1.5,1-2.5,2.4-2.5c1.5,0,2.1,1.2,2.1,2.4v0.2h-3.9
			c0,1.2,0.8,1.9,1.9,1.9c0.8,0,1.3-0.4,1.5-0.6L328.3,179.8z M327.8,177.6c-0.1-0.8-0.6-1.5-1.5-1.5c-0.8,0-1.6,0.5-1.7,1.5H327.8z
			"/>
		<path class="st2" d="M332.7,180.5l-2.4-2.4v2.4h-0.7v-8.1h0.7v5.3l1.9-2h0.8l-2.1,2.1l2.7,2.6H332.7z"/>
	</g>
	<g>
		<path class="st2" d="M28.1,150.6v-6.7l-1.2,0.5l-0.2-0.5l2.1-0.9v7.6H28.1z"/>
		<path class="st2" d="M30.6,146.8c0-1.6,0.4-3.8,2.5-3.8c2.2,0,2.6,2.2,2.6,3.8c0,1.6-0.4,3.8-2.6,3.8S30.6,148.4,30.6,146.8z
			 M35,146.8c0-1.2-0.2-3.2-1.9-3.2c-1.6,0-1.8,2-1.8,3.2c0,1.1,0.2,3.2,1.8,3.2C34.8,150,35,147.9,35,146.8z"/>
		<path class="st2" d="M37,146.8c0-1.6,0.4-3.8,2.5-3.8c2.2,0,2.6,2.2,2.6,3.8c0,1.6-0.4,3.8-2.6,3.8S37,148.4,37,146.8z
			 M41.4,146.8c0-1.2-0.2-3.2-1.9-3.2c-1.6,0-1.8,2-1.8,3.2c0,1.1,0.2,3.2,1.8,3.2C41.3,150,41.4,147.9,41.4,146.8z"/>
	</g>
	<g>
		<path class="st2" d="M26.7,130.9v-0.2c1-0.8,4.1-3.1,4.1-5.2c0-0.8-0.6-1.5-1.4-1.5c-0.7,0-1.3,0.5-1.6,0.8l-0.4-0.5
			c0.3-0.3,1-1,2-1c1.3,0,2.1,0.9,2.1,2.1c0,1.8-2.1,3.7-3.5,4.8l3.7,0v0.6H26.7z"/>
		<path class="st2" d="M33,127.2c0-1.6,0.4-3.8,2.5-3.8c2.2,0,2.6,2.2,2.6,3.8c0,1.6-0.4,3.8-2.6,3.8S33,128.8,33,127.2z
			 M37.4,127.2c0-1.2-0.2-3.2-1.9-3.2c-1.6,0-1.8,2-1.8,3.2c0,1.1,0.2,3.2,1.8,3.2C37.2,130.4,37.4,128.3,37.4,127.2z"/>
		<path class="st2" d="M39.4,127.2c0-1.6,0.4-3.8,2.5-3.8c2.2,0,2.6,2.2,2.6,3.8c0,1.6-0.4,3.8-2.6,3.8S39.4,128.8,39.4,127.2z
			 M43.8,127.2c0-1.2-0.2-3.2-1.9-3.2c-1.6,0-1.8,2-1.8,3.2c0,1.1,0.2,3.2,1.8,3.2C43.7,130.4,43.8,128.3,43.8,127.2z"/>
	</g>
	<g>
		<path class="st2" d="M27.1,110.1c0.1,0.2,0.8,0.7,1.7,0.7c1.2,0,1.8-0.8,1.8-1.6c0-0.9-0.8-1.9-2.2-1.9V107
			c1.3-0.1,1.9-0.8,1.9-1.5c0-0.6-0.5-1.1-1.3-1.1c-0.4,0-0.9,0.2-1.3,0.4l-0.2-0.5c0.2-0.2,0.8-0.5,1.6-0.5c1.2,0,1.9,0.9,1.9,1.7
			c0,0.6-0.3,1.3-1.2,1.7v0c1,0.4,1.5,1.3,1.5,2.1c0,1.1-0.9,2.1-2.5,2.1c-1.2,0-1.8-0.6-2-0.8L27.1,110.1z"/>
		<path class="st2" d="M32.6,107.6c0-1.6,0.4-3.8,2.5-3.8c2.2,0,2.6,2.2,2.6,3.8c0,1.6-0.4,3.8-2.6,3.8S32.6,109.2,32.6,107.6z
			 M37,107.6c0-1.2-0.2-3.2-1.9-3.2c-1.6,0-1.8,2-1.8,3.2c0,1.1,0.2,3.2,1.8,3.2C36.8,110.8,37,108.6,37,107.6z"/>
		<path class="st2" d="M39.1,107.6c0-1.6,0.4-3.8,2.5-3.8c2.2,0,2.6,2.2,2.6,3.8c0,1.6-0.4,3.8-2.6,3.8S39.1,109.2,39.1,107.6z
			 M43.5,107.6c0-1.2-0.2-3.2-1.9-3.2c-1.6,0-1.8,2-1.8,3.2c0,1.1,0.2,3.2,1.8,3.2C43.3,110.8,43.5,108.6,43.5,107.6z"/>
	</g>
	<g>
		<path class="st2" d="M30.4,91.7v-1.5h-3.7V90l4.3-6h0.1v5.6h1v0.6h-1v1.5H30.4z M30.4,85.7l-2.7,3.9h2.7V85.7z"/>
		<path class="st2" d="M33.3,87.9c0-1.6,0.4-3.8,2.5-3.8c2.2,0,2.6,2.2,2.6,3.8c0,1.6-0.4,3.8-2.6,3.8S33.3,89.5,33.3,87.9z
			 M37.7,87.9c0-1.2-0.2-3.2-1.9-3.2c-1.6,0-1.8,2-1.8,3.2c0,1.1,0.2,3.2,1.8,3.2C37.5,91.1,37.7,89,37.7,87.9z"/>
		<path class="st2" d="M39.7,87.9c0-1.6,0.4-3.8,2.5-3.8c2.2,0,2.6,2.2,2.6,3.8c0,1.6-0.4,3.8-2.6,3.8
			C40.1,91.8,39.7,89.5,39.7,87.9z M44.1,87.9c0-1.2-0.2-3.2-1.9-3.2c-1.6,0-1.8,2-1.8,3.2c0,1.1,0.2,3.2,1.8,3.2
			C44,91.1,44.1,89,44.1,87.9z"/>
	</g>
	<g>
		<path class="st2" d="M27,71c0.5,0.3,1,0.5,1.6,0.5c1.4,0,2-0.9,2-1.9c0-0.9-0.6-1.8-2-1.8c-0.4,0-0.7,0.1-1.2,0.2l1-3.5h2.7
			L31,65.2h-2.1l-0.6,2.2c0.2,0,0.4,0,0.6,0c1.4,0,2.5,0.9,2.5,2.3c0,1.3-0.9,2.5-2.6,2.5c-0.9,0-1.7-0.4-1.9-0.6L27,71z"/>
		<path class="st2" d="M32.6,68.3c0-1.6,0.4-3.8,2.5-3.8c2.2,0,2.6,2.2,2.6,3.8c0,1.6-0.4,3.8-2.6,3.8S32.6,69.9,32.6,68.3z
			 M37,68.3c0-1.2-0.2-3.2-1.9-3.2c-1.6,0-1.8,2-1.8,3.2c0,1.1,0.2,3.2,1.8,3.2C36.8,71.5,37,69.4,37,68.3z"/>
		<path class="st2" d="M39.1,68.3c0-1.6,0.4-3.8,2.5-3.8c2.2,0,2.6,2.2,2.6,3.8c0,1.6-0.4,3.8-2.6,3.8S39.1,69.9,39.1,68.3z
			 M43.5,68.3c0-1.2-0.2-3.2-1.9-3.2c-1.6,0-1.8,2-1.8,3.2c0,1.1,0.2,3.2,1.8,3.2C43.3,71.5,43.5,69.4,43.5,68.3z"/>
	</g>
	<g>
		<path class="st2" d="M30.4,45.2c-0.5,0.5-1.5,1.8-2.1,2.9c0.3-0.3,0.9-0.4,1.2-0.4c1.4,0,2.5,1.1,2.5,2.4c0,1.2-1,2.3-2.5,2.3
			c-1.4,0-2.5-1.1-2.5-2.3c0-1.9,2.2-4.6,2.9-5.4L30.4,45.2z M29.5,48.4c-1,0-1.7,0.8-1.7,1.8c0,0.9,0.8,1.7,1.8,1.7
			c1,0,1.7-0.8,1.7-1.7C31.2,49.2,30.5,48.4,29.5,48.4z"/>
		<path class="st2" d="M33.1,48.7c0-1.6,0.4-3.8,2.5-3.8c2.2,0,2.6,2.2,2.6,3.8c0,1.6-0.4,3.8-2.6,3.8S33.1,50.3,33.1,48.7z
			 M37.5,48.7c0-1.2-0.2-3.2-1.9-3.2c-1.6,0-1.8,2-1.8,3.2c0,1.1,0.2,3.2,1.8,3.2C37.3,51.9,37.5,49.8,37.5,48.7z"/>
		<path class="st2" d="M39.6,48.7c0-1.6,0.4-3.8,2.5-3.8c2.2,0,2.6,2.2,2.6,3.8c0,1.6-0.4,3.8-2.6,3.8S39.6,50.3,39.6,48.7z
			 M44,48.7c0-1.2-0.2-3.2-1.9-3.2c-1.6,0-1.8,2-1.8,3.2c0,1.1,0.2,3.2,1.8,3.2C43.8,51.9,44,49.8,44,48.7z"/>
	</g>
	<g>
		<rect x="56" y="162.4" class="st2" width="260.1" height="5.6"/>
	</g>
	<g>
		
			<rect x="-7.3" y="104.7" transform="matrix(-1.836970e-16 1 -1 -1.836970e-16 160.6469 54.1807)" class="st2" width="121.1" height="5.5"/>
	</g>
</g>
</svg>
