<?xml version="1.0" encoding="utf-8"?>
<!-- Generator: Adobe Illustrator 21.0.0, SVG Export Plug-In . SVG Version: 6.00 Build 0)  -->
<!DOCTYPE svg PUBLIC "-//W3C//DTD SVG 1.1//EN" "http://www.w3.org/Graphics/SVG/1.1/DTD/svg11.dtd">
<svg version="1.1" id="Layer_1" xmlns="http://www.w3.org/2000/svg" xmlns:xlink="http://www.w3.org/1999/xlink" x="0px" y="0px"
	 viewBox="0 0 300 300" style="enable-background:new 0 0 300 300;" xml:space="preserve">
<style type="text/css">
	.st0{fill:#7E6E7A;}
</style>
<path class="st0" d="M298.6,68.9v89.9c0,0-19.3,3.8-23.2,4.3c-4,0.5-16.3,4.5-25.3-4.2c-13.9-13.3-63.2-62.4-63.2-62.4
	s-8.5-8.4-22.2-1.2c-12.6,6.6-31.1,16.3-38.8,20.1c-14.7,7.9-26.8-4.6-26.8-14c0-7.3,4.6-12.2,11.1-15.9
	c17.7-10.7,55-31.6,70.6-39.9c9.4-5,16.2-5.4,29.2,5.4c16,13.4,30.1,25.6,30.1,25.6s4.6,3.9,12,2.3
	C270.1,75.3,298.6,68.9,298.6,68.9L298.6,68.9z M102.3,221.2c2.4-6.2,1.6-13-3-17.7c-4.1-4.2-10.2-5.3-15.8-4
	c1.6-5.7,0.7-11.7-3.5-16c-4.1-4.2-10.2-5.3-15.8-4c1.6-5.7,0.7-11.7-3.5-16c-6.5-6.7-17.7-6.4-25,0.6c-7.3,7-12,19.8-5.4,27.2
	c6.5,7.4,14,2.9,19.8,1.6c-1.6,5.7-6.4,11-0.5,18.4s14,2.9,19.8,1.7c-1.6,5.7-6.2,11.4-0.5,18.3c5.7,6.9,15,3.2,21.1,1.4
	c-2.4,6.1-7.4,12.7-0.9,20.1c6.5,7.4,21.6,4,29-3c7.3-7,8.1-18.2,1.6-24.8C115.2,220.3,108.5,219.3,102.3,221.2L102.3,221.2z
	 M236.8,174.5c-53.3-53.3-28.2-28.2-56.8-56.9c0,0-8.6-8.6-20-3.6c-8,3.5-18.2,8.3-26,11.9c-8.5,4.4-14.6,5.9-17.5,5.8
	c-16.4-0.1-29.7-13.3-29.7-29.6c0-10.7,5.7-19.9,14-25.1c11.8-8.2,39-22.7,39-22.7s-8.3-10.5-26.5-10.5S57.3,68.7,57.3,68.7
	s-10.8,6.9-26.2,0.7L1.5,59.1v102.6c0,0,8.5,2.4,16,5.5c1.7-4.9,4.5-9.4,8.3-13.2c12.6-12,33.5-12.1,44.9-0.3
	c3.5,3.6,5.9,7.9,7.1,12.6c4.6,1.5,8.8,4,12.1,7.4c3.5,3.6,5.9,7.9,7.1,12.6c4.6,1.5,8.8,4,12.1,7.4c3.8,3.9,6.3,8.7,7.5,13.8
	c4.8,1.4,9.2,4,12.7,7.6c6.9,7.1,9.3,16.6,7.9,26l0,0c0.1,0.1,4.3,4.8,6.9,7.4c5.1,5.1,13.4,5.1,18.4,0c5-5.1,5.1-13.4,0-18.4
	c-0.2-0.2-4.9-5.3-3.5-6.7c1.5-1.5,11.2,8.7,11.6,9.1c5,5,13.4,5,18.4,0c5.1-5.1,5-13.4,0-18.4c-0.2-0.2-1.3-1.3-1.7-1.7
	c0,0-3.4-4.7-1.7-6.5c1.8-1.8,10.8,9.1,10.8,9.1c5.1,4.6,13,4.6,17.9-0.3c4.8-4.8,4.9-12.4,0.6-17.5c-0.1-0.3-6.7-7.2-5-8.9
	s8.2,4.7,8.2,4.7c5,5,13.4,5,18.4,0c5-5,5-13.4,0-18.4C236.9,174.5,236.8,174.5,236.8,174.5L236.8,174.5z"/>
</svg>
