<?xml version="1.0" encoding="utf-8"?>
<!-- Generator: Adobe Illustrator 21.0.0, SVG Export Plug-In . SVG Version: 6.00 Build 0)  -->
<!DOCTYPE svg PUBLIC "-//W3C//DTD SVG 1.1//EN" "http://www.w3.org/Graphics/SVG/1.1/DTD/svg11.dtd">
<svg version="1.1" id="Layer_1" xmlns="http://www.w3.org/2000/svg" xmlns:xlink="http://www.w3.org/1999/xlink" x="0px" y="0px"
	 viewBox="0 0 300 300" style="enable-background:new 0 0 300 300;" xml:space="preserve">
<style type="text/css">
	.st0{fill:#7E6E7A;}
	.st1{fill:#55465A;}
</style>
<g>
	<path class="st0" d="M13.7,147.9h77.8c1.7,0,3.1,0.9,3.9,2.2c2.5-9,10.3-15.3,20-15.3H195L171,114.6c-5.8-4.9-7.6-12.8-4.8-20.5
		c0.7-1.9,1.7-3.8,2.9-5.5l-59.6-50.4c-1.4-1.2-3-1.7-4.5-1.7c-8,0-16.9,12.9-10,18.8l39.3,33.3c2,1.7,0.8,5-1.8,5H32.9
		c-14.2,0-14.2,22.4,0,22.4h64.6c2.6,0,4.6,2.1,4.6,4.6v0.2c0,2.6-2.1,4.6-4.6,4.6H13.7C-1.2,125.5-1.2,147.9,13.7,147.9z"/>
	<path class="st0" d="M21.2,179.9h55.3c0.9-2.3,2.2-4.3,3.8-6.2c4-4.5,9.7-6.9,16-6.9h0.8c-1.6-3.1-2.5-6.7-2.5-10.5c0,0,0,0,0,0
		c-0.8,0.7-1.9,1.2-3.1,1.2H21.2C6.2,157.5,6.2,179.9,21.2,179.9z"/>
	<path class="st0" d="M84,211.9c0.6-1.6,1.5-3.1,2.4-4.5c-2.3-1.1-4.4-2.7-6.1-4.7c-3.2-3.6-5.1-8.3-5.3-13.3H35.3
		c-13,0-13,22.4,0,22.4H84z"/>
	<path class="st1" d="M297.5,204.2c0-21.2-11.2-39.9-27.9-50.4c-3.7-2.3-7.3-4.8-10.7-7.7l-66.8-56.5c-1.4-1.2-3-1.7-4.5-1.7
		c-8,0-16.9,12.9-10,18.8l39.3,33.3c2,1.7,0.8,5-1.8,5h-99.6c-14.2,0-14.2,22.4,0,22.4h64.6c2.6,0,4.6,2.1,4.6,4.6v0.2
		c0,2.6-2.1,4.6-4.6,4.6H96.4c-15,0-15,22.4,0,22.4h77.8c2.6,0,4.6,2.1,4.6,4.7l0,0.1l0,0.1c0,2.6-2.1,4.7-4.6,4.7h-70.4
		c-15,0-15,22.4,0,22.4h78.8c1.7,0,3.2,0.9,4,2.4c0,0,0,0.1,0.1,0.1c1.8,3.1-0.4,7-4,7H118c-13,0-13,22.4,0,22.4h114.4
		c1,0,1.9,0,2.9,0.1c1,0,1.9,0.1,2.9,0.1C270.9,263.5,297.5,237,297.5,204.2z"/>
</g>
</svg>
