<?xml version="1.0" encoding="utf-8"?>
<!-- Generator: Adobe Illustrator 21.0.0, SVG Export Plug-In . SVG Version: 6.00 Build 0)  -->
<!DOCTYPE svg PUBLIC "-//W3C//DTD SVG 1.1//EN" "http://www.w3.org/Graphics/SVG/1.1/DTD/svg11.dtd">
<svg version="1.1" id="Layer_1" xmlns="http://www.w3.org/2000/svg" xmlns:xlink="http://www.w3.org/1999/xlink" x="0px" y="0px"
	 viewBox="0 0 300 275" style="enable-background:new 0 0 300 275;" xml:space="preserve">
<style type="text/css">
	.st0{fill:#FFFFFF;}
	.st1{fill:#C9C6C7;}
	.st2{fill:#7E6E7A;}
</style>
<g>
	<path class="st0" d="M26.8,131.2c-0.1,2.1-0.2,4.2-0.2,6.3c0,22.9,6.9,44.1,18.7,61.9h185.8c11.8-17.7,18.7-39,18.7-61.9
		c0-2.1-0.1-4.2-0.2-6.3H26.8z M110.8,167.7c0,10.7-8.7,19.4-19.4,19.4S72,178.4,72,167.7c0-9.2,6.4-16.9,15-18.9
		c-3.6-1.9-7.4-3.6-11.2-5c18.8-2.1,36.2,9.6,41.4,27.4c-2.1-2.2-4.3-4.3-6.6-6.3C110.7,165.8,110.8,166.7,110.8,167.7z
		 M185.2,187.1c-10.7,0-19.4-8.7-19.4-19.4c0-1,0.1-1.9,0.2-2.8c-2.3,2-4.5,4.1-6.6,6.3c5.3-17.8,22.6-29.6,41.4-27.4
		c-3.8,1.5-7.6,3.2-11.2,5c8.6,2,15,9.7,15,18.9C204.6,178.4,195.9,187.1,185.2,187.1z"/>
	<path class="st1" d="M263.4,61l34.1-3l-5.8-18.1l-23.3,4.3l15.8-15.1L274,12.8l-23.7,27.3c-0.8-0.1-1.7-0.2-2.6-0.2
		c-4.2,0-8.1,1.6-11,4.3C212.1,18.1,177,1.7,138.3,1.7C63.4,1.7,2.5,62.6,2.5,137.5s60.9,135.8,135.8,135.8S274,212.4,274,137.5
		c0-24.4-6.5-47.4-17.8-67.2C259.6,68.2,262.2,64.9,263.4,61z M231.2,199.4H45.4c-11.8-17.7-18.7-39-18.7-61.9
		c0-2.1,0.1-4.2,0.2-6.3h223c0.1,2.1,0.2,4.2,0.2,6.3C249.9,160.4,243,181.6,231.2,199.4z"/>
	<path class="st2" d="M75.8,143.7c3.8,1.5,7.6,3.2,11.2,5c-8.6,2-15,9.7-15,18.9c0,10.7,8.7,19.4,19.4,19.4s19.4-8.7,19.4-19.4
		c0-1-0.1-1.9-0.2-2.8c2.3,2,4.5,4.1,6.6,6.3C111.9,153.3,94.6,141.6,75.8,143.7z"/>
	<path class="st2" d="M189.6,148.8c3.6-1.9,7.4-3.6,11.2-5c-18.8-2.1-36.2,9.6-41.4,27.4c2.1-2.2,4.3-4.3,6.6-6.3
		c-0.1,0.9-0.2,1.8-0.2,2.8c0,10.7,8.7,19.4,19.4,19.4s19.4-8.7,19.4-19.4C204.6,158.5,198.2,150.8,189.6,148.8z"/>
</g>
</svg>
