<?xml version="1.0" encoding="utf-8"?>
<!-- Generator: Adobe Illustrator 21.0.0, SVG Export Plug-In . SVG Version: 6.00 Build 0)  -->
<!DOCTYPE svg PUBLIC "-//W3C//DTD SVG 1.1//EN" "http://www.w3.org/Graphics/SVG/1.1/DTD/svg11.dtd">
<svg version="1.1" id="Layer_1" xmlns="http://www.w3.org/2000/svg" xmlns:xlink="http://www.w3.org/1999/xlink" x="0px" y="0px"
	 viewBox="0 0 300 300" style="enable-background:new 0 0 300 300;" xml:space="preserve">
<style type="text/css">
	.st0{fill:#55465A;}
	.st1{fill:#7E6E7A;}
</style>
<g>
	<path class="st0" d="M105.1,194.8c0-1.7-0.5-3.2-1.7-4.4c-1.3-1.3-3.1-2.1-4.9-2.1c-1.3,0-2.5,0.4-3.6,1.2c-1.9,1.4-4,2.1-6.2,2.1
		c-2.2,0-4.4-0.7-6.2-2c-2.9-2.1-5.7-4.4-8.4-6.8l-47.5,89.2l32.1,0.3l18.2,26.4l48-90.3c-4.3-0.9-8.5-2-12.6-3.4
		C107.9,203.5,105,199.4,105.1,194.8z"/>
	<path class="st0" d="M222.4,180.9c-3.3,3.1-6.8,6-10.4,8.6c-1.8,1.3-4,2-6.2,2c-2.2,0-4.4-0.7-6.2-2.1c-1.1-0.8-2.3-1.2-3.6-1.2
		c-1.8,0-3.6,0.8-4.9,2.1c-1.2,1.2-1.8,2.7-1.7,4.4c0.1,4.6-2.8,8.7-7.2,10.2c-3.3,1.1-6.7,2.1-10.1,2.8l52.8,86.4l16.6-27.5l32-2.2
		L222.4,180.9z"/>
	<path class="st1" d="M196,177.8c3.4,0,6.8,1,9.8,3.3c4.5-3.3,8.8-7,12.7-11c-6.6-11.4,2.1-25.4,14.6-25.4c1,0,2.1,0.1,3.2,0.3
		c2.4-4.9,4.5-10.1,6.1-15.5c-12.8-7.5-10.3-27.1,4.2-31c-0.1-5.6-0.7-11-1.7-16.3C229.3,82,222,62.4,234,52.2
		c-2.7-4.7-5.7-9.3-9.1-13.5c-2.7,1.5-5.6,2.2-8.3,2.2c-11.2,0-20.7-11.7-15.6-23.7v0c0,0,0-0.1,0-0.1c-4.5-2.9-9.3-5.5-14.3-7.6
		c0,0.1-0.1,0.1-0.1,0.2h0c-3.5,5.4-8.8,7.9-14.2,7.9c-8.2,0-16.3-5.8-17.1-15.6l0,0c0-0.1,0-0.2,0-0.3c-2.7-0.2-5.3-0.3-8.1-0.3
		c-2.7,0-5.4,0.1-8.1,0.3c0,0.1,0,0.2,0,0.3v0c-0.8,9.8-8.9,15.6-17.1,15.6c-5.3,0-10.7-2.5-14.2-7.9h0c0-0.1-0.1-0.1-0.1-0.2
		c-5,2.2-9.7,4.7-14.3,7.6c0,0,0,0.1,0,0.1l0,0c5.1,12-4.4,23.7-15.6,23.7c-2.7,0-5.6-0.7-8.3-2.2c-3.4,4.2-6.4,8.7-9.1,13.5
		C72.4,62.4,65.1,82,49.6,82.1c-1,5.3-1.6,10.8-1.7,16.3c14.5,3.9,17,23.5,4.2,31c1.6,5.4,3.7,10.5,6.1,15.5
		c1.1-0.2,2.1-0.3,3.2-0.3c12.5,0,21.2,14,14.6,25.4c3.9,4,8.2,7.7,12.7,11c3.1-2.3,6.5-3.3,9.8-3.3c8.9,0,17.4,7.2,17.2,17.2
		c5.3,1.8,10.8,3.1,16.5,4c3.1-6.1,9.1-9.2,15.1-9.2s12,3.1,15.1,9.2c5.7-0.9,11.2-2.2,16.5-4C178.6,185,187.1,177.8,196,177.8z
		 M147,152c-28.6,0-51.8-23.2-51.8-51.8s23.2-51.8,51.8-51.8s51.8,23.2,51.8,51.8S175.6,152,147,152z"/>
	<polygon class="st0" points="155.6,88.3 147,61.7 138.3,88.3 110.4,88.3 133,104.7 124.4,131.3 147,114.9 169.6,131.3 160.9,104.7 
		183.5,88.3 	"/>
</g>
</svg>
