<?xml version="1.0" encoding="utf-8"?>
<!-- Generator: Adobe Illustrator 21.0.0, SVG Export Plug-In . SVG Version: 6.00 Build 0)  -->
<!DOCTYPE svg PUBLIC "-//W3C//DTD SVG 1.1//EN" "http://www.w3.org/Graphics/SVG/1.1/DTD/svg11.dtd">
<svg version="1.1" id="Layer_1" xmlns="http://www.w3.org/2000/svg" xmlns:xlink="http://www.w3.org/1999/xlink" x="0px" y="0px"
	 viewBox="0 0 1586.8 1637.9" style="enable-background:new 0 0 1586.8 1637.9;" xml:space="preserve">
<style type="text/css">
	.st0{opacity:0.74;fill:#FFFFFF;}
	.st1{fill:#988B95;}
	.st2{fill:#7F6F7B;}
	.st3{fill:#56465A;}
	.st4{fill:#403544;}
	.st5{fill:#FFFFFF;}
	.st6{opacity:0.29;fill:#7E6E7A;}
	.st7{opacity:0.31;fill:#988B95;}
</style>
<circle class="st0" cx="811.9" cy="1056.1" r="109.3"/>
<path class="st1" d="M-60.8,1419.9c336-241.4,312-232,344-214.7s98.9,59.1,98.9,59.1l305.1-37.1l133.3-121.4
	c0,0,36.3-49.8,61.5-36.5c25.2,13.2,64.4,64.2,64.4,64.2s8.6,11,40.7,0s17.5,4.6,46.8,32.8c29.3,28.2,31,78,88.2,93.1
	c57.1,15.1,42.2-5.3,87.7,4.9c45.4,10.2,75.1,49.5,75.1,49.5s212.4-59.2,258-71.3c45.5-12.1,112,14.9,112,14.9l79.6,216.1
	l-15.2,254.4l-1779-10.6L-60.8,1419.9z"/>
<path class="st2" d="M-47.7,1253.4c0,0,183.7,94.1,232.9,96.8c49.2,2.6,298.2-252.1,334.2-252.2c19.6-0.1,62.3,73,114.6,140.6
	c21.9,28.3,50.2,24,74.4,44.6s44.4,65.8,69,67.1c108,5.6,162.9-61.6,162.9-61.6s50.1-21.7,77.1-17.7c27,4,104.7,102.8,104.7,102.8
	s45.3,14.8,66.3,0c17.2-12.1,75.7-65,96.5-83.8c7.3-6.6,16.6-10.9,23.5-18c106.1-107.8,177.8-93.4,298.5,39.2
	c80.1,88,35.7,237.4,35.7,237.4s-1720.3,15.4-1717.3-7.6C-71.7,1517.8-47.7,1253.4-47.7,1253.4z"/>
<path class="st3" d="M-2.6,1414.3c0,0,131.9-228.5,164.9-212.2s132,67.8,132,67.8s62.2,80.2,80.9,107
	c18.7,26.8,193.2,33.3,222.7,28.9s136.2-28.9,194.5,8.6c17.6,11.3,201-82.8,219-70.4c18,12.4,156,79.1,168,96.8s58.3,76,58.3,76
	l445.7,163.7l-1743.2,13L-2.6,1414.3z"/>
<path class="st4" d="M-2.6,1508.7c44.9-43.4,155.8-150.4,187.8-133.4c28.9,15.4,17.5,50.8,103.2,68.3c88.4,18.1,106.4,41.9,240,13.3
	c40.2-8.6,85.8,6.5,111.4,17.2c9.2,3.8,19.5-1.4,22-11c4.6-18,41.9-42.6,72.3-8.4c36,40.5,190.3,38.4,190.3,38.4
	s42.2-110.6,84-105.9c18.8,2.1,81,19,132,20s128.3,0,128.3,0s341.9,107.1,373.8,141.1c31.9,34,91.9,91.5,91.9,91.5l-1764.2,6
	L-2.6,1508.7z"/>
<text transform="matrix(1 0 0 1 -62.1475 2452.2852)" class="st5" style="font-family:'SemplicitaPro'; font-size:60px;">Doing the right thing is fun.</text>
<path class="st6" d="M-402.5-24c14.5-6,146.2-1.3,220.4,9.8C-103.2-2.3-38.9,22-8.8,22c15.4,0,45-13.7,71.2-13.7
	C98,8.3,133.6,22,176.4,22c45.1,0,76.5-5,112.5-5c8.5,0,30,5.2,37.5,5.5c77.5,3.3,109,21.7,109,21.7S251.5,58,181.5,58
	s-108-15.6-222-13.8s-202-32.2-286-27.2s-84.3,8.5-149.1,10.3S-656.5,17-656.5,17s93.2-23,156.6-19S-402.5-24-402.5-24z"/>
<path class="st7" d="M-279.5,910c31.2-0.1,68.3,0.7,106.7,1.7c15.6,0.4,29.8,8.8,45.6,9.3c25.3,0.8,52.1-6.3,75.9-5.6
	c26.3,0.7,51.1,8.2,72.3,8.5c21.8,0.2,39.8-6.9,52.6-7.6c33.9-2.1,116.1-3.6,183.1,0.7c10.3,0.7,14.6,8,24.2,8.6
	c40.6,2.5,59.2-0.8,71.3-2.2c19.6-2.2,100.6,3.9,151,10.4c36,4.7,48.3,10.2,48.3,10.2s-235.6,1.8-270.7,3.8
	c-35.1,2-65.1,9.9-65.1,9.9s152.3,9.8,207.6,7.4c32-1.4,133.7,2,193.6,7.4c43.5,3.9,53.6,10.1,53.6,10.1s-440,6-560.3-4.2
	s-189.5,4.5-189.5,4.5s-178.2-7.7-234.1-3.2c-55.9,4.5-252.6-2.6-314.6-4c-62.1-1.4-102,2.4-102,2.4s125.4-27.9,233.2-34.4
	C-388.8,937-279.5,910-279.5,910z"/>
<path class="st7" d="M172.2,1066.1c24-0.1,42,6.7,71.5,7.5c12,0.3,70.8,19,83,19.4c19.4,0.6-139.3-7.3-182.3-3.9
	s-174.8,3.6-222.5,3.8c-33.9,0.2-100.8-1.3-100.8-1.3s100.4-24.8,182.9-16.5C93.1,1084.1,172.2,1066.1,172.2,1066.1z"/>
<path class="st6" d="M1715.2,368.1c24-0.1,42,6.7,71.5,7.5c12,0.3,70.8,19,83,19.4c19.4,0.6-139.3-7.3-182.3-3.9
	c-42.9,3.5-174.8,3.6-222.5,3.8c-33.9,0.2-100.8-1.3-100.8-1.3s100.4-24.8,182.9-16.5C1636.2,386.1,1715.2,368.1,1715.2,368.1z"/>
<path class="st7" d="M808.1,1048.1c40.7-11.1,146.2-24.6,169.2-25.5s137.2,3.5,137.2,3.5s117.3,14.3,140.5,14.5
	c23.2,0.2,51.4,7.1,51.4,7.1s-203.9,7.5-273.1,1s-149.9,5.4-149.9,5.4L808.1,1048.1z"/>
<path class="st4" d="M1531,1419.2C1531,1419.2,1531,1419.2,1531,1419.2c-22.4-1.5-40.8-6.4-56-13.4v-1.2h-5.7v-13.5h5.8v-3.5h-0.1
	h-5.7v0h-1.6v0h-10.6v-37.2h16.7v-6.2h13v-6h11.3h0.1v-7.5c5.6-2.5,10.4-6.5,10.1-12.8c0,0,0,0,0,0c0-0.1,0-0.1,0-0.2c0,0,0,0,0,0
	c0,0,0-0.1,0-0.1c-0.2,0-0.4,0.1-0.5,0.1c-17.3-1.2-31.8-4.9-43.8-10.1v-1v-0.4v-0.4h-4.8v-11h2.6v-1.4h2.2v-1.5h-4.8v0h-1.4v0h-0.9
	v0h-5.8v-30.9h10.5v-5.2h10.8v-5h9.4v-6.2c4.7-2.1,8.7-5.4,8.5-10.7c0,0,0,0,0,0c0-0.1,0-0.2,0-0.4c0,0,0,0,0,0c0,0,0,0,0,0
	c-14.8-1-27.1-4.1-37.3-8.6v-0.7h-1.6c-0.3-0.1-0.6-0.3-0.9-0.4h-1.5v-9.1h2.2v-0.9h1.8v-1.2h-4v0h-1.1v0h-0.9h-5v-25.5h8.6v-4.2
	h8.9v-4.1h7.7v-5.1c3.9-1.7,7.2-4.5,7-8.8c0,0,0,0,0,0c0-0.1,0-0.2,0-0.3c0,0,0,0,0,0c0,0,0,0,0,0c-40.5-2.6-58-25.1-65.6-43.4v-4.1
	h-1.6v-3.3h-3.6v-1.4h1.1v-0.7h-1.1v-0.5h1.1v-0.7h-1.1v-0.5h1.1v-0.7h-1.1v-0.5h1.1v-0.7h-1.1v-0.5h1.1v-0.7h-1.1v-0.5h1.1v-0.7
	h-1.1v-0.5h1.1v-0.7h-1.1v-0.5h1.1v-0.7h-1.1v-0.5h1.1v-0.7h-1.1v-0.5h1.1v-0.7h-1.1v-0.5h1.1v-0.7h-1.1v-0.5h1.1v-0.7h-1.1v-0.5
	h1.1v-0.7h-1.1v-0.5h1.1v-0.7h-1.1v-0.7h0.3v-3.3h-1v3.3h0.3v0.7h-1.1v0.7h1.1v0.5h-1.1v0.7h1.1v0.5h-1.1v0.7h1.1v0.5h-1.1v0.7h1.1
	v0.5h-1.1v0.7h1.1v0.5h-1.1v0.7h1.1v0.5h-1.1v0.7h1.1v0.5h-1.1v0.7h1.1v0.5h-1.1v0.7h1.1v0.5h-1.1v0.7h1.1v0.5h-1.1v0.7h1.1v0.5
	h-1.1v0.7h1.1v0.5h-1.1v0.7h1.1v0.5h-1.1v0.7h1.1v1.4h-3.6v3.3h-1.6v4.1c-17,38.1-71.7,43.4-71.7,43.4s0,0,0,0c0,0,0,0,0,0
	s0,0.1,0.1,0.3c0,0-0.1,0-0.1,0s1.1,7.1,10.3,10v4h7.7v4.1h8.9v4.2h8.6v25.5h-2.4h-9.7v0h-1.1v0h-2.6v1.2h1.1v0.9h1.4v9.1h-0.7
	c-0.3,0.1-0.7,0.3-1,0.4h-0.9v0.3c-19.2,7.4-35.8,9-35.8,9s0,0,0,0c0,0,0,0,0,0s0,0.1,0.1,0.3c0,0-0.1,0-0.1,0s1.4,8.6,12.5,12.2
	v4.8h9.4v5h10.8v5.2h10.5v30.9h-14.1v0h-0.6v0h-1.4v0h-3.1v1.5h1.5v1.4h1.6v11h-3.1v0.4v0.4v0.7c-21,7.9-39.1,10.2-41.7,10.4
	c-0.2-0.1-0.3-0.1-0.3-0.1s0,0.1,0,0.1c0,0,0,0,0,0s0,0.1,0,0.2c0,0,0,0,0,0s1.6,10.3,15,14.6v5.8h11.3v6h12.9v6.2h12.6v37.2h-17.7
	v0h-1.6v0h-1.6h-2.1v1.7h2.1v1.8h1.6v13.5h-3.7v1.6c-27.7,10.6-51.6,13-51.6,13s0,0,0,0c0,0,0,0,0,0s0,0.1,0.1,0.3c0,0-0.1,0-0.1,0
	s2,12.5,18.2,17.7v7h13.6v7.3h15.7v7.5h15.2v45h-20.9v0h-2.1v0h-4.8v2.1h2.5v1.6h2.3v15.1h-2.3v1.7h-2.5v2.1h27.8h9.6h122.9h9.6
	h28.5v-2.1h-2.5v-1.7h-3.1v-15.1h2.9v-1.6h2.5v-2.1h-5.5v0h-2.1v0h-20.8v-45h15.2v-7.5h15.7v-7.3h13.6v-9.1
	c6.8-3,12.7-7.9,12.4-15.6c0,0,0,0,0,0C1531,1419.4,1531,1419.3,1531,1419.2C1531,1419.2,1531,1419.2,1531,1419.2z M1457.1,1294.7
	v11h-6v-11h5.8H1457.1z M1447,1214.4v9.1h-5v-9.1H1447z M1350.4,1214.4h8.9h2.4v9.1h-11.3V1214.4z M1339.2,1294.7h14.1v11h-14.1
	V1294.7z M1466.9,1391.1v13.5h-5.7h-4.1v-13.5H1466.9z M1327.3,1391.1h16.6v13.5h-16.6V1391.1z M1312.3,1522.8v-15.1h19.8v15.1
	H1312.3z M1493.6,1507.7v15.1h-19.5v-15.1H1493.6z"/>
</svg>
