<?xml version="1.0" encoding="utf-8"?>
<!-- Generator: Adobe Illustrator 21.0.0, SVG Export Plug-In . SVG Version: 6.00 Build 0)  -->
<!DOCTYPE svg PUBLIC "-//W3C//DTD SVG 1.1//EN" "http://www.w3.org/Graphics/SVG/1.1/DTD/svg11.dtd">
<svg version="1.1" id="Layer_1" xmlns="http://www.w3.org/2000/svg" xmlns:xlink="http://www.w3.org/1999/xlink" x="0px" y="0px"
	 viewBox="0 0 300 300" style="enable-background:new 0 0 300 300;" xml:space="preserve">
<style type="text/css">
	.st0{fill:#7E6E7B;}
	.st1{fill:#55465A;}
	.st2{fill:#FFFFFF;}
</style>
<g>
	<circle class="st0" cx="86.3" cy="212.7" r="30.6"/>
	<path class="st0" d="M126.9,249.8c-0.1-0.1-0.1-0.2-0.2-0.2c-4.1-3.6-9.2-6.4-14.9-8.3c-3.4,3-7.3,5.4-11.6,7.1
		c-2.1,0.8-4.4,1.5-6.7,1.9c-2.3,0.4-4.7,0.7-7.1,0.7c-9.7,0-18.7-3.7-25.4-9.7c-15.4,5-25.8,15.9-25.8,34.8v14.1
		c0,4.5,3.6,8.1,8.1,8.1h59.4h26.9h0c4.5,0,8.1-3.6,8.1-8.1l0,0v-5.3v-8.8c0-8.7-2.3-15.6-6.2-21.1
		C130.1,253.1,128.6,251.3,126.9,249.8z"/>
	<circle class="st0" cx="213.7" cy="212.7" r="30.6"/>
	<path class="st0" d="M258.7,255c-1.3-1.9-2.8-3.6-4.5-5.2c-0.1-0.1-0.1-0.2-0.2-0.2c-4.1-3.6-9.2-6.4-14.9-8.3
		c-3.4,3-7.3,5.4-11.6,7.1c-2.1,0.8-4.4,1.5-6.7,1.9c-2.3,0.4-4.7,0.7-7.1,0.7c-9.7,0-18.7-3.7-25.4-9.7
		c-15.4,5-25.8,15.9-25.8,34.8v14.1c0,4.5,3.6,8.1,8.1,8.1h59.4h26.9h0c4.5,0,8.1-3.6,8.1-8.1l0,0v-5.3v-8.8
		C264.9,267.4,262.6,260.5,258.7,255z"/>
	<path class="st1" d="M99.7,140.8v31.9l26.3-31.7h47.2l26.3,31.7v-31.9c15.6-1.7,27.7-14.9,27.7-30.9V32.8c0-17.2-14-31.1-31.1-31.1
		h-93c-17.2,0-31.1,14-31.1,31.1v77.1C71.9,125.9,84.1,139.1,99.7,140.8z"/>
	<path class="st2" d="M127.3,82.9L127.3,82.9c0,0,0,0.1,0.1,0.1c0.2,0.4,0.4,0.9,0.7,1.3c5.7,10.7,8.7,11.1,10,18.5
		c0.2,1.2,1.3,2.1,2.5,2.1h17.9c1.3,0,2.4-0.9,2.5-2.2c1-7.5,3.5-7.2,9-16.6c0.7-1,1.3-2.1,1.9-3.2c0,0,0,0,0,0h0
		c1.6-3.3,2.6-7,2.6-11c0-13.7-11.1-24.9-24.9-24.9s-24.9,11.1-24.9,24.9C124.7,75.8,125.6,79.5,127.3,82.9z"/>
	<path class="st2" d="M158.2,109.6h-17.3c-1.4,0-2.4,1.1-2.4,2.4c0,1.4,1.1,2.4,2.4,2.4h17.3c1.4,0,2.4-1.1,2.4-2.4
		C160.7,110.7,159.6,109.6,158.2,109.6z"/>
	<path class="st2" d="M154.9,119.2h-10.8c-1.4,0-2.4,1.1-2.4,2.4c0,1.4,1.1,2.4,2.4,2.4h10.8c1.4,0,2.4-1.1,2.4-2.4
		C157.4,120.3,156.3,119.2,154.9,119.2z"/>
	<path class="st2" d="M149.6,38.9c1.3,0,2.4-1.1,2.4-2.4l0-18c0-1.3-1.1-2.4-2.4-2.4s-2.4,1.1-2.4,2.4l0,18
		C147.2,37.8,148.2,38.9,149.6,38.9z"/>
	<path class="st2" d="M180.8,70c0,1.3,1.1,2.4,2.4,2.4h18c1.3,0,2.4-1.1,2.4-2.4s-1.1-2.4-2.4-2.4h-18
		C181.9,67.7,180.8,68.7,180.8,70z"/>
	<path class="st2" d="M97.9,72.4h18c1.3,0,2.4-1.1,2.4-2.4s-1.1-2.4-2.4-2.4h-18c-1.3,0-2.4,1.1-2.4,2.4S96.6,72.4,97.9,72.4z"/>
	<path class="st2" d="M173.2,47.6c0.6,0,1.2-0.2,1.7-0.7l12.7-12.7c0.9-0.9,0.9-2.4,0-3.3c-0.9-0.9-2.4-0.9-3.3,0l-12.7,12.7
		c-0.9,0.9-0.9,2.4,0,3.3C172,47.4,172.6,47.6,173.2,47.6z"/>
	<path class="st2" d="M124.1,46.8c0.5,0.5,1.1,0.7,1.7,0.7s1.2-0.2,1.7-0.7c0.9-0.9,0.9-2.4,0-3.3l-12.7-12.7
		c-0.9-0.9-2.4-0.9-3.3,0c-0.9,0.9-0.9,2.4,0,3.3L124.1,46.8z"/>
</g>
</svg>
