<?xml version="1.0" encoding="utf-8"?>
<!-- Generator: Adobe Illustrator 21.0.0, SVG Export Plug-In . SVG Version: 6.00 Build 0)  -->
<!DOCTYPE svg PUBLIC "-//W3C//DTD SVG 1.1//EN" "http://www.w3.org/Graphics/SVG/1.1/DTD/svg11.dtd">
<svg version="1.1" id="Layer_1" xmlns="http://www.w3.org/2000/svg" xmlns:xlink="http://www.w3.org/1999/xlink" x="0px" y="0px"
	 viewBox="0 0 300 300" style="enable-background:new 0 0 300 300;" xml:space="preserve">
<style type="text/css">
	.st0{fill:#7F6F7B;}
	.st1{fill:#55465A;}
	.st2{fill:#7E6E7A;}
</style>
<g>
	<circle class="st0" cx="86.9" cy="212.2" r="30.4"/>
	<path class="st0" d="M127.1,248.9c-0.1-0.1-0.1-0.2-0.2-0.2c-4.1-3.6-9.1-6.3-14.8-8.2c-3.3,3-7.2,5.4-11.5,7
		c-2.1,0.8-4.3,1.5-6.6,1.9c-2.3,0.4-4.7,0.7-7.1,0.7c-9.7,0-18.5-3.6-25.2-9.6c-15.2,5-25.6,15.8-25.6,34.5v22H103h26.6h8v-8v-5.3
		V275c0-8.6-2.3-15.5-6.1-20.9C130.3,252.2,128.8,250.4,127.1,248.9z"/>
	<circle class="st0" cx="213.1" cy="212.2" r="30.4"/>
	<path class="st0" d="M257.7,254c-1.3-1.9-2.8-3.6-4.4-5.1c-0.1-0.1-0.1-0.2-0.2-0.2c-4.1-3.6-9.1-6.3-14.8-8.2
		c-3.3,3-7.2,5.4-11.5,7c-2.1,0.8-4.3,1.5-6.6,1.9c-2.3,0.4-4.7,0.7-7.1,0.7c-9.7,0-18.5-3.6-25.2-9.6c-15.2,5-25.6,15.8-25.6,34.5
		v22h66.9h26.6h8v-8v-5.3V275C263.9,266.4,261.6,259.5,257.7,254z"/>
	<path class="st1" d="M100.1,140.9v31.6l26-31.5H173l26,31.5v-31.6c15.4-1.7,27.5-14.8,27.5-30.7V33.8c0-17-13.8-30.8-30.8-30.8
		h-92.2c-17,0-30.8,13.8-30.8,30.8v76.4C72.6,126.1,84.7,139.2,100.1,140.9z M83.7,33.8c0-10.9,8.9-19.7,19.7-19.7h92.2
		c10.9,0,19.7,8.9,19.7,19.7v76.4c0,10.9-8.9,19.7-19.7,19.7h-92.2c-10.9,0-19.7-8.9-19.7-19.7V33.8z"/>
	<path class="st2" d="M127.5,83.5L127.5,83.5c0,0,0,0.1,0.1,0.1c0.2,0.4,0.4,0.8,0.7,1.3c5.7,10.6,8.6,11,9.9,18.3
		c0.2,1.2,1.3,2.1,2.5,2.1h17.8c1.3,0,2.3-0.9,2.5-2.2c1-7.4,3.5-7.2,8.9-16.5c0.7-1,1.3-2,1.8-3.1c0,0,0,0,0,0h0
		c1.6-3.3,2.5-7,2.5-10.9c0-13.6-11-24.6-24.6-24.6c-13.6,0-24.6,11-24.6,24.6C124.9,76.5,125.8,80.2,127.5,83.5z"/>
	<path class="st2" d="M158.2,110H141c-1.3,0-2.4,1.1-2.4,2.4c0,1.3,1.1,2.4,2.4,2.4h17.2c1.3,0,2.4-1.1,2.4-2.4
		C160.6,111,159.5,110,158.2,110z"/>
	<path class="st2" d="M154.9,119.5h-10.7c-1.3,0-2.4,1.1-2.4,2.4c0,1.3,1.1,2.4,2.4,2.4h10.7c1.3,0,2.4-1.1,2.4-2.4
		C157.3,120.6,156.2,119.5,154.9,119.5z"/>
	<path class="st2" d="M149.6,39.9c1.3,0,2.3-1,2.3-2.3l0-17.8c0-1.3-1-2.3-2.3-2.3s-2.3,1-2.3,2.3l0,17.8
		C147.2,38.8,148.3,39.9,149.6,39.9z"/>
	<path class="st2" d="M180.6,70.7c0,1.3,1,2.3,2.3,2.3h17.8c1.3,0,2.3-1,2.3-2.3c0-1.3-1-2.3-2.3-2.3h-17.8
		C181.6,68.4,180.6,69.5,180.6,70.7z"/>
	<path class="st2" d="M98.4,73.1h17.8c1.3,0,2.3-1,2.3-2.3c0-1.3-1-2.3-2.3-2.3H98.4c-1.3,0-2.3,1-2.3,2.3
		C96.1,72,97.1,73.1,98.4,73.1z"/>
	<path class="st2" d="M173,48.5c0.6,0,1.2-0.2,1.7-0.7l12.6-12.6c0.9-0.9,0.9-2.4,0-3.3c-0.9-0.9-2.4-0.9-3.3,0l-12.6,12.6
		c-0.9,0.9-0.9,2.4,0,3.3C171.8,48.3,172.4,48.5,173,48.5z"/>
	<path class="st2" d="M124.3,47.7c0.5,0.5,1.1,0.7,1.7,0.7s1.2-0.2,1.7-0.7c0.9-0.9,0.9-2.4,0-3.3L115,31.8c-0.9-0.9-2.4-0.9-3.3,0
		c-0.9,0.9-0.9,2.4,0,3.3L124.3,47.7z"/>
</g>
</svg>
