<?xml version="1.0" encoding="utf-8"?>
<!-- Generator: Adobe Illustrator 21.0.0, SVG Export Plug-In . SVG Version: 6.00 Build 0)  -->
<!DOCTYPE svg PUBLIC "-//W3C//DTD SVG 1.1//EN" "http://www.w3.org/Graphics/SVG/1.1/DTD/svg11.dtd">
<svg version="1.1" id="Layer_1" xmlns="http://www.w3.org/2000/svg" xmlns:xlink="http://www.w3.org/1999/xlink" x="0px" y="0px"
	 viewBox="0 0 803.4 1301.9" style="enable-background:new 0 0 803.4 1301.9;" xml:space="preserve">
<style type="text/css">
	.st0{fill:#FFFFFF;}
	.st1{fill:#7B7980;}
	.st2{fill:#9A9A9F;}
	.st3{fill:#BDBEC0;}
	.st4{fill:#D2D3D4;}
	.st5{fill:#E6E7E7;}
	.st6{fill:#6E6F72;}
	.st7{fill:#F3F1F2;}
	.st8{fill:#F3F3F3;}
	.st9{fill:#010101;}
	.st10{fill:#C2BEC0;}
	.st11{fill:#736470;}
	.st12{fill:#7F6F7B;}
</style>
<g>
	<g>
		<g>
			<path class="st0" d="M588.2,1229.7L787.4,186.8c3.8-20.1-2-40-14.4-55.9c-0.4-0.5-0.8-1-1.2-1.5c-0.4-0.5-0.8-1-1.2-1.5
				c-0.4-0.5-0.8-1.1-1.2-1.6c-12-16.1-30.7-28.3-53.2-32.6L308.9,15.9c-44.2-8.4-86.2,16.8-93.8,56.3L16,1115.1
				c-3.8,20.1,2,40,14.4,55.9c0.4,0.5,0.8,1.1,1.2,1.6c0.4,0.5,0.8,1,1.2,1.5c0.4,0.5,0.8,1,1.2,1.5c12,16.1,30.7,28.3,53.2,32.6
				l407.3,77.8C538.7,1294.4,580.7,1269.2,588.2,1229.7z"/>
		</g>
		<g>
			<path class="st1" d="M773,130.9c11.6,15.6,16.9,34.9,13.2,54.3L587,1228.1c-7.6,39.5-49.5,64.7-93.8,56.3l-407.3-77.8
				c-21.7-4.2-40-15.7-52-31c12,16.1,30.7,28.3,53.2,32.6l407.3,77.8c44.2,8.4,86.2-16.8,93.8-56.3L787.4,186.8
				C791.3,166.7,785.5,146.8,773,130.9z"/>
		</g>
		<g>
			<path class="st2" d="M493.3,1284.4c44.2,8.4,86.2-16.8,93.8-56.3L786.2,185.2c3.7-19.4-1.6-38.7-13.2-54.3
				c-0.4-0.5-0.8-1-1.2-1.5c11.6,15.6,17,34.9,13.2,54.4L585.9,1226.6c-7.6,39.5-49.5,64.7-93.8,56.3l-407.3-77.8
				c-21.8-4.2-40-15.7-52.1-31.1c0.4,0.5,0.8,1,1.2,1.5c12,15.3,30.3,26.8,52,31L493.3,1284.4z"/>
		</g>
		<g>
			<path class="st3" d="M84.8,1205.1l407.3,77.8c44.2,8.4,86.2-16.8,93.8-56.3L785.1,183.7c3.7-19.5-1.6-38.8-13.2-54.4
				c-0.4-0.5-0.8-1-1.2-1.5c11.6,15.6,16.9,34.9,13.2,54.3L584.7,1225c-7.6,39.5-49.5,64.7-93.8,56.3l-407.3-77.8
				c-21.7-4.2-40-15.7-52-31c0.4,0.5,0.8,1,1.2,1.5C44.8,1189.4,63,1201,84.8,1205.1z"/>
		</g>
		<g>
			<path class="st4" d="M83.6,1203.5l407.3,77.8c44.2,8.4,86.2-16.8,93.8-56.3L783.9,182.2c3.7-19.4-1.6-38.7-13.2-54.3
				c-0.4-0.5-0.8-1.1-1.2-1.6c11.6,15.6,16.9,34.9,13.2,54.3L583.5,1223.5c-7.6,39.5-49.5,64.7-93.8,56.3l-407.3-77.8
				c-21.7-4.2-40-15.7-52-31c0.4,0.5,0.8,1.1,1.2,1.6C43.6,1187.9,61.8,1199.4,83.6,1203.5z"/>
		</g>
		<g>
			<path class="st5" d="M82.4,1201.9l407.3,77.8c44.2,8.4,86.2-16.8,93.8-56.3L782.7,180.6c3.7-19.4-1.6-38.7-13.2-54.3
				c-12-16.1-30.7-28.3-53.2-32.6L308.9,15.9c-44.2-8.4-86.2,16.8-93.8,56.3L16,1115.1c-3.8,20.1,2,40,14.4,55.9
				C42.4,1186.3,60.6,1197.8,82.4,1201.9z M778.5,182.5L580.3,1220.3c-7.6,39.5-49.5,64.7-93.8,56.3l-400.1-76.4
				c-44.2-8.4-74-47.4-66.4-86.9L218.3,75.5c7.6-39.5,49.5-64.7,93.8-56.3l400.1,76.4C756.3,104,786.1,142.9,778.5,182.5z"/>
		</g>
		<g>
			<path class="st4" d="M306.9,1131.3c-23.1-4.4-45.5,10.8-49.9,33.9s10.8,45.5,33.9,49.9c23.1,4.4,45.5-10.8,49.9-33.9
				S330,1135.7,306.9,1131.3z M262.5,1166.2c3.8-20.1,23.3-33.3,43.4-29.5c20.1,3.8,33.3,23.3,29.5,43.4
				c-3.8,20.1-23.3,33.3-43.4,29.5C271.9,1205.8,258.7,1186.3,262.5,1166.2z"/>
		</g>
		<g>
			<path class="st6" d="M552.6,142.3l-110-21c-2.6-0.5-4.4-3.1-3.9-5.7s3.1-4.4,5.7-3.9l110,21c2.6,0.5,4.4,3.1,3.9,5.7
				S555.2,142.8,552.6,142.3z"/>
		</g>
		<g>
			<g>
				<path class="st7" d="M52.1,1055.6l174.7-914.9l519.1,99.1l-174.7,914.9L52.1,1055.6z M230,146L57,1051.9l511.1,97.6l173-905.9
					L230,146z"/>
			</g>
		</g>
		
			<image style="overflow:visible;" width="377" height="667" xlink:href="../../../../../../../Desktop/Screen Shot 2018-01-16 at 8.04.09 PM.png"  transform="matrix(1.3545 0.258 -0.2587 1.3583 229.9545 146.3189)">
		</image>
		<g>
			
				<rect x="221.5" y="245.4" transform="matrix(0.9823 0.1871 -0.1871 0.9823 57.0031 -43.0538)" class="st8" width="70.1" height="70.1"/>
		</g>
		<g>
			
				<rect x="175.2" y="536.9" transform="matrix(0.9823 0.1871 -0.1871 0.9823 117.1707 -67.4071)" class="st8" width="480.9" height="100.2"/>
		</g>
		<g>
			<path class="st9" d="M236.6,285.9l-0.6-0.1c0.2-0.5,0.6-0.9,1.2-1.1c0.4-0.1,0.7-0.4,0.8-0.7c1.1-0.6,2.3-1.3,3.5-2.2
				c1.1-0.9,2.1-1.8,3.2-2.6c0.1-0.2,0.4-0.4,0.8-0.7c0.4-0.3,0.7-0.6,0.8-0.9c0.3-0.2,0.7-0.5,1.1-1c-0.1-0.2-0.2-0.5-0.3-0.8
				c-0.1-0.2-0.1-0.5,0-0.9c-0.2-0.4-0.5-1.5-0.7-3.2l0.5-0.1c-0.2-1.4-0.2-3.2-0.1-5.4c0.1-1.8,0.3-3.7,0.4-5.5
				c0.1-0.3,0.5-0.6,1-1.1c0.6,0,0.9,0.2,1.1,0.8l0.1,0.1c0,0.1,0.1,0.1,0.1,0.2c-0.3,1.2-0.5,2.9-0.8,5.2c-0.5,3.6-0.5,6.6,0.3,8.8
				c1.6-1.3,3.5-3.3,5.5-6c0.5-0.7,1.4-1.7,2.6-3.1c0.2-0.3,0.4-0.8,0.8-1.4c0.3-0.6,0.6-1.1,0.7-1.3c0.5-0.1,0.9-0.2,1.1-0.1
				c0.5,0.1,0.6,0.5,0.5,1.1c-0.1,0.3-0.2,0.6-0.4,0.9c-0.3,0.3-0.5,0.6-0.7,0.9c-0.2,0.3-0.4,0.6-0.4,0.9c-0.3,0.1-0.4,0.2-0.5,0.4
				c-0.1,0.3-0.3,0.5-0.4,0.6l0,0c-0.4,0.6-1.8,2.3-4.1,5.1c-0.4,0.2-0.7,0.6-1.2,1.1c-0.6,0.6-1,1-1.2,1.2c-0.1,0-0.4,0.5-1.3,1.2
				c-0.4,0.4-0.5,0.8-0.2,1.2l-0.2,0.5c-0.5,0.1-1.2,0.5-2.1,0.9c-1,0.7-2.4,1.8-4.3,3.4c-0.5,0.2-1.5,0.9-3,2
				c-1.2,0.9-2.3,1.3-3.4,1.4L236.6,285.9z"/>
			<path class="st9" d="M257.8,284.3c-0.3,0.5-0.5,0.7-0.6,0.8c-0.4,0.4-1.2,0.9-2.3,1.6c-1.1,1-2.5,1.5-4.2,1.4
				c-0.5,0-0.9-0.2-1.4-0.3c-1-0.8-1.6-2-1.5-3.7c0.2-0.8,0.7-1.8,1.3-2.8c0.6-0.9,1.1-1.7,1.7-2.6c0.2-0.1,0.6-0.6,1.2-1.2
				c0.5-0.5,0.9-0.8,1.4-1c0.5-0.6,1.2-0.9,2-0.9c0.3,0.1,0.8-0.1,1.6-0.6c0.1-0.1,0-0.3,0.3-0.5c0.9,0.1,1.5,0.2,1.9,0.5
				c0.9,0.9,1.2,2.1,1.1,3.6c-0.1,0.8-0.3,1.6-0.5,2.4c-0.3,0.6-0.4,1.6-1.2,2.8C258.2,283.9,258,284,257.8,284.3z M258.3,275.9
				l-2,0.3l0.4,0.6c-0.1,0.5-0.1,1-0.2,1.4c-0.1,0.5-0.4,0.9-0.7,1.2c-0.1,0.1-0.3,0.1-0.4,0.1c-0.4-0.1-0.6-0.5-0.5-1.4
				c0,0,0-0.1,0-0.2c-0.3,0.1-0.7,0.4-1.2,0.8c-0.6,0.5-1,0.7-1.2,0.8c-1.2,1.6-1.8,2.5-1.9,2.8c-0.6,1-0.9,2.1-0.9,3.2
				c0.2,0.3,0.9,0.7,1.2,0.8c3.5-0.3,6.1-2.5,8.1-6.7c0.1-1.7,0.2-2.5,0.2-2.2C258.9,276.8,258.7,276.3,258.3,275.9z"/>
			<path class="st9" d="M270.3,289.5c-0.8,0.3-1.5,0.4-2,0.3c-0.8-0.1-1.2-0.8-1.3-1.8c0-0.1-0.1-0.3-0.1-0.6c0-0.5-0.1-0.7-0.2-0.8
				c-0.1,0-0.3,0.1-0.6,0.3c-0.5,0.4-1.4,1.1-2.5,2c-1.3,0.7-2.7,1.1-4.5,1c-0.7-1.1-0.8-2.2-0.6-3.5c0.1-0.5,0.3-1.2,0.6-2.1
				c0.4-1.1,0.7-1.8,0.8-2.1c0.8-2.1,2.1-4.1,3.6-5.9c0.3,0,0.6,0.2,1,0.5c0,0.2,0,0.5,0,0.6c-0.1,0.3-0.2,0.6-0.5,0.9
				c-0.3,0.4-0.5,0.7-0.7,0.9c-0.7,1.1-1.6,2.9-2.7,5.3c-0.5,1.8-0.7,3.1-0.6,3.7c0.8,0,1.4-0.1,1.9-0.3c0.1-0.1,0.7-0.4,1.6-0.9
				c0.3-0.3,1.2-1.2,2.7-2.6c1.1-1,1.9-2,2.2-2.9c1.1-1.7,2.2-3.1,3.1-4.1c0.5-0.2,0.9-0.1,0.9,0.5c0,0.3,0,0.5,0,0.8
				c-0.1,0.4-0.4,1-0.8,1.6c-0.5,0.6-0.8,1.1-0.9,1.4c-1,0.9-1.8,2.3-2.3,4.3c0,0,0,0.4-0.1,1.2c0,0.5,0,0.8,0.3,1
				c0.5,0,0.8-0.1,1.2-0.2c0.5-0.2,0.8-0.4,1-0.4c0.1,0,0.5-0.3,1.1-0.7c0.2-0.1,0.4-0.3,0.7-0.4l0.5,0.4c-0.3,0.8-0.8,1.3-1.4,1.7
				C271.6,288.7,271.1,289,270.3,289.5z"/>
			<path class="st9" d="M287.5,284.7c0-0.1,0.1-0.1,0.1-0.2c0.2-0.1,0.6-0.6,1.3-1.4c0.5-0.6,1-1,1.5-1.2c1.1-1.4,2.6-1.9,4.4-1.4
				c1,0.7,1.4,1.8,1.1,3.4c-0.4,2.4-1.6,4.6-3.6,6.6c-1.2,1.5-3.2,2.6-6.1,3.2c-0.8,0.2-1.5,0.2-2.3,0c-0.9-0.2-1.5-0.5-1.9-1.1
				c-0.3-0.4-0.4-1-0.4-1.9c0.5,0.2,0.8,0.6,1.2,1c0.2,0.3,0.5,0.5,0.8,0.5c1.7,0.2,3.4-0.2,5.1-1.1c1.6-0.9,2.8-2,3.8-3.5
				c1-1.6,1.6-2.8,1.8-3.6c0.1-0.5,0.1-1,0-1.4c-0.1-0.1-0.2-0.3-0.2-0.6c0.1,0,0.1,0,0,0c-0.2-0.1-0.3-0.2-0.5-0.2
				c-0.3-0.1-0.6,0-1,0.2c-0.6,0.3-1.1,0.5-1.3,0.7s-0.5,0.5-1,1.1c-1.1,1-2.1,2-2.9,2.9l0,0.1l-0.3,0.4c-0.1-0.1-0.2,0-0.2,0
				l-0.1,0.1c-0.1,0.2-0.2,0.4-0.4,0.4c-0.2,0.3-0.7,0.8-1.3,1.3c-0.1,0.1-0.4,0.3-0.9,0.6c-0.4,0-0.7-0.2-0.8-0.4
				c-0.1-0.2-0.1-0.6,0-1c0,0,0-0.1,0.1-0.3l0-0.2c3.6-5.9,6.2-10.7,7.7-14.2c0.3-0.1,0.5-0.2,0.8-0.1c0.3,0.1,0.5,0.3,0.6,0.6
				c0,0.4-0.2,0.9-0.5,1.5c-0.3,0.6-0.6,1.1-0.6,1.5c-0.2,0.2-0.4,0.5-0.6,0.9c-0.2,0.4-0.4,0.7-0.5,0.8c-0.3,0.5-0.7,1.4-1.3,2.5
				c-0.6,1.2-1.4,2.4-2.1,3.6L287.5,284.7z M292.9,283.1c0.1-0.3,0.2-0.4,0.4-0.4c0.2,0,0.3,0.2,0.2,0.5L292.9,283.1z"/>
			<path class="st9" d="M302.7,283.4c1.3-0.9,2.6-1.3,3.7-1.1c0.5,0.1,1,0.2,1.5,0.5c0.2,0.5,0.3,1,0.3,1.5c0,0.3-0.3,1-0.8,2.3
				l-0.6,0c0-0.2,0-0.8,0.1-1.8c0.1-0.6,0-0.9-0.2-1.2c-1.5,0.2-3,0.8-4.4,1.9c-1.3,1-2.7,1.7-3.5,3.2c-0.3,0-0.6,0.6-0.8,1
				c-0.2,0.5-0.4,0.8-0.6,0.9c-0.5,0.6-1,1.2-1.7,2.7c-0.2,0.2,0,0.7-0.3,1.4c-0.2,0.6-0.6,0.9-1.1,1c-0.1-0.2-0.2-0.3-0.3-0.2
				c-0.5,0.3-0.7,0.1-0.9-0.5c0.7-1.3,2.3-4.7,5.3-11.1c-0.2-0.8,0-1.2,0.7-1.2c1,0,1.5,0.3,1.4,0.9c0,0.1-0.1,0.3-0.2,0.4
				c-0.2,0.1-0.2,0.5-0.3,1.2c-0.2,0-0.3,0-0.3,0c0,0.1,0,0.3,0,0.5l-0.2,0.4c0,0,0,0.1,0,0.1c-0.1,0-0.1,0-0.1,0.1
				C300,285.5,301.1,284.5,302.7,283.4z"/>
			<path class="st9" d="M311.5,294.5c-0.3,0.5-0.5,0.7-0.6,0.8c-0.4,0.4-1.2,0.9-2.3,1.6c-1.1,1-2.5,1.5-4.2,1.4
				c-0.5,0-0.9-0.2-1.4-0.3c-1-0.8-1.6-2-1.5-3.7c0.2-0.8,0.7-1.8,1.3-2.8c0.6-0.9,1.1-1.7,1.7-2.6c0.2-0.1,0.6-0.6,1.2-1.2
				c0.5-0.5,0.9-0.8,1.4-1c0.5-0.6,1.2-0.9,2-0.9c0.3,0.1,0.8-0.1,1.6-0.6c0.1-0.1,0-0.3,0.3-0.5c0.9,0.1,1.5,0.2,1.9,0.5
				c0.9,0.9,1.2,2.1,1.1,3.6c-0.1,0.8-0.3,1.6-0.6,2.4c-0.3,0.6-0.4,1.6-1.2,2.8C311.9,294.1,311.7,294.3,311.5,294.5z M312,286.2
				l-2,0.3l0.4,0.6c-0.1,0.5-0.1,1-0.2,1.4c-0.1,0.5-0.4,0.9-0.7,1.2c-0.1,0.1-0.3,0.1-0.4,0.1c-0.4-0.1-0.6-0.5-0.5-1.4
				c0,0,0-0.1,0-0.2c-0.3,0.1-0.7,0.4-1.2,0.8c-0.6,0.5-1,0.7-1.2,0.8c-1.2,1.6-1.8,2.5-1.9,2.8c-0.6,1-0.9,2.1-0.9,3.2
				c0.2,0.3,0.9,0.7,1.2,0.8c3.5-0.3,6.1-2.5,8.1-6.7c0.1-1.7,0.2-2.5,0.2-2.2C312.6,287,312.4,286.5,312,286.2z"/>
			<path class="st9" d="M324,299.7c-0.8,0.3-1.5,0.4-2,0.3c-0.8-0.1-1.2-0.8-1.3-1.8c0-0.1-0.1-0.3-0.1-0.6c0-0.5-0.1-0.7-0.2-0.8
				s-0.3,0.1-0.6,0.3c-0.5,0.4-1.4,1.1-2.5,2c-1.3,0.7-2.7,1.1-4.5,1c-0.7-1.1-0.8-2.2-0.6-3.5c0.1-0.5,0.3-1.2,0.6-2.1
				c0.4-1.1,0.7-1.8,0.8-2.1c0.8-2.1,2.1-4.1,3.6-5.9c0.3,0,0.6,0.2,1,0.5c0,0.2,0,0.5,0,0.6c-0.1,0.3-0.2,0.6-0.5,0.9
				c-0.3,0.4-0.5,0.7-0.7,0.9c-0.7,1.1-1.6,2.9-2.7,5.3c-0.5,1.8-0.7,3.1-0.6,3.7c0.8,0,1.4-0.1,1.9-0.3c0.1-0.1,0.7-0.4,1.6-0.9
				c0.3-0.3,1.2-1.2,2.7-2.6c1.1-1,1.9-2,2.2-2.9c1.1-1.7,2.2-3.1,3.1-4.1c0.5-0.2,0.9-0.1,0.9,0.5c0,0.3,0,0.5,0,0.8
				c-0.1,0.4-0.4,1-0.8,1.6c-0.5,0.6-0.8,1.1-0.9,1.4c-1,0.9-1.8,2.3-2.3,4.3c0,0,0,0.4-0.1,1.2c0,0.5,0,0.8,0.3,1
				c0.5,0,0.8-0.1,1.2-0.2c0.5-0.2,0.8-0.4,1-0.4c0.1,0,0.5-0.3,1.1-0.7c0.2-0.1,0.4-0.3,0.7-0.4l0.5,0.4c-0.3,0.8-0.8,1.3-1.4,1.7
				C325.3,298.9,324.7,299.2,324,299.7z"/>
			<path class="st9" d="M336.8,290.4c0,0.5-0.1,1.2-0.2,2.1l-0.4,2.1c-0.3,0.1-0.4,0.3-0.5,0.6c-0.2,0.3-0.3,0.6-0.5,0.7
				c-0.2,0.1-0.2,0.3-0.3,0.5l-0.2,0.3c0,0-0.1,0.2-0.2,0.3c-0.9,1.2-1.5,2.5-2.1,3.7c-0.4,0.5-0.7,1.1-0.9,1.8
				c-0.2,0.1-0.3,0.2-0.4,0.4c-0.1,0.3-0.1,0.5-0.3,0.6c-1.6,3.2-2.7,5.4-3.3,6.4c-1.6,2.6-3.2,4.3-4.7,5.1
				c-0.9,0.4-1.6,0.6-2.3,0.5c-0.2,0-0.5-0.1-0.7-0.3l-0.8-1.2c1.5,0.4,2.6,0.1,3.3-0.8c0.7-0.4,1.3-1,1.9-1.7
				c2.3-3.1,4-6.3,5.3-9.6c-0.9,0.3-1.4,0.1-2.5-0.4c-0.6-0.6-1.7-1.9-1.8-3.2c-0.1-1.1-0.1-2.7,0.8-4c0.2-0.4,2.5-3.9,4.7-5.1
				c1.8-0.7,3.4-0.5,3.9-0.6C336.1,288.9,336.8,289.5,336.8,290.4z M335.2,291l-0.1-0.1c0-0.2,0-0.3-0.1-0.3c-0.9,0.3-3.7,0.4-3.9,1
				c-0.7,0.3-1.6,1.2-2.7,2.8c-1.2,1.6-1.2,2.7-1.1,4c0.1,0.6,0.6,1.5,1.1,2.1c1.2,0.6,3.1-1.5,3.9-3.4c0.1-0.4,0.3-0.8,0.5-1.2
				c0.2-0.3,0.4-0.6,0.7-1c0.5-0.5,0.7-0.8,0.8-1c0-0.1-0.1-0.3-0.5-0.6c0.6-0.2,1-0.5,1.1-1L335.2,291z"/>
			<path class="st9" d="M341.7,294.6c2.1-1.8,4-3,5.8-3.6c0.4-0.1,1,0,1.6,0.3c0.3,0.3,0.4,0.6,0.4,1.1c0,0.5,0,0.8,0.1,0.9
				c-0.3,0.4-0.5,0.9-0.7,1.7c-0.3,0.9-0.5,1.5-0.6,1.7c-0.7,1.4-1.3,2.9-2,4.4c-0.7,1.7-1.3,3.3-1.7,4.8c-0.8-0.8-1.1-1.7-0.9-2.6
				c0.1-0.3,0.2-0.7,0.4-1.3c0.3-0.6,0.4-1.1,0.5-1.3c0.2-0.6,0.8-1.9,1.7-3.8c0.8-1.6,1.2-2.8,1.3-3.8c-0.2-0.1-0.7,0-1.5,0.6
				c-1.4,0.8-3,2-4.7,3.6c-2.8,2.6-4.3,3.9-4.4,4.1c-0.3,0.2-0.7,0.4-1.1,0.8c-0.5,0.5-0.9,0.8-1,0.9c-0.5,0.1-0.8,0.1-1,0
				c-0.2-0.5-0.2-1.1-0.1-1.6c0.1-0.5,0.4-1.1,0.8-2c0.5-0.9,0.7-1.5,0.9-1.9c1.6-2.9,4.1-7.3,7.4-13.3c0-0.4,0.2-0.7,0.6-1
				c0-0.3,0.2-0.5,0.5-0.8c0.3-0.3,0.6-0.3,0.9-0.3c0.3,0.1,0.5,0.3,0.7,0.7c-0.1,0.9-0.4,1.8-1.1,2.6c-1,1.3-1.7,2.4-2.1,3.3
				c-0.1,0-0.2,0.1-0.2,0.2c-0.7,1.2-1.8,2.9-3.1,5.4c-0.6,1.1-1.4,2.7-2.6,4.9C338.3,297.6,340,296.1,341.7,294.6z"/>
			<path class="st9" d="M358.9,293.9c0.7,0.3,1.2,0.7,1.5,1.1l-0.1,0.8c-0.5,0-1.3-0.2-2.5-0.6c-0.7-0.2-1.3-0.3-1.9-0.2
				c-2.6,3.2-4,6.1-4.4,8.6c-0.1,0.3-0.1,0.7-0.1,1c0.2,0.5,0.8,0.7,1.9,0.6c0.4,0,1-0.1,1.7-0.4c0.7-0.3,1.4-0.4,2.1-0.3
				c-0.8,1.5-2.4,2.2-4.6,2.4c-1.2,0-2-0.4-2.4-1.1c-0.4-0.9-0.5-2-0.3-3.2c0.2-1.6,1-3.4,2.3-5.5c0.4-0.5,0.9-1.2,1.5-2.3
				c-1-0.1-2,0.2-2.9,0.9c-0.4,0-0.7-0.3-0.8-0.6c-0.1-0.3-0.1-0.7-0.2-1c0.1-0.3,0.5-0.6,1.2-0.8c0.5-0.3,1.2-0.5,1.9-0.4
				c0.6,0,1.3,0.1,1.9,0.1c1.9-2.4,3.3-4.8,4.3-7c0.3-0.3,0.5-0.4,0.7-0.4c0.4,0.1,0.7,0.4,0.9,1.1c-0.5,2-1.7,4.1-3.7,6.5
				c0,0-0.1,0-0.1,0.1C357.7,293.6,358.3,293.8,358.9,293.9z"/>
			<path class="st9" d="M371.7,309.7c-1.1,0.9-2.2,1.2-3.2,1c-0.4-0.1-0.9-0.3-1.3-0.5c-0.6-0.7-0.8-1.6-0.6-2.6
				c0.1-0.5,0.3-1.3,0.7-2.2c0.2-0.5,0.9-2.2,2.2-4.8c0.2-0.5,0.8-1.2,1.6-2c0.5-0.5,0.9-1,1.4-1.6c0.5-0.5,1.1-0.9,1.7-0.9
				c0.2,0,0.4,0,0.6,0c0.5,0.1,1,0.7,1.6,1.8c0,0.2,0,0.5,0.2,0.8c0.5-1.3,1.4-3.3,2.7-5.8c0-0.2,0.5-0.9,1.2-2.3
				c0.2-0.3,0.5-0.4,0.8-0.3c0.5,0.1,0.8,0.4,0.9,1c-0.4,2.5-1.3,5.4-2.8,8.5c-0.4,0.7-1,1.7-2,3c-0.5,0.7-0.9,1.5-1.1,2.6
				c-0.2,1-0.2,2,0.1,2.9c0.2,0.4,0.5,0.6,0.9,0.7c0.2,0,0.4,0,0.6-0.1c0.5,0,1-0.3,1.4-0.7c0.4-0.3,0.8-0.7,1.2-1
				c0.3-0.2,0.8-0.4,1.4-0.6c0,0.3,0,0.5,0,0.7c0,0-0.3,0.5-0.9,1.4c-1,0.7-1.7,1.2-1.9,1.3c-0.8,0.4-1.5,0.6-2.1,0.5
				c-0.3-0.1-0.6-0.2-0.9-0.3c-0.8-0.7-1.3-1.7-1.6-3C373.4,308,372.6,308.9,371.7,309.7z M375.9,300.4c-0.4-0.2-0.7-0.6-0.9-1.2
				l-0.2-0.4c-0.1-0.3-0.3-0.5-0.4-0.7c-1.1,0.8-2.1,2-3.3,3.6l-0.1,0.4c-0.4,0.3-0.7,0.7-0.9,1.3c-0.2,0.5-0.5,1.1-0.7,1.6
				c-0.1,0.2-0.2,0.7-0.4,1.4c-0.2,0.5-0.3,1-0.4,1.4c-0.1,0.4-0.1,0.8-0.1,1.1c0,0.1,0.2,0.3,0.5,0.3c1.7-0.4,3.6-1.9,5.6-4.5
				c0-0.3,0.2-0.9,0.6-1.9c0.1-0.1,0.1-0.4,0.2-0.8C375.3,301.7,375.5,301.2,375.9,300.4z"/>
			<path class="st9" d="M389.3,309.3c-0.3,0.5-0.5,0.7-0.6,0.8c-0.4,0.4-1.2,0.9-2.3,1.6c-1.1,1-2.5,1.5-4.2,1.4
				c-0.5,0-0.9-0.2-1.4-0.3c-1-0.8-1.6-2-1.5-3.7c0.2-0.8,0.7-1.8,1.3-2.8c0.6-0.9,1.1-1.7,1.7-2.6c0.2-0.1,0.6-0.6,1.2-1.2
				c0.5-0.5,0.9-0.8,1.4-1c0.5-0.6,1.2-0.9,2-0.9c0.3,0.1,0.8-0.1,1.6-0.6c0.1-0.1,0-0.3,0.3-0.5c0.9,0.1,1.5,0.2,1.9,0.5
				c0.9,0.9,1.2,2.1,1.1,3.6c-0.1,0.8-0.3,1.6-0.5,2.4c-0.3,0.6-0.4,1.6-1.2,2.8C389.7,308.9,389.5,309.1,389.3,309.3z M389.8,301
				l-2,0.3l0.4,0.6c-0.1,0.5-0.1,1-0.2,1.4c-0.1,0.5-0.4,0.9-0.7,1.2c-0.1,0.1-0.3,0.1-0.4,0.1c-0.4-0.1-0.6-0.5-0.5-1.4
				c0,0,0-0.1,0-0.2c-0.3,0.1-0.7,0.4-1.2,0.8c-0.6,0.5-1,0.7-1.2,0.8c-1.2,1.6-1.8,2.5-1.9,2.8c-0.6,1-0.9,2.1-0.9,3.2
				c0.2,0.3,0.9,0.7,1.2,0.8c3.5-0.3,6.1-2.5,8.1-6.7c0.1-1.7,0.2-2.5,0.2-2.2C390.4,301.8,390.2,301.3,389.8,301z"/>
			<path class="st9" d="M400.9,309.7c-0.4,1.1-0.8,2-0.9,2.7c-0.2,1.3-0.1,2.5,0.4,3.5c-0.8,0.1-1.4-0.1-1.8-0.6
				c-0.4-1.1-0.4-2.2-0.2-3.6c0.2-0.8,0.5-1.9,1-3.1c0.4-1,0.8-2,1.2-2.9l0-0.1c-1.3,0.7-2.8,1.9-4.6,3.7c-1.9,1.9-3.4,3.2-4.4,3.8
				c-0.7,0.2-1.2,0.1-1.6-0.1c-0.4-0.5-0.4-1.2,0-2c0.3-0.7,1.1-2.2,2.3-4.7c1-1.9,1.6-3.6,2-4.8c0.3-0.2,0.5-0.3,0.8-0.3
				c0.3,0.1,0.5,0.2,0.7,0.6c0.2,0.3,0.2,0.7,0.1,1c-0.8,1.6-1.9,4.1-3.3,7.3c0.2-0.3,0.5-0.7,1.1-1c1.8-1.7,3-2.8,3.6-3.3
				c1.4-1.2,2.9-2,4.2-2.5c0.4,0.1,0.7,0.3,0.9,0.6c0.3,0.3,0.3,0.7,0.2,1.2c0,0.2-0.1,0.5-0.3,0.9c-0.2,0.4-0.3,0.7-0.3,0.9
				C401.9,307.3,401.5,308.2,400.9,309.7z"/>
			<path class="st9" d="M412.3,316.5c-0.8,0.3-1.5,0.4-2,0.3c-0.8-0.1-1.2-0.8-1.3-1.8c0-0.1-0.1-0.3-0.1-0.6c0-0.5-0.1-0.7-0.2-0.8
				c-0.1,0-0.3,0.1-0.6,0.3c-0.5,0.4-1.4,1.1-2.5,2c-1.3,0.7-2.7,1.1-4.5,1c-0.7-1.1-0.8-2.2-0.6-3.5c0.1-0.5,0.3-1.2,0.6-2.1
				c0.4-1.1,0.7-1.8,0.8-2.1c0.8-2.1,2.1-4.1,3.6-5.9c0.3,0,0.6,0.2,1,0.5c0,0.2,0,0.5,0,0.6c-0.1,0.3-0.2,0.6-0.5,0.9
				c-0.3,0.4-0.5,0.7-0.7,0.9c-0.7,1.1-1.6,2.9-2.7,5.3c-0.5,1.8-0.7,3.1-0.6,3.7c0.8,0,1.4-0.1,1.9-0.3c0.1-0.1,0.7-0.4,1.6-0.9
				c0.3-0.3,1.2-1.2,2.7-2.6c1.1-1,1.9-2,2.2-2.9c1.1-1.7,2.2-3.1,3.1-4.1c0.5-0.2,0.9-0.1,0.9,0.5c0,0.3,0,0.5,0,0.8
				c-0.1,0.4-0.4,1-0.8,1.6c-0.5,0.6-0.8,1.1-0.9,1.4c-1,0.9-1.8,2.3-2.3,4.3c0,0,0,0.4-0.1,1.2c0,0.5,0,0.8,0.3,1
				c0.5,0,0.8-0.1,1.2-0.2c0.5-0.2,0.8-0.4,1-0.4c0.1,0,0.5-0.3,1.1-0.7c0.2-0.1,0.4-0.3,0.7-0.4l0.5,0.4c-0.3,0.8-0.8,1.3-1.4,1.7
				C413.6,315.7,413.1,316,412.3,316.5z"/>
			<path class="st9" d="M423,306.1c0.7,0.3,1.2,0.7,1.5,1.1l-0.1,0.8c-0.5,0-1.3-0.2-2.5-0.6c-0.7-0.2-1.3-0.3-1.9-0.2
				c-2.6,3.2-4,6.1-4.4,8.6c-0.1,0.3-0.1,0.7-0.1,1c0.2,0.5,0.8,0.7,1.9,0.6c0.4,0,1-0.1,1.7-0.4c0.7-0.3,1.4-0.4,2.1-0.3
				c-0.8,1.5-2.4,2.2-4.6,2.4c-1.2,0-2-0.4-2.4-1.1c-0.4-0.9-0.5-2-0.3-3.2c0.2-1.6,1-3.4,2.3-5.5c0.4-0.5,0.9-1.2,1.5-2.3
				c-1-0.1-2,0.2-2.9,0.9c-0.4,0-0.7-0.3-0.8-0.6c-0.1-0.3-0.1-0.7-0.2-1c0.1-0.3,0.5-0.6,1.2-0.8c0.5-0.3,1.2-0.5,1.9-0.4
				c0.6,0,1.3,0.1,1.9,0.1c1.9-2.4,3.3-4.8,4.3-7c0.3-0.3,0.5-0.4,0.7-0.4c0.4,0.1,0.7,0.4,0.9,1.1c-0.5,2-1.7,4.1-3.7,6.5
				c0,0-0.1,0-0.1,0.1C421.8,305.8,422.4,306,423,306.1z"/>
			<path class="st9" d="M424.3,312.1c0.1,0.1,0.2,0.1,0.2,0.1c-0.1,0-0.1,0-0.1,0l0.5,0.2c-0.1,0.1,0,0.3,0.2,0.3
				c0,0,0.1,0.1,0.2,0.1c0.1,0,0.1,0,0.2,0l0.3,0.1c0.1,0.3,0.5,0.6,1,0.9c0.5,0.3,0.9,0.6,1.1,0.8c1.2,0.9,1.8,1.9,1.8,2.7
				c-0.1,0.6-0.5,1.2-1.2,1.8c-0.1,0-0.2,0-0.4,0.2c-0.1,0.1-0.2,0.2-0.3,0.2c-1.9,0.8-3.6,1.1-5,0.7c-0.9-0.2-1.6-0.7-2.1-1.3
				c0-0.1,0-0.3-0.1-0.6c0-0.3,0-0.5,0-0.6c0.1-0.3,0.3-0.5,0.7-0.7c0.1,0.3,0.3,0.7,0.5,1.4c0.2,0.3,0.4,0.5,0.8,0.5
				c1.4-0.1,2.4-0.2,2.8-0.3c1.1-0.2,1.9-0.7,2.4-1.4c0.1-0.6-0.2-1.1-0.9-1.6c-0.5-0.4-1-0.7-1.6-1.1c-1-0.6-1.6-1.1-2-1.4
				c-0.6-0.7-0.9-1.4-0.7-2.2c0.4-0.4,0.9-0.7,1.7-1.1c0.9-0.5,1.5-0.8,1.8-1c0.2,0,0.6-0.1,1.1-0.3c0.4-0.2,0.8-0.3,1-0.3
				c1.7-0.6,1.8-0.5,3.2-0.7c0.3,0.1,0.5,0.2,0.8,0.3c0.3,0.1,0.4,0.4,0.4,0.7c0,0.2-0.3,0.4-0.7,0.5c-0.2,0-0.5,0.1-0.9,0.2
				c-0.4,0.1-0.8,0.2-1,0.2c-0.5,0.2-0.3,0-2.1,0.5c-1.5,0.4-2.7,0.9-3.5,1.5C424.6,311.8,424.5,311.9,424.3,312.1L424.3,312.1z"/>
			<path class="st9" d="M452.7,311.8c0.7,0.3,1.2,0.7,1.5,1.1l-0.1,0.8c-0.5,0-1.3-0.2-2.5-0.6c-0.7-0.2-1.3-0.3-1.9-0.2
				c-2.6,3.2-4,6.1-4.4,8.6c-0.1,0.3-0.1,0.7-0.1,1c0.2,0.5,0.8,0.7,1.9,0.6c0.4,0,1-0.1,1.7-0.4c0.7-0.3,1.4-0.4,2.1-0.3
				c-0.8,1.5-2.4,2.2-4.6,2.4c-1.2,0-2-0.4-2.4-1.1c-0.4-0.9-0.5-2-0.3-3.2c0.2-1.6,1-3.4,2.3-5.5c0.4-0.5,0.9-1.2,1.5-2.3
				c-1-0.1-2,0.2-2.9,0.9c-0.4,0-0.7-0.3-0.8-0.6c-0.1-0.3-0.1-0.7-0.2-1c0.1-0.3,0.5-0.6,1.2-0.8c0.5-0.3,1.2-0.5,1.9-0.4
				c0.6,0,1.3,0.1,1.9,0.1c1.9-2.4,3.3-4.8,4.3-7c0.3-0.3,0.5-0.4,0.7-0.4c0.4,0.1,0.7,0.4,0.9,1.1c-0.5,2-1.7,4.1-3.7,6.5
				c0,0-0.1,0-0.1,0.1C451.5,311.4,452.1,311.6,452.7,311.8z"/>
			<path class="st9" d="M458.4,316.8c2.1-1.8,4-3,5.8-3.6c0.4-0.1,1,0,1.6,0.3c0.3,0.3,0.4,0.6,0.4,1.1c0,0.5,0,0.8,0.1,0.9
				c-0.3,0.4-0.5,0.9-0.7,1.7c-0.3,0.9-0.5,1.5-0.6,1.7c-0.7,1.4-1.3,2.9-2,4.4c-0.7,1.7-1.3,3.3-1.7,4.8c-0.8-0.8-1.1-1.7-0.9-2.6
				c0.1-0.3,0.2-0.7,0.4-1.3c0.3-0.6,0.4-1.1,0.5-1.3c0.2-0.6,0.8-1.9,1.7-3.8c0.8-1.6,1.2-2.8,1.3-3.8c-0.2-0.1-0.7,0-1.5,0.6
				c-1.4,0.8-3,2-4.7,3.6c-2.8,2.6-4.3,3.9-4.4,4.1c-0.3,0.2-0.7,0.4-1.1,0.8c-0.5,0.5-0.9,0.8-1,0.9c-0.5,0.1-0.8,0.1-1,0
				c-0.2-0.5-0.2-1.1-0.1-1.6c0.1-0.5,0.4-1.1,0.8-2c0.5-0.9,0.7-1.5,0.9-1.9c1.6-2.9,4.1-7.3,7.4-13.3c0-0.4,0.2-0.7,0.6-1
				c0-0.3,0.2-0.5,0.5-0.8c0.3-0.3,0.6-0.3,0.9-0.3c0.3,0.1,0.5,0.3,0.7,0.7c-0.1,0.9-0.4,1.8-1.1,2.6c-1,1.3-1.7,2.4-2.1,3.3
				c-0.1,0-0.2,0.1-0.2,0.2c-0.7,1.2-1.8,2.9-3.1,5.4c-0.6,1.1-1.4,2.7-2.6,4.9C454.9,319.8,456.6,318.3,458.4,316.8z"/>
			<path class="st9" d="M468.2,328.2c-0.4,0.1-0.9,0.3-1.3,0.5c-0.5,0.1-0.9,0.2-1.3,0.1c-0.5-0.1-1-0.7-1.5-1.6
				c0.1-0.5,0.1-1.1,0.2-1.6c0.4-2.3,1.1-5,3.1-8.7c0.3-0.7,0.9-1.5,1.7-2.6c0.2-0.2,0.4-0.2,0.8-0.2c0.3,0.1,0.5,0.2,0.8,0.5
				c0.2,0.3,0.3,0.5,0.3,0.8c0,0.1-0.1,0.3-0.2,0.4c-1,1-1.2,1.5-2.1,3l-1.8,4.3c-1,2.4-0.7,2.8-0.8,3.6c0,0.2,0.1,0.4,0.3,0.8
				c0.1,0.1,0.3,0,0.6-0.2c0.3-0.2,0.4-0.2,0.5-0.3c0.3-0.2,0.9-0.5,1.7-1.1c0.7-0.5,1.3-0.8,1.8-1l1.2-1c-0.9,1.6-1.6,2.6-2.2,2.8
				C469.6,327,469,327.5,468.2,328.2z M473.4,311.4c-0.1,0-0.2,0.2-0.3,0.4c-1.4-0.1-2.1-0.6-2-1.4c0.1-0.5,0.3-0.7,0.6-0.8
				c0.1,0,0.5,0,1,0.2c0.2,0,0.4,0,0.6,0c0,0.1,0.1,0.2,0.3,0.3c0.2,0.2,0.2,0.4,0.2,0.6c0,0.2-0.2,0.5-0.4,0.6L473.4,311.4z"/>
			<path class="st9" d="M474.2,321.6c0.1,0.1,0.2,0.1,0.2,0.1c-0.1,0-0.1,0-0.1,0l0.5,0.2c-0.1,0.1,0,0.3,0.2,0.3
				c0,0,0.1,0.1,0.2,0.1c0.1,0,0.1,0,0.2,0l0.3,0.1c0.1,0.3,0.5,0.6,1,0.9c0.5,0.3,0.9,0.6,1.1,0.8c1.2,0.9,1.8,1.9,1.8,2.7
				c-0.1,0.6-0.5,1.2-1.2,1.8c-0.1,0-0.2,0-0.4,0.2c-0.1,0.1-0.2,0.2-0.3,0.2c-1.9,0.8-3.6,1.1-5,0.7c-0.9-0.2-1.6-0.7-2.1-1.3
				c0-0.1,0-0.3-0.1-0.6c0-0.3,0-0.5,0-0.6c0.1-0.3,0.3-0.5,0.7-0.7c0.1,0.3,0.3,0.7,0.5,1.4c0.2,0.3,0.4,0.5,0.8,0.5
				c1.4-0.1,2.4-0.2,2.8-0.3c1.1-0.2,1.9-0.7,2.4-1.4c0.1-0.6-0.2-1.1-0.9-1.6c-0.5-0.4-1-0.7-1.6-1.1c-1-0.6-1.6-1.1-2-1.4
				c-0.6-0.7-0.9-1.4-0.7-2.2c0.4-0.4,0.9-0.7,1.7-1.1c0.9-0.5,1.5-0.8,1.8-1c0.2,0,0.6-0.1,1.1-0.3c0.4-0.2,0.8-0.3,1-0.3
				c1.7-0.6,1.8-0.5,3.2-0.7c0.3,0.1,0.5,0.2,0.8,0.3c0.3,0.1,0.4,0.4,0.4,0.7c0,0.2-0.3,0.4-0.7,0.5c-0.2,0-0.5,0.1-0.9,0.2
				c-0.4,0.1-0.8,0.2-1,0.2c-0.5,0.2-0.3,0-2.1,0.5c-1.5,0.4-2.7,0.9-3.5,1.5C474.5,321.3,474.4,321.4,474.2,321.6L474.2,321.6z"/>
			<path class="st9" d="M496.5,322.4c-0.2,1-0.6,2-1.4,3c-0.1,0.3-0.3,0.9-0.6,1.7c-0.3,0.8-0.5,1.4-0.6,1.9
				c1.7-1.3,3.4-2.7,5.1-4.1c2-1.6,3.8-2.7,5.5-3.4c0.8,0.5,1.1,1.2,0.9,2.4c0,0.3-0.2,0.7-0.3,1.3c-0.2,0.6-0.3,1-0.3,1.3
				c-0.6,1.1-1.4,2.8-2.4,5.1c0,0.1,0.1,0.1,0.1,0c2.8-1.8,4.6-4.6,7-6.1c2.9-1.8,2.7-1.7,4.9-2.5c0.5,0.1,0.7,0.4,0.8,0.9
				c-0.1,1.1-0.5,2.2-1.3,3.6c-1.1,1.8-1.7,2.9-1.9,3.3c-1.2,3.1-1.9,5.2-2.1,6.3l0,0c0.1,0,0.3,0.1,0.5,0.3
				c-0.2,0.4-0.3,0.7-0.7,0.7c-0.3,0.1-0.6,0.1-0.9,0.2c-0.6-0.7-0.8-1.7-0.6-2.9c0.1-0.3,0.2-0.8,0.4-1.5c0.2-0.6,0.3-1.2,0.4-1.5
				c0.4-1,1-2.2,1.8-3.7c1-1.8,1.7-3.1,2-3.7l-0.1,0c-0.3,0.2-0.6,0.7-0.7,0.6c-1.5,0.7-1.5,1.1-3.8,2.8c-2.4,1.8-3.2,2.7-4.5,3.8
				c-1,0.8-1.6,1.3-1.8,1.4c-0.7,0.4-1.5,1-2.3,0.7c-0.1-0.6,0.4-1.1,0.5-1.8c0.1-0.4,0.4-1.4,0.8-2.8c0.2-0.5,0.6-1.3,1.3-2.6
				c0.6-1,0.5-2,0.6-2.7c0-0.3,0.1-0.5,0.1-0.7c-0.7,0.2-1.5,0.8-2.5,1.8c-1.1,1-2,1.7-2.5,2c-2.4,2.4-4.4,2.7-6.2,4.9
				c-0.1-0.2-0.7,0.4-0.7,0.3c0-0.1-0.1-0.1-0.2-0.1c-0.2,0-0.4,0-0.4,0c-0.2,0-0.4-0.2-0.6-0.3c0.4-1.2,1.1-2.9,2.3-5.1
				c1.2-2.2,2-3.8,2.3-5.1c-0.2,0.1,0.2-2.2-0.1-2.2c0.6-0.3,1.2-0.3,1.9,0.2C496.6,320.8,496.6,321.5,496.5,322.4z"/>
			<path class="st9" d="M521.4,334.5c-0.3,0.5-0.5,0.7-0.6,0.8c-0.4,0.4-1.2,0.9-2.3,1.6c-1.1,1-2.5,1.5-4.2,1.4
				c-0.5,0-0.9-0.2-1.4-0.3c-1-0.8-1.6-2-1.5-3.7c0.2-0.8,0.7-1.8,1.3-2.8c0.6-0.9,1.1-1.7,1.7-2.6c0.2-0.1,0.6-0.6,1.2-1.2
				c0.5-0.5,0.9-0.8,1.4-1c0.5-0.6,1.2-0.9,2-0.9c0.3,0.1,0.8-0.1,1.6-0.6c0.1-0.1,0-0.3,0.3-0.5c0.9,0.1,1.5,0.2,1.9,0.5
				c0.9,0.9,1.2,2.1,1.1,3.6c-0.1,0.8-0.3,1.6-0.5,2.4c-0.3,0.6-0.4,1.6-1.2,2.8C521.8,334.1,521.6,334.2,521.4,334.5z M521.9,326.2
				l-2,0.3l0.4,0.6c-0.1,0.5-0.1,1-0.2,1.4c-0.1,0.5-0.4,0.9-0.7,1.2c-0.1,0.1-0.3,0.1-0.4,0.1c-0.4-0.1-0.6-0.5-0.5-1.4
				c0,0,0-0.1,0-0.2c-0.3,0.1-0.7,0.4-1.2,0.8c-0.6,0.5-1,0.7-1.2,0.8c-1.2,1.6-1.8,2.5-1.9,2.8c-0.6,1-0.9,2.1-0.9,3.2
				c0.2,0.3,0.9,0.7,1.2,0.8c3.5-0.3,6.1-2.5,8.1-6.7c0.1-1.7,0.2-2.5,0.2-2.2C522.6,327,522.3,326.5,521.9,326.2z"/>
			<path class="st9" d="M531.1,326.9c1.3-0.9,2.6-1.3,3.7-1.1c0.5,0.1,1,0.2,1.5,0.5c0.2,0.5,0.3,1,0.3,1.5c0,0.3-0.3,1-0.8,2.3
				l-0.6,0c0-0.2,0-0.8,0.1-1.8c0.1-0.6,0-0.9-0.2-1.2c-1.5,0.2-3,0.8-4.4,1.9c-1.3,1-2.7,1.7-3.5,3.2c-0.3,0-0.6,0.6-0.8,1
				c-0.2,0.5-0.4,0.8-0.6,0.9c-0.5,0.6-1,1.2-1.7,2.7c-0.2,0.2,0,0.7-0.3,1.4c-0.2,0.6-0.6,0.9-1.1,1c-0.1-0.2-0.2-0.3-0.3-0.2
				c-0.5,0.3-0.7,0.1-0.9-0.5c0.7-1.3,2.3-4.7,5.3-11.1c-0.2-0.8,0-1.2,0.7-1.2c1,0,1.5,0.3,1.4,0.9c0,0.1-0.1,0.3-0.2,0.4
				c-0.2,0.1-0.2,0.5-0.3,1.2c-0.2,0-0.3,0-0.3,0c0,0.1,0,0.3,0,0.5l-0.2,0.4c0,0,0,0.1,0,0.1c-0.1,0-0.1,0-0.1,0.1
				C528.4,329,529.5,328,531.1,326.9z"/>
			<path class="st9" d="M543.5,336.8c-0.4,1.1-0.8,2-0.9,2.7c-0.2,1.3-0.1,2.5,0.4,3.5c-0.8,0.1-1.4-0.1-1.8-0.6
				c-0.4-1.1-0.4-2.2-0.2-3.6c0.2-0.8,0.5-1.9,1-3.1c0.4-1,0.8-2,1.2-2.9l0-0.1c-1.3,0.7-2.8,1.9-4.6,3.7c-1.9,1.9-3.4,3.2-4.4,3.8
				c-0.7,0.2-1.2,0.1-1.6-0.1c-0.4-0.5-0.4-1.2,0-2c0.3-0.7,1.1-2.2,2.3-4.7c1-1.9,1.6-3.6,2-4.8c0.3-0.2,0.5-0.3,0.8-0.3
				c0.3,0.1,0.5,0.2,0.7,0.6c0.2,0.3,0.2,0.7,0.1,1c-0.8,1.6-1.9,4.1-3.3,7.3c0.2-0.3,0.5-0.7,1.1-1c1.8-1.7,3-2.8,3.6-3.3
				c1.4-1.2,2.9-2,4.2-2.5c0.4,0.1,0.7,0.3,0.9,0.6c0.3,0.3,0.3,0.7,0.2,1.2c0,0.2-0.1,0.5-0.3,0.9c-0.2,0.4-0.3,0.7-0.3,0.9
				C544.4,334.5,544.1,335.4,543.5,336.8z"/>
			<path class="st9" d="M548,343.4c-0.4,0.1-0.9,0.3-1.3,0.5c-0.5,0.1-0.9,0.2-1.3,0.1c-0.5-0.1-1-0.7-1.5-1.6
				c0.1-0.5,0.1-1.1,0.2-1.6c0.4-2.3,1.1-5,3.1-8.7c0.3-0.7,0.9-1.5,1.7-2.6c0.2-0.2,0.4-0.2,0.8-0.2c0.3,0.1,0.5,0.2,0.8,0.5
				c0.2,0.3,0.3,0.5,0.3,0.8c0,0.1-0.1,0.3-0.2,0.4c-1,1-1.2,1.5-2.1,3l-1.8,4.3c-1,2.4-0.7,2.8-0.8,3.6c0,0.2,0.1,0.4,0.3,0.8
				c0.1,0.1,0.3,0,0.6-0.2c0.3-0.2,0.4-0.2,0.5-0.3c0.3-0.2,0.9-0.5,1.7-1.1c0.7-0.5,1.3-0.8,1.8-1l1.2-1c-0.9,1.6-1.6,2.6-2.2,2.8
				C549.3,342.2,548.8,342.7,548,343.4z M553.1,326.6c-0.1,0-0.2,0.2-0.3,0.4c-1.4-0.1-2.1-0.6-2-1.4c0.1-0.5,0.3-0.7,0.6-0.8
				c0.1,0,0.5,0,1,0.2c0.2,0,0.4,0,0.6,0c0,0.1,0.1,0.2,0.3,0.3c0.2,0.2,0.2,0.4,0.2,0.6c0,0.2-0.2,0.5-0.4,0.6L553.1,326.6z"/>
			<path class="st9" d="M561,340.2c-0.4,1.1-0.8,2-0.9,2.7c-0.2,1.3-0.1,2.5,0.4,3.5c-0.8,0.1-1.4-0.1-1.8-0.6
				c-0.4-1.1-0.4-2.2-0.2-3.6c0.2-0.8,0.5-1.9,1-3.1c0.4-1,0.8-2,1.2-2.9l0-0.1c-1.3,0.7-2.8,1.9-4.6,3.7c-1.9,1.9-3.4,3.2-4.4,3.8
				c-0.7,0.2-1.2,0.1-1.6-0.1c-0.4-0.5-0.4-1.2,0-2c0.3-0.7,1.1-2.2,2.3-4.7c1-1.9,1.6-3.6,2-4.8c0.3-0.2,0.5-0.3,0.8-0.3
				c0.3,0.1,0.5,0.2,0.7,0.6c0.2,0.3,0.2,0.7,0.1,1c-0.8,1.6-1.9,4.1-3.3,7.3c0.2-0.3,0.5-0.7,1.1-1c1.8-1.7,3-2.8,3.6-3.3
				c1.4-1.2,2.9-2,4.2-2.5c0.4,0.1,0.7,0.3,0.9,0.6c0.3,0.3,0.3,0.7,0.2,1.2c0,0.2-0.1,0.5-0.3,0.9c-0.2,0.4-0.3,0.7-0.3,0.9
				C561.9,337.8,561.5,338.7,561,340.2z"/>
			<path class="st9" d="M573.1,335.5c0,0.5-0.1,1.2-0.2,2.1l-0.4,2.1c-0.3,0.1-0.4,0.3-0.5,0.6c-0.2,0.3-0.3,0.6-0.5,0.7
				c-0.2,0.1-0.2,0.3-0.3,0.5l-0.2,0.3c0,0-0.1,0.2-0.2,0.3c-0.9,1.2-1.5,2.5-2.1,3.7c-0.4,0.5-0.7,1.1-0.9,1.8
				c-0.2,0.1-0.3,0.2-0.4,0.4c-0.1,0.3-0.1,0.5-0.3,0.6c-1.6,3.2-2.7,5.4-3.3,6.4c-1.6,2.6-3.2,4.3-4.7,5.1
				c-0.9,0.4-1.6,0.6-2.3,0.5c-0.2,0-0.5-0.1-0.7-0.3l-0.8-1.2c1.5,0.4,2.6,0.1,3.3-0.8c0.7-0.4,1.3-1,1.9-1.7
				c2.3-3.1,4-6.3,5.3-9.6c-0.9,0.3-1.4,0.1-2.5-0.4c-0.6-0.6-1.7-1.9-1.8-3.2c-0.1-1.1-0.1-2.7,0.8-4c0.2-0.4,2.5-3.9,4.7-5.1
				c1.8-0.7,3.4-0.5,3.9-0.6C572.4,333.9,573.1,334.5,573.1,335.5z M571.5,336l-0.1-0.1c0-0.2,0-0.3-0.1-0.3c-0.9,0.3-3.7,0.4-3.9,1
				c-0.7,0.3-1.6,1.2-2.7,2.8c-1.2,1.6-1.2,2.7-1.1,4c0.1,0.6,0.6,1.5,1.1,2.1c1.2,0.6,3.1-1.5,3.9-3.4c0.1-0.4,0.3-0.8,0.5-1.2
				c0.2-0.3,0.4-0.6,0.7-1c0.5-0.5,0.7-0.8,0.8-1c0-0.1-0.1-0.3-0.5-0.6c0.6-0.2,1-0.5,1.1-1L571.5,336z"/>
			<path class="st9" d="M572.7,349.5c-0.7-0.4-1-0.8-0.9-1.3c0.1-0.5,0.3-0.8,0.7-1c0.4-0.2,0.8-0.3,1.2-0.1l0.2,0.3l0.1,0.2
				c0.3,0.4,0.4,0.7,0,1.1c-0.1,0-0.1,0.2-0.2,0.3C573.5,349.4,573.1,349.6,572.7,349.5z M582.5,331.1c-0.1,0.3-0.2,0.6-0.5,0.7
				c-0.2,0.5-0.5,1.2-1,2.1c-0.1,0.2-0.3,0.6-0.5,1.4c-0.2,0.5-0.5,1-0.8,1.3c-0.1,0.4-0.4,1-0.7,1.6c-0.5,0.8-0.8,1.3-0.9,1.5
				c-0.2,0.2-0.5,0.6-0.8,1.1l-0.1,0.1c-0.2,0.1-0.2,0.1-0.4,0.1c0,0-0.1,0-0.2-0.1c-0.1-0.3,0-0.9,0.4-1.5c0.1-0.1,0.1-0.3,0.1-0.6
				l0.1,0c0.6-1.1,1.4-2.9,2.3-5.4c0.4-0.7,0.7-1.4,0.8-2.1c0.1-0.1,0.3-0.4,0.5-0.8c0.8-1.6,1.5-3.2,2.1-5c0.1,0,0.3-0.4,0.6-1.2
				c0.4-0.6,0.5-1.2,0.2-2c0.6-0.1,1.1-0.1,1.4-0.1c0.5,0.1,0.7,0.4,0.8,0.9c-0.2,0.8-0.7,2-1.4,3.6c-0.7,1.6-1.3,2.8-1.5,3.8
				C582.7,330.6,582.6,330.8,582.5,331.1z"/>
			<path class="st9" d="M597.9,354.7l-0.6-0.1c0.2-0.5,0.6-0.9,1.2-1.1c0.4-0.1,0.7-0.4,0.8-0.7c1.1-0.6,2.3-1.3,3.5-2.2
				c1.1-0.9,2.1-1.8,3.2-2.6c0.1-0.2,0.4-0.4,0.8-0.7c0.4-0.3,0.7-0.6,0.8-0.9c0.3-0.2,0.7-0.5,1.1-1c-0.1-0.2-0.2-0.5-0.3-0.8
				c-0.1-0.2-0.1-0.5,0-0.9c-0.2-0.4-0.5-1.5-0.7-3.2l0.5-0.1c-0.2-1.4-0.2-3.2-0.1-5.4c0.1-1.8,0.3-3.7,0.4-5.5
				c0.1-0.3,0.5-0.6,1-1.1c0.6,0,0.9,0.2,1.1,0.8l0.1,0.1c0,0.1,0.1,0.1,0.1,0.2c-0.3,1.2-0.5,2.9-0.8,5.2c-0.5,3.6-0.5,6.6,0.3,8.8
				c1.6-1.3,3.5-3.3,5.5-6c0.5-0.7,1.4-1.7,2.6-3.1c0.2-0.3,0.4-0.8,0.8-1.4c0.3-0.6,0.6-1.1,0.7-1.3c0.5-0.1,0.9-0.2,1.1-0.1
				c0.5,0.1,0.6,0.5,0.5,1.1c-0.1,0.3-0.2,0.6-0.4,0.9c-0.3,0.3-0.5,0.6-0.7,0.9c-0.2,0.3-0.4,0.6-0.4,0.9c-0.3,0.1-0.4,0.2-0.5,0.4
				c-0.1,0.3-0.3,0.5-0.4,0.6l0,0c-0.4,0.6-1.8,2.3-4.1,5.1c-0.4,0.2-0.7,0.6-1.2,1.1c-0.6,0.6-1,1-1.2,1.2c-0.1,0-0.4,0.5-1.3,1.2
				c-0.4,0.4-0.5,0.8-0.2,1.2l-0.2,0.5c-0.5,0.1-1.2,0.5-2.1,0.9c-1,0.7-2.4,1.8-4.3,3.4c-0.5,0.2-1.5,0.9-3,2
				c-1.2,0.9-2.3,1.3-3.4,1.4L597.9,354.7z"/>
			<path class="st9" d="M620.2,355c-0.1,0.1-0.3,0.2-0.3,0.4c-2.7,1.3-4.7,1.9-6.1,1.7c-0.8-0.1-1.5-0.4-2.2-0.9c-1.2-1-1.3-2-1-4
				c1.8-4.5,4.3-7.4,8.6-9.5c0,0,0.3,0,1,0c0.5,0,1,0.2,1.2,0.5c0.2,0.4,0.3,0.7,0.2,1.1c-0.1,0.4-0.2,0.7-0.3,1.1
				c-0.8,1.6-2.9,3.2-6.1,4.9c-0.2,0.1-0.7,0.1-1.5,0.2c-0.5,0-0.8,0.2-0.8,0.7c-0.5,0.5-0.7,0.8-0.8,1.6c-0.1,0.6,0,0.8,0.1,1.4
				c0.4,0.8,1.1,1.3,2.2,1.5l0.1-0.1c0.5,0.1,1.2,0,2-0.1c0.9-0.3,2.3-0.8,4.3-1.3c0,0.3-0.1,0.6-0.3,0.7L620.2,355z M619.4,344.6
				c-1.7,0.7-3.4,2-4.9,4c0.1,0,0.3,0,0.5-0.1c0.8-0.5,1.7-1,2.5-1.6c1-0.7,1.7-1.4,2.1-2.1C619.6,344.8,619.5,344.7,619.4,344.6z"
				/>
			<path class="st9" d="M627.5,358.9c-0.4,0-0.7-0.2-0.9-0.4c-0.3-0.2-0.5-0.5-0.8-0.7c0-0.2,0-0.7-0.1-1.3c-0.1-0.5-0.1-1-0.1-1.3
				c-0.3,0.2-0.5,0.4-0.6,0.6c-1.3,1.1-2.1,1.8-2.3,1.9c-1,0.5-1.9,0.7-2.9,0.4c-0.7-0.8-0.9-1.7-0.7-2.9c0.2-1,0.5-2.8,1.5-4.6
				c1.9-3.2,4.6-4.9,7.4-6.1l0.7,0.1c0.3,0.1,0.5,0.2,0.7,0.4c0.1,0.3,0.2,0.5,0.1,0.9c0,0.3-0.2,0.8-0.6,1.5
				c-0.1,0.1-0.3,0.3-0.5,0.7c-0.2,0.3-0.5,0.5-0.7,0.6c-0.1,0.2-0.5,0.4-1.2,0.4c0.3-0.8,0.6-1.3,1-1.6c0.1-0.1,0.1-0.3,0.3-0.7
				c0.1-0.1,0.2-0.3,0.1-0.6c0.1,0,0.1-0.1,0.2-0.1c0.1,0,0.1-0.1,0.1-0.1c-0.2-0.1-0.5,0.1-1.1,0.6c-0.1,0.1-0.3,0.1-0.5,0.3
				c-3.6,2.9-5.7,5.7-6.3,8.4c-0.1,0.8,0.1,1.4,0.5,1.5c0.9-0.1,2-0.6,3-1.8c1.4-0.9,2.1-2.1,2.9-3.5c0.2-0.3,1.4-2,2.8-5.2
				c0.2-0.2,0.5-0.4,1.1-0.5c0.2,0.4,0.3,0.7,0.2,1c0,0.2-0.1,0.5-0.3,0.8c-0.2,0.4-0.3,0.6-0.4,0.8c-0.6,1-1.2,1.9-1.7,3
				c-0.6,1.1-1,2.2-1.2,3.1c-0.1,0.6-0.1,1.1-0.1,1.7s0.2,1,0.4,1.2c0.5,0,1.9-0.7,2.2-0.6c0,0.5-0.2,1.3-0.7,1.4
				C629.1,358.4,627.9,358.8,627.5,358.9z"/>
			<path class="st9" d="M636,350.6c2.1-1.8,4-3,5.8-3.6c0.4-0.1,1,0,1.6,0.3c0.3,0.3,0.4,0.6,0.4,1.1c0,0.5,0,0.8,0.1,0.9
				c-0.3,0.4-0.5,0.9-0.7,1.7c-0.3,0.9-0.5,1.5-0.6,1.7c-0.7,1.4-1.3,2.9-2,4.4c-0.7,1.7-1.3,3.3-1.7,4.8c-0.8-0.8-1.1-1.7-0.9-2.6
				c0.1-0.3,0.2-0.7,0.4-1.3c0.3-0.6,0.4-1.1,0.5-1.3c0.2-0.6,0.8-1.9,1.7-3.8c0.8-1.6,1.2-2.8,1.3-3.8c-0.2-0.1-0.7,0-1.5,0.6
				c-1.4,0.8-3,2-4.7,3.6c-2.8,2.6-4.3,3.9-4.4,4.1c-0.3,0.2-0.7,0.4-1.1,0.8c-0.5,0.5-0.9,0.8-1,0.9c-0.5,0.1-0.8,0.1-1,0
				c-0.2-0.5-0.2-1.1-0.1-1.6c0.1-0.5,0.4-1.1,0.8-2c0.5-0.9,0.7-1.5,0.9-1.9c1.6-2.9,4.1-7.3,7.4-13.3c0-0.4,0.2-0.7,0.6-1
				c0-0.3,0.2-0.5,0.5-0.8c0.3-0.3,0.6-0.3,0.9-0.3c0.3,0.1,0.5,0.3,0.7,0.7c-0.1,0.9-0.4,1.8-1.1,2.6c-1,1.3-1.7,2.4-2.1,3.3
				c-0.1,0-0.2,0.1-0.2,0.2c-0.7,1.2-1.8,2.9-3.1,5.4c-0.6,1.1-1.4,2.7-2.6,4.9C632.6,353.6,634.3,352.1,636,350.6z"/>
			<path class="st9" d="M642.6,362.8c-0.7-0.4-1-0.8-0.9-1.3c0.1-0.5,0.3-0.8,0.7-1c0.4-0.2,0.8-0.3,1.2-0.1l0.2,0.3l0.1,0.2
				c0.3,0.4,0.4,0.7,0,1.1c-0.1,0-0.1,0.2-0.2,0.3C643.4,362.7,643,362.9,642.6,362.8z M652.3,344.4c-0.1,0.3-0.2,0.6-0.5,0.7
				c-0.2,0.5-0.5,1.2-1,2.1c-0.1,0.2-0.3,0.6-0.5,1.4c-0.2,0.5-0.5,1-0.8,1.3c-0.1,0.4-0.4,1-0.7,1.6c-0.5,0.8-0.8,1.3-0.9,1.5
				c-0.2,0.2-0.5,0.6-0.8,1.1l-0.1,0.1c-0.2,0.1-0.2,0.1-0.4,0.1c0,0-0.1,0-0.2-0.1c-0.1-0.3,0-0.9,0.4-1.5c0.1-0.1,0.1-0.3,0.1-0.6
				l0.1,0c0.6-1.1,1.4-2.9,2.3-5.4c0.4-0.7,0.7-1.4,0.8-2.1c0.1-0.1,0.3-0.4,0.5-0.8c0.8-1.6,1.5-3.2,2.1-5c0.1,0,0.3-0.4,0.6-1.2
				c0.4-0.6,0.5-1.2,0.2-2c0.6-0.1,1.1-0.1,1.4-0.1c0.5,0.1,0.7,0.4,0.8,0.9c-0.2,0.8-0.7,2-1.4,3.6c-0.7,1.6-1.3,2.8-1.5,3.8
				C652.6,343.9,652.4,344.1,652.3,344.4z"/>
		</g>
		<g>
			<path class="st9" d="M224.1,519.2c-0.5-0.1-1.5-0.1-3-0.1c-0.8-0.1-3-0.1-6.3,0.2c-2.5,0.2-5.3,0.4-8.5,0.5
				c-0.4,0-0.6,0.2-0.9,0.6c-0.3,0.6-0.5,0.9-0.6,1c-3,7.1-6,14-9.1,20.6c-0.4,0.4-0.8,0.4-1.2,0c-0.1-0.2-0.3-0.5-0.5-1
				c1.2-2.7,2.4-5.3,3.6-8c1.5-3.4,2.6-6.2,3.3-8.2c0.3-0.3,0.5-0.8,0.8-1.4c0.2-0.6,0.4-1.1,0.6-1.3c0.1-0.1,0.2-0.3,0.3-0.6
				c0.1-0.2,0.2-0.5,0.2-0.6c0.1-0.2,0-0.4-0.1-0.7l0.3-0.2l-0.1-0.1c-2.9-0.2-5.1-0.8-6.6-1.7c0,0,0-0.2-0.1-0.5
				c0-0.1-0.1-0.1-0.3-0.1c0-0.3-0.1-0.6-0.3-0.9c-0.2-0.3-0.3-0.6-0.2-0.9c0.6-0.3,0.9-0.5,1.2-0.4c0.6,0.1,1.2,0.7,2,1.7
				c2.5,0.6,4.3,0.9,5.3,0.9c0.3-0.2,0.5-0.6,0.6-1.1c0-0.1,0-0.3,0-0.5l0.1-0.5c0.2-0.8,0.8-1.2,1.8-1.1c0.4,0.3,0.6,0.7,0.6,1.2
				c0,0.5,0.1,0.9,0.3,1c0.1,0.6,0.5,0.9,1.3,0.8c0.8-0.1,2-0.2,3.6-0.4c1.2,0.1,2.8,0.1,4.8,0c2.2-0.1,3.7-0.1,4.6-0.1
				c0.1,0,0.7,0,1.6,0c0.7,0,1.3,0,1.7,0.1c1.2,0.2,1.9,0.9,2,2c-0.1,0.3-0.2,0.5-0.6,0.6c-0.3,0-0.5-0.1-0.7-0.2
				C225.2,519.5,224.7,519.3,224.1,519.2z"/>
			<path class="st9" d="M208.8,534.9c2.1-1.8,4-3,5.8-3.6c0.4-0.1,1,0,1.6,0.3c0.3,0.3,0.4,0.6,0.4,1.1c0,0.5,0,0.8,0.1,0.9
				c-0.3,0.4-0.5,0.9-0.7,1.7c-0.3,0.9-0.5,1.5-0.6,1.7c-0.7,1.4-1.3,2.9-2,4.4c-0.7,1.7-1.3,3.3-1.7,4.8c-0.8-0.8-1.1-1.7-0.9-2.6
				c0.1-0.3,0.2-0.7,0.4-1.3c0.3-0.6,0.4-1.1,0.5-1.3c0.2-0.6,0.8-1.9,1.7-3.8c0.8-1.6,1.2-2.8,1.3-3.8c-0.2-0.1-0.7,0-1.5,0.6
				c-1.4,0.8-3,2-4.7,3.6c-2.8,2.6-4.3,3.9-4.4,4.1c-0.3,0.2-0.7,0.4-1.1,0.8c-0.5,0.5-0.9,0.8-1,0.9c-0.5,0.1-0.8,0.1-1,0
				c-0.2-0.5-0.2-1.1-0.1-1.6c0.1-0.5,0.4-1.1,0.8-2c0.5-0.9,0.7-1.5,0.9-1.9c1.6-2.9,4.1-7.3,7.4-13.3c0-0.4,0.2-0.7,0.6-1
				c0-0.3,0.2-0.5,0.5-0.8c0.3-0.3,0.6-0.3,0.9-0.3c0.3,0.1,0.5,0.3,0.7,0.7c-0.1,0.9-0.4,1.8-1.1,2.6c-1,1.3-1.7,2.4-2.1,3.3
				c-0.1,0-0.2,0.1-0.2,0.2c-0.7,1.2-1.8,2.9-3.1,5.4c-0.6,1.1-1.4,2.7-2.6,4.9C205.3,537.9,207.1,536.4,208.8,534.9z"/>
			<path class="st9" d="M222.6,547.4c-0.4,0-0.7-0.2-0.9-0.4c-0.3-0.2-0.5-0.5-0.8-0.7c0-0.2,0-0.7-0.1-1.3c-0.1-0.5-0.1-1-0.1-1.3
				c-0.3,0.2-0.5,0.4-0.6,0.6c-1.3,1.1-2.1,1.8-2.3,1.9c-1,0.5-1.9,0.7-2.9,0.4c-0.7-0.8-0.9-1.7-0.7-2.9c0.2-1,0.5-2.8,1.5-4.6
				c1.9-3.2,4.6-4.9,7.4-6.1l0.7,0.1c0.3,0.1,0.5,0.2,0.7,0.4c0.1,0.3,0.2,0.5,0.1,0.9c0,0.3-0.2,0.8-0.6,1.5
				c-0.1,0.1-0.3,0.3-0.5,0.7c-0.2,0.3-0.5,0.5-0.7,0.6c-0.1,0.2-0.5,0.4-1.2,0.4c0.3-0.8,0.6-1.3,1-1.6c0.1-0.1,0.1-0.3,0.3-0.7
				c0.1-0.1,0.2-0.3,0.1-0.6c0.1,0,0.1-0.1,0.2-0.1c0.1,0,0.1-0.1,0.1-0.1c-0.2-0.1-0.5,0.1-1.1,0.6c-0.1,0.1-0.3,0.1-0.5,0.3
				c-3.6,2.9-5.7,5.7-6.3,8.4c-0.1,0.8,0.1,1.4,0.5,1.5c0.9-0.1,2-0.6,3-1.8c1.4-0.9,2.1-2.1,2.9-3.5c0.2-0.3,1.4-2,2.8-5.2
				c0.2-0.2,0.5-0.4,1.1-0.5c0.2,0.4,0.3,0.7,0.2,1c0,0.2-0.1,0.5-0.3,0.8c-0.2,0.4-0.3,0.6-0.4,0.8c-0.6,1-1.2,1.9-1.7,3
				c-0.6,1.1-1,2.2-1.2,3.1c-0.1,0.6-0.1,1.1-0.1,1.7c0,0.5,0.2,1,0.4,1.2c0.5,0,1.9-0.7,2.2-0.6c0,0.5-0.2,1.3-0.7,1.4
				C224.2,547,223,547.3,222.6,547.4z"/>
			<path class="st9" d="M235.5,543.8c-0.4,1.1-0.8,2-0.9,2.7c-0.2,1.3-0.1,2.5,0.4,3.5c-0.8,0.1-1.4-0.1-1.8-0.6
				c-0.4-1.1-0.4-2.2-0.2-3.6c0.2-0.8,0.5-1.9,1-3.1c0.4-1,0.8-2,1.2-2.9l0-0.1c-1.3,0.7-2.8,1.9-4.6,3.7c-1.9,1.9-3.4,3.2-4.4,3.8
				c-0.7,0.2-1.2,0.1-1.6-0.1c-0.4-0.5-0.4-1.2,0-2c0.3-0.7,1.1-2.2,2.3-4.7c1-1.9,1.6-3.6,2-4.8c0.3-0.2,0.5-0.3,0.8-0.3
				c0.3,0.1,0.5,0.2,0.7,0.6c0.2,0.3,0.2,0.7,0.1,1c-0.8,1.6-1.9,4.1-3.3,7.3c0.2-0.3,0.5-0.7,1.1-1c1.8-1.7,3-2.8,3.6-3.3
				c1.4-1.2,2.9-2,4.2-2.5c0.4,0.1,0.7,0.3,0.9,0.6c0.3,0.3,0.3,0.7,0.2,1.2c0,0.2-0.1,0.5-0.3,0.9c-0.2,0.4-0.3,0.7-0.3,0.9
				C236.4,541.4,236.1,542.4,235.5,543.8z"/>
			<path class="st9" d="M241.4,543.6c0,0.4-0.1,0.7-0.4,0.7l-0.1,0c-0.2,1,0,2.1,0.8,3.4c0.3,0.3,0.6,0.7,1,1
				c0.3,0.4,0.7,0.6,1.1,0.8c0.1,0.5,0.7,1.1,1.6,1.8c0.2,0,0.3,0.1,0.4,0.1l0.1,0.1l0.3,0c0,0.4-0.2,0.6-0.3,0.6
				c-0.2,0.1-0.4,0.1-0.6,0.2c-3.2-1.4-5.2-3.5-6.1-6.3c0-0.2,0-0.5,0-1c-0.4,0.8-1,2-1.8,3.7c-0.2,0.1-0.2,0.3-0.3,0.6
				c0,0.1-0.1,0.3-0.1,0.5c0,0.3,0,0.4-0.1,0.6c-0.1,0.7-0.6,1-1.5,0.8c-0.2-0.5-0.2-0.9-0.1-1.4c0-0.3,0.3-0.9,0.7-1.8
				c0.9-2.2,3.1-6.3,5.4-11c2.2-4.4,3.8-7.9,4.8-10.3c0.3-0.1,0.5-0.1,0.8-0.1c0.5,0.1,0.7,0.4,0.7,0.8c-0.1,0.3-0.4,1.1-1.1,2.2
				c0,0.3-0.2,0.6-0.5,1c-0.3,0.4-0.5,0.8-0.5,1c0,0.3-0.2,0.6-0.4,1c-0.3,0.4-0.4,0.8-0.5,1.1c0,0.1-0.1,0.3,0,0.5
				c-0.2,0.2-0.5,0.5-0.6,1c-0.2,0.5-0.4,0.8-0.5,1c-0.1,0.4-0.4,1.1-0.9,1.9c-0.5,0.9-0.8,1.5-1,2c0.7-0.3,1.6-0.8,2.8-1.5
				c0.3,0.1,0.4,0.1,0.6-0.1c0.2-0.4,0.5-0.4,0.9-0.2c1.5-0.1,2.2-0.1,2.1-0.1c0.2,0,0.5,0.1,0.7,0.2c0.3,0.4,0.3,0.8,0,1.2
				c-2.7,0-4.9,0.8-6.6,2.4l-0.7,1.3C241.3,543.6,241.3,543.6,241.4,543.6z"/>
			<path class="st9" d="M250,544.6c0.1,0.1,0.2,0.1,0.2,0.1c-0.1,0-0.1,0-0.1,0l0.5,0.2c-0.1,0.1,0,0.3,0.2,0.3c0,0,0.1,0.1,0.2,0.1
				c0.1,0,0.1,0,0.2,0l0.3,0.1c0.1,0.3,0.5,0.6,1,0.9c0.5,0.3,0.9,0.6,1.1,0.8c1.2,0.9,1.8,1.9,1.8,2.7c-0.1,0.6-0.5,1.2-1.2,1.8
				c-0.1,0-0.2,0-0.4,0.2c-0.1,0.1-0.2,0.2-0.3,0.2c-1.9,0.8-3.6,1.1-5,0.7c-0.9-0.2-1.6-0.7-2.1-1.3c0-0.1,0-0.3-0.1-0.6
				c0-0.3,0-0.5,0-0.6c0.1-0.3,0.3-0.5,0.7-0.7c0.1,0.3,0.3,0.7,0.5,1.4c0.2,0.3,0.4,0.5,0.8,0.5c1.4-0.1,2.4-0.2,2.8-0.3
				c1.1-0.2,1.9-0.7,2.4-1.4c0.1-0.6-0.2-1.1-0.9-1.6c-0.5-0.4-1-0.7-1.6-1.1c-1-0.6-1.6-1.1-2-1.4c-0.6-0.7-0.9-1.4-0.7-2.2
				c0.4-0.4,0.9-0.7,1.7-1.1c0.9-0.5,1.5-0.8,1.8-1c0.2,0,0.6-0.1,1.1-0.3c0.4-0.2,0.8-0.3,1-0.3c1.7-0.6,1.8-0.5,3.2-0.7
				c0.3,0.1,0.5,0.2,0.8,0.3c0.3,0.1,0.4,0.4,0.4,0.7c0,0.2-0.3,0.4-0.7,0.5c-0.2,0-0.5,0.1-0.9,0.2c-0.4,0.1-0.8,0.2-1,0.2
				c-0.5,0.2-0.3,0-2.1,0.5c-1.5,0.4-2.7,0.9-3.5,1.5C250.3,544.2,250.1,544.4,250,544.6L250,544.6z"/>
			<path class="st9" d="M281.3,534.8c0,0.2,0,0.4-0.2,0.7c-0.1,0-0.2,0-0.2,0l-0.1,0.4c-0.2,0.1-0.3,0.2-0.4,0.3l-0.1,0.2
				c-0.2,0.4-0.4,0.7-0.7,0.8c-0.4,0-0.7-0.1-0.8-0.5l-0.1-0.1c0-0.1-0.1-0.2-0.2-0.3c0.4-0.7,0.9-1.8,1.6-3.3l0-0.5
				c-0.1,0-0.3,0.3-0.7,0.6c-0.1,0.5-0.3,0.8-0.6,0.7c-1.8,2.6-3.4,5-4.7,7.1l-0.2,0.5c0.3,0.1,0.7,0.1,1.3,0.1c0.5,0,0.9-0.1,1.1,0
				c0.5,0.1,0.9,0.3,1.3,0.7l0,0.2c0,0.1,0,0.1,0,0.1l0,0.2c0,0,0,0.2,0,0.4c-0.6,0.1-1.5,0.1-2.6,0.1c-0.8,0-1.5,0.1-2.2,0.3
				c-0.4,0.8-2.8,6-3.2,6.8c-0.5,1-3.1,5.9-3.2,6.7c-0.2,0.2-0.4,0.6-0.4,1.1c0.3,0.2,0.4,0.5,0.3,0.9c0,0.1-0.1,0.4-0.4,0.9
				c-0.1,0-0.2,0.2-0.4,0.4c-0.1,0.2-0.3,0.4-0.7,0.4c-0.5-0.2-0.8-0.8-1-1.8c0.1-0.4,0.3-1.1,0.6-2c0.3-0.9,2.8-5.6,2.9-6.1
				c0.2-0.1,2.3-4.7,2.4-4.9c0.1-0.3,0.2-0.5,0.4-0.6c0.3-0.9,0.6-1.5,0.8-1.9c-0.1,0-0.3-0.1-0.6,0c-0.3,0-0.5,0-0.6,0
				c-0.4,0-0.7-0.3-0.7-0.9l0.1-0.9c0.2,0,0.5-0.1,0.7,0c0.1,0,0.4,0,0.8,0.1c0.3,0.1,0.5,0.1,0.7,0.1c0.6,0.1,0.9-0.2,1-0.8
				c0.1-0.2,1.1-1.7,2.8-4.7c1.1-1.9,2.2-3.4,3.1-4.5c0.4-0.3,0.9-0.7,1.8-1.2c0.3-0.2,0.7-0.3,0.9-0.2c0.4,0,0.8,0.4,1,1
				c0.1,1.4-0.3,2.3-0.9,3C281.1,534.4,281.2,534.6,281.3,534.8z"/>
			<path class="st9" d="M280.1,554.2c-0.3,0.5-0.5,0.7-0.6,0.8c-0.4,0.4-1.2,0.9-2.3,1.6c-1.1,1-2.5,1.5-4.2,1.4
				c-0.5,0-0.9-0.2-1.4-0.3c-1-0.8-1.6-2-1.5-3.7c0.2-0.8,0.7-1.8,1.3-2.8c0.6-0.9,1.1-1.7,1.7-2.6c0.2-0.1,0.6-0.6,1.2-1.2
				c0.5-0.5,0.9-0.8,1.4-1c0.5-0.6,1.2-0.9,2-0.9c0.3,0.1,0.8-0.1,1.6-0.6c0.1-0.1,0-0.3,0.3-0.5c0.9,0.1,1.5,0.2,1.9,0.5
				c0.9,0.9,1.2,2.1,1.1,3.6c-0.1,0.8-0.3,1.6-0.6,2.4c-0.3,0.6-0.4,1.6-1.2,2.8C280.5,553.8,280.3,553.9,280.1,554.2z M280.6,545.8
				l-2,0.3l0.4,0.6c-0.1,0.5-0.1,1-0.2,1.4c-0.1,0.5-0.4,0.9-0.7,1.2c-0.1,0.1-0.3,0.1-0.4,0.1c-0.4-0.1-0.6-0.5-0.5-1.4
				c0,0,0-0.1,0-0.2c-0.3,0.1-0.7,0.4-1.2,0.8c-0.6,0.5-1,0.7-1.2,0.8c-1.2,1.6-1.8,2.5-1.9,2.8c-0.6,1-0.9,2.1-0.9,3.2
				c0.2,0.3,0.9,0.7,1.2,0.8c3.5-0.3,6.1-2.5,8.1-6.7c0.1-1.7,0.2-2.5,0.2-2.2C281.2,546.7,281,546.2,280.6,545.8z"/>
			<path class="st9" d="M289.8,546.6c1.3-0.9,2.6-1.3,3.7-1.1c0.5,0.1,1,0.2,1.5,0.5c0.2,0.5,0.3,1,0.3,1.5c0,0.3-0.3,1-0.8,2.3
				l-0.6,0c0-0.2,0-0.8,0.1-1.8c0.1-0.6,0-0.9-0.2-1.2c-1.5,0.2-3,0.8-4.4,1.9c-1.3,1-2.7,1.7-3.5,3.2c-0.3,0-0.6,0.6-0.8,1
				c-0.2,0.5-0.4,0.8-0.6,0.9c-0.5,0.6-1,1.2-1.7,2.7c-0.2,0.2,0,0.7-0.3,1.4c-0.2,0.6-0.6,0.9-1.1,1c-0.1-0.2-0.2-0.3-0.3-0.2
				c-0.5,0.3-0.7,0.1-0.9-0.5c0.7-1.3,2.3-4.7,5.3-11.1c-0.2-0.8,0-1.2,0.7-1.2c1,0,1.5,0.3,1.4,0.9c0,0.1-0.1,0.3-0.2,0.4
				c-0.2,0.1-0.2,0.5-0.3,1.2c-0.2,0-0.3,0-0.3,0c0,0.1,0,0.3,0,0.5l-0.2,0.4c0,0,0,0.1,0,0.1c-0.1,0-0.1,0-0.1,0.1
				C287.1,548.7,288.2,547.7,289.8,546.6z"/>
			<path class="st9" d="M313.3,550.9c0.7,0.3,1.2,0.7,1.5,1.1l-0.1,0.8c-0.5,0-1.3-0.2-2.5-0.6c-0.7-0.2-1.3-0.3-1.9-0.2
				c-2.6,3.2-4,6.1-4.4,8.6c-0.1,0.3-0.1,0.7-0.1,1c0.2,0.5,0.8,0.7,1.9,0.6c0.4,0,1-0.1,1.7-0.4c0.7-0.3,1.4-0.4,2.1-0.3
				c-0.8,1.5-2.4,2.2-4.6,2.4c-1.2,0-2-0.4-2.4-1.1c-0.4-0.9-0.5-2-0.3-3.2c0.2-1.6,1-3.4,2.3-5.5c0.4-0.5,0.9-1.2,1.5-2.3
				c-1-0.1-2,0.2-2.9,0.9c-0.4,0-0.7-0.3-0.8-0.6c-0.1-0.3-0.1-0.7-0.2-1c0.1-0.3,0.5-0.6,1.2-0.8c0.5-0.3,1.2-0.5,1.9-0.4
				c0.6,0,1.3,0.1,1.9,0.1c1.9-2.4,3.3-4.8,4.3-7c0.3-0.3,0.5-0.4,0.7-0.4c0.4,0.1,0.7,0.4,0.9,1.1c-0.5,2-1.7,4.1-3.7,6.5
				c0,0-0.1,0-0.1,0.1C312.1,550.5,312.7,550.8,313.3,550.9z"/>
			<path class="st9" d="M319,555.9c2.1-1.8,4-3,5.8-3.6c0.4-0.1,1,0,1.6,0.3c0.3,0.3,0.4,0.6,0.4,1.1c0,0.5,0,0.8,0.1,0.9
				c-0.3,0.4-0.5,0.9-0.7,1.7c-0.3,0.9-0.5,1.5-0.6,1.7c-0.7,1.4-1.3,2.9-2,4.4c-0.7,1.7-1.3,3.3-1.7,4.8c-0.8-0.8-1.1-1.7-0.9-2.6
				c0.1-0.3,0.2-0.7,0.4-1.3c0.3-0.6,0.4-1.1,0.5-1.3c0.2-0.6,0.8-1.9,1.7-3.8c0.8-1.6,1.2-2.8,1.3-3.8c-0.2-0.1-0.7,0-1.5,0.6
				c-1.4,0.8-3,2-4.7,3.6c-2.8,2.6-4.3,3.9-4.4,4.1c-0.3,0.2-0.7,0.4-1.1,0.8c-0.5,0.5-0.9,0.8-1,0.9c-0.5,0.1-0.8,0.1-1,0
				c-0.2-0.5-0.2-1.1-0.1-1.6c0.1-0.5,0.4-1.1,0.8-2c0.5-0.9,0.7-1.5,0.9-1.9c1.6-2.9,4.1-7.3,7.4-13.3c0-0.4,0.2-0.7,0.6-1
				c0-0.3,0.2-0.5,0.5-0.8c0.3-0.3,0.6-0.3,0.9-0.3c0.3,0.1,0.5,0.3,0.7,0.7c-0.1,0.9-0.4,1.8-1.1,2.6c-1,1.3-1.7,2.4-2.1,3.3
				c-0.1,0-0.2,0.1-0.2,0.2c-0.7,1.2-1.8,2.9-3.1,5.4c-0.6,1.1-1.4,2.7-2.6,4.9C315.5,558.9,317.3,557.4,319,555.9z"/>
			<path class="st9" d="M334.3,566.1c-0.1,0.1-0.3,0.2-0.3,0.4c-2.7,1.3-4.7,1.9-6.1,1.7c-0.8-0.1-1.5-0.4-2.2-0.9c-1.2-1-1.3-2-1-4
				c1.8-4.5,4.3-7.4,8.6-9.5c0,0,0.3,0,1,0c0.5,0,1,0.2,1.2,0.5c0.2,0.4,0.3,0.7,0.2,1.1c-0.1,0.4-0.2,0.7-0.3,1.1
				c-0.8,1.6-2.9,3.2-6.1,4.9c-0.2,0.1-0.7,0.1-1.5,0.2c-0.5,0-0.8,0.2-0.8,0.7c-0.5,0.5-0.7,0.8-0.8,1.6c-0.1,0.6,0,0.8,0.1,1.4
				c0.4,0.8,1.1,1.3,2.2,1.5l0.1-0.1c0.5,0.1,1.2,0,2-0.1c0.9-0.3,2.3-0.8,4.3-1.3c0,0.3-0.1,0.6-0.3,0.7L334.3,566.1z M333.5,555.8
				c-1.7,0.7-3.4,2-4.9,4c0.1,0,0.3,0,0.5-0.1c0.8-0.5,1.7-1,2.5-1.6c1-0.7,1.7-1.4,2.1-2.1C333.6,556,333.6,555.9,333.5,555.8z"/>
			<path class="st9" d="M351.1,562c2.1-1.8,4-3,5.8-3.6c0.4-0.1,1,0,1.6,0.3c0.3,0.3,0.4,0.6,0.4,1.1c0,0.5,0,0.8,0.1,0.9
				c-0.3,0.4-0.5,0.9-0.7,1.7c-0.3,0.9-0.5,1.5-0.6,1.7c-0.7,1.4-1.3,2.9-2,4.4c-0.7,1.7-1.3,3.3-1.7,4.8c-0.8-0.8-1.1-1.7-0.9-2.6
				c0.1-0.3,0.2-0.7,0.4-1.3c0.3-0.6,0.4-1.1,0.5-1.3c0.2-0.6,0.8-1.9,1.7-3.8c0.8-1.6,1.2-2.8,1.3-3.8c-0.2-0.1-0.7,0-1.5,0.6
				c-1.4,0.8-3,2-4.7,3.6c-2.8,2.6-4.3,3.9-4.4,4.1c-0.3,0.2-0.7,0.4-1.1,0.8c-0.5,0.5-0.9,0.8-1,0.9c-0.5,0.1-0.8,0.1-1,0
				c-0.2-0.5-0.2-1.1-0.1-1.6c0.1-0.5,0.4-1.1,0.8-2c0.5-0.9,0.7-1.5,0.9-1.9c1.6-2.9,4.1-7.3,7.4-13.3c0-0.4,0.2-0.7,0.6-1
				c0-0.3,0.2-0.5,0.5-0.8c0.3-0.3,0.6-0.3,0.9-0.3c0.3,0.1,0.5,0.3,0.7,0.7c-0.1,0.9-0.4,1.8-1.1,2.6c-1,1.3-1.7,2.4-2.1,3.3
				c-0.1,0-0.2,0.1-0.2,0.2c-0.7,1.2-1.8,2.9-3.1,5.4c-0.6,1.1-1.4,2.7-2.6,4.9C347.7,565,349.4,563.5,351.1,562z"/>
			<path class="st9" d="M366.4,572.3c-0.1,0.1-0.3,0.2-0.3,0.4c-2.7,1.3-4.7,1.9-6.1,1.7c-0.8-0.1-1.5-0.4-2.2-0.9c-1.2-1-1.3-2-1-4
				c1.8-4.5,4.3-7.4,8.6-9.5c0,0,0.3,0,1,0c0.5,0,1,0.2,1.2,0.5c0.2,0.4,0.3,0.7,0.2,1.1c-0.1,0.4-0.2,0.7-0.3,1.1
				c-0.8,1.6-2.9,3.2-6.1,4.9c-0.2,0.1-0.7,0.1-1.5,0.2c-0.5,0-0.8,0.2-0.8,0.7c-0.5,0.5-0.7,0.8-0.8,1.6c-0.1,0.6,0,0.8,0.1,1.4
				c0.4,0.8,1.1,1.3,2.2,1.5l0.1-0.1c0.5,0.1,1.2,0,2-0.1c0.9-0.3,2.3-0.8,4.3-1.3c0,0.3-0.1,0.6-0.3,0.7L366.4,572.3z M365.6,561.9
				c-1.7,0.7-3.4,2-4.9,4c0.1,0,0.3,0,0.5-0.1c0.8-0.5,1.7-1,2.5-1.6c1-0.7,1.7-1.4,2.1-2.1C365.8,562.1,365.7,562,365.6,561.9z"/>
			<path class="st9" d="M377.7,553.1c-0.5,0.4-1,1.2-1.5,2.1c-0.5,1.2-0.9,1.9-1.2,2.2c-0.3,0.7-0.9,1.6-1.6,3c0,0.2,0,0.4-0.2,0.5
				c-0.1,0.2-0.6,1.2-1.5,3.1c-0.6,1.2-1.1,2.3-1.3,3.1c-0.3,0.2-0.4,0.6-0.6,1.1c-0.1,0.6-0.3,0.9-0.5,1.1
				c-0.2,0.5-0.4,1.1-0.5,1.7c-0.3,0.7-0.4,1.2-0.4,1.7c-0.1,0.3-0.1,0.8,0,1.4c0.3,0,0.6-0.1,1-0.3c0.5-0.3,0.9-0.5,1-0.5
				c0.3-0.1,0.8-0.1,1.3,0.1c-0.7,0.9-1.5,1.6-2.4,2.1c-0.2,0-0.4,0-0.7,0s-0.5,0.1-0.6,0.1c-0.2,0-0.4-0.2-0.6-0.3
				c-0.7-1-1.4-1.2-0.4-4.5c0,0,0.2-0.5,0.5-1.4c0.8-2.1,2.5-6.6,5.9-13.4c1-2,2.2-3.4,2.8-4.4c0.2-0.4,0.5-0.8,1.1-1.2
				c0.3-0.3,0.7-0.4,1-0.3c0.3,0.1,0.6,0.3,0.8,0.7c0,0.5-0.3,0.9-0.8,1.3C377.8,552.4,377.6,552.8,377.7,553.1z"/>
			<path class="st9" d="M382.6,569.9c0.1-0.1,0.3-0.4,0.6-0.9c0.3-0.4,0.5-0.7,0.5-1c0-0.2,0.1-0.3,0-0.5c-0.2-0.8-0.7-1.5-1.6-1.9
				c-0.8-0.3-1.6-0.6-2.4-0.9c-0.1,0-0.8,0.2-2.3,0.4c-0.9,0.1-1.6,0.4-2,0.8c-0.1,0.1-0.4,0.4-1,0.8c-0.1,0-0.3,0.3-0.7,0.8
				c0.1-1.5,0.1-2.4,0.2-2.6c1.4-1.4,3.3-2.1,5.9-2.2c2.1,0.3,3.8,1.2,5.3,2.6c0.6,1.4,0.9,2.5,0.7,3.3c-0.1,0.5-0.3,0.9-0.7,1.4
				c-0.2,0-0.4,0-0.4,0.2c-0.1,0.4-0.2,0.5-0.2,0.6c-0.1,0.2-0.3,0.3-0.5,0.3c-1.3,1.2-2.8,2.2-4.5,3.1c-2,1.1-3.7,1.7-5.2,1.8
				c-0.6,0.1-1,0.2-1.2,0.2c-0.4,0.2-0.6,0.5-0.6,1c-0.5,1.2-1.3,3-2.5,5.3c-0.2,0.1-0.3,0.3-0.4,0.6c-0.1,0.3-0.2,0.5-0.3,0.8
				c-0.7,1.4-1.8,3.4-3.4,6.3c-0.2-0.1-0.5-0.2-0.7-0.2c-0.4,0-0.6-0.2-0.7-0.6c0.1-0.6,0.4-1.3,0.9-2.1c0.5-0.8,0.8-1.5,0.9-1.9
				c0-0.2,0.1-0.3,0.1-0.5c0.4-0.3,0.7-0.9,1.1-1.7c0.4-0.9,0.7-1.5,1-1.8c0.6-1.1,1.2-2.2,1.7-3.3c0.6-1.3,1-2.5,1.1-3.6
				c0.3-0.1,0.6-0.3,0.8-0.7c0.1-0.3,0.3-0.6,0.4-1c0-0.5,0.2-1,0.5-1.6c0.4-0.8,0.7-1.3,0.7-1.5c0,0,0.2-0.6,0.4-1.5
				c0.2-0.6,0.5-1,0.8-1.1c0.3-0.1,0.8,0.1,1.3,0.5c0.1,0.1,0.2,0.2,0.5,0.3c-0.2,0.3-0.5,0.9-0.8,1.9c-0.3,0.8-0.6,1.3-0.9,1.6
				c-0.1,0.6-0.5,1.4-1.1,2.5c0,0.2-0.1,0.5-0.3,1C377.1,574,380.1,572.4,382.6,569.9z"/>
			<path class="st9" d="M418.9,571c-0.8,0.6-2.4,2.3-4.8,5.1c-1.9,2.2-3.7,3.6-5.4,4.3c-0.9,0.1-1.8-0.2-2.5-0.7
				c-0.2-0.5-0.6-1.2-1-2.2c0-0.4,0-1.1,0-2.3c0-1,0-1.8,0.1-2.4c-0.5,0.6-1.3,1.5-2.5,2.5c-0.2,0.5-0.6,1-1.3,1.6
				c-0.7,0.7-1.1,1.2-1.3,1.5c-0.6,0.6-1.5,1.3-2.9,2.2l-1.3-0.2c-0.7-0.1-0.9-0.5-0.8-1.2c0.3-1.8,0.9-4,1.7-6.6
				c1.2-3.5,1.8-5.6,2-6.2c0.1-0.3,0.4-0.4,0.7-0.4c0.5,0.1,0.8,0.3,0.9,0.5c0.2,0.5,0.3,1,0.2,1.5c-0.1,0.3-0.2,0.8-0.5,1.4
				c-0.3,0.7-0.5,1.1-0.5,1.4c-0.1,0.3-0.3,0.8-0.7,1.4c-0.3,0.4-0.3,0.9,0.1,1.4c-0.4,0-0.5,0-0.6,0.1l0,0.1c0,0.2-0.1,0.3-0.1,0.4
				c-0.1,0.1-0.3,0.7-0.7,1.9c-0.2,0.8-0.4,1.4-0.4,1.9c0.5-0.2,1.1-0.7,1.8-1.5c0.6-0.7,1.2-1.2,1.5-1.5c1-1.3,2.9-3.5,5.9-6.6
				c0.5-0.3,1.1-0.2,1.6,0c0.4,0.3,0.6,0.6,0.5,1c0,0.1-0.1,0.4-0.2,0.7c-0.1,0.3-0.2,0.5-0.2,0.7c-0.2,0.2-0.3,0.6-0.5,1.1
				c-0.2,0.6-0.3,0.9-0.5,1.1c-0.2,1.8-0.4,2.7-0.4,2.9c0,1.2,0.3,2,1,2.7c0.3,0.1,0.6-0.2,1-0.7c0.9-0.7,2.6-2.4,5.3-5.1
				c2.2-2.2,4-3.7,5.6-4.8l0.8,0.2c-0.2,0.5-0.6,1-1,1.5C419.7,570,419.4,570.4,418.9,571z"/>
			<path class="st9" d="M418.6,584.4c-0.4,0.1-0.9,0.3-1.3,0.5s-0.9,0.2-1.3,0.1c-0.5-0.1-1-0.7-1.5-1.6c0.1-0.5,0.1-1.1,0.2-1.6
				c0.4-2.3,1.1-5,3.1-8.7c0.3-0.7,0.9-1.5,1.7-2.6c0.2-0.2,0.4-0.2,0.8-0.2c0.3,0.1,0.5,0.2,0.8,0.5c0.2,0.3,0.3,0.5,0.3,0.8
				c0,0.1-0.1,0.3-0.2,0.4c-1,1-1.2,1.5-2.1,3l-1.8,4.3c-1,2.4-0.7,2.8-0.8,3.6c0,0.2,0.1,0.4,0.3,0.8c0.1,0.1,0.3,0,0.6-0.2
				c0.3-0.2,0.4-0.2,0.5-0.3c0.3-0.2,0.9-0.5,1.7-1.1c0.7-0.5,1.3-0.8,1.8-1l1.2-1c-0.9,1.6-1.6,2.6-2.2,2.8
				C419.9,583.2,419.4,583.7,418.6,584.4z M423.8,567.6c-0.1,0-0.2,0.2-0.3,0.4c-1.4-0.1-2.1-0.6-2-1.4c0.1-0.5,0.3-0.7,0.6-0.8
				c0.1,0,0.5,0,1,0.2c0.2,0,0.4,0,0.6,0c0,0.1,0.1,0.2,0.3,0.3c0.2,0.2,0.2,0.4,0.2,0.6c0,0.2-0.2,0.5-0.4,0.6L423.8,567.6z"/>
			<path class="st9" d="M431,573.3c0.7,0.3,1.2,0.7,1.5,1.1l-0.1,0.8c-0.5,0-1.3-0.2-2.5-0.6c-0.7-0.2-1.3-0.3-1.9-0.2
				c-2.6,3.2-4,6.1-4.4,8.6c-0.1,0.3-0.1,0.7-0.1,1c0.2,0.5,0.8,0.7,1.9,0.6c0.4,0,1-0.1,1.7-0.4c0.7-0.3,1.4-0.4,2.1-0.3
				c-0.8,1.5-2.4,2.2-4.6,2.4c-1.2,0-2-0.4-2.4-1.1c-0.4-0.9-0.5-2-0.3-3.2c0.2-1.6,1-3.4,2.3-5.5c0.4-0.5,0.9-1.2,1.5-2.3
				c-1-0.1-2,0.2-2.9,0.9c-0.4,0-0.7-0.3-0.8-0.6c-0.1-0.3-0.1-0.7-0.2-1c0.1-0.3,0.5-0.6,1.2-0.8c0.5-0.3,1.2-0.5,1.9-0.4
				c0.6,0,1.3,0.1,1.9,0.1c1.9-2.4,3.3-4.8,4.3-7c0.3-0.3,0.5-0.4,0.7-0.4c0.4,0.1,0.7,0.4,0.9,1.1c-0.5,2-1.7,4.1-3.7,6.5
				c0,0-0.1,0-0.1,0.1C429.8,573,430.4,573.2,431,573.3z"/>
			<path class="st9" d="M436.6,578.3c2.1-1.8,4-3,5.8-3.6c0.4-0.1,1,0,1.6,0.3c0.3,0.3,0.4,0.6,0.4,1.1c0,0.5,0,0.8,0.1,0.9
				c-0.3,0.4-0.5,0.9-0.7,1.7c-0.3,0.9-0.5,1.5-0.6,1.7c-0.7,1.4-1.3,2.9-2,4.4c-0.7,1.7-1.3,3.3-1.7,4.8c-0.8-0.8-1.1-1.7-0.9-2.6
				c0.1-0.3,0.2-0.7,0.4-1.3c0.3-0.6,0.4-1.1,0.5-1.3c0.2-0.6,0.8-1.9,1.7-3.8c0.8-1.6,1.2-2.8,1.3-3.8c-0.2-0.1-0.7,0-1.5,0.6
				c-1.4,0.8-3,2-4.7,3.6c-2.8,2.6-4.3,3.9-4.4,4.1c-0.3,0.2-0.7,0.4-1.1,0.8c-0.5,0.5-0.9,0.8-1,0.9c-0.5,0.1-0.8,0.1-1,0
				c-0.2-0.5-0.2-1.1-0.1-1.6c0.1-0.5,0.4-1.1,0.8-2c0.5-0.9,0.7-1.5,0.9-1.9c1.6-2.9,4.1-7.3,7.4-13.3c0-0.4,0.2-0.7,0.6-1
				c0-0.3,0.2-0.5,0.5-0.8c0.3-0.3,0.6-0.3,0.9-0.3c0.3,0.1,0.5,0.3,0.7,0.7c-0.1,0.9-0.4,1.8-1.1,2.6c-1,1.3-1.7,2.4-2.1,3.3
				c-0.1,0-0.2,0.1-0.2,0.2c-0.7,1.2-1.8,2.9-3.1,5.4c-0.6,1.1-1.4,2.7-2.6,4.9C433.2,581.3,434.9,579.8,436.6,578.3z"/>
			<path class="st9" d="M458.3,586.5c-0.5,0.9-1.5,2.4-3,4.3c-0.4,0.5-1.6,1.5-3.6,3.1c-0.2,0.3-0.6,0.6-1.2,1
				c-0.7,0.4-1.1,0.7-1.2,0.9c-0.7,0.2-1.4,0.4-2.1,0.6c-0.9,0.2-1.6,0.3-2.2,0.2c-0.4-0.1-0.7-0.2-1-0.5l0.2-0.4
				c1.8,0,3.5-0.6,5.2-1.9c1.1-0.8,1.7-1.4,2-1.6c0.8-0.7,1.3-1.3,1.7-1.9c0.6-0.5,1.6-1.9,3.1-4c1.8-2.7,3.7-6.9,5.6-12.6
				c0.2-0.6,0.6-2.4,1.3-5.2c0.1-0.5,0.3-0.9,0.5-1.4c0.1-0.5,0.5-0.7,1-0.8c0.2-0.1,0.4-0.1,0.5,0c0.2,0,0.5,0.3,0.9,0.8l0.2,0.6
				c-0.7,2.2-1.7,5.3-3.2,9.5C461.7,580.7,460.1,583.8,458.3,586.5z"/>
			<path class="st9" d="M478.1,571.9l0-0.5c-0.2,0.2-0.4,0.3-0.5,0.3c-0.1,0-0.3-0.2-0.4-0.6l-0.1-0.1c-0.1-0.1-0.3-0.1-0.4-0.1
				c-0.3-0.1-0.7,0-1.1,0.1c-0.6,0.2-1,0.2-1.2,0.2c-1.2,0.6-2.1,1-2.6,1.4c-0.9,0.6-1.6,1.3-2.1,2.1c-0.2,0-0.5,0.1-0.6,0.3
				c-0.2,0.2-0.4,0.5-0.5,0.7c-0.2,0.4-0.3,0.8-0.3,1.1c-0.2,1.2,0.2,2.4,1.3,3.5c1,1,2,1.9,3,2.8c0.5,0.8,1.1,1.6,1.6,2.4
				c0.6,1,0.8,1.8,0.7,2.6c-0.1,0.6-0.4,1.1-0.8,1.6c-1.1,1-2.5,1.8-4.2,2.3c-0.9,0.3-2.4,0.8-4.7,1.3c-0.3-0.1-0.6,0-1,0.1
				c-2.8-0.2-4.7-0.8-5.7-1.6l0-0.8c0.3-0.1,0.5-0.1,0.7,0c0.1,0,0.3,0.1,0.6,0.3c0.3,0.2,0.5,0.3,0.8,0.3c3.2,0.8,7,0,11.1-2.3
				c0.9-0.5,1.4-1.2,1.4-2.1c-0.1-0.6-0.7-1.7-1.9-3.1c-1.6-1.5-2.9-2.8-3.6-3.9c-1.1-0.9-1.6-2.2-1.3-3.8c0.1-0.4,0.2-0.8,0.4-1.1
				c0.9-1.6,2.1-2.9,3.8-4.1c1.6-1.1,3.2-1.9,5.1-2.3c0.7-0.1,1.5-0.1,2.3,0c1.9,0.4,2.6,0.9,2.2,1.7c-0.1,0.2-0.2,0.3-0.2,0.4
				C479.4,571.2,478.9,571.5,478.1,571.9z"/>
			<path class="st9" d="M496.8,585.9c0.7,0.3,1.2,0.7,1.5,1.1l-0.1,0.8c-0.5,0-1.3-0.2-2.5-0.6c-0.7-0.2-1.3-0.3-1.9-0.2
				c-2.6,3.2-4,6.1-4.4,8.6c-0.1,0.3-0.1,0.7-0.1,1c0.2,0.5,0.8,0.7,1.9,0.6c0.4,0,1-0.1,1.7-0.4c0.7-0.3,1.4-0.4,2.1-0.3
				c-0.8,1.5-2.4,2.2-4.6,2.4c-1.2,0-2-0.4-2.4-1.1c-0.4-0.9-0.5-2-0.3-3.2c0.2-1.6,1-3.4,2.3-5.5c0.4-0.5,0.9-1.2,1.5-2.3
				c-1-0.1-2,0.2-2.9,0.9c-0.4,0-0.7-0.3-0.8-0.6c-0.1-0.3-0.1-0.7-0.2-1c0.1-0.3,0.5-0.6,1.2-0.8c0.5-0.3,1.2-0.5,1.9-0.4
				c0.6,0,1.3,0.1,1.9,0.1c1.9-2.4,3.3-4.8,4.3-7c0.3-0.3,0.5-0.4,0.7-0.4c0.4,0.1,0.7,0.4,0.9,1.1c-0.5,2-1.7,4.1-3.7,6.5
				c0,0-0.1,0-0.1,0.1C495.6,585.5,496.2,585.7,496.8,585.9z"/>
			<path class="st9" d="M504.6,598.6c-0.1,0.1-0.3,0.2-0.3,0.4c-2.7,1.3-4.7,1.9-6.1,1.7c-0.8-0.1-1.5-0.4-2.2-0.9c-1.2-1-1.3-2-1-4
				c1.8-4.5,4.3-7.4,8.6-9.5c0,0,0.3,0,1,0c0.5,0,1,0.2,1.2,0.5c0.2,0.4,0.3,0.7,0.2,1.1c-0.1,0.4-0.2,0.7-0.3,1.1
				c-0.8,1.6-2.9,3.2-6.1,4.9c-0.2,0.1-0.7,0.1-1.5,0.2c-0.5,0-0.8,0.2-0.8,0.7c-0.5,0.5-0.7,0.8-0.8,1.6c-0.1,0.6,0,0.8,0.1,1.4
				c0.4,0.8,1.1,1.3,2.2,1.5l0.1-0.1c0.5,0.1,1.2,0,2-0.1c0.9-0.3,2.3-0.8,4.3-1.3c0,0.3-0.1,0.6-0.3,0.7L504.6,598.6z M503.8,588.2
				c-1.7,0.7-3.4,2-4.9,4c0.1,0,0.3,0,0.5-0.1c0.8-0.5,1.7-1,2.5-1.6c1-0.7,1.7-1.4,2.1-2.1C503.9,588.4,503.9,588.3,503.8,588.2z"
				/>
			<path class="st9" d="M506,593.3c0.1,0.1,0.2,0.1,0.2,0.1c-0.1,0-0.1,0-0.1,0l0.5,0.2c-0.1,0.1,0,0.3,0.2,0.3c0,0,0.1,0.1,0.2,0.1
				c0.1,0,0.1,0,0.2,0l0.3,0.1c0.1,0.3,0.5,0.6,1,0.9c0.5,0.3,0.9,0.6,1.1,0.8c1.2,0.9,1.8,1.9,1.8,2.7c-0.1,0.6-0.5,1.2-1.2,1.8
				c-0.1,0-0.2,0-0.4,0.2c-0.1,0.1-0.2,0.2-0.3,0.2c-1.9,0.8-3.6,1.1-5,0.7c-0.9-0.2-1.6-0.7-2.1-1.3c0-0.1,0-0.3-0.1-0.6
				c0-0.3,0-0.5,0-0.6c0.1-0.3,0.3-0.5,0.7-0.7c0.1,0.3,0.3,0.7,0.5,1.4c0.2,0.3,0.4,0.5,0.8,0.5c1.4-0.1,2.4-0.2,2.8-0.3
				c1.1-0.2,1.9-0.7,2.4-1.4c0.1-0.6-0.2-1.1-0.9-1.6c-0.5-0.4-1-0.7-1.6-1.1c-1-0.6-1.6-1.1-2-1.4c-0.6-0.7-0.9-1.4-0.7-2.2
				c0.4-0.4,0.9-0.7,1.7-1.1c0.9-0.5,1.5-0.8,1.8-1c0.2,0,0.6-0.1,1.1-0.3c0.4-0.2,0.8-0.3,1-0.3c1.7-0.6,1.8-0.5,3.2-0.7
				c0.3,0.1,0.5,0.2,0.8,0.3c0.3,0.1,0.4,0.4,0.4,0.7c0,0.2-0.3,0.4-0.7,0.5c-0.2,0-0.5,0.1-0.9,0.2c-0.4,0.1-0.8,0.2-1,0.2
				c-0.5,0.2-0.3,0-2.1,0.5c-1.5,0.4-2.7,0.9-3.5,1.5C506.2,593,506.1,593.1,506,593.3L506,593.3z"/>
			<path class="st9" d="M522.7,590.8c0.7,0.3,1.2,0.7,1.5,1.1l-0.1,0.8c-0.5,0-1.3-0.2-2.5-0.6c-0.7-0.2-1.3-0.3-1.9-0.2
				c-2.6,3.2-4,6.1-4.4,8.6c-0.1,0.3-0.1,0.7-0.1,1c0.2,0.5,0.8,0.7,1.9,0.6c0.4,0,1-0.1,1.7-0.4c0.7-0.3,1.4-0.4,2.1-0.3
				c-0.8,1.5-2.4,2.2-4.6,2.4c-1.2,0-2-0.4-2.4-1.1c-0.4-0.9-0.5-2-0.3-3.2c0.2-1.6,1-3.4,2.3-5.5c0.4-0.5,0.9-1.2,1.5-2.3
				c-1-0.1-2,0.2-2.9,0.9c-0.4,0-0.7-0.3-0.8-0.6c-0.1-0.3-0.1-0.7-0.2-1c0.1-0.3,0.5-0.6,1.2-0.8c0.5-0.3,1.2-0.5,1.9-0.4
				c0.6,0,1.3,0.1,1.9,0.1c1.9-2.4,3.3-4.8,4.3-7c0.3-0.3,0.5-0.4,0.7-0.4c0.4,0.1,0.7,0.4,0.9,1.1c-0.5,2-1.7,4.1-3.7,6.5
				c0,0-0.1,0-0.1,0.1C521.5,590.4,522.1,590.6,522.7,590.8z"/>
			<path class="st9" d="M525.4,604.8c-0.4,0.1-0.9,0.3-1.3,0.5c-0.5,0.1-0.9,0.2-1.3,0.1c-0.5-0.1-1-0.7-1.5-1.6
				c0.1-0.5,0.1-1.1,0.2-1.6c0.4-2.3,1.1-5,3.1-8.7c0.3-0.7,0.9-1.5,1.7-2.6c0.2-0.2,0.4-0.2,0.8-0.2c0.3,0.1,0.5,0.2,0.8,0.5
				c0.2,0.3,0.3,0.5,0.3,0.8c0,0.1-0.1,0.3-0.2,0.4c-1,1-1.2,1.5-2.1,3l-1.8,4.3c-1,2.4-0.7,2.8-0.8,3.6c0,0.2,0.1,0.4,0.3,0.8
				c0.1,0.1,0.3,0,0.6-0.2c0.3-0.2,0.4-0.2,0.5-0.3c0.3-0.2,0.9-0.5,1.7-1.1c0.7-0.5,1.3-0.8,1.8-1l1.2-1c-0.9,1.6-1.6,2.6-2.2,2.8
				C526.7,603.5,526.2,604,525.4,604.8z M530.5,588c-0.1,0-0.2,0.2-0.3,0.4c-1.4-0.1-2.1-0.6-2-1.4c0.1-0.5,0.3-0.7,0.6-0.8
				c0.1,0,0.5,0,1,0.2c0.2,0,0.4,0,0.6,0c0,0.1,0.1,0.2,0.3,0.3c0.2,0.2,0.2,0.4,0.2,0.6c0,0.2-0.2,0.5-0.4,0.6L530.5,588z"/>
			<path class="st9" d="M538.4,601.5c-0.4,1.1-0.8,2-0.9,2.7c-0.2,1.3-0.1,2.5,0.4,3.5c-0.8,0.1-1.4-0.1-1.8-0.6
				c-0.4-1.1-0.4-2.2-0.2-3.6c0.2-0.8,0.5-1.9,1-3.1c0.4-1,0.8-2,1.2-2.9l0-0.1c-1.3,0.7-2.8,1.9-4.6,3.7c-1.9,1.9-3.4,3.2-4.4,3.8
				c-0.7,0.2-1.2,0.1-1.6-0.1c-0.4-0.5-0.4-1.2,0-2c0.3-0.7,1.1-2.2,2.3-4.7c1-1.9,1.6-3.6,2-4.8c0.3-0.2,0.5-0.3,0.8-0.3
				c0.3,0.1,0.5,0.2,0.7,0.6c0.2,0.3,0.2,0.7,0.1,1c-0.8,1.6-1.9,4.1-3.3,7.3c0.2-0.3,0.5-0.7,1.1-1c1.8-1.7,3-2.8,3.6-3.3
				c1.4-1.2,2.9-2,4.2-2.5c0.4,0.1,0.7,0.3,0.9,0.6c0.3,0.3,0.3,0.7,0.2,1.2c0,0.2-0.1,0.5-0.3,0.9c-0.2,0.4-0.3,0.7-0.3,0.9
				C539.3,599.1,538.9,600,538.4,601.5z"/>
			<path class="st9" d="M550.5,596.8c0,0.5-0.1,1.2-0.2,2.1l-0.4,2.1c-0.3,0.1-0.4,0.3-0.5,0.6c-0.2,0.3-0.3,0.6-0.5,0.7
				c-0.2,0.1-0.2,0.3-0.3,0.5l-0.2,0.3c0,0-0.1,0.2-0.2,0.3c-0.9,1.2-1.5,2.5-2.1,3.7c-0.4,0.5-0.7,1.1-0.9,1.8
				c-0.2,0.1-0.3,0.2-0.4,0.4c-0.1,0.3-0.1,0.5-0.3,0.6c-1.6,3.2-2.7,5.4-3.3,6.4c-1.6,2.6-3.2,4.3-4.7,5.1
				c-0.9,0.4-1.6,0.6-2.3,0.5c-0.2,0-0.5-0.1-0.7-0.3l-0.8-1.2c1.5,0.4,2.6,0.1,3.3-0.8c0.7-0.4,1.3-1,1.9-1.7
				c2.3-3.1,4-6.3,5.3-9.6c-0.9,0.3-1.4,0.1-2.5-0.4c-0.6-0.6-1.7-1.9-1.8-3.2c-0.1-1.1-0.1-2.7,0.8-4c0.2-0.4,2.5-3.9,4.7-5.1
				c1.8-0.7,3.4-0.5,3.9-0.6C549.8,595.3,550.5,595.8,550.5,596.8z M548.9,597.3l-0.1-0.1c0-0.2,0-0.3-0.1-0.3
				c-0.9,0.3-3.7,0.4-3.9,1c-0.7,0.3-1.6,1.2-2.7,2.8c-1.2,1.6-1.2,2.7-1.1,4c0.1,0.6,0.6,1.5,1.1,2.1c1.2,0.6,3.1-1.5,3.9-3.4
				c0.1-0.4,0.3-0.8,0.5-1.2c0.2-0.3,0.4-0.6,0.7-1c0.5-0.5,0.7-0.8,0.8-1c0-0.1-0.1-0.3-0.5-0.6c0.6-0.2,1-0.5,1.1-1L548.9,597.3z"
				/>
			<path class="st9" d="M570.8,600c0.7,0.3,1.2,0.7,1.5,1.1l-0.1,0.8c-0.5,0-1.3-0.2-2.5-0.6c-0.7-0.2-1.3-0.3-1.9-0.2
				c-2.6,3.2-4,6.1-4.4,8.6c-0.1,0.3-0.1,0.7-0.1,1c0.2,0.5,0.8,0.7,1.9,0.6c0.4,0,1-0.1,1.7-0.4c0.7-0.3,1.4-0.4,2.1-0.3
				c-0.8,1.5-2.4,2.2-4.6,2.4c-1.2,0-2-0.4-2.4-1.1c-0.4-0.9-0.5-2-0.3-3.2c0.2-1.6,1-3.4,2.3-5.5c0.4-0.5,0.9-1.2,1.5-2.3
				c-1-0.1-2,0.2-2.9,0.9c-0.4,0-0.7-0.3-0.8-0.6c-0.1-0.3-0.1-0.7-0.2-1c0.1-0.3,0.5-0.6,1.2-0.8c0.5-0.3,1.2-0.5,1.9-0.4
				c0.6,0,1.3,0.1,1.9,0.1c1.9-2.4,3.3-4.8,4.3-7c0.3-0.3,0.5-0.4,0.7-0.4c0.4,0.1,0.7,0.4,0.9,1.1c-0.5,2-1.7,4.1-3.7,6.5
				c0,0-0.1,0-0.1,0.1C569.6,599.6,570.2,599.8,570.8,600z"/>
			<path class="st9" d="M578.3,611c-0.3,0.5-0.5,0.7-0.6,0.8c-0.4,0.4-1.2,0.9-2.3,1.6c-1.1,1-2.5,1.5-4.2,1.4
				c-0.5,0-0.9-0.2-1.4-0.3c-1-0.8-1.6-2-1.5-3.7c0.2-0.8,0.7-1.8,1.3-2.8c0.6-0.9,1.1-1.7,1.7-2.6c0.2-0.1,0.6-0.6,1.2-1.2
				c0.5-0.5,0.9-0.8,1.4-1c0.5-0.6,1.2-0.9,2-0.9c0.3,0.1,0.8-0.1,1.6-0.6c0.1-0.1,0-0.3,0.3-0.5c0.9,0.1,1.5,0.2,1.9,0.5
				c0.9,0.9,1.2,2.1,1.1,3.6c-0.1,0.8-0.3,1.6-0.6,2.4c-0.3,0.6-0.4,1.6-1.2,2.8C578.7,610.5,578.5,610.7,578.3,611z M578.8,602.6
				l-2,0.3l0.4,0.6c-0.1,0.5-0.1,1-0.2,1.4c-0.1,0.5-0.4,0.9-0.7,1.2c-0.1,0.1-0.3,0.1-0.4,0.1c-0.4-0.1-0.6-0.5-0.5-1.4
				c0,0,0-0.1,0-0.2c-0.3,0.1-0.7,0.4-1.2,0.8c-0.6,0.5-1,0.7-1.2,0.8c-1.2,1.6-1.8,2.5-1.9,2.8c-0.6,1-0.9,2.1-0.9,3.2
				c0.2,0.3,0.9,0.7,1.2,0.8c3.5-0.3,6.1-2.5,8.1-6.7c0.1-1.7,0.2-2.5,0.2-2.2C579.4,603.5,579.2,603,578.8,602.6z"/>
			<path class="st9" d="M584.9,616c-1.1,0.9-2.2,1.2-3.2,1c-0.4-0.1-0.9-0.3-1.3-0.5c-0.6-0.7-0.8-1.6-0.6-2.6
				c0.1-0.5,0.3-1.3,0.7-2.2c0.2-0.5,0.9-2.2,2.2-4.8c0.2-0.5,0.8-1.2,1.6-2c0.5-0.5,0.9-1,1.4-1.6c0.5-0.5,1.1-0.9,1.7-0.9
				c0.2,0,0.4,0,0.6,0c0.5,0.1,1,0.7,1.6,1.8c0,0.2,0,0.5,0.2,0.8c0.5-1.3,1.4-3.3,2.7-5.8c0-0.2,0.5-0.9,1.2-2.3
				c0.2-0.3,0.5-0.4,0.8-0.3c0.5,0.1,0.8,0.4,0.9,1c-0.4,2.5-1.3,5.4-2.8,8.5c-0.4,0.7-1,1.7-2,3c-0.5,0.7-0.9,1.5-1.1,2.6
				c-0.2,1-0.2,2,0.1,2.9c0.2,0.4,0.5,0.6,0.9,0.7c0.2,0,0.4,0,0.6-0.1c0.5,0,1-0.3,1.4-0.7c0.4-0.3,0.8-0.7,1.2-1
				c0.3-0.2,0.8-0.4,1.4-0.6c0,0.3,0,0.5,0,0.7c0,0-0.3,0.5-0.9,1.4c-1,0.7-1.7,1.2-1.9,1.3c-0.8,0.4-1.5,0.6-2.1,0.5
				c-0.3-0.1-0.6-0.2-0.9-0.3c-0.8-0.7-1.3-1.7-1.6-3C586.7,614.3,585.8,615.1,584.9,616z M589.1,606.6c-0.4-0.2-0.7-0.6-0.9-1.2
				l-0.2-0.4c-0.1-0.3-0.3-0.5-0.4-0.7c-1.1,0.8-2.1,2-3.3,3.6l-0.1,0.4c-0.4,0.3-0.7,0.7-0.9,1.3c-0.2,0.5-0.5,1.1-0.7,1.6
				c-0.1,0.2-0.2,0.7-0.4,1.4c-0.2,0.5-0.3,1-0.4,1.4c-0.1,0.4-0.1,0.8-0.1,1.1c0,0.1,0.2,0.3,0.5,0.3c1.7-0.4,3.6-1.9,5.6-4.5
				c0-0.3,0.2-0.9,0.6-1.9c0.1-0.1,0.1-0.4,0.2-0.8C588.5,608,588.7,607.5,589.1,606.6z"/>
			<path class="st9" d="M600.5,619.4c-0.4,0-0.7-0.2-0.9-0.4c-0.3-0.2-0.5-0.5-0.8-0.7c0-0.2,0-0.7-0.1-1.3c-0.1-0.5-0.1-1-0.1-1.3
				c-0.3,0.2-0.5,0.4-0.6,0.6c-1.3,1.1-2.1,1.8-2.3,1.9c-1,0.5-1.9,0.7-2.9,0.4c-0.7-0.8-0.9-1.7-0.7-2.9c0.2-1,0.5-2.8,1.5-4.6
				c1.9-3.2,4.6-4.9,7.4-6.1l0.7,0.1c0.3,0.1,0.5,0.2,0.7,0.4c0.1,0.3,0.2,0.5,0.1,0.9c0,0.3-0.2,0.8-0.6,1.5
				c-0.1,0.1-0.3,0.3-0.5,0.7c-0.2,0.3-0.5,0.5-0.7,0.6c-0.1,0.2-0.5,0.4-1.2,0.4c0.3-0.8,0.6-1.3,1-1.6c0.1-0.1,0.1-0.3,0.3-0.7
				c0.1-0.1,0.2-0.3,0.1-0.6c0.1,0,0.1-0.1,0.2-0.1c0.1,0,0.1-0.1,0.1-0.1c-0.2-0.1-0.5,0.1-1.1,0.6c-0.1,0.1-0.3,0.1-0.5,0.3
				c-3.6,2.9-5.7,5.7-6.3,8.4c-0.1,0.8,0.1,1.4,0.5,1.5c0.9-0.1,2-0.6,3-1.8c1.4-0.9,2.1-2.1,2.9-3.5c0.2-0.3,1.4-2,2.8-5.2
				c0.2-0.2,0.5-0.4,1.1-0.5c0.2,0.4,0.3,0.7,0.2,1c0,0.2-0.1,0.5-0.3,0.8c-0.2,0.4-0.3,0.6-0.4,0.8c-0.6,1-1.2,1.9-1.7,3
				c-0.6,1.1-1,2.2-1.2,3.1c-0.1,0.6-0.1,1.1-0.1,1.7s0.2,1,0.4,1.2c0.5,0,1.9-0.7,2.2-0.6c0,0.5-0.2,1.3-0.7,1.4
				C602.1,619,600.9,619.3,600.5,619.4z"/>
			<path class="st9" d="M602.6,630.5c-0.5,0.4-1.3,0.9-2.4,1.6c-1,0.6-0.8,0.6-2.3,0.4c3.9-2.5,8-8.3,9.7-11.9
				c0-0.1,0.2-0.9-0.5-1.5c-1-1-1.6-3.3-1.7-6.1c0-1.2,0.4-3,0.4-5.4c0.2-0.7,0-1.1,0.4-1.1c0.3,0,0.6,0.3,0.8,0.8
				c0.2,0.5,0.3,0.9,0.3,1.2c-0.1,1.2-0.2,3-0.1,5.4c0.1,1.8,0.7,4.1,1.9,5c2.1-2.9,4-6.6,5.5-9.4c0.7-0.2,1.1-0.2,1.1-0.3
				c0.2,0,0.3,0.2,0.4,0.4l0.4,0.5c-0.3,0.8-0.9,1.8-1.7,2.9c-2,2.7-6.6,11.1-7.5,12.2C605.7,627.2,604.1,629,602.6,630.5z"/>
			<path class="st9" d="M617.1,621.2c-0.2,0.8-0.8,1.2-1.6,1.1c-0.1-0.1-0.3-0.2-0.4-0.3c-0.1-0.1-0.2-0.3-0.1-0.5
				c0-1.4,0.4-2,1.3-1.9c0.2,0.1,0.4,0.2,0.6,0.3c0.2,0.1,0.3,0.3,0.3,0.6L617.1,621.2z"/>
			<path class="st9" d="M194.5,565.7c-0.2,0.2-0.4,0.6-0.7,1.1c-0.2,0.5-0.6,0.9-0.9,1.1c-1,2-2,4-3,6c-1.2,2.4-1.9,4.6-2.2,6.4
				c-0.5,0.5-0.8,1.2-0.9,1.9c-0.1,0.6-0.1,1.2,0,1.8c0.2,0.2,0.2,0.6,0,1.2c-0.8-0.1-1.3-0.5-1.4-1.2c-0.1-0.7-0.2-1.4-0.3-2
				c0.3-1.1,0.7-2.7,1.4-4.7c1.6-4.5,3.6-8.5,5.7-12.4c0.2-0.4,1.4-2.5,1.9-3.1c0.5-0.6,0.9-1,1.1-1.4c0.4-0.2,0.9-0.3,1.6-0.2
				c0.3,0.4,0.4,0.8,0.4,1.2c-0.1,0.3-0.2,0.6-0.5,0.9c-0.3,0.1-1.4,2-1.6,2.3C195,564.9,194.8,565.2,194.5,565.7z"/>
			<path class="st9" d="M213.5,575.8c0.7,0.3,1.2,0.7,1.5,1.1l-0.1,0.8c-0.5,0-1.3-0.2-2.5-0.6c-0.7-0.2-1.3-0.3-1.9-0.2
				c-2.6,3.2-4,6.1-4.4,8.6c-0.1,0.3-0.1,0.7-0.1,1c0.2,0.5,0.8,0.7,1.9,0.6c0.4,0,1-0.1,1.7-0.4c0.7-0.3,1.4-0.4,2.1-0.3
				c-0.8,1.5-2.4,2.2-4.6,2.4c-1.2,0-2-0.4-2.4-1.1c-0.4-0.9-0.5-2-0.3-3.2c0.2-1.6,1-3.4,2.3-5.5c0.4-0.5,0.9-1.2,1.5-2.3
				c-1-0.1-2,0.2-2.9,0.9c-0.4,0-0.7-0.3-0.8-0.6c-0.1-0.3-0.1-0.7-0.2-1c0.1-0.3,0.5-0.6,1.2-0.8c0.5-0.3,1.2-0.5,1.9-0.4
				c0.6,0,1.3,0.1,1.9,0.1c1.9-2.4,3.3-4.8,4.3-7c0.3-0.3,0.5-0.4,0.7-0.4c0.4,0.1,0.7,0.4,0.9,1.1c-0.5,2-1.7,4.1-3.7,6.5
				c0,0-0.1,0-0.1,0.1C212.3,575.5,212.9,575.7,213.5,575.8z"/>
			<path class="st9" d="M219.2,580.8c2.1-1.8,4-3,5.8-3.6c0.4-0.1,1,0,1.6,0.3c0.3,0.3,0.4,0.6,0.4,1.1c0,0.5,0,0.8,0.1,0.9
				c-0.3,0.4-0.5,0.9-0.7,1.7c-0.3,0.9-0.5,1.5-0.6,1.7c-0.7,1.4-1.3,2.9-2,4.4c-0.7,1.7-1.3,3.3-1.7,4.8c-0.8-0.8-1.1-1.7-0.9-2.6
				c0.1-0.3,0.2-0.7,0.4-1.3c0.3-0.6,0.4-1.1,0.5-1.3c0.2-0.6,0.8-1.9,1.7-3.8c0.8-1.6,1.2-2.8,1.3-3.8c-0.2-0.1-0.7,0-1.5,0.6
				c-1.4,0.8-3,2-4.7,3.6c-2.8,2.6-4.3,3.9-4.4,4.1c-0.3,0.2-0.7,0.4-1.1,0.8c-0.5,0.5-0.9,0.8-1,0.9c-0.5,0.1-0.8,0.1-1,0
				c-0.2-0.5-0.2-1.1-0.1-1.6c0.1-0.5,0.4-1.1,0.8-2c0.5-0.9,0.7-1.5,0.9-1.9c1.6-2.9,4.1-7.3,7.4-13.3c0-0.4,0.2-0.7,0.6-1
				c0-0.3,0.2-0.5,0.5-0.8c0.3-0.3,0.6-0.3,0.9-0.3c0.3,0.1,0.5,0.3,0.7,0.7c-0.1,0.9-0.4,1.8-1.1,2.6c-1,1.3-1.7,2.4-2.1,3.3
				c-0.1,0-0.2,0.1-0.2,0.2c-0.7,1.2-1.8,2.9-3.1,5.4c-0.6,1.1-1.4,2.7-2.6,4.9C215.7,583.8,217.5,582.3,219.2,580.8z"/>
			<path class="st9" d="M229.1,592.2c-0.4,0.1-0.9,0.3-1.3,0.5c-0.5,0.1-0.9,0.2-1.3,0.1c-0.5-0.1-1-0.7-1.5-1.6
				c0.1-0.5,0.1-1.1,0.2-1.6c0.4-2.3,1.1-5,3.1-8.7c0.3-0.7,0.9-1.5,1.7-2.6c0.2-0.2,0.4-0.2,0.8-0.2s0.5,0.2,0.8,0.5
				s0.3,0.5,0.3,0.8c0,0.1-0.1,0.3-0.2,0.4c-1,1-1.2,1.5-2.1,3l-1.8,4.3c-1,2.4-0.7,2.8-0.8,3.6c0,0.2,0.1,0.4,0.3,0.8
				c0.1,0.1,0.3,0,0.6-0.2c0.3-0.2,0.4-0.2,0.5-0.3c0.3-0.2,0.9-0.5,1.7-1.1c0.7-0.5,1.3-0.8,1.8-1l1.2-1c-0.9,1.6-1.6,2.6-2.2,2.8
				C230.4,591,229.8,591.5,229.1,592.2z M234.2,575.4c-0.1,0-0.2,0.2-0.3,0.4c-1.4-0.1-2.1-0.6-2-1.4c0.1-0.5,0.3-0.7,0.6-0.8
				c0.1,0,0.5,0,1,0.2c0.2,0,0.4,0,0.6,0c0,0.1,0.1,0.2,0.3,0.3c0.2,0.2,0.2,0.4,0.2,0.6c0,0.2-0.2,0.5-0.4,0.6L234.2,575.4z"/>
			<path class="st9" d="M242,589c-0.4,1.1-0.8,2-0.9,2.7c-0.2,1.3-0.1,2.5,0.4,3.5c-0.8,0.1-1.4-0.1-1.8-0.6
				c-0.4-1.1-0.4-2.2-0.2-3.6c0.2-0.8,0.5-1.9,1-3.1c0.4-1,0.8-2,1.2-2.9l0-0.1c-1.3,0.7-2.8,1.9-4.6,3.7c-1.9,1.9-3.4,3.2-4.4,3.8
				c-0.7,0.2-1.2,0.1-1.6-0.1c-0.4-0.5-0.4-1.2,0-2c0.3-0.7,1.1-2.2,2.3-4.7c1-1.9,1.6-3.6,2-4.8c0.3-0.2,0.5-0.3,0.8-0.3
				c0.3,0.1,0.5,0.2,0.7,0.6c0.2,0.3,0.2,0.7,0.1,1c-0.8,1.6-1.9,4.1-3.3,7.3c0.2-0.3,0.5-0.7,1.1-1c1.8-1.7,3-2.8,3.6-3.3
				c1.4-1.2,2.9-2,4.2-2.5c0.4,0.1,0.7,0.3,0.9,0.6c0.3,0.3,0.3,0.7,0.2,1.2c0,0.2-0.1,0.5-0.3,0.9c-0.2,0.4-0.3,0.7-0.3,0.9
				C243,586.6,242.6,587.5,242,589z"/>
			<path class="st9" d="M247.9,588.8c0,0.4-0.1,0.7-0.4,0.7l-0.1,0c-0.2,1,0,2.1,0.8,3.4c0.3,0.3,0.6,0.7,1,1
				c0.3,0.4,0.7,0.6,1.1,0.8c0.1,0.5,0.7,1.1,1.6,1.8c0.2,0,0.3,0.1,0.4,0.1l0.1,0.1l0.3,0c0,0.4-0.2,0.6-0.3,0.6
				c-0.2,0.1-0.4,0.1-0.6,0.2c-3.2-1.4-5.2-3.5-6.1-6.3c0-0.2,0-0.5,0-1c-0.4,0.8-1,2-1.8,3.7c-0.2,0.1-0.2,0.3-0.3,0.6
				c0,0.1-0.1,0.3-0.1,0.5c0,0.3,0,0.4-0.1,0.6c-0.1,0.7-0.6,1-1.5,0.8c-0.2-0.5-0.2-0.9-0.1-1.4c0-0.3,0.3-0.9,0.7-1.8
				c0.9-2.2,3.1-6.3,5.4-11c2.2-4.4,3.8-7.9,4.8-10.3c0.3-0.1,0.5-0.1,0.8-0.1c0.5,0.1,0.7,0.4,0.7,0.8c-0.1,0.3-0.4,1.1-1.1,2.2
				c0,0.3-0.2,0.6-0.5,1c-0.3,0.4-0.5,0.8-0.5,1c0,0.3-0.2,0.6-0.4,1c-0.3,0.4-0.4,0.8-0.5,1.1c0,0.1-0.1,0.3,0,0.5
				c-0.2,0.2-0.5,0.5-0.6,1c-0.2,0.5-0.4,0.8-0.5,1c-0.1,0.4-0.4,1.1-0.9,1.9c-0.5,0.9-0.8,1.5-1,2c0.7-0.3,1.6-0.8,2.8-1.5
				c0.3,0.1,0.4,0.1,0.6-0.1c0.2-0.4,0.5-0.4,0.9-0.2c1.5-0.1,2.2-0.1,2.1-0.1c0.2,0,0.5,0.1,0.7,0.2c0.3,0.4,0.3,0.8,0,1.2
				c-2.7,0-4.9,0.8-6.6,2.4l-0.7,1.3C247.8,588.7,247.9,588.7,247.9,588.8z"/>
			<path class="st9" d="M275.7,581.1c-0.2,0.2-0.4,0.6-0.7,1.1c-0.2,0.5-0.6,0.9-0.9,1.1c-1,2-2,4-3,6c-1.2,2.4-1.9,4.6-2.2,6.4
				c-0.5,0.5-0.8,1.2-0.9,1.9c-0.1,0.6-0.1,1.2,0,1.8c0.2,0.2,0.2,0.6,0,1.2c-0.8-0.1-1.3-0.5-1.4-1.2c-0.1-0.7-0.2-1.4-0.3-2
				c0.3-1.1,0.7-2.7,1.4-4.7c1.6-4.5,3.6-8.5,5.7-12.4c0.2-0.4,1.4-2.5,1.9-3.1c0.5-0.6,0.9-1,1.1-1.4c0.4-0.2,0.9-0.3,1.6-0.2
				c0.3,0.4,0.4,0.8,0.4,1.2c-0.1,0.3-0.2,0.6-0.5,0.9c-0.3,0.1-1.4,2-1.6,2.3C276.2,580.4,276,580.7,275.7,581.1z"/>
			<path class="st9" d="M279.9,580.2c-0.6,0.2-1.5,0.1-1.2-0.5c0.2-0.3,0.4-0.5,0.5-0.8c0.1-0.3,0.2-0.6,0.2-0.7
				c0.1-0.3,0.3-0.8,0.4-1.4c0.2-0.4,0-0.7,0.4-1.8c0.2-0.6,0.4-1,0.7-1.1l0,0c0,0,0.1,0,0.2,0l0.1,0c0.3,0,0.8,0.2,1.1,0.5
				c-0.1,0.6-0.2,1.2-0.4,1.8c-0.9,2-1.4,3.2-1.5,3.4C280.2,579.9,280.1,580,279.9,580.2z"/>
			<path class="st9" d="M284,591.5c-0.2,1-0.6,2-1.4,3c-0.1,0.3-0.3,0.9-0.6,1.7c-0.3,0.8-0.5,1.4-0.6,1.9c1.7-1.3,3.4-2.7,5.1-4.1
				c2-1.6,3.8-2.7,5.5-3.4c0.8,0.5,1.1,1.2,0.9,2.4c0,0.3-0.2,0.7-0.3,1.3c-0.2,0.6-0.3,1-0.3,1.3c-0.6,1.1-1.4,2.8-2.4,5.1
				c0,0.1,0.1,0.1,0.1,0c2.8-1.8,4.6-4.6,7-6.1c2.9-1.8,2.7-1.7,4.9-2.5c0.5,0.1,0.7,0.4,0.8,0.9c-0.1,1.1-0.5,2.2-1.3,3.6
				c-1.1,1.8-1.7,2.9-1.9,3.3c-1.2,3.1-1.9,5.2-2.1,6.3l0,0c0.1,0,0.3,0.1,0.5,0.3c-0.2,0.4-0.3,0.7-0.7,0.7
				c-0.3,0.1-0.6,0.1-0.9,0.2c-0.6-0.7-0.8-1.7-0.6-2.9c0.1-0.3,0.2-0.8,0.4-1.5c0.2-0.6,0.3-1.2,0.4-1.5c0.4-1,1-2.2,1.8-3.7
				c1-1.8,1.7-3.1,2-3.7l-0.1,0c-0.3,0.2-0.6,0.7-0.7,0.6c-1.5,0.7-1.5,1.1-3.8,2.8c-2.4,1.8-3.2,2.7-4.5,3.8
				c-1,0.8-1.6,1.3-1.8,1.4c-0.7,0.4-1.5,1-2.3,0.7c-0.1-0.6,0.4-1.1,0.5-1.8c0.1-0.4,0.4-1.4,0.8-2.8c0.2-0.5,0.6-1.3,1.3-2.6
				c0.6-1,0.5-2,0.6-2.7c0-0.3,0.1-0.5,0.1-0.7c-0.7,0.2-1.5,0.8-2.5,1.8c-1.1,1-2,1.7-2.5,2c-2.4,2.4-4.4,2.7-6.2,4.9
				c-0.1-0.2-0.7,0.4-0.7,0.3c0-0.1-0.1-0.1-0.2-0.1c-0.2,0-0.4,0-0.4,0c-0.2,0-0.4-0.2-0.6-0.3c0.4-1.2,1.1-2.9,2.3-5.1
				c1.2-2.2,2-3.8,2.3-5.1c-0.2,0.1,0.2-2.2-0.1-2.2c0.6-0.3,1.2-0.3,1.9,0.2C284.2,589.9,284.2,590.6,284,591.5z"/>
			<path class="st9" d="M316.4,599.7c0-0.1,0.1-0.1,0.1-0.2c0.2-0.1,0.6-0.6,1.3-1.4c0.5-0.6,1-1,1.5-1.2c1.1-1.4,2.6-1.9,4.4-1.4
				c1,0.7,1.4,1.8,1.1,3.4c-0.4,2.4-1.6,4.6-3.6,6.6c-1.2,1.5-3.2,2.6-6.1,3.2c-0.8,0.2-1.5,0.2-2.3,0c-0.9-0.2-1.5-0.5-1.9-1.1
				c-0.3-0.4-0.4-1-0.4-1.9c0.5,0.2,0.8,0.6,1.2,1c0.2,0.3,0.5,0.5,0.8,0.5c1.7,0.2,3.4-0.2,5.1-1.1c1.6-0.9,2.8-2,3.8-3.5
				c1-1.6,1.6-2.8,1.8-3.6c0.1-0.5,0.1-1,0-1.4c-0.1-0.1-0.2-0.3-0.2-0.6c0.1,0,0.1,0,0,0c-0.2-0.1-0.3-0.2-0.5-0.2
				c-0.3-0.1-0.6,0-1,0.2c-0.6,0.3-1.1,0.5-1.3,0.7c-0.2,0.1-0.5,0.5-1,1.1c-1.1,1-2.1,2-2.9,2.9l0,0.1l-0.3,0.4
				c-0.1-0.1-0.2,0-0.2,0l-0.1,0.1c-0.1,0.2-0.2,0.4-0.4,0.4c-0.2,0.3-0.7,0.8-1.3,1.3c-0.1,0.1-0.4,0.3-0.9,0.6
				c-0.4,0-0.7-0.2-0.8-0.4c-0.1-0.2-0.1-0.6,0-1c0,0,0-0.1,0.1-0.3l0-0.2c3.6-5.9,6.2-10.7,7.7-14.2c0.3-0.1,0.5-0.2,0.8-0.1
				c0.3,0.1,0.5,0.3,0.6,0.6c0,0.4-0.2,0.9-0.5,1.5c-0.3,0.6-0.6,1.1-0.6,1.5c-0.2,0.2-0.4,0.5-0.6,0.9c-0.2,0.4-0.4,0.7-0.5,0.8
				c-0.3,0.5-0.7,1.4-1.3,2.5c-0.6,1.2-1.4,2.4-2.1,3.6L316.4,599.7z M321.8,598.2c0.1-0.3,0.2-0.4,0.4-0.4c0.2,0,0.3,0.2,0.2,0.5
				L321.8,598.2z"/>
			<path class="st9" d="M333.2,609.9c-0.1,0.1-0.3,0.2-0.3,0.4c-2.7,1.3-4.7,1.9-6.1,1.7c-0.8-0.1-1.5-0.4-2.2-0.9c-1.2-1-1.3-2-1-4
				c1.8-4.5,4.3-7.4,8.6-9.5c0,0,0.3,0,1,0c0.5,0,1,0.2,1.2,0.5c0.2,0.4,0.3,0.7,0.2,1.1c-0.1,0.4-0.2,0.7-0.3,1.1
				c-0.8,1.6-2.9,3.2-6.1,4.9c-0.2,0.1-0.7,0.1-1.5,0.2c-0.5,0-0.8,0.2-0.8,0.7c-0.5,0.5-0.7,0.8-0.8,1.6c-0.1,0.6,0,0.8,0.1,1.4
				c0.4,0.8,1.1,1.3,2.2,1.5l0.1-0.1c0.5,0.1,1.2,0,2-0.1c0.9-0.3,2.3-0.8,4.3-1.3c0,0.3-0.1,0.6-0.3,0.7L333.2,609.9z M332.4,599.5
				c-1.7,0.7-3.4,2-4.9,4c0.1,0,0.3,0,0.5-0.1c0.8-0.5,1.7-1,2.5-1.6c1-0.7,1.7-1.4,2.1-2.1C332.6,599.7,332.5,599.6,332.4,599.5z"
				/>
			<path class="st9" d="M344.3,601.4c0,0.5-0.1,1.2-0.2,2.1l-0.4,2.1c-0.3,0.1-0.4,0.3-0.5,0.6c-0.2,0.3-0.3,0.6-0.5,0.7
				c-0.2,0.1-0.2,0.3-0.3,0.5l-0.2,0.3c0,0-0.1,0.2-0.2,0.3c-0.9,1.2-1.5,2.5-2.1,3.7c-0.4,0.5-0.7,1.1-0.9,1.8
				c-0.2,0.1-0.3,0.2-0.4,0.4c-0.1,0.3-0.1,0.5-0.3,0.6c-1.6,3.2-2.7,5.4-3.3,6.4c-1.6,2.6-3.2,4.3-4.7,5.1
				c-0.9,0.4-1.6,0.6-2.3,0.5c-0.2,0-0.5-0.1-0.7-0.3l-0.8-1.2c1.5,0.4,2.6,0.1,3.3-0.8c0.7-0.4,1.3-1,1.9-1.7
				c2.3-3.1,4-6.3,5.3-9.6c-0.9,0.3-1.4,0.1-2.5-0.4c-0.6-0.6-1.7-1.9-1.8-3.2c-0.1-1.1-0.1-2.7,0.8-4c0.2-0.4,2.5-3.9,4.7-5.1
				c1.8-0.7,3.4-0.5,3.9-0.6C343.5,599.9,344.3,600.4,344.3,601.4z M342.7,602l-0.1-0.1c0-0.2,0-0.3-0.1-0.3c-0.9,0.3-3.7,0.4-3.9,1
				c-0.7,0.3-1.6,1.2-2.7,2.8c-1.2,1.6-1.2,2.7-1.1,4c0.1,0.6,0.6,1.5,1.1,2.1c1.2,0.6,3.1-1.5,3.9-3.4c0.1-0.4,0.3-0.8,0.5-1.2
				c0.2-0.3,0.4-0.6,0.7-1c0.5-0.5,0.7-0.8,0.8-1c0-0.1-0.1-0.3-0.5-0.6c0.6-0.2,1-0.5,1.1-1L342.7,602z"/>
			<path class="st9" d="M346.2,614.5c-0.4,0.1-0.9,0.3-1.3,0.5s-0.9,0.2-1.3,0.1c-0.5-0.1-1-0.7-1.5-1.6c0.1-0.5,0.1-1.1,0.2-1.6
				c0.4-2.3,1.1-5,3.1-8.7c0.3-0.7,0.9-1.5,1.7-2.6c0.2-0.2,0.4-0.2,0.8-0.2c0.3,0.1,0.5,0.2,0.8,0.5c0.2,0.3,0.3,0.5,0.3,0.8
				c0,0.1-0.1,0.3-0.2,0.4c-1,1-1.2,1.5-2.1,3l-1.8,4.3c-1,2.4-0.7,2.8-0.8,3.6c0,0.2,0.1,0.4,0.3,0.8c0.1,0.1,0.3,0,0.6-0.2
				c0.3-0.2,0.4-0.2,0.5-0.3c0.3-0.2,0.9-0.5,1.7-1.1c0.7-0.5,1.3-0.8,1.8-1l1.2-1c-0.9,1.6-1.6,2.6-2.2,2.8
				C347.5,613.3,346.9,613.8,346.2,614.5z M351.3,597.7c-0.1,0-0.2,0.2-0.3,0.4c-1.4-0.1-2.1-0.6-2-1.4c0.1-0.5,0.3-0.7,0.6-0.8
				c0.1,0,0.5,0,1,0.2c0.2,0,0.4,0,0.6,0c0,0.1,0.1,0.2,0.3,0.3c0.2,0.2,0.2,0.4,0.2,0.6c0,0.2-0.2,0.5-0.4,0.6L351.3,597.7z"/>
			<path class="st9" d="M359.1,611.3c-0.4,1.1-0.8,2-0.9,2.7c-0.2,1.3-0.1,2.5,0.4,3.5c-0.8,0.1-1.4-0.1-1.8-0.6
				c-0.4-1.1-0.4-2.2-0.2-3.6c0.2-0.8,0.5-1.9,1-3.1c0.4-1,0.8-2,1.2-2.9l0-0.1c-1.3,0.7-2.8,1.9-4.6,3.7c-1.9,1.9-3.4,3.2-4.4,3.8
				c-0.7,0.2-1.2,0.1-1.6-0.1c-0.4-0.5-0.4-1.2,0-2c0.3-0.7,1.1-2.2,2.3-4.7c1-1.9,1.6-3.6,2-4.8c0.3-0.2,0.5-0.3,0.8-0.3
				c0.3,0.1,0.5,0.2,0.7,0.6c0.2,0.3,0.2,0.7,0.1,1c-0.8,1.6-1.9,4.1-3.3,7.3c0.2-0.3,0.5-0.7,1.1-1c1.8-1.7,3-2.8,3.6-3.3
				c1.4-1.2,2.9-2,4.2-2.5c0.4,0.1,0.7,0.3,0.9,0.6c0.3,0.3,0.3,0.7,0.2,1.2c0,0.2-0.1,0.5-0.3,0.9c-0.2,0.4-0.3,0.7-0.3,0.9
				C360.1,608.9,359.7,609.8,359.1,611.3z"/>
			<path class="st9" d="M371.8,613.7c-0.4,1.1-0.8,2-0.9,2.7c-0.2,1.3-0.1,2.5,0.4,3.5c-0.8,0.1-1.4-0.1-1.8-0.6
				c-0.4-1.1-0.4-2.2-0.2-3.6c0.2-0.8,0.5-1.9,1-3.1c0.4-1,0.8-2,1.2-2.9l0-0.1c-1.3,0.7-2.8,1.9-4.6,3.7c-1.9,1.9-3.4,3.2-4.4,3.8
				c-0.7,0.2-1.2,0.1-1.6-0.1c-0.4-0.5-0.4-1.2,0-2c0.3-0.7,1.1-2.2,2.3-4.7c1-1.9,1.6-3.6,2-4.8c0.3-0.2,0.5-0.3,0.8-0.3
				c0.3,0.1,0.5,0.2,0.7,0.6c0.2,0.3,0.2,0.7,0.1,1c-0.8,1.6-1.9,4.1-3.3,7.3c0.2-0.3,0.5-0.7,1.1-1c1.8-1.7,3-2.8,3.6-3.3
				c1.4-1.2,2.9-2,4.2-2.5c0.4,0.1,0.7,0.3,0.9,0.6c0.3,0.3,0.3,0.7,0.2,1.2c0,0.2-0.1,0.5-0.3,0.9c-0.2,0.4-0.3,0.7-0.3,0.9
				C372.8,611.3,372.4,612.2,371.8,613.7z"/>
			<path class="st9" d="M376.3,620.3c-0.4,0.1-0.9,0.3-1.3,0.5c-0.5,0.1-0.9,0.2-1.3,0.1c-0.5-0.1-1-0.7-1.5-1.6
				c0.1-0.5,0.1-1.1,0.2-1.6c0.4-2.3,1.1-5,3.1-8.7c0.3-0.7,0.9-1.5,1.7-2.6c0.2-0.2,0.4-0.2,0.8-0.2c0.3,0.1,0.5,0.2,0.8,0.5
				c0.2,0.3,0.3,0.5,0.3,0.8c0,0.1-0.1,0.3-0.2,0.4c-1,1-1.2,1.5-2.1,3l-1.8,4.3c-1,2.4-0.7,2.8-0.8,3.6c0,0.2,0.1,0.4,0.3,0.8
				c0.1,0.1,0.3,0,0.6-0.2c0.3-0.2,0.4-0.2,0.5-0.3c0.3-0.2,0.9-0.5,1.7-1.1c0.7-0.5,1.3-0.8,1.8-1l1.2-1c-0.9,1.6-1.6,2.6-2.2,2.8
				C377.7,619,377.1,619.6,376.3,620.3z M381.5,603.5c-0.1,0-0.2,0.2-0.3,0.4c-1.4-0.1-2.1-0.6-2-1.4c0.1-0.5,0.3-0.7,0.6-0.8
				c0.1,0,0.5,0,1,0.2c0.2,0,0.4,0,0.6,0c0,0.1,0.1,0.2,0.3,0.3c0.2,0.2,0.2,0.4,0.2,0.6c0,0.2-0.2,0.5-0.4,0.6L381.5,603.5z"/>
			<path class="st9" d="M389.3,617c-0.4,1.1-0.8,2-0.9,2.7c-0.2,1.3-0.1,2.5,0.4,3.5c-0.8,0.1-1.4-0.1-1.8-0.6
				c-0.4-1.1-0.4-2.2-0.2-3.6c0.2-0.8,0.5-1.9,1-3.1c0.4-1,0.8-2,1.2-2.9l0-0.1c-1.3,0.7-2.8,1.9-4.6,3.7c-1.9,1.9-3.4,3.2-4.4,3.8
				c-0.7,0.2-1.2,0.1-1.6-0.1c-0.4-0.5-0.4-1.2,0-2c0.3-0.7,1.1-2.2,2.3-4.7c1-1.9,1.6-3.6,2-4.8c0.3-0.2,0.5-0.3,0.8-0.3
				c0.3,0.1,0.5,0.2,0.7,0.6c0.2,0.3,0.2,0.7,0.1,1c-0.8,1.6-1.9,4.1-3.3,7.3c0.2-0.3,0.5-0.7,1.1-1c1.8-1.7,3-2.8,3.6-3.3
				c1.4-1.2,2.9-2,4.2-2.5c0.4,0.1,0.7,0.3,0.9,0.6c0.3,0.3,0.3,0.7,0.2,1.2c0,0.2-0.1,0.5-0.3,0.9c-0.2,0.4-0.3,0.7-0.3,0.9
				C390.2,614.6,389.9,615.6,389.3,617z"/>
			<path class="st9" d="M401.4,612.3c0,0.5-0.1,1.2-0.2,2.1l-0.4,2.1c-0.3,0.1-0.4,0.3-0.5,0.6c-0.2,0.3-0.3,0.6-0.5,0.7
				c-0.2,0.1-0.2,0.3-0.3,0.5l-0.2,0.3c0,0-0.1,0.2-0.2,0.3c-0.9,1.2-1.5,2.5-2.1,3.7c-0.4,0.5-0.7,1.1-0.9,1.8
				c-0.2,0.1-0.3,0.2-0.4,0.4c-0.1,0.3-0.1,0.5-0.3,0.6c-1.6,3.2-2.7,5.4-3.3,6.4c-1.6,2.6-3.2,4.3-4.7,5.1
				c-0.9,0.4-1.6,0.6-2.3,0.5c-0.2,0-0.5-0.1-0.7-0.3l-0.8-1.2c1.5,0.4,2.6,0.1,3.3-0.8c0.7-0.4,1.3-1,1.9-1.7
				c2.3-3.1,4-6.3,5.3-9.6c-0.9,0.3-1.4,0.1-2.5-0.4c-0.6-0.6-1.7-1.9-1.8-3.2c-0.1-1.1-0.1-2.7,0.8-4c0.2-0.4,2.5-3.9,4.7-5.1
				c1.8-0.7,3.4-0.5,3.9-0.6C400.7,610.8,401.4,611.3,401.4,612.3z M399.8,612.9l-0.1-0.1c0-0.2,0-0.3-0.1-0.3
				c-0.9,0.3-3.7,0.4-3.9,1c-0.7,0.3-1.6,1.2-2.7,2.8c-1.2,1.6-1.2,2.7-1.1,4c0.1,0.6,0.6,1.5,1.1,2.1c1.2,0.6,3.1-1.5,3.9-3.4
				c0.1-0.4,0.3-0.8,0.5-1.2c0.2-0.3,0.4-0.6,0.7-1c0.5-0.5,0.7-0.8,0.8-1c0-0.1-0.1-0.3-0.5-0.6c0.6-0.2,1-0.5,1.1-1L399.8,612.9z"
				/>
			<path class="st9" d="M421.8,615.5c0.7,0.3,1.2,0.7,1.5,1.1l-0.1,0.8c-0.5,0-1.3-0.2-2.5-0.6c-0.7-0.2-1.3-0.3-1.9-0.2
				c-2.6,3.2-4,6.1-4.4,8.6c-0.1,0.3-0.1,0.7-0.1,1c0.2,0.5,0.8,0.7,1.9,0.6c0.4,0,1-0.1,1.7-0.4c0.7-0.3,1.4-0.4,2.1-0.3
				c-0.8,1.5-2.4,2.2-4.6,2.4c-1.2,0-2-0.4-2.4-1.1c-0.4-0.9-0.5-2-0.3-3.2c0.2-1.6,1-3.4,2.3-5.5c0.4-0.5,0.9-1.2,1.5-2.3
				c-1-0.1-2,0.2-2.9,0.9c-0.4,0-0.7-0.3-0.8-0.6c-0.1-0.3-0.1-0.7-0.2-1c0.1-0.3,0.5-0.6,1.2-0.8c0.5-0.3,1.2-0.5,1.9-0.4
				c0.6,0,1.3,0.1,1.9,0.1c1.9-2.4,3.3-4.8,4.3-7c0.3-0.3,0.5-0.4,0.7-0.4c0.4,0.1,0.7,0.4,0.9,1.1c-0.5,2-1.7,4.1-3.7,6.5
				c0,0-0.1,0-0.1,0.1C420.6,615.1,421.2,615.3,421.8,615.5z"/>
			<path class="st9" d="M429.2,626.5c-0.3,0.5-0.5,0.7-0.6,0.8c-0.4,0.4-1.2,0.9-2.3,1.6c-1.1,1-2.5,1.5-4.2,1.4
				c-0.5,0-0.9-0.2-1.4-0.3c-1-0.8-1.6-2-1.5-3.7c0.2-0.8,0.7-1.8,1.3-2.8c0.6-0.9,1.1-1.7,1.7-2.6c0.2-0.1,0.6-0.6,1.2-1.2
				c0.5-0.5,0.9-0.8,1.4-1c0.5-0.6,1.2-0.9,2-0.9c0.3,0.1,0.8-0.1,1.6-0.6c0.1-0.1,0-0.3,0.3-0.5c0.9,0.1,1.5,0.2,1.9,0.5
				c0.9,0.9,1.2,2.1,1.1,3.6c-0.1,0.8-0.3,1.6-0.5,2.4c-0.3,0.6-0.4,1.6-1.2,2.8C429.6,626.1,429.4,626.3,429.2,626.5z M429.7,618.2
				l-2,0.3l0.4,0.6c-0.1,0.5-0.1,1-0.2,1.4c-0.1,0.5-0.4,0.9-0.7,1.2c-0.1,0.1-0.3,0.1-0.4,0.1c-0.4-0.1-0.6-0.5-0.5-1.4
				c0,0,0-0.1,0-0.2c-0.3,0.1-0.7,0.4-1.2,0.8c-0.6,0.5-1,0.7-1.2,0.8c-1.2,1.6-1.8,2.5-1.9,2.8c-0.6,1-0.9,2.1-0.9,3.2
				c0.2,0.3,0.9,0.7,1.2,0.8c3.5-0.3,6.1-2.5,8.1-6.7c0.1-1.7,0.2-2.5,0.2-2.2C430.4,619,430.1,618.5,429.7,618.2z"/>
			<path class="st9" d="M451.5,621.9c0,0.5-0.1,1.2-0.2,2.1l-0.4,2.1c-0.3,0.1-0.4,0.3-0.5,0.6c-0.2,0.3-0.3,0.6-0.5,0.7
				c-0.2,0.1-0.2,0.3-0.3,0.5l-0.2,0.3c0,0-0.1,0.2-0.2,0.3c-0.9,1.2-1.5,2.5-2.1,3.7c-0.4,0.5-0.7,1.1-0.9,1.8
				c-0.2,0.1-0.3,0.2-0.4,0.4c-0.1,0.3-0.1,0.5-0.3,0.6c-1.6,3.2-2.7,5.4-3.3,6.4c-1.6,2.6-3.2,4.3-4.7,5.1
				c-0.9,0.4-1.6,0.6-2.3,0.5c-0.2,0-0.5-0.1-0.7-0.3l-0.8-1.2c1.5,0.4,2.6,0.1,3.3-0.8c0.7-0.4,1.3-1,1.9-1.7
				c2.3-3.1,4-6.3,5.3-9.6c-0.9,0.3-1.4,0.1-2.5-0.4c-0.6-0.6-1.7-1.9-1.8-3.2c-0.1-1.1-0.1-2.7,0.8-4c0.2-0.4,2.5-3.9,4.7-5.1
				c1.8-0.7,3.4-0.5,3.9-0.6C450.7,620.3,451.4,620.9,451.5,621.9z M449.8,622.4l-0.1-0.1c0-0.2,0-0.3-0.1-0.3
				c-0.9,0.3-3.7,0.4-3.9,1c-0.7,0.3-1.6,1.2-2.7,2.8c-1.2,1.6-1.2,2.7-1.1,4c0.1,0.6,0.6,1.5,1.1,2.1c1.2,0.6,3.1-1.5,3.9-3.4
				c0.1-0.4,0.3-0.8,0.5-1.2c0.2-0.3,0.4-0.6,0.7-1c0.5-0.5,0.7-0.8,0.8-1c0-0.1-0.1-0.3-0.5-0.6c0.6-0.2,1-0.5,1.1-1L449.8,622.4z"
				/>
			<path class="st9" d="M459.7,634c-0.1,0.1-0.3,0.2-0.3,0.4c-2.7,1.3-4.7,1.9-6.1,1.7c-0.8-0.1-1.5-0.4-2.2-0.9c-1.2-1-1.3-2-1-4
				c1.8-4.5,4.3-7.4,8.6-9.5c0,0,0.3,0,1,0c0.5,0,1,0.2,1.2,0.5c0.2,0.4,0.3,0.7,0.2,1.1c-0.1,0.4-0.2,0.7-0.3,1.1
				c-0.8,1.6-2.9,3.2-6.1,4.9c-0.2,0.1-0.7,0.1-1.5,0.2c-0.5,0-0.8,0.2-0.8,0.7c-0.5,0.5-0.7,0.8-0.8,1.6c-0.1,0.6,0,0.8,0.1,1.4
				c0.4,0.8,1.1,1.3,2.2,1.5l0.1-0.1c0.5,0.1,1.2,0,2-0.1c0.9-0.3,2.3-0.8,4.3-1.3c0,0.3-0.1,0.6-0.3,0.7L459.7,634z M458.9,623.6
				c-1.7,0.7-3.4,2-4.9,4c0.1,0,0.3,0,0.5-0.1c0.8-0.5,1.7-1,2.5-1.6c1-0.7,1.7-1.4,2.1-2.1C459.1,623.8,459,623.7,458.9,623.6z"/>
			<path class="st9" d="M469.4,624.6c0.7,0.3,1.2,0.7,1.5,1.1l-0.1,0.8c-0.5,0-1.3-0.2-2.5-0.6c-0.7-0.2-1.3-0.3-1.9-0.2
				c-2.6,3.2-4,6.1-4.4,8.6c-0.1,0.3-0.1,0.7-0.1,1c0.2,0.5,0.8,0.7,1.9,0.6c0.4,0,1-0.1,1.7-0.4c0.7-0.3,1.4-0.4,2.1-0.3
				c-0.8,1.5-2.4,2.2-4.6,2.4c-1.2,0-2-0.4-2.4-1.1c-0.4-0.9-0.5-2-0.3-3.2c0.2-1.6,1-3.4,2.3-5.5c0.4-0.5,0.9-1.2,1.5-2.3
				c-1-0.1-2,0.2-2.9,0.9c-0.4,0-0.7-0.3-0.8-0.6c-0.1-0.3-0.1-0.7-0.2-1c0.1-0.3,0.5-0.6,1.2-0.8c0.5-0.3,1.2-0.5,1.9-0.4
				c0.6,0,1.3,0.1,1.9,0.1c1.9-2.4,3.3-4.8,4.3-7c0.3-0.3,0.5-0.4,0.7-0.4c0.4,0.1,0.7,0.4,0.9,1.1c-0.5,2-1.7,4.1-3.7,6.5
				c0,0-0.1,0-0.1,0.1C468.2,624.2,468.8,624.4,469.4,624.6z"/>
			<path class="st9" d="M482.2,640.5c-0.4,0.1-0.9,0.3-1.3,0.5c-0.5,0.1-0.9,0.2-1.3,0.1c-0.5-0.1-1-0.7-1.5-1.6
				c0.1-0.5,0.1-1.1,0.2-1.6c0.4-2.3,1.1-5,3.1-8.7c0.3-0.7,0.9-1.5,1.7-2.6c0.2-0.2,0.4-0.2,0.8-0.2c0.3,0.1,0.5,0.2,0.8,0.5
				c0.2,0.3,0.3,0.5,0.3,0.8c0,0.1-0.1,0.3-0.2,0.4c-1,1-1.2,1.5-2.1,3l-1.8,4.3c-1,2.4-0.7,2.8-0.8,3.6c0,0.2,0.1,0.4,0.3,0.8
				c0.1,0.1,0.3,0,0.6-0.2c0.3-0.2,0.4-0.2,0.5-0.3c0.3-0.2,0.9-0.5,1.7-1.1c0.7-0.5,1.3-0.8,1.8-1l1.2-1c-0.9,1.6-1.6,2.6-2.2,2.8
				C483.6,639.2,483,639.7,482.2,640.5z M487.4,623.7c-0.1,0-0.2,0.2-0.3,0.4c-1.4-0.1-2.1-0.6-2-1.4c0.1-0.5,0.3-0.7,0.6-0.8
				c0.1,0,0.5,0,1,0.2c0.2,0,0.4,0,0.6,0c0,0.1,0.1,0.2,0.3,0.3c0.2,0.2,0.2,0.4,0.2,0.6c0,0.2-0.2,0.5-0.4,0.6L487.4,623.7z"/>
			<path class="st9" d="M494.6,629.3c0.7,0.3,1.2,0.7,1.5,1.1l-0.1,0.8c-0.5,0-1.3-0.2-2.5-0.6c-0.7-0.2-1.3-0.3-1.9-0.2
				c-2.6,3.2-4,6.1-4.4,8.6c-0.1,0.3-0.1,0.7-0.1,1c0.2,0.5,0.8,0.7,1.9,0.6c0.4,0,1-0.1,1.7-0.4c0.7-0.3,1.4-0.4,2.1-0.3
				c-0.8,1.5-2.4,2.2-4.6,2.4c-1.2,0-2-0.4-2.4-1.1c-0.4-0.9-0.5-2-0.3-3.2c0.2-1.6,1-3.4,2.3-5.5c0.4-0.5,0.9-1.2,1.5-2.3
				c-1-0.1-2,0.2-2.9,0.9c-0.4,0-0.7-0.3-0.8-0.6c-0.1-0.3-0.1-0.7-0.2-1c0.1-0.3,0.5-0.6,1.2-0.8c0.5-0.3,1.2-0.5,1.9-0.4
				c0.6,0,1.3,0.1,1.9,0.1c1.9-2.4,3.3-4.8,4.3-7c0.3-0.3,0.5-0.4,0.7-0.4c0.4,0.1,0.7,0.4,0.9,1.1c-0.5,2-1.7,4.1-3.7,6.5
				c0,0-0.1,0-0.1,0.1C493.4,629,494,629.2,494.6,629.3z"/>
			<path class="st9" d="M494.9,644.2c-0.7-0.4-1-0.8-0.9-1.3c0.1-0.5,0.3-0.8,0.7-1c0.4-0.2,0.8-0.3,1.2-0.1l0.2,0.3l0.1,0.2
				c0.3,0.4,0.4,0.7,0,1.1c-0.1,0-0.1,0.2-0.2,0.3C495.7,644.1,495.3,644.3,494.9,644.2z M504.7,625.9c-0.1,0.3-0.2,0.6-0.5,0.7
				c-0.2,0.5-0.5,1.2-1,2.1c-0.1,0.2-0.3,0.6-0.5,1.4c-0.2,0.5-0.5,1-0.8,1.3c-0.1,0.4-0.4,1-0.7,1.6c-0.5,0.8-0.8,1.3-0.9,1.5
				c-0.2,0.2-0.5,0.6-0.8,1.1l-0.1,0.1c-0.2,0.1-0.2,0.1-0.4,0.1c0,0-0.1,0-0.2-0.1c-0.1-0.3,0-0.9,0.4-1.5c0.1-0.1,0.1-0.3,0.1-0.6
				l0.1,0c0.6-1.1,1.4-2.9,2.3-5.4c0.4-0.7,0.7-1.4,0.8-2.1c0.1-0.1,0.3-0.4,0.5-0.8c0.8-1.6,1.5-3.2,2.1-5c0.1,0,0.3-0.4,0.6-1.2
				c0.4-0.6,0.5-1.2,0.2-2c0.6-0.1,1.1-0.1,1.4-0.1c0.5,0.1,0.7,0.4,0.8,0.9c-0.2,0.8-0.7,2-1.4,3.6c-0.7,1.6-1.3,2.8-1.5,3.8
				C504.9,625.4,504.8,625.6,504.7,625.9z"/>
		</g>
	</g>
	<g>
		
			<rect x="274.7" y="768.3" transform="matrix(0.9823 0.1871 -0.1871 0.9823 153.1939 -55.0731)" class="st10" width="187.4" height="31.3"/>
	</g>
	<g>
		
			<rect x="173.8" y="828.7" transform="matrix(0.9823 0.1871 -0.1871 0.9823 180.3299 -49.9226)" class="st10" width="361.7" height="203.2"/>
	</g>
	<g>
		<path class="st11" d="M287.5,779l3.6-18.9l3.5,0.7l-3,15.6l7.9,1.5l-0.6,3.2L287.5,779z"/>
		<path class="st11" d="M311.6,782.4c-1.1,0.6-3.1,1-6.1,0.5c-3.9-0.7-5.3-3.3-4.8-5.7c0.6-2.9,3.6-3.5,6-3c0.9,0.2,2.4,0.8,3,1.5
			l0.2-1.3c0.2-1-0.4-1.9-2.2-2.3c-1.6-0.3-3.1-0.1-3.7,0.1l-0.5-2.5c1.3-0.3,2.9-0.6,5-0.2c4.2,0.8,5,3,4.4,6.2L311.6,782.4z
			 M309.2,778c-0.4-0.5-1.4-1.2-2.5-1.4c-1.2-0.2-2.5,0.2-2.7,1.3c-0.3,1.3,0.6,2.4,2.2,2.7c1,0.2,1.9,0.2,2.5-0.1L309.2,778z"/>
		<path class="st11" d="M315.1,780.6c0.6,0.9,2,2,3.2,2.2c0.8,0.1,1.7,0,1.9-1.1c0.3-1.7-5-3.6-4.4-6.9c0.4-2,2.5-3.5,5.2-2.9
			c2.3,0.4,3.6,1.7,4.1,2.3l-1.6,2c-0.2-0.3-1.2-1.5-2.4-1.7c-0.8-0.2-1.7,0.1-1.8,0.8c-0.4,1.9,4.9,3.4,4.3,7
			c-0.5,2.5-2.6,3.7-5.6,3.1c-2.3-0.4-3.7-1.6-4.6-2.6L315.1,780.6z"/>
		<path class="st11" d="M326.7,786.5l1.9-10.1l-2.4-0.5l0.5-2.6l2.4,0.5l0.8-4.3l3.3,0.6l-0.8,4.3l3.1,0.6l-0.5,2.6l-3.1-0.6
			l-1.9,10.1L326.7,786.5z"/>
		<path class="st11" d="M344,789.9l2.8-14.9l-3.4,0.3l-0.5-2.7l8.2-1.5l-3.7,19.3L344,789.9z"/>
		<path class="st11" d="M352.9,781.8c0.7-3.9,2.9-9.5,8.9-8.4c6.1,1.2,6.1,6.9,5.3,11.1c-0.8,4.1-3,9.5-9,8.4
			C352,791.8,352.1,785.9,352.9,781.8z M363.5,783.9c0.5-2.5,0.9-7-2.3-7.6c-3.1-0.6-4.4,3.6-4.9,6.2c-0.4,2.3-0.9,7,2.2,7.6
			C361.9,790.7,363.1,786.2,363.5,783.9z"/>
		<path class="st11" d="M388.4,786.1l-8.1,11.5l-4.3-21.3l3.9,0.8l2.2,12.4l7.9-11.3l3.2,13.4l6.4-10.7l3.9,0.7l-11.7,18.3
			L388.4,786.1z"/>
		<path class="st11" d="M411.9,801.5c-0.8,0.4-2.9,1.1-5.8,0.5c-4.2-0.8-6.6-4-5.8-8.1c0.7-3.9,4.1-6.2,8.1-5.5
			c4.1,0.8,5.6,4.3,4.9,7.9l-0.2,1.2l-9.7-1.8c-0.1,2.4,1.9,3.4,3.9,3.8c1.9,0.4,3.5-0.2,4-0.5L411.9,801.5z M410.3,794.6
			c0.3-1.6-0.6-3.2-2.3-3.5c-1.9-0.4-3.4,0.5-4.1,2.3L410.3,794.6z"/>
		<path class="st11" d="M426.5,804.3c-0.8,0.4-2.9,1.1-5.8,0.5c-4.2-0.8-6.6-4-5.8-8.1c0.7-3.9,4.1-6.2,8.1-5.5
			c4.1,0.8,5.6,4.3,4.9,7.9l-0.2,1.2l-9.7-1.8c-0.1,2.4,1.9,3.4,3.9,3.8c1.9,0.4,3.5-0.2,4-0.5L426.5,804.3z M424.9,797.4
			c0.3-1.6-0.6-3.2-2.3-3.5c-1.9-0.4-3.4,0.5-4.1,2.3L424.9,797.4z"/>
		<path class="st11" d="M437.1,807.6l-3.6-6.5l-1.1,5.6l-3.3-0.6l3.9-20.4l3.3,0.6l-2.4,12.7l4.9-4.3l4,0.8l-6.2,4.9l4.7,8
			L437.1,807.6z"/>
		<path class="st11" d="M443.4,805.1c0.6,0.9,2,2,3.2,2.2c0.8,0.1,1.7,0,1.9-1.1c0.3-1.7-5-3.6-4.4-6.9c0.4-2,2.5-3.5,5.2-2.9
			c2.3,0.4,3.6,1.7,4.1,2.3l-1.6,2c-0.2-0.3-1.2-1.5-2.4-1.7c-0.8-0.2-1.7,0.1-1.8,0.8c-0.4,1.9,4.9,3.4,4.3,7
			c-0.5,2.5-2.6,3.7-5.6,3.1c-2.3-0.4-3.7-1.6-4.6-2.6L443.4,805.1z"/>
	</g>
	<g>
		<polygon class="st12" points="162.6,998.3 153.9,990.9 203.1,933.1 228.4,967.5 272.4,878.9 296.9,986 327.1,935.5 361.3,908 
			400.9,904.7 443.6,872 485.3,898.1 519.6,888.1 522.8,899.1 483.6,910.5 444.2,885.8 405.2,915.8 365.7,919.1 335.9,943.1 
			292.1,1016.2 268.4,912.6 230.3,989.3 202.4,951.5 		"/>
	</g>
	<g>
		<polygon class="st0" points="161.6,999.2 154.9,989.9 198.5,958.4 226.7,981.3 258.9,945.4 295.3,976.5 342,872.5 363.5,936.4 
			392.6,962.4 428.9,943.2 480.7,936.6 506.3,996.9 495.8,1001.4 473.5,949 432.4,954.2 391,976.2 353.6,942.9 340.5,903.8 
			299.5,995 260,961.3 227.9,997 198.1,972.8 		"/>
	</g>
	<g>
		<path class="st12" d="M499.1,1068.3l-351.3-66.9l38.6-202.5c0.5-2.4,2.8-4,5.2-3.5c2.4,0.5,4,2.8,3.5,5.2l-36.9,193.8l342.6,65.2
			c2.4,0.5,4,2.8,3.5,5.2C503.8,1067.2,501.5,1068.8,499.1,1068.3z"/>
	</g>
</g>
</svg>
