<?xml version="1.0" encoding="utf-8"?>
<!-- Generator: Adobe Illustrator 21.0.0, SVG Export Plug-In . SVG Version: 6.00 Build 0)  -->
<!DOCTYPE svg PUBLIC "-//W3C//DTD SVG 1.1//EN" "http://www.w3.org/Graphics/SVG/1.1/DTD/svg11.dtd">
<svg version="1.1" id="Layer_1" xmlns="http://www.w3.org/2000/svg" xmlns:xlink="http://www.w3.org/1999/xlink" x="0px" y="0px"
	 viewBox="0 0 878.3 272.7" style="enable-background:new 0 0 878.3 272.7;" xml:space="preserve">
<style type="text/css">
	.st0{fill:#C9C6C7;}
</style>
<g>
	<path class="st0" d="M428.8,94.9c7.1,3.1,7.7,5.5,2,16.1c-5.7,11-7.1,11.5-14.1,8.8c-8.8-3.8-20.1-6.6-27.4-6.6
		c-11.9,0-19.9,4.2-19.9,10.8c0,21.4,68.4,9.9,68.4,55.6c0,23-19.7,38.4-49.4,38.4c-15.5,0-34.7-5.1-48.1-11.9
		c-6.6-3.3-6.9-5.3-1.3-16.3c4.9-9.7,6.6-10.6,13.7-7.7c11.3,4.9,25.6,8.8,35.3,8.8c11,0,18.1-4.4,18.1-11c0-20.8-69.7-11-69.7-55.2
		c0-23.6,19.6-39.3,49-39.3C399.3,85.2,416.7,89.4,428.8,94.9z"/>
	<path class="st0" d="M484,40.6V211c0,2.6-2.7,5.3-6.6,5.3h-17.9c-3.8,0-6.6-2.7-6.6-5.3V40.6c0-8.4,2.4-9.1,15.5-9.1
		C483.5,31.3,484,32.4,484,40.6z"/>
	<path class="st0" d="M611.5,136.4v73.3c0,3.8-2.7,6.6-6.6,6.6h-17.7c-4,0-6.9-2.9-6.6-6.9l0.2-7.9c-9.7,10.6-23.4,16.3-37.1,16.3
		c-26.7,0-44.6-15.5-44.6-38.6c0-24.5,20.3-41.1,50.7-41.1c11.5,0,22.1,2,30.7,5.7v-8.4c0-13.5-10.6-21.6-28.7-21.6
		c-8.4,0-18.8,3.3-27.1,8.2c-6.4,3.7-7.9,3.3-14.8-6.9c-6.8-10.2-6.6-12.3,0-16.5c12.4-8,29.4-13.2,45-13.2
		C589.5,85.2,611.5,104.3,611.5,136.4z M528.8,178.9c0,8.8,7.3,14.6,18.7,14.6c13.5,0,25.8-6.6,32.9-17.6v-11.5
		c-7.1-2.7-15.9-4.2-23.6-4.2C540,160.2,528.8,168.1,528.8,178.9z"/>
	<path class="st0" d="M733.1,95.1c6.6,3.8,6.8,5.9-0.4,16.8c-6.8,10.4-7.9,11-15,7.3c-5.5-2.9-14.1-5.3-21.4-5.3
		c-22.5,0-37.5,14.8-37.5,37.1c0,23.2,15,38.8,37.5,38.8c7.9,0,17.6-2.9,24-6.6c6.6-3.8,7.9-3.5,14.8,6.6c6.2,9.3,6,11.5,0.5,15.5
		c-10.1,6.9-25.8,12.3-39.7,12.3c-41.5,0-69.3-26.7-69.3-66.6c0-39.7,27.8-66,69.7-66C708.7,85.2,723.7,89.6,733.1,95.1z"/>
	<path class="st0" d="M868.7,200.3c5.1,6.6,3.1,9-9.9,13.7c-13.2,4.8-15,4.6-19.7-1.6L802,162.8l-16.6,16.1V211
		c0,2.6-2.7,5.3-6.6,5.3h-18.1c-3.8,0-6.6-2.7-6.6-5.3V40.6c0-8.4,2.4-9.1,15.5-9.1c15,0,15.5,1.1,15.5,9.1v96.9L836,88.7
		c5.7-5.3,8.8-4.9,18.7,1.6c11,7.1,11.9,9.1,6.6,14.3l-37.9,36.9L868.7,200.3z"/>
</g>
<g>
	
		<rect x="119.7" y="118.7" transform="matrix(0.9482 -0.3176 0.3176 0.9482 -36.213 50.9601)" class="st0" width="36.9" height="35.7"/>
	<g>
		
			<rect x="119.7" y="118.7" transform="matrix(0.9482 -0.3176 0.3176 0.9482 -36.213 50.9601)" class="st0" width="36.9" height="35.7"/>
		<path class="st0" d="M258.4,100.3c-27.1-90.2-66.1-111.2-156.3-84.1S-9.1,82.2,18,172.4s66.1,111.2,156.3,84.1
			S285.5,190.5,258.4,100.3z M212.9,158.8l-17,5.7l5.9,17.6c2.3,7.1-1.5,14.9-8.6,17.2c-1.5,0.4-3.1,0.8-4.6,0.6
			c-5.5-0.2-10.7-3.8-12.6-9.2l-5.9-17.6l-35,11.7l5.9,17.6c2.3,7.1-1.5,14.9-8.6,17.2c-1.5,0.4-3.1,0.8-4.6,0.6
			c-5.5-0.2-10.7-3.8-12.6-9.2l-5.9-17.6l-17,5.7c-1.5,0.4-3.1,0.8-4.6,0.6c-5.5-0.2-10.7-3.8-12.6-9.2c-2.3-7.1,1.5-14.9,8.6-17.2
			l17-5.7l-11.3-33.8l-17,5.7c-1.5,0.4-3.1,0.8-4.6,0.6c-5.5-0.2-10.7-3.8-12.6-9.2c-2.3-7.1,1.5-14.9,8.6-17.2l17-5.7l-5.9-17.6
			c-2.3-7.1,1.5-14.9,8.6-17.2c7.1-2.3,14.9,1.5,17.2,8.6l5.9,17.6l35-11.7l-5.9-17.6c-2.3-7.1,1.5-14.9,8.6-17.2
			c7.1-2.3,14.9,1.5,17.2,8.6l5.9,17.6l17-5.7c7.1-2.3,14.9,1.5,17.2,8.6c2.3,7.1-1.5,14.9-8.6,17.2l-17,5.7l11.3,33.8l17-5.7
			c7.1-2.3,14.9,1.5,17.2,8.6C223.8,148.7,220,156.5,212.9,158.8z"/>
	</g>
</g>
</svg>
