<?xml version="1.0" encoding="utf-8"?>
<!-- Generator: Adobe Illustrator 21.0.0, SVG Export Plug-In . SVG Version: 6.00 Build 0)  -->
<!DOCTYPE svg PUBLIC "-//W3C//DTD SVG 1.1//EN" "http://www.w3.org/Graphics/SVG/1.1/DTD/svg11.dtd">
<svg version="1.1" id="Layer_1" xmlns="http://www.w3.org/2000/svg" xmlns:xlink="http://www.w3.org/1999/xlink" x="0px" y="0px"
	 viewBox="0 0 371.7 139.3" style="enable-background:new 0 0 371.7 139.3;" xml:space="preserve">
<style type="text/css">
	.st0{fill:#F4F4F4;}
	.st1{fill:#FFFFFF;}
	.st2{fill:#7E6E7A;}
	.st3{fill:#C9C6C7;}
</style>
<g>
	<path class="st0" d="M69.1,119.7c0-0.6-0.4-1-1.5-1h-0.5v2.2h0.5C68.6,120.8,69.1,120.5,69.1,119.7z"/>
	<path class="st0" d="M203.9,71.3c0-1.6-1-2.6-3.2-2.6h-1.5v5.4h1.1C202.8,74.1,203.9,73,203.9,71.3z"/>
	<polygon class="st0" points="89.9,122.3 92.1,122.3 91,120 	"/>
	<path class="st0" d="M249.7,119.7c0-0.6-0.4-1-1.5-1h-0.5v2.2h0.5C249.2,120.8,249.7,120.5,249.7,119.7z"/>
	<path class="st0" d="M290.8,118.7h-1.1v4.9h0.9c1.4,0,2.6-0.7,2.6-2.5C293.1,119.7,292.2,118.7,290.8,118.7z"/>
	<polygon class="st0" points="185.5,71.6 182.9,77.1 188.1,77.1 	"/>
	<path class="st0" d="M371.7,29.3H0v110h371.7V29.3z M209.7,70c0-3.1,2.8-4.7,5.6-4.7c2.7,0,4.6,1.6,4.9,2l-1.6,2.4
		c-0.9-0.9-2.1-1.5-3.3-1.5s-2.3,0.5-2.3,1.7c0,3,7.7,2.3,7.7,8.4c0,2.7-2.3,5-6.4,5c-2.5,0-4.9-1.5-5.9-2.5l1.7-2.3
		c0.9,0.8,2.5,1.9,4.4,1.9c1.8,0,2.7-0.8,2.7-2.1C217.4,74.7,209.7,75.3,209.7,70z M196,65.7h3.9c4.3,0,7.5,1.3,7.5,5.6
		c0,3.4-2.2,5.7-6.9,5.7h-1.2v6H196V65.7z M159.1,65.3l12.7,11.5l0-11h3.2l0,17.9l-12.7-11.2l0,10.5h-3.2L159.1,65.3z M70,124.9
		l-2.8-2.8h-0.1v2.8h-1.4v-7.5h1.5c1.4,0,3.4,0.3,3.4,2.3c0,1.4-0.8,2-1.8,2.3l3.2,2.9H70z M77.1,124.9h-4.8v-7.5h4.5v1.3h-3.1v1.6
		h2.5v1.3h-2.5v2h3.4V124.9z M85.3,124.9l-0.4-3.8l-2.6,4.1l-2.6-4.1l-0.4,3.8h-1.5l1-7.7l3.4,5.4l3.4-5.4l1,7.7H85.3z M93.4,124.9
		l-0.7-1.4h-3.4l-0.7,1.4h-1.6l3.9-7.8l3.9,7.8H93.4z M97,124.9h-1.4v-7.5H97V124.9z M105.5,125.2l-5.5-4.9l0,4.6h-1.4l0-7.7l5.5,5
		l0-4.8h1.4L105.5,125.2z M108.5,124.9h-1.4v-7.5h1.4V124.9z M117,125.2l-5.5-4.9l0,4.6h-1.4l0-7.7l5.5,5l0-4.8h1.4L117,125.2z
		 M122.4,125.1c-2.3,0-4.2-1.7-4.2-3.9c0-2.3,1.7-4,4.1-4c1.8,0,2.8,0.9,2.9,1l-0.7,1.1c0-0.1-0.8-0.8-2.2-0.8
		c-1.6,0-2.6,1.2-2.6,2.7c0,1.4,1.1,2.6,2.7,2.6c1.1,0,2.1-0.8,2.1-1.7h-1.9v-1.2h3.4C126,124,124.2,125.1,122.4,125.1z
		 M127.7,106.9v5.5v0.1H63.3v-0.1v-5.5V48h64.4V106.9z M145.2,70c0-3.1,2.8-4.7,5.6-4.7c2.7,0,4.6,1.6,4.9,2l-1.6,2.4
		c-0.9-0.9-2.1-1.5-3.3-1.5s-2.3,0.5-2.3,1.7c0,3,7.7,2.3,7.7,8.4c0,2.7-2.3,5-6.4,5c-2.5,0-4.9-1.5-5.9-2.5l1.7-2.3
		c0.9,0.8,2.5,1.9,4.4,1.9c1.8,0,2.7-0.8,2.7-2.1C152.9,74.7,145.2,75.3,145.2,70z M152.4,89.3h-3.1V98h-2v-8.7h-3.1v-1.8h8.2V89.3z
		 M162.4,98h-2v-4.5h-4.8V98h-2V87.5h2v4.2h4.8v-4.2h2V98z M166.6,98h-2V87.5h2V98z M171.6,98.3c-1.5,0-3-0.9-3.6-1.5l1-1.4
		c0.5,0.5,1.5,1.1,2.7,1.1c1.1,0,1.6-0.5,1.6-1.3c0-2.2-4.7-1.9-4.7-5.1c0-1.9,1.7-2.9,3.4-2.9c1.6,0,2.8,1,3,1.2l-1,1.5
		c-0.5-0.5-1.3-0.9-2-0.9c-0.7,0-1.4,0.3-1.4,1c0,1.8,4.7,1.4,4.7,5.1C175.5,96.8,174.1,98.3,171.6,98.3z M185.5,65l9,18h-3.6
		l-1.5-3.2h-7.8l-1.5,3.2h-3.6L185.5,65z M190.2,98.6l-3.3-7l-3.2,7l-4.5-11h2.2l2.4,6.4l3.1-6.9l3.1,6.9l2.4-6.4h2.2L190.2,98.6z
		 M202.3,98h-6.7V87.5h6.2v1.8h-4.3v2.3h3.4v1.8h-3.4v2.9h4.7V98z M210.6,98h-6.7V87.5h6.2v1.8h-4.3v2.3h3.4v1.8h-3.4v2.9h4.7V98z
		 M218.7,98l-4.5-4v4h-2V87.5h2v4.1l3.8-4.1h2.6l-5.1,5.1l6.1,5.4H218.7z M250.6,124.9l-2.8-2.8h-0.1v2.8h-1.4v-7.5h1.5
		c1.4,0,3.4,0.3,3.4,2.3c0,1.4-0.8,2-1.8,2.3l3.2,2.9H250.6z M257.6,124.9h-4.8v-7.5h4.5v1.3h-3.1v1.6h2.5v1.3h-2.5v2h3.4V124.9z
		 M262.3,125.1c-2.4,0-4.2-1.8-4.2-3.9c0-2.1,1.6-3.9,4-3.9c1.6,0,2.6,0.8,2.8,1.1l-0.7,1c-0.5-0.5-1.2-0.8-2.1-0.8
		c-1.5,0-2.5,1.1-2.5,2.7c0,1.5,1.2,2.6,2.7,2.6c1.1,0,1.8-0.4,2.1-0.7l0.6,0.9C264.4,124.7,263.5,125.1,262.3,125.1z M270.9,124.9
		h-4.8v-7.5h4.5v1.3h-3.1v1.6h2.5v1.3h-2.5v2h3.4V124.9z M273.5,124.9h-1.4v-7.5h1.4V124.9z M278,125.3l-3.8-7.9h1.6l2.2,5l2.2-5
		h1.6L278,125.3z M287.1,124.9h-4.8v-7.5h4.5v1.3h-3.1v1.6h2.5v1.3h-2.5v2h3.4V124.9z M290.3,124.9h-2v-7.5h2.3
		c2.3,0,4.1,1.3,4.1,3.8C294.7,123.5,292.9,124.9,290.3,124.9z M302,106.9v5.5v0.1h-64.4v-0.1v-5.5V48H302V106.9z"/>
	<path class="st1" d="M29.1,14.1c-1,0-1.8,0.6-2,1.7h3.6C30.7,14.9,30.1,14.1,29.1,14.1z"/>
	<path class="st1" d="M110.8,17.7c0,0.7,0.6,1.2,1.4,1.2c0.6,0,1-0.1,1.3-0.3v-1.4c-0.3-0.3-0.9-0.5-1.5-0.5
		C111.5,16.7,110.8,17,110.8,17.7z"/>
	<polygon class="st1" points="83.5,16.4 86.7,16.4 85.1,13.1 	"/>
	<path class="st1" d="M125.8,17.7c0,0.7,0.6,1.2,1.4,1.2c0.6,0,1-0.1,1.3-0.3v-1.4c-0.3-0.3-0.9-0.5-1.5-0.5
		C126.4,16.7,125.8,17,125.8,17.7z"/>
	<path class="st1" d="M147.6,14.1c-1,0-1.8,0.6-2,1.7h3.6C149.2,14.9,148.6,14.1,147.6,14.1z"/>
	<path class="st1" d="M48,14.2c-1.1,0-2,1-2,2.3c0,1.3,0.9,2.3,1.9,2.3c1.2,0,1.9-0.9,1.9-2.3C49.8,15.1,49,14.2,48,14.2z"/>
	<path class="st1" d="M68.8,14.1c-1,0-1.8,0.6-2,1.7h3.6C70.4,14.9,69.7,14.1,68.8,14.1z"/>
	<path class="st1" d="M371.7,0H0v29.3h371.7V0z M18.1,13.5l-3.2,7l-4.5-11h2.2l2.4,6.4L18.1,9l3.1,6.9l2.4-6.4h2.2l-4.4,11
		L18.1,13.5z M32.6,17.1h-5.4c0.2,1.3,1.4,1.6,2.5,1.6c1.1,0,1.8-0.4,2.1-0.7l0.5,1.3c-0.4,0.3-1.5,0.9-3,0.9
		c-2.3,0-3.9-1.5-3.9-3.7c0-2.2,1.6-3.8,3.8-3.8c2.3,0,3.4,1.7,3.4,3.7V17.1z M35.7,20h-1.8V8.6h1.8V20z M40.7,20.2
		c-2.1,0-3.7-1.7-3.7-3.7c0-2.2,1.7-3.8,3.9-3.8c1.2,0,2.1,0.6,2.4,0.8l-0.6,1.3c-0.2-0.2-0.9-0.6-1.7-0.6c-1.1,0-2.1,0.9-2.1,2.3
		c0,1.3,0.9,2.3,2.1,2.3c1,0,1.8-0.5,2-0.7l0.6,1.2C43.3,19.5,42.3,20.2,40.7,20.2z M47.9,20.2c-2.2,0-3.8-1.7-3.8-3.7
		c0-2.1,1.7-3.8,3.9-3.8c2.2,0,3.8,1.7,3.8,3.8C51.8,18.5,50.1,20.2,47.9,20.2z M63.6,20h-1.8v-4.5c0-0.8-0.3-1.2-1-1.2
		c-0.7,0-1.3,0.4-1.6,0.7v5h-1.8v-4.5c0-0.8-0.4-1.2-1.1-1.2c-0.6,0-1.2,0.5-1.5,0.8V20h-1.8v-7.1h1.8v0.7c0.3-0.3,1.1-0.9,2.2-0.9
		c1.1,0,1.5,0.7,1.7,1.1c0.6-0.4,1.5-1.1,2.5-1.1c1.5,0,2.3,0.8,2.3,2.5V20z M72.2,17.1h-5.4c0.2,1.3,1.4,1.6,2.5,1.6
		c1.1,0,1.8-0.4,2.1-0.7l0.5,1.3c-0.4,0.3-1.5,0.9-3,0.9c-2.3,0-3.9-1.5-3.9-3.7c0-2.2,1.6-3.8,3.8-3.8c2.3,0,3.4,1.7,3.4,3.7V17.1z
		 M73.9,21.5h-1.2l1.2-3.3h1.9L73.9,21.5z M88.4,20l-0.9-1.9h-4.8L81.8,20h-2.2l5.5-11l5.5,11H88.4z M93.1,20h-1.8V8.6h1.8V20z
		 M96.7,20h-1.8v-7.1h1.8V20z M95.8,11.7c-0.7,0-1.1-0.5-1.1-1.1c0-0.7,0.5-1.1,1.1-1.1c0.7,0,1.1,0.5,1.1,1.1
		C96.9,11.3,96.5,11.7,95.8,11.7z M101.8,20.2c-2.1,0-3.7-1.7-3.7-3.7c0-2.2,1.7-3.8,3.9-3.8c1.2,0,2.1,0.6,2.4,0.8l-0.6,1.3
		c-0.2-0.2-0.9-0.6-1.7-0.6c-1.1,0-2.1,0.9-2.1,2.3c0,1.3,0.9,2.3,2.1,2.3c1,0,1.8-0.5,2-0.7l0.6,1.2
		C104.3,19.5,103.4,20.2,101.8,20.2z M107.7,20h-1.8v-7.1h1.8V20z M106.8,11.7c-0.7,0-1.1-0.5-1.1-1.1c0-0.7,0.5-1.1,1.1-1.1
		c0.7,0,1.1,0.5,1.1,1.1C107.9,11.3,107.4,11.7,106.8,11.7z M115.4,19.3c-0.5,0.4-1.6,0.9-3.2,0.9c-2.2,0-3.2-1.2-3.2-2.6
		c0-1.6,1.6-2.2,2.9-2.2c0.5,0,1.4,0.2,1.8,0.5v-0.7c0-0.6-0.4-1-1.4-1c-0.9,0-1.7,0.3-2,0.4l-0.5-1.3c0.6-0.3,1.5-0.6,2.7-0.6
		c2.4,0,3,1.1,3,2.9V19.3z M122.6,18.6c0,3-0.8,3.9-3.5,5l-0.7-1.7c1.8-0.6,2.2-1.1,2.2-3.3V9.5h2V18.6z M130.3,19.3
		c-0.5,0.4-1.6,0.9-3.2,0.9c-2.2,0-3.2-1.2-3.2-2.6c0-1.6,1.6-2.2,2.9-2.2c0.5,0,1.4,0.2,1.8,0.5v-0.7c0-0.6-0.4-1-1.4-1
		c-0.9,0-1.7,0.3-2,0.4l-0.5-1.3c0.6-0.3,1.5-0.6,2.7-0.6c2.4,0,3,1.1,3,2.9V19.3z M142.5,20h-1.8v-4.5c0-0.8-0.3-1.2-1-1.2
		c-0.7,0-1.3,0.4-1.6,0.7v5h-1.8v-4.5c0-0.8-0.4-1.2-1.1-1.2c-0.6,0-1.2,0.5-1.5,0.8V20h-1.8v-7.1h1.8v0.7c0.3-0.3,1.1-0.9,2.2-0.9
		c1.1,0,1.5,0.7,1.7,1.1c0.6-0.4,1.5-1.1,2.5-1.1c1.5,0,2.3,0.8,2.3,2.5V20z M151,17.1h-5.4c0.2,1.3,1.4,1.6,2.5,1.6
		c1.1,0,1.8-0.4,2.1-0.7l0.5,1.3c-0.4,0.3-1.5,0.9-3,0.9c-2.3,0-3.9-1.5-3.9-3.7c0-2.2,1.6-3.8,3.8-3.8c2.3,0,3.4,1.7,3.4,3.7V17.1z
		 M154.4,20.2c-1.3,0-2.2-0.5-2.7-0.9l0.7-1.3c0.4,0.4,1.3,0.8,2,0.8c0.4,0,0.9-0.2,0.9-0.8c0-0.9-3.1-1.4-3.1-3.3
		c0-1.1,1-2.1,2.5-2.1c1.3,0,2.1,0.5,2.4,0.8l-0.7,1.2c-0.1-0.1-0.8-0.7-1.5-0.7c-0.5,0-0.9,0.2-0.9,0.6c0,1.1,3,1.3,3,3.3
		C157.1,19.4,156.1,20.2,154.4,20.2z"/>
	<polygon class="st2" points="23.6,9.5 21.2,15.9 18.1,9 15.1,15.9 12.6,9.5 10.4,9.5 14.9,20.5 18.1,13.5 21.4,20.5 25.8,9.5 	"/>
	<path class="st2" d="M29.1,12.7c-2.2,0-3.8,1.6-3.8,3.8c0,2.3,1.6,3.7,3.9,3.7c1.6,0,2.7-0.6,3-0.9l-0.5-1.3
		c-0.3,0.2-1,0.7-2.1,0.7c-1.1,0-2.3-0.3-2.5-1.6h5.4v-0.7C32.6,14.4,31.4,12.7,29.1,12.7z M27.2,15.8c0.2-1,0.9-1.7,2-1.7
		c1,0,1.6,0.8,1.6,1.7H27.2z"/>
	<rect x="33.9" y="8.6" class="st2" width="1.8" height="11.4"/>
	<path class="st2" d="M41,18.7c-1.2,0-2.1-1-2.1-2.3c0-1.4,1-2.3,2.1-2.3c0.8,0,1.5,0.4,1.7,0.6l0.6-1.3c-0.2-0.2-1.2-0.8-2.4-0.8
		c-2.2,0-3.9,1.6-3.9,3.8c0,2.1,1.6,3.7,3.7,3.7c1.6,0,2.5-0.7,2.8-1L43,18C42.8,18.2,41.9,18.7,41,18.7z"/>
	<path class="st2" d="M48,12.7c-2.2,0-3.9,1.7-3.9,3.8c0,2.1,1.7,3.7,3.8,3.7c2.2,0,3.8-1.7,3.8-3.7C51.8,14.4,50.1,12.7,48,12.7z
		 M47.9,18.8c-1,0-1.9-1-1.9-2.3c0-1.4,0.8-2.3,2-2.3c1,0,1.9,1,1.9,2.3C49.8,17.9,49.1,18.8,47.9,18.8z"/>
	<path class="st2" d="M61.4,12.7c-1.1,0-2,0.6-2.5,1.1c-0.2-0.4-0.6-1.1-1.7-1.1c-1.1,0-1.9,0.7-2.2,0.9v-0.7h-1.8V20h1.8v-4.9
		c0.2-0.3,0.9-0.8,1.5-0.8c0.7,0,1.1,0.3,1.1,1.2V20h1.8v-5c0.3-0.3,0.9-0.7,1.6-0.7c0.7,0,1,0.4,1,1.2V20h1.8v-4.8
		C63.6,13.5,62.8,12.7,61.4,12.7z"/>
	<path class="st2" d="M68.7,12.7c-2.2,0-3.8,1.6-3.8,3.8c0,2.3,1.6,3.7,3.9,3.7c1.6,0,2.7-0.6,3-0.9l-0.5-1.3
		c-0.3,0.2-1,0.7-2.1,0.7c-1.1,0-2.3-0.3-2.5-1.6h5.4v-0.7C72.2,14.4,71,12.7,68.7,12.7z M66.8,15.8c0.2-1,0.9-1.7,2-1.7
		c1,0,1.6,0.8,1.6,1.7H66.8z"/>
	<polygon class="st2" points="72.7,21.5 73.9,21.5 75.8,18.2 73.9,18.2 	"/>
	<path class="st2" d="M79.6,20h2.2l0.9-1.9h4.8l0.9,1.9h2.2L85.1,9L79.6,20z M83.5,16.4l1.6-3.3l1.6,3.3H83.5z"/>
	<rect x="91.3" y="8.6" class="st2" width="1.8" height="11.4"/>
	<rect x="94.9" y="12.9" class="st2" width="1.8" height="7.1"/>
	<path class="st2" d="M95.8,9.5c-0.7,0-1.1,0.5-1.1,1.1c0,0.7,0.5,1.1,1.1,1.1c0.7,0,1.1-0.5,1.1-1.1C96.9,9.9,96.5,9.5,95.8,9.5z"
		/>
	<path class="st2" d="M102.1,18.7c-1.2,0-2.1-1-2.1-2.3c0-1.4,1-2.3,2.1-2.3c0.8,0,1.5,0.4,1.7,0.6l0.6-1.3
		c-0.2-0.2-1.2-0.8-2.4-0.8c-2.2,0-3.9,1.6-3.9,3.8c0,2.1,1.6,3.7,3.7,3.7c1.6,0,2.5-0.7,2.8-1L104,18
		C103.8,18.2,103,18.7,102.1,18.7z"/>
	<rect x="105.8" y="12.9" class="st2" width="1.8" height="7.1"/>
	<path class="st2" d="M106.8,9.5c-0.7,0-1.1,0.5-1.1,1.1c0,0.7,0.5,1.1,1.1,1.1c0.7,0,1.1-0.5,1.1-1.1
		C107.9,9.9,107.4,9.5,106.8,9.5z"/>
	<path class="st2" d="M112.4,12.7c-1.1,0-2,0.3-2.7,0.6l0.5,1.3c0.3-0.1,1.1-0.4,2-0.4c1,0,1.4,0.4,1.4,1v0.7
		c-0.4-0.3-1.3-0.5-1.8-0.5c-1.3,0-2.9,0.6-2.9,2.2c0,1.4,1,2.6,3.2,2.6c1.6,0,2.7-0.4,3.2-0.9v-3.8
		C115.4,13.8,114.7,12.7,112.4,12.7z M113.6,18.6c-0.3,0.2-0.8,0.3-1.3,0.3c-0.9,0-1.4-0.5-1.4-1.2c0-0.6,0.6-1,1.3-1
		c0.6,0,1.2,0.3,1.5,0.5V18.6z"/>
	<path class="st2" d="M120.6,18.6c0,2.2-0.4,2.7-2.2,3.3l0.7,1.7c2.7-1.1,3.5-2,3.5-5V9.5h-2V18.6z"/>
	<path class="st2" d="M127.3,12.7c-1.1,0-2,0.3-2.7,0.6l0.5,1.3c0.3-0.1,1.1-0.4,2-0.4c1,0,1.4,0.4,1.4,1v0.7
		c-0.4-0.3-1.3-0.5-1.8-0.5c-1.3,0-2.9,0.6-2.9,2.2c0,1.4,1,2.6,3.2,2.6c1.6,0,2.7-0.4,3.2-0.9v-3.8
		C130.3,13.8,129.7,12.7,127.3,12.7z M128.6,18.6c-0.3,0.2-0.8,0.3-1.3,0.3c-0.9,0-1.4-0.5-1.4-1.2c0-0.6,0.6-1,1.3-1
		c0.6,0,1.2,0.3,1.5,0.5V18.6z"/>
	<path class="st2" d="M140.2,12.7c-1.1,0-2,0.6-2.5,1.1c-0.2-0.4-0.6-1.1-1.7-1.1c-1.1,0-1.9,0.7-2.2,0.9v-0.7h-1.8V20h1.8v-4.9
		c0.2-0.3,0.9-0.8,1.5-0.8c0.7,0,1.1,0.3,1.1,1.2V20h1.8v-5c0.3-0.3,0.9-0.7,1.6-0.7c0.7,0,1,0.4,1,1.2V20h1.8v-4.8
		C142.5,13.5,141.7,12.7,140.2,12.7z"/>
	<path class="st2" d="M147.6,12.7c-2.2,0-3.8,1.6-3.8,3.8c0,2.3,1.6,3.7,3.9,3.7c1.6,0,2.7-0.6,3-0.9l-0.5-1.3
		c-0.3,0.2-1,0.7-2.1,0.7c-1.1,0-2.3-0.3-2.5-1.6h5.4v-0.7C151,14.4,149.9,12.7,147.6,12.7z M145.6,15.8c0.2-1,0.9-1.7,2-1.7
		c1,0,1.6,0.8,1.6,1.7H145.6z"/>
	<path class="st2" d="M154.1,14.7c0-0.4,0.4-0.6,0.9-0.6c0.7,0,1.3,0.5,1.5,0.7l0.7-1.2c-0.3-0.3-1.1-0.8-2.4-0.8
		c-1.5,0-2.5,1-2.5,2.1c0,1.9,3.1,2.3,3.1,3.3c0,0.6-0.5,0.8-0.9,0.8c-0.7,0-1.5-0.4-2-0.8l-0.7,1.3c0.6,0.4,1.5,0.9,2.7,0.9
		c1.6,0,2.7-0.9,2.7-2.2C157.1,16,154.1,15.8,154.1,14.7z"/>
	<polygon class="st2" points="144.2,89.3 147.3,89.3 147.3,98 149.3,98 149.3,89.3 152.4,89.3 152.4,87.5 144.2,87.5 	"/>
	<polygon class="st2" points="160.4,91.8 155.7,91.8 155.7,87.5 153.7,87.5 153.7,98 155.7,98 155.7,93.6 160.4,93.6 160.4,98 
		162.4,98 162.4,87.5 160.4,87.5 	"/>
	<rect x="164.7" y="87.5" class="st2" width="2" height="10.5"/>
	<path class="st2" d="M170.8,90.1c0-0.7,0.7-1,1.4-1c0.7,0,1.5,0.4,2,0.9l1-1.5c-0.2-0.2-1.4-1.2-3-1.2c-1.7,0-3.4,1-3.4,2.9
		c0,3.2,4.7,2.9,4.7,5.1c0,0.8-0.6,1.3-1.6,1.3c-1.2,0-2.2-0.6-2.7-1.1l-1,1.4c0.6,0.6,2.1,1.5,3.6,1.5c2.5,0,3.9-1.4,3.9-3.1
		C175.5,91.5,170.8,91.9,170.8,90.1z"/>
	<polygon class="st2" points="190.1,93.9 187,87.1 183.9,94 181.5,87.5 179.3,87.5 183.7,98.5 186.9,91.5 190.2,98.6 194.6,87.5 
		192.4,87.5 	"/>
	<polygon class="st2" points="197.6,93.4 201,93.4 201,91.6 197.6,91.6 197.6,89.3 201.8,89.3 201.8,87.5 195.6,87.5 195.6,98 
		202.3,98 202.3,96.2 197.6,96.2 	"/>
	<polygon class="st2" points="205.9,93.4 209.3,93.4 209.3,91.6 205.9,91.6 205.9,89.3 210.2,89.3 210.2,87.5 203.9,87.5 203.9,98 
		210.6,98 210.6,96.2 205.9,96.2 	"/>
	<polygon class="st2" points="220.6,87.5 218,87.5 214.2,91.6 214.2,87.5 212.3,87.5 212.3,98 214.2,98 214.2,94 218.7,98 221.6,98 
		215.5,92.6 	"/>
	<path class="st3" d="M150.2,80.5c-1.9,0-3.6-1-4.4-1.9l-1.7,2.3c0.9,1,3.4,2.5,5.9,2.5c4,0,6.4-2.4,6.4-5c0-6.1-7.7-5.4-7.7-8.4
		c0-1.2,1.1-1.7,2.3-1.7s2.4,0.6,3.3,1.5l1.6-2.4c-0.3-0.4-2.2-2-4.9-2c-2.9,0-5.6,1.6-5.6,4.7c0,5.3,7.7,4.7,7.7,8.3
		C152.9,79.6,151.9,80.5,150.2,80.5z"/>
	<polygon class="st3" points="162.3,72.5 175,83.6 175,65.7 171.8,65.7 171.8,76.7 159.1,65.3 159.1,83 162.3,83 	"/>
	<path class="st3" d="M181.6,79.8h7.8l1.5,3.2h3.6l-9-18l-9,18h3.6L181.6,79.8z M185.5,71.6l2.6,5.5h-5.2L185.5,71.6z"/>
	<path class="st3" d="M199.2,77h1.2c4.7,0,6.9-2.3,6.9-5.7c0-4.3-3.1-5.6-7.5-5.6H196V83h3.2V77z M199.2,68.7h1.5
		c2.2,0,3.2,1,3.2,2.6c0,1.7-1.2,2.8-3.5,2.8h-1.1V68.7z"/>
	<path class="st3" d="M214.7,80.5c-1.9,0-3.6-1-4.4-1.9l-1.7,2.3c0.9,1,3.4,2.5,5.9,2.5c4,0,6.4-2.4,6.4-5c0-6.1-7.7-5.4-7.7-8.4
		c0-1.2,1.1-1.7,2.3-1.7s2.4,0.6,3.3,1.5l1.6-2.4c-0.3-0.4-2.2-2-4.9-2c-2.9,0-5.6,1.6-5.6,4.7c0,5.3,7.7,4.7,7.7,8.3
		C217.4,79.6,216.4,80.5,214.7,80.5z"/>
	<path class="st3" d="M70.6,119.7c0-2-1.9-2.3-3.4-2.3h-1.5v7.5h1.4v-2.8h0.1l2.8,2.8H72l-3.2-2.9C69.8,121.7,70.6,121.1,70.6,119.7
		z M67.1,120.8v-2.2h0.5c1.1,0,1.5,0.4,1.5,1c0,0.7-0.5,1.1-1.6,1.1H67.1z"/>
	<polygon class="st3" points="73.7,121.6 76.2,121.6 76.2,120.3 73.7,120.3 73.7,118.7 76.8,118.7 76.8,117.4 72.3,117.4 
		72.3,124.9 77.1,124.9 77.1,123.6 73.7,123.6 	"/>
	<polygon class="st3" points="82.3,122.6 78.9,117.2 77.9,124.9 79.4,124.9 79.8,121.1 82.3,125.2 84.9,121.1 85.3,124.9 
		86.8,124.9 85.8,117.2 	"/>
	<path class="st3" d="M87.1,124.9h1.6l0.7-1.4h3.4l0.7,1.4h1.6l-3.9-7.8L87.1,124.9z M89.9,122.3L91,120l1.1,2.4H89.9z"/>
	<rect x="95.6" y="117.4" class="st3" width="1.4" height="7.5"/>
	<polygon class="st3" points="104.1,122.2 98.6,117.2 98.6,124.9 100,124.9 100,120.3 105.5,125.2 105.5,117.4 104.1,117.4 	"/>
	<rect x="107.1" y="117.4" class="st3" width="1.4" height="7.5"/>
	<polygon class="st3" points="115.6,122.2 110.1,117.2 110.1,124.9 111.5,124.9 111.5,120.3 117,125.2 117,117.4 115.6,117.4 	"/>
	<path class="st3" d="M122.7,122.1h1.9c-0.1,1-1,1.7-2.1,1.7c-1.6,0-2.7-1.2-2.7-2.6c0-1.5,1-2.7,2.6-2.7c1.4,0,2.1,0.7,2.2,0.8
		l0.7-1.1c-0.1-0.1-1.1-1-2.9-1c-2.3,0-4.1,1.7-4.1,4c0,2.2,1.9,3.9,4.2,3.9c1.8,0,3.6-1.1,3.6-4.2h-3.4V122.1z"/>
	<path class="st2" d="M63.3,106.9h64.4V48H63.3V106.9z M104.7,67.9c7.3,0,8.5,6.6,8.5,11.6c0,4.9-1.3,11.6-8.5,11.6
		c-7.2,0-8.4-6.8-8.4-11.6C96.3,74.8,97.5,67.9,104.7,67.9z M78,74.5c0-4.2,3.7-6.6,7.3-6.6c4,0,7.3,2.5,7.3,6.6
		c0,1.9-1.5,4.1-3.1,4.8c1.6,0.8,3.2,2.6,3.2,5c0,3.9-3.4,6.8-7.4,6.8c-4.1,0-7.6-2.9-7.6-6.7c0-2.3,1.9-4.3,3.3-5.1
		C79.6,78.6,78,76.4,78,74.5z"/>
	<path class="st2" d="M85.3,87.8c1.9,0,3.4-1.6,3.4-3.5c0-1.8-1.5-3.4-3.4-3.4c-1.8,0-3.4,1.6-3.4,3.4
		C81.9,86.1,83.4,87.8,85.3,87.8z"/>
	<path class="st2" d="M104.7,87.7c3.9,0,4.3-5.5,4.3-8.2c0-3-0.5-8.2-4.3-8.2c-3.7,0-4.2,5.1-4.2,8.2
		C100.5,82.2,101,87.7,104.7,87.7z"/>
	<path class="st2" d="M85.4,77.9c1.8,0,3.2-1.6,3.2-3.2c0-2-1.4-3.4-3.3-3.4c-1.9,0-3.3,1.5-3.3,3.4C82,76.2,83.4,77.9,85.4,77.9z"
		/>
	<rect x="63.3" y="112.3" class="st2" width="64.4" height="0.1"/>
	<rect x="63.3" y="106.9" class="st3" width="64.4" height="5.5"/>
	<path class="st1" d="M77.8,84.4c0,3.8,3.4,6.7,7.6,6.7c4,0,7.4-2.9,7.4-6.8c0-2.4-1.7-4.2-3.2-5c1.6-0.7,3.1-2.9,3.1-4.8
		c0-4.1-3.3-6.6-7.3-6.6c-3.6,0-7.3,2.4-7.3,6.6c0,1.9,1.6,4.1,3.1,4.8C79.8,80.1,77.8,82,77.8,84.4z M85.3,71.2
		c1.8,0,3.3,1.5,3.3,3.4c0,1.7-1.4,3.2-3.2,3.2c-1.9,0-3.3-1.6-3.3-3.3C82,72.7,83.4,71.2,85.3,71.2z M85.3,80.9
		c1.9,0,3.4,1.6,3.4,3.4c0,1.8-1.5,3.5-3.4,3.5c-1.8,0-3.4-1.6-3.4-3.5C81.9,82.4,83.4,80.9,85.3,80.9z"/>
	<path class="st1" d="M104.7,91.1c7.2,0,8.5-6.7,8.5-11.6c0-5-1.3-11.6-8.5-11.6c-7.2,0-8.4,6.9-8.4,11.6
		C96.3,84.2,97.5,91.1,104.7,91.1z M104.7,71.2c3.9,0,4.3,5.3,4.3,8.2c0,2.7-0.4,8.2-4.3,8.2c-3.7,0-4.3-5.5-4.3-8.2
		C100.5,76.3,100.9,71.2,104.7,71.2z"/>
	<path class="st3" d="M251.2,119.7c0-2-1.9-2.3-3.4-2.3h-1.5v7.5h1.4v-2.8h0.1l2.8,2.8h1.9l-3.2-2.9
		C250.3,121.7,251.2,121.1,251.2,119.7z M247.6,120.8v-2.2h0.5c1.1,0,1.5,0.4,1.5,1c0,0.7-0.5,1.1-1.6,1.1H247.6z"/>
	<polygon class="st3" points="254.3,121.6 256.7,121.6 256.7,120.3 254.3,120.3 254.3,118.7 257.3,118.7 257.3,117.4 252.9,117.4 
		252.9,124.9 257.6,124.9 257.6,123.6 254.3,123.6 	"/>
	<path class="st3" d="M262.3,123.8c-1.5,0-2.7-1.1-2.7-2.6c0-1.6,1-2.7,2.5-2.7c0.9,0,1.6,0.3,2.1,0.8l0.7-1
		c-0.2-0.2-1.1-1.1-2.8-1.1c-2.4,0-4,1.8-4,3.9c0,2.1,1.8,3.9,4.2,3.9c1.1,0,2-0.3,2.7-1l-0.6-0.9
		C264.2,123.4,263.5,123.8,262.3,123.8z"/>
	<polygon class="st3" points="267.6,121.6 270,121.6 270,120.3 267.6,120.3 267.6,118.7 270.6,118.7 270.6,117.4 266.2,117.4 
		266.2,124.9 270.9,124.9 270.9,123.6 267.6,123.6 	"/>
	<rect x="272.1" y="117.4" class="st3" width="1.4" height="7.5"/>
	<polygon class="st3" points="278,122.4 275.7,117.4 274.2,117.4 278,125.3 281.7,117.4 280.1,117.4 	"/>
	<polygon class="st3" points="283.7,121.6 286.2,121.6 286.2,120.3 283.7,120.3 283.7,118.7 286.8,118.7 286.8,117.4 282.3,117.4 
		282.3,124.9 287.1,124.9 287.1,123.6 283.7,123.6 	"/>
	<path class="st3" d="M290.6,117.4h-2.3v7.5h2c2.6,0,4.3-1.4,4.3-3.7C294.7,118.7,292.8,117.4,290.6,117.4z M290.6,123.6h-0.9v-4.9
		h1.1c1.4,0,2.4,1,2.4,2.4C293.1,123,292,123.6,290.6,123.6z"/>
	<rect x="237.5" y="112.3" class="st2" width="64.4" height="0.1"/>
	<path class="st2" d="M237.5,106.9H302V48h-64.4V106.9z M279.5,67.9c7.3,0,8.5,6.6,8.5,11.6c0,4.9-1.3,11.6-8.5,11.6
		c-7.2,0-8.4-6.8-8.4-11.6C271.2,74.8,272.4,67.9,279.5,67.9z M250.4,84.4l11.8-17.1h2.7v16.5l3.2,0v3.2H265v3.8h-3.9v-3.8h-10.7
		V84.4z"/>
	<polygon class="st2" points="261.1,74.7 255,83.8 261.1,83.7 	"/>
	<path class="st2" d="M279.6,87.7c3.9,0,4.3-5.5,4.3-8.2c0-3-0.5-8.2-4.3-8.2c-3.7,0-4.2,5.1-4.2,8.2
		C275.3,82.2,275.8,87.7,279.6,87.7z"/>
	<path class="st1" d="M261.1,90.7h3.9v-3.8h3.2v-3.2l-3.2,0V67.2h-2.7l-11.8,17.1v2.6h10.7V90.7z M255,83.8l6.2-9.1v9L255,83.8z"/>
	<path class="st1" d="M279.6,91.1c7.2,0,8.5-6.7,8.5-11.6c0-5-1.3-11.6-8.5-11.6c-7.2,0-8.4,6.9-8.4,11.6
		C271.2,84.2,272.4,91.1,279.6,91.1z M279.5,71.2c3.9,0,4.3,5.3,4.3,8.2c0,2.7-0.4,8.2-4.3,8.2c-3.7,0-4.3-5.5-4.3-8.2
		C275.3,76.3,275.8,71.2,279.5,71.2z"/>
	<rect x="237.5" y="106.9" class="st3" width="64.4" height="5.5"/>
</g>
</svg>
