<?xml version="1.0" encoding="utf-8"?>
<!-- Generator: Adobe Illustrator 21.0.0, SVG Export Plug-In . SVG Version: 6.00 Build 0)  -->
<!DOCTYPE svg PUBLIC "-//W3C//DTD SVG 1.1//EN" "http://www.w3.org/Graphics/SVG/1.1/DTD/svg11.dtd">
<svg version="1.1" id="Layer_1" xmlns="http://www.w3.org/2000/svg" xmlns:xlink="http://www.w3.org/1999/xlink" x="0px" y="0px"
	 viewBox="0 0 449.7 97.3" style="enable-background:new 0 0 449.7 97.3;" xml:space="preserve">
<style type="text/css">
	.st0{fill:none;}
	.st1{fill:#FFFFFF;}
	.st2{fill:#7E6E7A;}
	.st3{fill:#DF4054;}
</style>
<g>
	<polygon class="st0" points="421.3,52.1 433.6,52.1 427.4,39.2 	"/>
	<polygon class="st0" points="92.8,52.1 105.1,52.1 98.9,39.2 	"/>
	<path class="st0" d="M135,32.1h-3.6v12.8h2.7c5.6,0,8.4-2.5,8.4-6.6C142.5,34.6,140.1,32.1,135,32.1z"/>
	<path class="st1" d="M179.4,46.5c0,0.7-0.1,1.5-0.1,2.2c0,8,2.4,15.4,6.5,21.6h64.9c4.1-6.2,6.5-13.6,6.5-21.6c0-0.7,0-1.5-0.1-2.2
		H179.4z M208.7,59.2c0,3.7-3,6.8-6.8,6.8c-3.7,0-6.8-3-6.8-6.8c0-3.2,2.2-5.9,5.2-6.6c-1.3-0.7-2.6-1.2-3.9-1.8
		c6.6-0.7,12.6,3.4,14.5,9.6c-0.7-0.8-1.5-1.5-2.3-2.2C208.7,58.5,208.7,58.9,208.7,59.2z M234.7,66c-3.7,0-6.8-3-6.8-6.8
		c0-0.3,0-0.7,0.1-1c-0.8,0.7-1.6,1.4-2.3,2.2c1.8-6.2,7.9-10.3,14.5-9.6c-1.3,0.5-2.6,1.1-3.9,1.8c3,0.7,5.2,3.4,5.2,6.6
		C241.5,63,238.4,66,234.7,66z"/>
	<path class="st2" d="M262,22l11.9-1l-2-6.3l-8.1,1.5l5.5-5.3l-3.6-5.7l-8.3,9.5c-0.3,0-0.6-0.1-0.9-0.1c-1.5,0-2.8,0.6-3.8,1.5
		c-8.6-9.1-20.9-14.8-34.4-14.8c-26.2,0-47.4,21.3-47.4,47.4c0,26.2,21.3,47.4,47.4,47.4c26.2,0,47.4-21.3,47.4-47.4
		c0-8.5-2.3-16.6-6.2-23.5C260.7,24.5,261.6,23.3,262,22z M250.8,70.3h-64.9c-4.1-6.2-6.5-13.6-6.5-21.6c0-0.7,0-1.5,0.1-2.2h77.9
		c0,0.7,0.1,1.5,0.1,2.2C257.3,56.7,254.9,64.1,250.8,70.3z"/>
	<path class="st2" d="M196.5,50.8c1.3,0.5,2.6,1.1,3.9,1.8c-3,0.7-5.2,3.4-5.2,6.6c0,3.7,3,6.8,6.8,6.8c3.7,0,6.8-3,6.8-6.8
		c0-0.3,0-0.7-0.1-1c0.8,0.7,1.6,1.4,2.3,2.2C209.1,54.2,203,50.1,196.5,50.8z"/>
	<path class="st2" d="M236.2,52.6c1.3-0.7,2.6-1.2,3.9-1.8c-6.6-0.7-12.6,3.4-14.5,9.6c0.7-0.8,1.5-1.5,2.3-2.2c0,0.3-0.1,0.6-0.1,1
		c0,3.7,3,6.8,6.8,6.8c3.7,0,6.8-3,6.8-6.8C241.5,56,239.2,53.3,236.2,52.6z"/>
	<path class="st3" d="M11.7,35.1c0-2.8,2.6-4,5.4-4c2.7,0,5.7,1.5,7.8,3.6l3.7-5.7c-0.8-0.9-5.3-4.7-11.6-4.7
		c-6.8,0-13.3,3.9-13.3,11.2c0,12.4,18.1,11.1,18.1,19.7c0,3-2.2,4.9-6.4,4.9c-4.6,0-8.4-2.5-10.5-4.4l-4,5.5
		c2.2,2.3,8,5.8,13.9,5.8C24.4,66.9,30,61.3,30,55C30,40.6,11.7,42.2,11.7,35.1z"/>
	<polygon class="st3" points="66.6,51.2 36.6,24.1 36.5,66 44.1,66 44,41.1 74.1,67.5 74.2,25.2 66.5,25.2 	"/>
	<path class="st3" d="M77.6,66h8.5l3.6-7.5h18.5l3.6,7.5h8.6L98.9,23.4L77.6,66z M92.8,52.1l6.1-12.9l6.2,12.9H92.8z"/>
	<path class="st3" d="M132.9,25.2h-9.1V66h7.7V51.9h2.9c11.1,0,16.3-5.4,16.3-13.5C150.6,28.3,143.1,25.2,132.9,25.2z M134.1,44.9
		h-2.7V32.1h3.6c5.1,0,7.5,2.5,7.5,6.2C142.5,42.4,139.7,44.9,134.1,44.9z"/>
	<polygon class="st3" points="315.9,51.2 286,24.1 285.9,66 293.5,66 293.4,41.1 323.4,67.5 323.5,25.2 315.9,25.2 	"/>
	<rect x="332.2" y="25.2" class="st3" width="7.7" height="40.8"/>
	<polygon class="st3" points="378.6,51.2 348.6,24.1 348.5,66 356.2,66 356.1,41.1 386.1,67.5 386.2,25.2 378.6,25.2 	"/>
	<path class="st3" d="M394.9,60.4c0,8.7-1.6,10.7-8.6,12.9l2.7,6.5c10.5-4.1,13.6-7.7,13.6-19.2V25.2h-7.7V60.4z"/>
	<path class="st3" d="M427.4,23.4L406.1,66h8.5l3.6-7.5h18.5l3.6,7.5h8.6L427.4,23.4z M421.3,52.1l6.1-12.9l6.2,12.9H421.3z"/>
</g>
</svg>
