<?xml version="1.0" encoding="utf-8"?>
<!-- Generator: Adobe Illustrator 21.0.0, SVG Export Plug-In . SVG Version: 6.00 Build 0)  -->
<!DOCTYPE svg PUBLIC "-//W3C//DTD SVG 1.1//EN" "http://www.w3.org/Graphics/SVG/1.1/DTD/svg11.dtd">
<svg version="1.1" id="Layer_1" xmlns="http://www.w3.org/2000/svg" xmlns:xlink="http://www.w3.org/1999/xlink" x="0px" y="0px"
	 viewBox="0 0 619.9 674" style="enable-background:new 0 0 619.9 674;" xml:space="preserve">
<style type="text/css">
	.st0{fill:#7E6E7A;}
</style>
<g>
	<path class="st0" d="M400.7,410.6c16.3-20.1,26.1-45.7,26.1-73.6c0-2.1-0.1-4.1-0.2-6.2c6.3-2.5,13.2-4,20.4-4
		c9.6,0,18.5,2.5,26.4,6.8l0.8,0l141.7-102.9H449l-0.1,0.1c-4.1,21-20.3,37.7-41,42.6c-15.4-23.7-39.2-41.4-67.2-49.1
		c-0.1-1.4-0.2-2.7-0.2-4.1c0-18.5,9.2-34.9,23.3-44.8l0.1-0.4L309.9,8.6l-54.1,166.5l0,0c14.4,9.8,23.8,26.4,23.8,45.1
		c0,1.4-0.1,2.7-0.2,4c-28.1,7.6-52,25.3-67.5,49.1c-20.4-5-36.4-21.4-40.6-42.2l-0.6-0.4H4.1L145,333.2c7.6-4,16.2-6.2,25.3-6.2
		c8.2,0,15.9,1.8,22.9,5c-0.1,1.7-0.1,3.4-0.1,5.1c0,27,9.2,51.9,24.6,71.7c-9.3,16.1-26.5,27.1-46.4,27.4l-0.5,0.4l-49.9,153.7
		l134.9-98l0.5-1.4c-0.7-3.4-1-7-1-10.6c0-13,4.6-25,12.1-34.3c13.2,5.2,27.5,8,42.5,8s29.3-2.8,42.5-8c7.6,9.4,12.1,21.3,12.1,34.3
		c0,3.6-0.4,7.2-1,10.6l0.5,1.4l134.9,98L449,436.6l-0.5-0.4c-0.5,0-1,0-1.5,0C427.5,436.3,410.3,426,400.7,410.6z M309.9,367.4
		c-16.7,0-30.3-13.6-30.3-30.3s13.6-30.3,30.3-30.3s30.3,13.6,30.3,30.3S326.6,367.4,309.9,367.4z"/>
</g>
</svg>
