<?xml version="1.0" encoding="utf-8"?>
<!-- Generator: Adobe Illustrator 21.0.0, SVG Export Plug-In . SVG Version: 6.00 Build 0)  -->
<!DOCTYPE svg PUBLIC "-//W3C//DTD SVG 1.1//EN" "http://www.w3.org/Graphics/SVG/1.1/DTD/svg11.dtd">
<svg version="1.1" id="Layer_1" xmlns="http://www.w3.org/2000/svg" xmlns:xlink="http://www.w3.org/1999/xlink" x="0px" y="0px"
	 viewBox="0 0 1209.8 1108.1" style="enable-background:new 0 0 1209.8 1108.1;" xml:space="preserve">
<style type="text/css">
	.st0{fill:url(#SVGID_1_);}
	.st1{fill:#F4F4F4;}
	.st2{fill:#E04054;}
	.st3{fill:#7F6F7B;}
	.st4{opacity:0.65;}
	.st5{opacity:0.9;}
	.st6{opacity:0.61;}
	.st7{opacity:0.47;}
	.st8{fill:#FFFFFF;}
	.st9{fill:#C9C6C7;}
	.st10{fill:#56465A;}
</style>
<linearGradient id="SVGID_1_" gradientUnits="userSpaceOnUse" x1="604.3207" y1="1108.1108" x2="604.3207" y2="99.6456">
	<stop  offset="0" style="stop-color:#F4F4F4"/>
	<stop  offset="1" style="stop-color:#C9C6C7"/>
</linearGradient>
<rect y="99.6" class="st0" width="1208.6" height="1008.5"/>
<g>
	<rect x="1.1" class="st1" width="1208.6" height="100.4"/>
</g>
<g>
	<path class="st2" d="M1116.6,27V15.6h2.1V25h4.8V27H1116.6z"/>
	<path class="st2" d="M1130.1,27.3c-3.5,0-6.3-2.7-6.3-6c0-3.3,2.8-6,6.3-6c3.4,0,6.2,2.6,6.2,6
		C1136.3,24.6,1133.5,27.3,1130.1,27.3z M1130.1,17.2c-2.2,0-4,1.8-4,4c0,2.1,1.8,4.1,3.9,4.1c2.3,0,4-1.8,4-4
		C1134,19,1132.2,17.2,1130.1,17.2z"/>
	<path class="st2" d="M1144.3,22.7v-1.9h5.1c0,4.9-2.8,6.5-5.5,6.5c-3.5,0-6.4-2.6-6.4-5.9c0-3.5,2.7-6,6.2-6c2.8,0,4.3,1.4,4.4,1.5
		l-1.1,1.6c-0.1-0.1-1.3-1.2-3.3-1.2c-2.4,0-3.9,1.8-3.9,4.1c0,2.1,1.7,4,4.1,4c1.7,0,3.1-1.2,3.2-2.7H1144.3z"/>
	<path class="st2" d="M1156.7,27.3c-3.5,0-6.3-2.7-6.3-6c0-3.3,2.8-6,6.3-6c3.4,0,6.2,2.6,6.2,6C1163,24.6,1160.1,27.3,1156.7,27.3z
		 M1156.7,17.2c-2.2,0-4,1.8-4,4c0,2.1,1.8,4.1,3.9,4.1c2.3,0,4-1.8,4-4C1160.7,19,1158.9,17.2,1156.7,17.2z"/>
	<path class="st2" d="M1172,15.6h2.1v10c-0.9,0.9-2.4,1.7-4.7,1.7c-3,0-4.7-1.5-4.7-4.5v-7.2h2.1v6c0,2.9,0.6,3.8,2.9,3.8
		c0.9,0,1.7-0.2,2.3-0.6V15.6z"/>
	<path class="st2" d="M1178.9,27v-9.5h-3.4v-1.9h8.9v1.9h-3.4V27H1178.9z"/>
</g>
<g>
	<path class="st3" d="M1082.5,54.3l-4.3-4.3h-0.2v4.3h-2.1V42.9h2.4c2.2,0,5.2,0.4,5.2,3.5c0,2.2-1.3,3.1-2.7,3.5l4.9,4.5H1082.5z
		 M1078.7,48.1c1.6,0,2.4-0.6,2.4-1.7c0-1-0.7-1.6-2.3-1.6h-0.8v3.3H1078.7z"/>
	<path class="st3" d="M1089.3,54.6c-2.4,0-4.2-1.8-4.2-4.1c0-2.3,1.8-4.1,4.2-4.1c2.4,0,4.1,1.9,4.1,4.1S1091.6,54.6,1089.3,54.6z
		 M1091.4,50.5c0-1.5-0.9-2.5-2.1-2.5c-1.2,0-2.2,1-2.2,2.6c0,1.4,1,2.5,2.1,2.5C1090.5,53,1091.4,52,1091.4,50.5z"/>
	<path class="st3" d="M1094.9,41.9h2v5c0.5-0.3,1.4-0.6,2-0.6c2.5,0,3.7,2,3.7,4c0,2.7-2.1,4.1-4.3,4.1c-1.1,0-2.4-0.2-3.4-0.9V41.9
		z M1096.9,52.6c0.3,0.2,0.7,0.3,1.4,0.3c1.3,0,2.2-0.9,2.2-2.5c0-1.2-0.6-2.4-1.9-2.4c-0.6,0-1.3,0.3-1.7,0.6V52.6z"/>
	<path class="st3" d="M1118.7,54.3l-0.6-5.8l-3.9,6.3l-3.9-6.2l-0.6,5.7h-2.3l1.6-11.7l5.2,8.3l5.2-8.3l1.6,11.7H1118.7z"/>
	<path class="st3" d="M1126.2,54.6c-2.4,0-4.2-1.8-4.2-4.1c0-2.3,1.8-4.1,4.2-4.1c2.4,0,4.1,1.9,4.1,4.1S1128.6,54.6,1126.2,54.6z
		 M1128.3,50.5c0-1.5-0.9-2.5-2.1-2.5c-1.2,0-2.2,1-2.2,2.6c0,1.4,1,2.5,2.1,2.5C1127.5,53,1128.3,52,1128.3,50.5z"/>
	<path class="st3" d="M1131.9,54.3v-7.7h2v1.2c0.2-0.4,0.8-1.4,1.7-1.4c0.7,0,1.1,0.2,1.4,0.4l-0.7,1.9c-0.2-0.2-0.6-0.4-1.1-0.4
		c-0.9,0-1.3,1.1-1.3,1.8v4.3H1131.9z"/>
	<path class="st3" d="M1142.8,53.7c-0.5,0.5-1.4,0.8-1.9,0.8c-1.8,0-3.6-1.6-3.6-4.1c0-2.6,2-4.1,4.3-4.1c1.6,0,2.5,0.3,3.3,0.7v7.6
		c0,2.9-2,3.8-3.7,3.8c-1.8,0-3-0.6-3.6-1l0.8-1.5c0.3,0.3,1.4,0.8,2.7,0.8c1,0,1.8-0.5,1.8-1.9V53.7z M1142.8,48.3
		c-0.3-0.1-0.7-0.2-1.2-0.2c-1.2,0-2.2,0.7-2.2,2.4c0,1.1,0.6,2.5,1.9,2.5c0.8,0,1.3-0.4,1.6-0.8V48.3z"/>
	<path class="st3" d="M1153.1,53.6c-0.6,0.5-1.7,1-3.5,1c-2.4,0-3.5-1.3-3.5-2.8c0-1.8,1.7-2.4,3.1-2.4c0.5,0,1.5,0.2,1.9,0.5V49
		c0-0.6-0.5-1.1-1.5-1.1c-1,0-1.8,0.3-2.1,0.5L1147,47c0.7-0.3,1.6-0.6,2.9-0.6c2.6,0,3.2,1.2,3.2,3.1V53.6z M1151.2,51.3
		c-0.3-0.3-1-0.6-1.6-0.6c-0.8,0-1.4,0.4-1.4,1.1c0,0.8,0.6,1.3,1.6,1.3c0.6,0,1.1-0.1,1.5-0.3V51.3z"/>
	<path class="st3" d="M1159.9,54.3v-4.1c0-1.3-0.2-2.1-1.4-2.1c-0.7,0-1.4,0.5-1.6,0.9v5.3h-2v-7.7h2v0.8c0.4-0.4,1.3-1,2.4-1
		c1.6,0,2.5,0.8,2.5,2.8v5.2H1159.9z"/>
</g>
<g>
	<path class="st3" d="M1071.9,81.4v-9.5h-3.4V70h8.9v1.9h-3.4v9.5H1071.9z"/>
	<path class="st3" d="M1082.3,73.7h2v6.9c-0.9,0.8-2,1.1-3.5,1.1c-2.1,0-3.5-1-3.5-3v-5h2v4.5c0,1.5,0.8,1.9,1.7,1.9
		c0.7,0,1.1-0.2,1.3-0.4V73.7z"/>
	<path class="st3" d="M1086.1,81.4v-7.7h2v1.2c0.2-0.4,0.8-1.4,1.7-1.4c0.7,0,1.1,0.2,1.4,0.4l-0.7,1.9c-0.2-0.2-0.6-0.4-1.1-0.4
		c-0.9,0-1.3,1.1-1.3,1.8v4.3H1086.1z"/>
	<path class="st3" d="M1092,71.2c0-0.7,0.5-1.2,1.2-1.2c0.8,0,1.2,0.5,1.2,1.2c0,0.7-0.5,1.2-1.2,1.2
		C1092.5,72.4,1092,71.9,1092,71.2z M1092.3,81.4v-7.7h2v7.7H1092.3z"/>
	<path class="st3" d="M1101.2,81.4v-4.1c0-1.3-0.2-2.1-1.4-2.1c-0.7,0-1.4,0.5-1.6,0.9v5.3h-2v-7.7h2v0.8c0.4-0.4,1.3-1,2.4-1
		c1.6,0,2.5,0.8,2.5,2.8v5.2H1101.2z"/>
	<path class="st3" d="M1110.2,80.8c-0.5,0.5-1.4,0.8-1.9,0.8c-1.8,0-3.6-1.6-3.6-4.1c0-2.6,2-4.1,4.3-4.1c1.6,0,2.5,0.3,3.3,0.7v7.6
		c0,2.9-2,3.8-3.7,3.8c-1.8,0-3-0.6-3.6-1l0.8-1.5c0.3,0.3,1.4,0.8,2.7,0.8c1,0,1.8-0.5,1.8-1.9V80.8z M1110.2,75.4
		c-0.3-0.1-0.7-0.2-1.2-0.2c-1.2,0-2.2,0.7-2.2,2.4c0,1.1,0.6,2.5,1.9,2.5c0.8,0,1.3-0.4,1.6-0.8V75.4z"/>
	<path class="st3" d="M1124.1,77.1v-1.9h5.1c0,4.9-2.8,6.5-5.5,6.5c-3.5,0-6.4-2.6-6.4-5.9c0-3.5,2.7-6,6.2-6c2.8,0,4.3,1.4,4.4,1.5
		l-1.1,1.6c-0.1-0.1-1.3-1.2-3.3-1.2c-2.4,0-3.9,1.8-3.9,4.1c0,2.1,1.7,4,4.1,4c1.7,0,3.1-1.2,3.2-2.7H1124.1z"/>
	<path class="st3" d="M1130.6,81.4v-7.7h2v1.2c0.2-0.4,0.8-1.4,1.7-1.4c0.7,0,1.1,0.2,1.4,0.4l-0.7,1.9c-0.2-0.2-0.6-0.4-1.1-0.4
		c-0.9,0-1.3,1.1-1.3,1.8v4.3H1130.6z"/>
	<path class="st3" d="M1140.1,81.7c-2.4,0-4.2-1.8-4.2-4.1c0-2.3,1.8-4.1,4.2-4.1c2.4,0,4.1,1.9,4.1,4.1S1142.5,81.7,1140.1,81.7z
		 M1142.2,77.6c0-1.5-0.9-2.5-2.1-2.5c-1.2,0-2.2,1-2.2,2.6c0,1.4,1,2.5,2.1,2.5C1141.4,80.1,1142.2,79.1,1142.2,77.6z"/>
	<path class="st3" d="M1150.7,73.7h2v6.9c-0.9,0.8-2,1.1-3.5,1.1c-2.1,0-3.5-1-3.5-3v-5h2v4.5c0,1.5,0.8,1.9,1.7,1.9
		c0.7,0,1.1-0.2,1.3-0.4V73.7z"/>
	<path class="st3" d="M1154.6,85.3V74.4c1.1-0.6,2.4-0.9,3.5-0.9c2.2,0,4.2,1.3,4.2,4.1c0,2.1-1.3,4.1-3.8,4.1
		c-0.6,0-1.4-0.3-1.9-0.7v4.3H1154.6z M1156.5,79.1c0.5,0.7,1.1,0.9,1.8,0.9c1,0,1.8-1,1.8-2.4c0-1.4-0.8-2.4-2.3-2.4
		c-0.5,0-1,0.1-1.3,0.3V79.1z"/>
</g>
<g>
	<path class="st3" d="M1184.2,49.4c-1.1,0.9-2.5,1.5-4,1.5s-2.9-0.6-4-1.5c-2.4,0.8-4,2.5-4,5.4V57c0,0.7,0.6,1.3,1.3,1.3h13.5
		c0.7,0,1.3-0.6,1.3-1.3v-2.2C1188.3,51.9,1186.6,50.2,1184.2,49.4z"/>
</g>
<g>
	<circle class="st3" cx="1180.2" cy="44.9" r="4.8"/>
</g>
<g class="st4">
	<path class="st3" d="M1176,76.1c-0.5-0.7-0.9-1.5-1-2.3c-0.9-0.1-1.7-0.5-2.4-1c-1.7,0.6-2.8,1.7-2.8,3.8v1.6
		c0,0.4,0.4,0.8,0.8,0.8h2.2c0.2-0.4,0.4-0.7,0.6-1C1173.9,77.2,1174.8,76.5,1176,76.1z"/>
</g>
<g class="st4">
	<path class="st3" d="M1174.9,72.9C1174.9,72.9,1174.9,72.8,1174.9,72.9c0-2.3,1.4-4.3,3.3-5.1c-0.6-1-1.6-1.6-2.9-1.6
		c-1.9,0-3.4,1.5-3.4,3.4C1172,71.3,1173.2,72.7,1174.9,72.9z"/>
</g>
<g class="st4">
	<path class="st3" d="M1187.9,72.7c-0.6,0.6-1.4,0.9-2.3,1c-0.2,0.9-0.5,1.7-1,2.3c1.1,0.4,2,1.1,2.7,1.9c0.2,0.3,0.4,0.6,0.6,1h2.1
		c0.4,0,0.8-0.4,0.8-0.8v-1.6C1190.8,74.5,1189.6,73.3,1187.9,72.7z"/>
</g>
<g class="st4">
	<path class="st3" d="M1185.7,72.8C1185.7,72.8,1185.7,72.9,1185.7,72.8c1.6-0.2,2.8-1.6,2.8-3.2c0-1.9-1.5-3.4-3.4-3.4
		c-1.2,0-2.2,0.6-2.8,1.6C1184.3,68.6,1185.7,70.6,1185.7,72.8z"/>
</g>
<g class="st5">
	<path class="st3" d="M1183.9,76.9c-0.4,0.4-0.9,0.7-1.4,0.9c-0.2,0.1-0.5,0.2-0.7,0.3c-0.5,0.1-1,0.2-1.5,0.2c-0.5,0-1-0.1-1.5-0.2
		c-0.2-0.1-0.5-0.2-0.7-0.3c-0.5-0.2-1-0.5-1.4-0.9c-2.2,0.7-3.6,2.3-3.6,4.9v2c0,0.6,0.5,1.1,1.1,1.1h12.2c0.6,0,1.1-0.5,1.1-1.1
		v-2C1187.5,79.1,1186,77.6,1183.9,76.9z"/>
</g>
<g class="st5">
	<circle class="st3" cx="1180.3" cy="72.8" r="4.3"/>
</g>
<g class="st6">
	<rect x="0.9" y="100.4" class="st1" width="99.4" height="34.1"/>
</g>
<g>
	<rect x="106.6" y="100.4" class="st1" width="99.4" height="34.1"/>
</g>
<g class="st6">
	<rect x="212.2" y="100.4" class="st1" width="99.4" height="34.1"/>
</g>
<g class="st6">
	<rect x="317.9" y="100.4" class="st1" width="99.4" height="34.1"/>
</g>
<g class="st7">
	<path class="st3" d="M37.3,112.7h2.1v10c-0.9,0.9-2.4,1.7-4.7,1.7c-3,0-4.7-1.5-4.7-4.5v-7.2h2.1v6c0,2.9,0.6,3.8,2.9,3.8
		c0.9,0,1.7-0.2,2.3-0.6V112.7z"/>
	<path class="st3" d="M42.1,121.3c0.6,0.5,1.7,1.2,2.9,1.2c1.2,0,1.8-0.5,1.8-1.4c0-2.4-5.1-2-5.1-5.5c0-2,1.8-3.1,3.7-3.1
		c1.8,0,3,1.1,3.2,1.3l-1,1.6c-0.6-0.6-1.4-1-2.2-1s-1.5,0.3-1.5,1.1c0,2,5.1,1.6,5.1,5.6c0,1.8-1.6,3.3-4.2,3.3
		c-1.6,0-3.3-1-3.9-1.6L42.1,121.3z"/>
	<path class="st3" d="M50.9,124.2v-11.4h6.8v1.9h-4.7v2.5h3.7v1.9h-3.7v3.1h5.1v1.9H50.9z"/>
	<path class="st3" d="M66.7,124.2l-4.3-4.3h-0.2v4.3H60v-11.4h2.4c2.2,0,5.2,0.4,5.2,3.5c0,2.2-1.3,3.1-2.7,3.5l4.9,4.5H66.7z
		 M62.9,118c1.6,0,2.4-0.6,2.4-1.7c0-1-0.7-1.6-2.3-1.6h-0.8v3.3H62.9z"/>
</g>
<g>
	<path class="st3" d="M132.7,119.8V118h5.1c0,4.9-2.8,6.5-5.5,6.5c-3.5,0-6.4-2.6-6.4-5.9c0-3.5,2.7-6,6.2-6c2.8,0,4.3,1.4,4.4,1.5
		l-1.1,1.6c-0.1-0.1-1.3-1.2-3.3-1.2c-2.4,0-3.9,1.8-3.9,4.1c0,2.1,1.7,4,4.1,4c1.7,0,3.1-1.2,3.2-2.7H132.7z"/>
	<path class="st3" d="M146.2,124.2l-4.3-4.3h-0.2v4.3h-2.1v-11.4h2.4c2.2,0,5.2,0.4,5.2,3.5c0,2.2-1.3,3.1-2.7,3.5l4.9,4.5H146.2z
		 M142.4,118c1.6,0,2.4-0.6,2.4-1.7c0-1-0.7-1.6-2.3-1.6h-0.8v3.3H142.4z"/>
	<path class="st3" d="M155.2,124.4c-3.5,0-6.3-2.7-6.3-6c0-3.3,2.8-6,6.3-6c3.4,0,6.2,2.6,6.2,6
		C161.4,121.8,158.5,124.4,155.2,124.4z M155.2,114.4c-2.2,0-4,1.8-4,4c0,2.1,1.8,4.1,3.9,4.1c2.3,0,4-1.8,4-4
		C159.1,116.2,157.3,114.4,155.2,114.4z"/>
	<path class="st3" d="M170.5,112.7h2.1v10c-0.9,0.9-2.4,1.7-4.7,1.7c-3,0-4.7-1.5-4.7-4.5v-7.2h2.1v6c0,2.9,0.6,3.8,2.9,3.8
		c0.9,0,1.7-0.2,2.3-0.6V112.7z"/>
	<path class="st3" d="M175,124.2v-11.4h2.6c2.9,0,5,0.9,5,3.7c0,2.3-1.5,3.8-4.6,3.8h-0.8v4H175z M177.9,118.3
		c1.6,0,2.3-0.7,2.3-1.8c0-1-0.7-1.7-2.1-1.7h-1v3.6H177.9z"/>
</g>
<g class="st7">
	<path class="st3" d="M242,121.3c0.6,0.5,1.7,1.2,2.9,1.2c1.2,0,1.8-0.5,1.8-1.4c0-2.4-5.1-2-5.1-5.5c0-2,1.8-3.1,3.7-3.1
		c1.8,0,3,1.1,3.2,1.3l-1,1.6c-0.6-0.6-1.4-1-2.2-1s-1.5,0.3-1.5,1.1c0,2,5.1,1.6,5.1,5.6c0,1.8-1.6,3.3-4.2,3.3
		c-1.6,0-3.3-1-3.9-1.6L242,121.3z"/>
	<path class="st3" d="M250.9,124.2v-11.4h6.8v1.9H253v2.5h3.7v1.9H253v3.1h5.1v1.9H250.9z"/>
	<path class="st3" d="M262.1,117.2l0,7H260l0-11.8l8.4,7.6l0-7.3h2.1l0,11.9L262.1,117.2z"/>
	<path class="st3" d="M273,124.2v-11.4h3.5c3.4,0,6.2,2,6.2,5.7c0,3.6-2.6,5.7-6.6,5.7H273z M276.4,122.2c2.1,0,3.9-1,3.9-3.8
		c0-2.2-1.5-3.7-3.6-3.7h-1.6v7.5H276.4z"/>
</g>
<g class="st7">
	<path class="st3" d="M336.5,124.2l-1-2.1h-5.2l-1,2.1h-2.4l6-11.9l6,11.9H336.5z M332.9,116.7l-1.7,3.6h3.4L332.9,116.7z"/>
	<path class="st3" d="M349.3,122.9c-1,1-2.4,1.5-4.1,1.5c-3.7,0-6.4-2.7-6.4-6c0-3.2,2.5-6,6.2-6c2.5,0,4,1.3,4.2,1.6l-1.1,1.5
		c-0.8-0.8-1.9-1.2-3.2-1.2c-2.2,0-3.8,1.7-3.8,4.1c0,2.2,1.8,4,4.1,4c1.8,0,2.8-0.6,3.1-1L349.3,122.9z"/>
	<path class="st3" d="M360.3,122.9c-1,1-2.4,1.5-4.1,1.5c-3.7,0-6.4-2.7-6.4-6c0-3.2,2.5-6,6.2-6c2.5,0,4,1.3,4.2,1.6l-1.1,1.5
		c-0.8-0.8-1.9-1.2-3.2-1.2c-2.2,0-3.8,1.7-3.8,4.1c0,2.2,1.8,4,4.1,4c1.8,0,2.8-0.6,3.1-1L360.3,122.9z"/>
	<path class="st3" d="M367.1,124.4c-3.5,0-6.3-2.7-6.3-6c0-3.3,2.8-6,6.3-6c3.4,0,6.2,2.6,6.2,6
		C373.4,121.8,370.5,124.4,367.1,124.4z M367.1,114.4c-2.2,0-4,1.8-4,4c0,2.1,1.8,4.1,3.9,4.1c2.3,0,4-1.8,4-4
		C371.1,116.2,369.3,114.4,367.1,114.4z"/>
	<path class="st3" d="M382.4,112.7h2.1v10c-0.9,0.9-2.4,1.7-4.7,1.7c-3,0-4.7-1.5-4.7-4.5v-7.2h2.1v6c0,2.9,0.6,3.8,2.9,3.8
		c0.9,0,1.7-0.2,2.3-0.6V112.7z"/>
	<path class="st3" d="M389.1,117.2l0,7H387l0-11.8l8.4,7.6l0-7.3h2.1l0,11.9L389.1,117.2z"/>
	<path class="st3" d="M402.3,124.2v-9.5H399v-1.9h8.9v1.9h-3.4v9.5H402.3z"/>
</g>
<g>
	<circle class="st8" cx="607.3" cy="52.5" r="33.4"/>
</g>
<g>
	<path class="st3" d="M640,30.4l9-0.8l-1.5-4.8l-6.1,1.1l4.2-4l-2.7-4.3l-6.3,7.2c-0.2,0-0.4-0.1-0.7-0.1c-1.1,0-2.1,0.4-2.9,1.1
		c-6.5-6.9-15.8-11.2-26-11.2c-19.8,0-35.8,16.1-35.8,35.8c0,19.8,16.1,35.8,35.8,35.8s35.8-16.1,35.8-35.8c0-6.4-1.7-12.5-4.7-17.7
		C639,32.3,639.7,31.5,640,30.4z M631.5,66.9h-49c-3.1-4.7-4.9-10.3-4.9-16.3c0-0.6,0-1.1,0-1.7h58.8c0,0.5,0,1.1,0,1.7
		C636.5,56.7,634.6,62.3,631.5,66.9z"/>
</g>
<g>
	<path class="st3" d="M590.5,52.3c1,0.4,2,0.8,3,1.3c-2.3,0.5-4,2.6-4,5c0,2.8,2.3,5.1,5.1,5.1c2.8,0,5.1-2.3,5.1-5.1
		c0-0.3,0-0.5-0.1-0.7c0.6,0.5,1.2,1.1,1.7,1.7C600,54.8,595.5,51.7,590.5,52.3z"/>
</g>
<g>
	<path class="st3" d="M620.5,53.6c1-0.5,1.9-0.9,3-1.3c-5-0.6-9.5,2.5-10.9,7.2c0.6-0.6,1.1-1.1,1.7-1.7c0,0.2-0.1,0.5-0.1,0.7
		c0,2.8,2.3,5.1,5.1,5.1c2.8,0,5.1-2.3,5.1-5.1C624.5,56.1,622.8,54.1,620.5,53.6z"/>
</g>
<g>
	<path class="st2" d="M445.3,55.8c1.6,1.5,4.5,3.3,7.9,3.3c3.1,0,4.8-1.5,4.8-3.7c0-6.5-13.7-5.5-13.7-14.9c0-5.5,4.9-8.4,10.1-8.4
		c4.8,0,8.1,2.9,8.8,3.6l-2.8,4.3c-1.6-1.6-3.8-2.7-5.9-2.7c-2.1,0-4.1,0.9-4.1,3c0,5.4,13.8,4.2,13.8,15.1c0,4.8-4.2,9-11.4,9
		c-4.4,0-8.8-2.6-10.5-4.4L445.3,55.8z"/>
	<path class="st2" d="M474.8,44.9l0.1,18.8h-5.8l0.1-31.7l22.6,20.5l0-19.6h5.8l-0.1,32L474.8,44.9z"/>
	<path class="st2" d="M525.9,63.7l-2.7-5.7h-14l-2.7,5.7h-6.4l16.1-32.2l16.1,32.2H525.9z M516.2,43.4l-4.6,9.8h9.3L516.2,43.4z"/>
	<path class="st2" d="M535,63.7V32.9h6.9c7.7,0,13.4,2.3,13.4,9.9c0,6.1-3.9,10.2-12.3,10.2h-2.2v10.7H535z M542.8,47.8
		c4.2,0,6.3-1.9,6.3-5c0-2.8-1.8-4.7-5.7-4.7h-2.7v9.6H542.8z"/>
	<path class="st2" d="M663.2,44.9l0.1,18.8h-5.8l0.1-31.7l22.6,20.5l0-19.6h5.8l-0.1,32L663.2,44.9z"/>
	<path class="st2" d="M692.5,63.7V32.9h5.8v30.8H692.5z"/>
	<path class="st2" d="M710.5,44.9l0.1,18.8h-5.8l0.1-31.7l22.6,20.5l0-19.6h5.8l-0.1,32L710.5,44.9z"/>
	<path class="st2" d="M733.3,69.2c5.3-1.7,6.5-3.2,6.5-9.8V32.9h5.8v26.7c0,8.7-2.4,11.4-10.3,14.5L733.3,69.2z"/>
	<path class="st2" d="M774,63.7l-2.7-5.7h-14l-2.7,5.7h-6.4l16.1-32.2l16.1,32.2H774z M764.4,43.4l-4.6,9.8h9.3L764.4,43.4z"/>
</g>
<g>
	<rect x="319.7" y="798.7" class="st3" width="560.4" height="263.5"/>
</g>
<g>
	<rect x="319.7" y="760.5" class="st3" width="560.4" height="38.5"/>
</g>
<g>
	<polygon class="st8" points="802.9,884.4 737.6,978.4 688.5,916.3 649.8,957.2 603.1,875.3 557.2,937.9 525.4,919.7 488.9,979.5 
		441.5,939.9 398.7,971.1 401.1,1009.3 802.9,1009.3 	"/>
</g>
<g>
	<path class="st8" d="M394,798.7v-13.3h-4.7v-2.7h12.5v2.7H397v13.3H394z"/>
	<path class="st8" d="M408.6,787.9h2.8v9.6c-1.3,1.1-2.9,1.5-4.8,1.5c-2.9,0-4.9-1.4-4.9-4.2v-6.9h2.8v6.3c0,2.1,1.2,2.6,2.4,2.6
		c0.9,0,1.5-0.3,1.8-0.5V787.9z"/>
	<path class="st8" d="M414,798.7v-10.8h2.7v1.7c0.3-0.5,1.1-2,2.4-2c1,0,1.5,0.3,1.9,0.5l-1,2.6c-0.3-0.2-0.8-0.5-1.5-0.5
		c-1.2,0-1.9,1.5-1.9,2.6v6H414z"/>
	<path class="st8" d="M422.2,784.4c0-1,0.7-1.7,1.7-1.7c1.1,0,1.7,0.7,1.7,1.7c0,1-0.7,1.7-1.7,1.7
		C422.9,786.1,422.2,785.4,422.2,784.4z M422.6,798.7v-10.8h2.8v10.8H422.6z"/>
	<path class="st8" d="M435.1,798.7V793c0-1.8-0.2-2.9-1.9-2.9c-1,0-2,0.8-2.3,1.2v7.5h-2.8v-10.8h2.8v1.1c0.5-0.5,1.8-1.4,3.4-1.4
		c2.3,0,3.6,1.2,3.6,3.9v7.2H435.1z"/>
	<path class="st8" d="M447.7,797.9c-0.7,0.7-1.9,1.2-2.7,1.2c-2.6,0-5.1-2.2-5.1-5.7c0-3.7,2.9-5.7,6-5.7c2.2,0,3.5,0.5,4.6,1v10.6
		c0,4.1-2.8,5.3-5.2,5.3c-2.5,0-4.3-0.8-5-1.3l1.1-2.1c0.5,0.4,1.9,1.1,3.8,1.1c1.4,0,2.5-0.7,2.5-2.6V797.9z M447.7,790.2
		c-0.4-0.2-1-0.3-1.7-0.3c-1.6,0-3.2,1-3.2,3.4c0,1.5,0.8,3.4,2.6,3.4c1.1,0,1.9-0.5,2.2-1.2V790.2z"/>
	<path class="st8" d="M458.2,794.7l0.3-2.3h5.9l-0.3,2.3H458.2z"/>
	<path class="st8" d="M472.9,794.7c0.8,0.8,2.3,1.7,4.1,1.7c1.6,0,2.5-0.8,2.5-1.9c0-3.4-7.1-2.9-7.1-7.7c0-2.9,2.6-4.4,5.2-4.4
		c2.5,0,4.2,1.5,4.5,1.9l-1.5,2.2c-0.8-0.8-2-1.4-3.1-1.4s-2.1,0.5-2.1,1.6c0,2.8,7.2,2.2,7.2,7.8c0,2.5-2.2,4.7-5.9,4.7
		c-2.3,0-4.6-1.4-5.5-2.3L472.9,794.7z"/>
	<path class="st8" d="M491.7,798.7V793c0-1.8-0.2-2.9-1.9-2.9c-1,0-2,0.8-2.3,1.2v7.5h-2.8v-10.8h2.8v1.1c0.5-0.5,1.8-1.4,3.4-1.4
		c2.3,0,3.6,1.2,3.6,3.9v7.2H491.7z"/>
	<path class="st8" d="M506.1,797.7c-0.8,0.7-2.4,1.3-4.9,1.3c-3.3,0-4.8-1.8-4.8-3.9c0-2.5,2.4-3.4,4.4-3.4c0.7,0,2.1,0.3,2.7,0.7
		v-1.1c0-0.9-0.7-1.5-2.1-1.5c-1.4,0-2.6,0.4-3,0.6l-0.8-1.9c1-0.5,2.3-0.9,4-0.9c3.6,0,4.5,1.7,4.5,4.4V797.7z M503.4,794.5
		c-0.4-0.4-1.4-0.8-2.2-0.8c-1.1,0-2,0.5-2,1.5c0,1.1,0.8,1.8,2.2,1.8c0.8,0,1.6-0.2,2.1-0.4V794.5z"/>
	<path class="st8" d="M508.5,804.1v-15.3c1.5-0.8,3.3-1.2,4.8-1.2c3,0,5.9,1.9,5.9,5.7c0,3-1.9,5.7-5.3,5.7c-0.8,0-2-0.4-2.7-0.9v6
		H508.5z M511.3,795.5c0.7,1,1.6,1.2,2.5,1.2c1.4,0,2.5-1.4,2.5-3.4c0-1.9-1.2-3.4-3.2-3.4c-0.6,0-1.4,0.1-1.9,0.4V795.5z"/>
	<path class="st8" d="M521.3,795.7c0.7,0.6,2,1.3,3,1.3c0.7,0,1.4-0.3,1.4-1.2c0-1.4-4.7-2.2-4.7-5c0-1.7,1.5-3.2,3.8-3.2
		c2,0,3.2,0.8,3.7,1.2l-1,1.9c-0.2-0.2-1.2-1-2.2-1c-0.7,0-1.3,0.4-1.3,1c0,1.6,4.6,2,4.6,5c0,2.1-1.6,3.4-4.1,3.4
		c-1.9,0-3.3-0.7-4.2-1.4L521.3,795.7z"/>
	<path class="st8" d="M544.6,797.7c-0.8,0.7-2.4,1.3-4.9,1.3c-3.3,0-4.8-1.8-4.8-3.9c0-2.5,2.4-3.4,4.4-3.4c0.7,0,2.1,0.3,2.7,0.7
		v-1.1c0-0.9-0.7-1.5-2.1-1.5c-1.4,0-2.6,0.4-3,0.6l-0.8-1.9c1-0.5,2.3-0.9,4-0.9c3.6,0,4.5,1.7,4.5,4.4V797.7z M542,794.5
		c-0.4-0.4-1.4-0.8-2.2-0.8c-1.1,0-2,0.5-2,1.5c0,1.1,0.8,1.8,2.2,1.8c0.8,0,1.6-0.2,2.1-0.4V794.5z"/>
	<path class="st8" d="M556.3,798.9l-2.4-6l-2.3,6h-1.4l-4.5-11h2.9l2.5,6.3l2.6-6.3h0.5l2.6,6.4l2.6-6.4h2.9l-4.5,11H556.3z"/>
	<path class="st8" d="M572.2,797.7c-0.8,0.7-2.4,1.3-4.9,1.3c-3.3,0-4.8-1.8-4.8-3.9c0-2.5,2.4-3.4,4.4-3.4c0.7,0,2.1,0.3,2.7,0.7
		v-1.1c0-0.9-0.7-1.5-2.1-1.5c-1.4,0-2.6,0.4-3,0.6l-0.8-1.9c1-0.5,2.3-0.9,4-0.9c3.6,0,4.5,1.7,4.5,4.4V797.7z M569.5,794.5
		c-0.4-0.4-1.4-0.8-2.2-0.8c-1.1,0-2,0.5-2,1.5c0,1.1,0.8,1.8,2.2,1.8c0.8,0,1.6-0.2,2.1-0.4V794.5z"/>
	<path class="st8" d="M574.7,798.7v-10.8h2.7v1.7c0.3-0.5,1.1-2,2.4-2c1,0,1.5,0.3,1.9,0.5l-1,2.6c-0.3-0.2-0.8-0.5-1.5-0.5
		c-1.2,0-1.9,1.5-1.9,2.6v6H574.7z"/>
	<path class="st8" d="M590.1,781.4h2.8v16.3c-1.5,0.9-3.2,1.3-4.8,1.3c-3,0-6-1.9-6-5.6c0-3.4,2.3-5.9,5.7-5.9
		c0.8,0,1.6,0.2,2.3,0.6V781.4z M590.1,790.7c-0.5-0.5-1.4-0.8-2.2-0.8c-1.7,0-2.8,1.5-2.8,3.6c0,2,1.4,3.3,3,3.3
		c0.6,0,1.4-0.1,2-0.5V790.7z"/>
	<path class="st8" d="M605.6,797.7c-0.6,0.5-2.2,1.3-4.6,1.3c-3.6,0-6-2.2-6-5.7c0-3.3,2.4-5.8,5.8-5.8c3.5,0,5.2,2.7,5.2,5.7v1.1
		h-8.2c0.3,2,2.1,2.5,3.8,2.5c1.6,0,2.8-0.7,3.2-1.1L605.6,797.7z M603.2,792.3c0-1.4-1-2.5-2.5-2.5c-1.6,0-2.7,1-3,2.5H603.2z"/>
	<path class="st8" d="M615.3,781.4h2.8v16.3c-1.5,0.9-3.2,1.3-4.8,1.3c-3,0-6-1.9-6-5.6c0-3.4,2.3-5.9,5.7-5.9
		c0.8,0,1.6,0.2,2.3,0.6V781.4z M615.3,790.7c-0.5-0.5-1.4-0.8-2.2-0.8c-1.7,0-2.8,1.5-2.8,3.6c0,2,1.4,3.3,3,3.3
		c0.6,0,1.4-0.1,2-0.5V790.7z"/>
	<path class="st8" d="M630.9,794.7l0.3-2.3h5.9l-0.3,2.3H630.9z"/>
	<path class="st8" d="M645.3,798.7v-16h3V796h6.7v2.7H645.3z"/>
	<path class="st8" d="M668.6,798.7l-1.4-2.9h-7.3l-1.4,2.9h-3.3l8.4-16.7l8.4,16.7H668.6z M663.6,788.2l-2.4,5.1h4.8L663.6,788.2z"
		/>
	<path class="st8" d="M673.7,794.7c0.8,0.8,2.3,1.7,4.1,1.7c1.6,0,2.5-0.8,2.5-1.9c0-3.4-7.1-2.9-7.1-7.7c0-2.9,2.6-4.4,5.2-4.4
		c2.5,0,4.2,1.5,4.5,1.9l-1.5,2.2c-0.8-0.8-2-1.4-3.1-1.4c-1.1,0-2.1,0.5-2.1,1.6c0,2.8,7.2,2.2,7.2,7.8c0,2.5-2.2,4.7-5.9,4.7
		c-2.3,0-4.6-1.4-5.5-2.3L673.7,794.7z"/>
	<path class="st8" d="M689.4,798.7v-13.3h-4.7v-2.7h12.5v2.7h-4.7v13.3H689.4z"/>
	<path class="st8" d="M706.4,798.8v-12.6l-2.7,0.8l-0.8-2.1l6.5-2.5v16.4H706.4z"/>
	<path class="st8" d="M719.3,789.9c2,0.9,2.9,2.7,2.9,4.6c0,2.3-2.2,4.6-5.8,4.6c-2.6,0-4.3-1.2-4.8-1.7l1.2-2
		c0.4,0.5,1.9,1.4,3.5,1.4c2,0,3-1.3,3-2.6c0-1.8-1.5-3.2-3.8-3.2c-0.2,0-0.4,0-0.7,0v-1.7c0.3,0,0.5,0.1,0.7,0.1c1.8,0,3-1.2,3-2.4
		c0-1.2-0.7-1.8-2.1-1.8c-0.8,0-1.9,0.4-2.5,0.7l-0.8-2.1c0.5-0.5,2.1-1.2,3.9-1.2c2.7,0,4.4,2.1,4.4,3.9
		C721.5,787.7,721,789,719.3,789.9L719.3,789.9z"/>
	<path class="st8" d="M739.7,788.8l-4.9,10.7l-6.8-16.8h3.3l3.7,9.8l4.7-10.5l4.7,10.4l3.6-9.8h3.3l-6.7,16.8L739.7,788.8z"/>
	<path class="st8" d="M752.9,798.7v-16h9.5v2.7h-6.5v3.4h5.2v2.7h-5.2v4.4h7.2v2.7H752.9z"/>
	<path class="st8" d="M765.7,798.7v-16h9.5v2.7h-6.5v3.4h5.2v2.7h-5.2v4.4h7.2v2.7H765.7z"/>
	<path class="st8" d="M788.2,798.7l-6.8-6.1v6.1h-3v-16h3v6.2l5.8-6.2h3.9l-7.7,7.8l9.3,8.2H788.2z"/>
	<path class="st8" d="M793.8,794.7c0.8,0.8,2.3,1.7,4.1,1.7c1.6,0,2.5-0.8,2.5-1.9c0-3.4-7.1-2.9-7.1-7.7c0-2.9,2.6-4.4,5.2-4.4
		c2.5,0,4.2,1.5,4.5,1.9l-1.5,2.2c-0.8-0.8-2-1.4-3.1-1.4c-1.1,0-2.1,0.5-2.1,1.6c0,2.8,7.2,2.2,7.2,7.8c0,2.5-2.2,4.7-5.9,4.7
		c-2.3,0-4.6-1.4-5.5-2.3L793.8,794.7z"/>
</g>
<g>
	<path class="st9" d="M770.6,1032.6v-6.4h-1.3v-0.9h1.3v-2.6h1v2.6h1.8v0.9h-1.8v6.4H770.6z"/>
	<path class="st9" d="M779.8,1032.6v-4.3c0-1.6-0.5-2.2-1.9-2.2c-1,0-1.8,0.6-2.2,1v5.6h-1v-12.4h1v5.9c0.4-0.4,1.2-1,2.4-1
		c1.7,0,2.6,0.8,2.6,2.7v4.8H779.8z"/>
	<path class="st9" d="M783.6,1023.9c-0.4,0-0.8-0.3-0.8-0.8c0-0.5,0.3-0.8,0.8-0.8c0.5,0,0.8,0.3,0.8,0.8
		C784.4,1023.6,784.1,1023.9,783.6,1023.9z M783.1,1032.6v-7.3h1v7.3H783.1z"/>
	<path class="st9" d="M786.2,1031.1c0.3,0.4,1,0.9,2,0.9c0.9,0,1.5-0.5,1.5-1.4c0-1.6-3.5-1.5-3.5-3.5c0-1.1,0.9-1.9,2.3-1.9
		c0.9,0,1.8,0.5,2.1,0.8l-0.4,0.7c-0.2-0.2-0.8-0.8-1.6-0.8c-0.9,0-1.3,0.6-1.3,1.1c0,1.4,3.5,1.2,3.5,3.6c0,1.4-1.1,2.3-2.6,2.3
		c-1.2,0-2.1-0.6-2.6-1.1L786.2,1031.1z"/>
	<path class="st9" d="M802.7,1032.9l-2.1-5.5l-2.1,5.5h-0.3l-2.9-7.5h1.1l2.1,5.4l2.1-5.6h0.1l2.1,5.6l2.1-5.4h1.1l-2.9,7.5H802.7z"
		/>
	<path class="st9" d="M813.4,1031.6c-0.5,0.7-1.6,1.2-3,1.2c-2.2,0-3.7-1.5-3.7-3.8c0-2.3,1.5-3.9,3.7-3.9c2.3,0,3.3,1.8,3.3,3.6
		v0.3h-6c0,1.8,1.2,2.9,2.9,2.9c1.3,0,2-0.6,2.3-1L813.4,1031.6z M812.6,1028.3c-0.1-1.2-0.9-2.2-2.3-2.2c-1.3,0-2.4,0.8-2.6,2.2
		H812.6z"/>
	<path class="st9" d="M821.7,1031.6c-0.5,0.7-1.6,1.2-3,1.2c-2.2,0-3.7-1.5-3.7-3.8c0-2.3,1.5-3.9,3.7-3.9c2.3,0,3.3,1.8,3.3,3.6
		v0.3h-6c0,1.8,1.2,2.9,2.9,2.9c1.3,0,2-0.6,2.3-1L821.7,1031.6z M820.8,1028.3c-0.1-1.2-0.9-2.2-2.3-2.2c-1.3,0-2.4,0.8-2.6,2.2
		H820.8z"/>
	<path class="st9" d="M828.3,1032.6l-3.7-3.6v3.6h-1v-12.4h1v8.1l2.9-3h1.3l-3.2,3.2l4.1,4H828.3z"/>
</g>
<g>
	<path class="st9" d="M362.7,986.9v-10.2l-1.9,0.8l-0.3-0.8l3.2-1.4v11.7H362.7z"/>
	<path class="st9" d="M366.5,981.2c0-2.4,0.6-5.9,3.9-5.9c3.3,0,3.9,3.3,3.9,5.9c0,2.5-0.6,5.8-3.9,5.8
		C367,987,366.5,983.6,366.5,981.2z M373.2,981.2c0-1.8-0.3-4.9-2.9-4.9c-2.5,0-2.8,3-2.8,4.9c0,1.6,0.3,4.9,2.8,4.9
		C372.9,986.1,373.2,982.8,373.2,981.2z"/>
	<path class="st9" d="M376.4,981.2c0-2.4,0.6-5.9,3.9-5.9c3.3,0,3.9,3.3,3.9,5.9c0,2.5-0.6,5.8-3.9,5.8
		C376.9,987,376.4,983.6,376.4,981.2z M383.1,981.2c0-1.8-0.3-4.9-2.9-4.9c-2.5,0-2.8,3-2.8,4.9c0,1.6,0.3,4.9,2.8,4.9
		C382.8,986.1,383.1,982.8,383.1,981.2z"/>
</g>
<g>
	<path class="st9" d="M360.5,956.8v-0.3c1.5-1.3,6.3-4.8,6.3-8c0-1.3-0.9-2.3-2.2-2.3c-1.1,0-2,0.8-2.4,1.3l-0.6-0.7
		c0.4-0.5,1.5-1.5,3.1-1.5c1.9,0,3.2,1.4,3.2,3.3c0,2.8-3.2,5.6-5.3,7.3l5.7,0v1H360.5z"/>
	<path class="st9" d="M370.1,951.2c0-2.4,0.6-5.9,3.9-5.9c3.3,0,3.9,3.3,3.9,5.9c0,2.5-0.6,5.8-3.9,5.8
		C370.7,957,370.1,953.6,370.1,951.2z M376.9,951.2c0-1.8-0.3-4.9-2.9-4.9c-2.5,0-2.8,3-2.8,4.9c0,1.6,0.3,4.9,2.8,4.9
		C376.6,956.1,376.9,952.8,376.9,951.2z"/>
	<path class="st9" d="M380,951.2c0-2.4,0.6-5.9,3.9-5.9c3.3,0,3.9,3.3,3.9,5.9c0,2.5-0.6,5.8-3.9,5.8C380.6,957,380,953.6,380,951.2
		z M386.8,951.2c0-1.8-0.3-4.9-2.9-4.9c-2.5,0-2.8,3-2.8,4.9c0,1.6,0.3,4.9,2.8,4.9C386.5,956.1,386.8,952.8,386.8,951.2z"/>
</g>
<g>
	<path class="st9" d="M361.1,925c0.2,0.3,1.1,1.1,2.6,1.1c1.9,0,2.7-1.2,2.7-2.4c0-1.5-1.2-2.9-3.3-2.9v-0.5
		c1.9-0.1,2.9-1.2,2.9-2.3c0-1-0.7-1.7-2-1.7c-0.7,0-1.4,0.2-1.9,0.6l-0.3-0.8c0.3-0.3,1.3-0.8,2.4-0.8c1.8,0,2.9,1.3,2.9,2.6
		c0,1-0.5,1.9-1.8,2.5v0c1.5,0.6,2.3,1.9,2.3,3.2c0,1.7-1.3,3.3-3.8,3.3c-1.8,0-2.8-0.9-3.1-1.2L361.1,925z"/>
	<path class="st9" d="M369.6,921.2c0-2.4,0.6-5.9,3.9-5.9c3.3,0,3.9,3.3,3.9,5.9c0,2.5-0.6,5.8-3.9,5.8
		C370.2,927,369.6,923.6,369.6,921.2z M376.3,921.2c0-1.8-0.3-4.9-2.9-4.9c-2.5,0-2.8,3-2.8,4.9c0,1.6,0.3,4.9,2.8,4.9
		C376.1,926.1,376.3,922.8,376.3,921.2z"/>
	<path class="st9" d="M379.5,921.2c0-2.4,0.6-5.9,3.9-5.9c3.3,0,3.9,3.3,3.9,5.9c0,2.5-0.6,5.8-3.9,5.8
		C380.1,927,379.5,923.6,379.5,921.2z M386.2,921.2c0-1.8-0.3-4.9-2.9-4.9c-2.5,0-2.8,3-2.8,4.9c0,1.6,0.3,4.9,2.8,4.9
		C386,926.1,386.2,922.8,386.2,921.2z"/>
</g>
<g>
	<path class="st9" d="M366.2,896.9v-2.3h-5.7v-0.3l6.6-9.2h0.2v8.5h1.5v0.9h-1.5v2.3H366.2z M366.2,887.7l-4.1,5.9h4.1V887.7z"/>
	<path class="st9" d="M370.6,891.2c0-2.4,0.6-5.9,3.9-5.9c3.3,0,3.9,3.3,3.9,5.9c0,2.5-0.6,5.8-3.9,5.8
		C371.2,897,370.6,893.6,370.6,891.2z M377.3,891.2c0-1.8-0.3-4.9-2.9-4.9c-2.5,0-2.8,3-2.8,4.9c0,1.6,0.3,4.9,2.8,4.9
		C377,896.1,377.3,892.8,377.3,891.2z"/>
	<path class="st9" d="M380.5,891.2c0-2.4,0.6-5.9,3.9-5.9c3.3,0,3.9,3.3,3.9,5.9c0,2.5-0.6,5.8-3.9,5.8
		C381.1,897,380.5,893.6,380.5,891.2z M387.2,891.2c0-1.8-0.3-4.9-2.9-4.9c-2.5,0-2.8,3-2.8,4.9c0,1.6,0.3,4.9,2.8,4.9
		C387,896.1,387.2,892.8,387.2,891.2z"/>
</g>
<g>
	<path class="st9" d="M361.1,865.2c0.7,0.5,1.6,0.8,2.4,0.8c2.1,0,3-1.4,3-2.8c0-1.4-1-2.7-3-2.7c-0.5,0-1.1,0.1-1.8,0.3l1.5-5.3
		h4.2l-0.3,0.9h-3.2l-0.9,3.3c0.3,0,0.6-0.1,0.9-0.1c2.1,0,3.7,1.4,3.7,3.5c0,2-1.3,3.9-4,3.9c-1.4,0-2.6-0.6-3-0.9L361.1,865.2z"/>
	<path class="st9" d="M369.6,861.1c0-2.4,0.6-5.9,3.9-5.9c3.3,0,3.9,3.3,3.9,5.9c0,2.5-0.6,5.8-3.9,5.8
		C370.1,867,369.6,863.6,369.6,861.1z M376.3,861.1c0-1.8-0.3-4.9-2.9-4.9c-2.5,0-2.8,3-2.8,4.9c0,1.6,0.3,4.9,2.8,4.9
		C376,866.1,376.3,862.8,376.3,861.1z"/>
	<path class="st9" d="M379.5,861.1c0-2.4,0.6-5.9,3.9-5.9c3.3,0,3.9,3.3,3.9,5.9c0,2.5-0.6,5.8-3.9,5.8
		C380,867,379.5,863.6,379.5,861.1z M386.2,861.1c0-1.8-0.3-4.9-2.9-4.9c-2.5,0-2.8,3-2.8,4.9c0,1.6,0.3,4.9,2.8,4.9
		C385.9,866.1,386.2,862.8,386.2,861.1z"/>
</g>
<g>
	<path class="st9" d="M366.2,825.9c-0.8,0.8-2.3,2.8-3.2,4.5c0.4-0.5,1.3-0.6,1.8-0.6c2.2,0,3.8,1.7,3.8,3.7c0,1.9-1.6,3.6-3.7,3.6
		c-2.2,0-3.8-1.7-3.8-3.6c0-2.9,3.4-7,4.5-8.2L366.2,825.9z M364.8,830.7c-1.6,0-2.7,1.2-2.7,2.8c0,1.5,1.2,2.6,2.7,2.6
		c1.6,0,2.6-1.2,2.6-2.6C367.4,832,366.4,830.7,364.8,830.7z"/>
	<path class="st9" d="M370.3,831.1c0-2.4,0.6-5.9,3.9-5.9c3.3,0,3.9,3.3,3.9,5.9c0,2.5-0.6,5.8-3.9,5.8
		C370.9,837,370.3,833.6,370.3,831.1z M377,831.1c0-1.8-0.3-4.9-2.9-4.9c-2.5,0-2.8,3-2.8,4.9c0,1.6,0.3,4.9,2.8,4.9
		C376.8,836.1,377,832.8,377,831.1z"/>
	<path class="st9" d="M380.2,831.1c0-2.4,0.6-5.9,3.9-5.9c3.3,0,3.9,3.3,3.9,5.9c0,2.5-0.6,5.8-3.9,5.8
		C380.8,837,380.2,833.6,380.2,831.1z M386.9,831.1c0-1.8-0.3-4.9-2.9-4.9c-2.5,0-2.8,3-2.8,4.9c0,1.6,0.3,4.9,2.8,4.9
		C386.7,836.1,386.9,832.8,386.9,831.1z"/>
</g>
<g>
	<rect x="316.6" y="226.7" class="st3" width="566.6" height="167.6"/>
</g>
<g>
	<rect x="316.6" y="181.9" class="st10" width="566.6" height="44.7"/>
</g>
<g>
	<path class="st8" d="M533.9,212.4v-13.3h-4.7v-2.7h12.5v2.7h-4.7v13.3H533.9z"/>
	<path class="st8" d="M548.6,201.6h2.8v9.6c-1.3,1.1-2.9,1.5-4.8,1.5c-2.9,0-4.9-1.4-4.9-4.2v-6.9h2.8v6.3c0,2.1,1.2,2.6,2.4,2.6
		c0.9,0,1.5-0.3,1.8-0.5V201.6z"/>
	<path class="st8" d="M553.9,212.4v-10.8h2.7v1.7c0.3-0.5,1.1-2,2.4-2c1,0,1.5,0.3,1.9,0.5l-1,2.6c-0.3-0.2-0.8-0.5-1.5-0.5
		c-1.2,0-1.9,1.5-1.9,2.6v6H553.9z"/>
	<path class="st8" d="M562.2,198.1c0-1,0.7-1.7,1.7-1.7c1.1,0,1.7,0.7,1.7,1.7c0,1-0.7,1.7-1.7,1.7
		C562.9,199.8,562.2,199.1,562.2,198.1z M562.5,212.4v-10.8h2.8v10.8H562.5z"/>
	<path class="st8" d="M575,212.4v-5.8c0-1.8-0.2-2.9-1.9-2.9c-1,0-2,0.8-2.3,1.2v7.5H568v-10.8h2.8v1.1c0.5-0.5,1.8-1.4,3.4-1.4
		c2.3,0,3.6,1.2,3.6,3.9v7.2H575z"/>
	<path class="st8" d="M587.6,211.6c-0.7,0.7-1.9,1.2-2.7,1.2c-2.6,0-5.1-2.2-5.1-5.7c0-3.7,2.9-5.7,6-5.7c2.2,0,3.5,0.5,4.6,1v10.6
		c0,4.1-2.8,5.3-5.2,5.3c-2.5,0-4.3-0.8-5-1.3l1.1-2.1c0.5,0.4,1.9,1.1,3.8,1.1c1.4,0,2.5-0.7,2.5-2.6V211.6z M587.6,203.9
		c-0.4-0.2-1-0.3-1.7-0.3c-1.6,0-3.2,1-3.2,3.4c0,1.5,0.8,3.4,2.6,3.4c1.1,0,1.9-0.5,2.2-1.2V203.9z"/>
	<path class="st8" d="M607.1,206.4v-2.6h7.2c0,6.8-3.9,9.1-7.7,9.1c-4.9,0-8.9-3.6-8.9-8.3c0-4.9,3.7-8.5,8.6-8.5
		c3.9,0,6.1,2,6.2,2.1l-1.5,2.3c-0.1-0.1-1.8-1.6-4.7-1.6c-3.4,0-5.5,2.5-5.5,5.7c0,3,2.3,5.6,5.8,5.6c2.4,0,4.4-1.6,4.5-3.7H607.1z
		"/>
	<path class="st8" d="M616.2,212.4v-10.8h2.8v1.7c0.3-0.5,1.1-2,2.4-2c1,0,1.5,0.3,1.9,0.5l-1,2.6c-0.3-0.2-0.8-0.5-1.5-0.5
		c-1.2,0-1.9,1.5-1.9,2.6v6H616.2z"/>
	<path class="st8" d="M629.5,212.7c-3.3,0-5.9-2.5-5.9-5.7c0-3.2,2.6-5.8,5.9-5.8c3.3,0,5.8,2.6,5.8,5.8
		C635.4,210.2,632.8,212.7,629.5,212.7z M632.5,207c0-2.1-1.3-3.5-2.9-3.5c-1.7,0-3,1.5-3,3.6c0,2,1.4,3.5,2.9,3.5
		C631.3,210.6,632.5,209.2,632.5,207z"/>
	<path class="st8" d="M644.3,201.6h2.8v9.6c-1.3,1.1-2.9,1.5-4.8,1.5c-2.9,0-4.9-1.4-4.9-4.2v-6.9h2.8v6.3c0,2.1,1.2,2.6,2.4,2.6
		c0.9,0,1.5-0.3,1.8-0.5V201.6z"/>
	<path class="st8" d="M649.7,217.8v-15.3c1.5-0.8,3.3-1.2,4.8-1.2c3,0,5.9,1.9,5.9,5.7c0,3-1.9,5.7-5.3,5.7c-0.8,0-2-0.4-2.7-0.9v6
		H649.7z M652.5,209.2c0.7,1,1.6,1.2,2.5,1.2c1.4,0,2.5-1.4,2.5-3.4c0-1.9-1.2-3.4-3.2-3.4c-0.6,0-1.4,0.1-1.9,0.4V209.2z"/>
</g>
<g>
	<path class="st9" d="M538.8,302.9c1.4,1.3,3.8,2.8,6.8,2.8c2.7,0,4.1-1.3,4.1-3.2c0-5.6-11.7-4.7-11.7-12.7c0-4.7,4.2-7.2,8.6-7.2
		c4.1,0,6.9,2.5,7.5,3.1l-2.4,3.7c-1.4-1.4-3.3-2.3-5-2.3s-3.5,0.8-3.5,2.6c0,4.6,11.8,3.6,11.8,12.9c0,4.1-3.6,7.7-9.7,7.7
		c-3.8,0-7.5-2.3-9-3.8L538.8,302.9z"/>
	<path class="st9" d="M564,293.6l0.1,16.1h-4.9l0.1-27l19.3,17.5l0-16.7h4.9l-0.1,27.3L564,293.6z"/>
	<path class="st9" d="M607.6,309.6l-2.3-4.8h-11.9l-2.3,4.8h-5.5l13.8-27.4l13.8,27.4H607.6z M599.4,292.3l-3.9,8.3h7.9L599.4,292.3
		z"/>
	<path class="st9" d="M615.4,309.6v-26.3h5.9c6.6,0,11.4,2,11.4,8.5c0,5.2-3.3,8.7-10.5,8.7h-1.8v9.1H615.4z M622.1,296
		c3.6,0,5.4-1.6,5.4-4.2c0-2.4-1.5-4-4.8-4h-2.3v8.2H622.1z"/>
	<path class="st9" d="M637.1,302.9c1.4,1.3,3.8,2.8,6.8,2.8c2.7,0,4.1-1.3,4.1-3.2c0-5.6-11.7-4.7-11.7-12.7c0-4.7,4.2-7.2,8.6-7.2
		c4.1,0,6.9,2.5,7.5,3.1l-2.4,3.7c-1.4-1.4-3.3-2.3-5-2.3c-1.8,0-3.5,0.8-3.5,2.6c0,4.6,11.8,3.6,11.8,12.9c0,4.1-3.6,7.7-9.7,7.7
		c-3.8,0-7.5-2.3-9-3.8L637.1,302.9z"/>
</g>
<g>
	<rect x="357.9" y="255.1" class="st9" width="153.4" height="98.2"/>
</g>
<g>
	<rect x="357.9" y="344.8" class="st1" width="153.4" height="8.5"/>
</g>
<g>
	<path class="st8" d="M399.3,320v-3.9c2.9-1.3,8.4-5.3,11.5-8.7c3.9-4.3,5.5-7.7,5.5-11.6c0-2.9-1.9-5.3-4.9-5.3
		c-3.2,0-5.8,2.1-7.1,3.7l-3-4c1.7-1.7,5.5-4.8,10.7-4.8c6.4,0,10.9,4.7,10.9,10.5c0,6.2-5.1,11.6-7.7,14.2
		c-1.7,1.8-3.8,3.5-5.3,4.8l14.2,0v5.2H399.3z"/>
	<path class="st8" d="M434.6,320.2v-27l-5.8,1.7l-1.8-4.5l13.8-5.4v35.2H434.6z"/>
	<path class="st8" d="M448.1,312.7c1.5,1.3,4.4,2.7,7.1,2.7c4.8,0,7.2-2.9,7.2-6.5c0-3.4-2-6.7-7.2-6.7c-1.8,0-3.6,0.2-6.4,1.1
		l4.6-17.3h14.8l-1.5,4.8h-9.3l-1.9,7.3c0.8-0.1,1.5-0.2,2.4-0.2c6.1,0,11.3,4.7,11.3,10.8c0,6.3-3.9,11.8-12.7,11.8
		c-4.7,0-8.9-2.1-10.3-3L448.1,312.7z"/>
</g>
<g>
	<rect x="682.7" y="255.1" class="st9" width="158" height="98.2"/>
</g>
<g>
	<path class="st8" d="M716.5,320.2v-27l-5.8,1.7l-1.8-4.5l13.8-5.4v35.2H716.5z"/>
	<path class="st8" d="M728.2,320v-3.9c2.9-1.3,8.4-5.3,11.5-8.7c3.9-4.3,5.5-7.7,5.5-11.6c0-2.9-1.9-5.3-4.9-5.3
		c-3.2,0-5.8,2.1-7.1,3.7l-3-4c1.7-1.7,5.5-4.8,10.7-4.8c6.4,0,10.9,4.7,10.9,10.5c0,6.2-5.1,11.6-7.7,14.2
		c-1.7,1.8-3.8,3.5-5.3,4.8l14.2,0v5.2H728.2z"/>
	<path class="st8" d="M775.9,288.7c-1.3,1.5-5.8,6.1-8.2,10c1.4-0.4,2.7-0.6,3.9-0.6c6.3,0,10.5,5.1,10.5,11.4
		c0,5.9-5.3,11.2-12.3,11.2c-7.2,0-12.5-5.3-12.5-11.9c0-9.1,12.4-21.8,14.3-23.8L775.9,288.7z M775.6,309.5c0-3.4-2.3-6.4-5.9-6.4
		c-3.5,0-6,2.8-6,6.4c0,3.4,2.7,6.1,6.1,6.1C773.3,315.6,775.6,312.7,775.6,309.5z"/>
	<path class="st8" d="M786.7,303c0-7.1,1.9-17.7,12.8-17.7c11.1,0,13,10.1,13,17.7c0,7.5-2,17.7-13,17.7
		C788.6,320.7,786.7,310.3,786.7,303z M806.1,303c0-4.5-0.7-12.6-6.6-12.6c-5.7,0-6.4,7.8-6.4,12.6c0,4.1,0.8,12.6,6.5,12.6
		C805.5,315.6,806.1,307.2,806.1,303z"/>
</g>
<g>
	<rect x="682.7" y="344.8" class="st1" width="158" height="8.5"/>
</g>
<g>
	<path class="st1" d="M736.1,371.5l-1-2.1h-5.2l-1,2.1h-2.4l6-11.9l6,11.9H736.1z M732.5,364l-1.7,3.6h3.4L732.5,364z"/>
	<path class="st1" d="M739.5,371.5v-11.4h2.1v9.5h4.8v1.9H739.5z"/>
	<path class="st1" d="M747.9,371.5v-11.4h2.1v9.5h4.8v1.9H747.9z"/>
	<path class="st1" d="M762.2,371.5V362h-3.4v-1.9h8.9v1.9h-3.4v9.5H762.2z"/>
	<path class="st1" d="M769.2,371.5v-11.4h2.1v11.4H769.2z"/>
	<path class="st1" d="M784.5,371.5l-0.6-5.8l-3.9,6.3l-3.9-6.2l-0.6,5.7h-2.3l1.6-11.7l5.2,8.3l5.2-8.3l1.6,11.7H784.5z"/>
	<path class="st1" d="M788.7,371.5v-11.4h6.8v1.9h-4.7v2.5h3.7v1.9h-3.7v3.1h5.1v1.9H788.7z"/>
</g>
<g>
	<path class="st1" d="M396.1,371.5V362h-3.4v-1.9h8.9v1.9h-3.4v9.5H396.1z"/>
	<path class="st1" d="M410.4,371.5v-4.9h-5.2v4.9h-2.1v-11.4h2.1v4.6h5.2v-4.6h2.1v11.4H410.4z"/>
	<path class="st1" d="M415,371.5v-11.4h2.1v11.4H415z"/>
	<path class="st1" d="M419.9,368.6c0.6,0.5,1.7,1.2,2.9,1.2c1.2,0,1.8-0.5,1.8-1.4c0-2.4-5.1-2-5.1-5.5c0-2,1.8-3.1,3.7-3.1
		c1.8,0,3,1.1,3.2,1.3l-1,1.6c-0.6-0.6-1.4-1-2.2-1s-1.5,0.3-1.5,1.1c0,2,5.1,1.6,5.1,5.6c0,1.8-1.6,3.3-4.2,3.3
		c-1.6,0-3.3-1-3.9-1.6L419.9,368.6z"/>
	<path class="st1" d="M439.3,364.4l-3.5,7.6l-4.9-12h2.4l2.6,7l3.4-7.5l3.4,7.5l2.6-7h2.4l-4.8,12L439.3,364.4z"/>
	<path class="st1" d="M448.7,371.5v-11.4h6.8v1.9h-4.7v2.5h3.7v1.9h-3.7v3.1h5.1v1.9H448.7z"/>
	<path class="st1" d="M457.8,371.5v-11.4h6.8v1.9h-4.7v2.5h3.7v1.9h-3.7v3.1h5.1v1.9H457.8z"/>
	<path class="st1" d="M473.9,371.5l-4.8-4.4v4.4h-2.1v-11.4h2.1v4.4l4.1-4.4h2.8l-5.5,5.6l6.6,5.9H473.9z"/>
</g>
<g>
	<path class="st8" d="M547,334.5v-16h3v16H547z"/>
	<path class="st8" d="M556.4,324.7l0,9.8h-3l0-16.5l11.8,10.6l0-10.2h3l0,16.6L556.4,324.7z"/>
	<path class="st8" d="M580,334.5v-13.3h-4.7v-2.7h12.5v2.7H583v13.3H580z"/>
	<path class="st8" d="M597.1,334.9c-4.9,0-8.8-3.8-8.8-8.4c0-4.6,3.9-8.4,8.8-8.4c4.8,0,8.7,3.6,8.7,8.4
		C605.8,331.1,601.8,334.9,597.1,334.9z M597.1,320.9c-3.1,0-5.6,2.5-5.6,5.6c0,3,2.5,5.8,5.5,5.8c3.2,0,5.7-2.5,5.7-5.6
		C602.6,323.3,600.1,320.9,597.1,320.9z"/>
	<path class="st8" d="M611.1,334.5v-13.3h-4.7v-2.7h12.5v2.7h-4.7v13.3H611.1z"/>
	<path class="st8" d="M630.9,334.5l-1.4-2.9h-7.3l-1.4,2.9h-3.3l8.4-16.7l8.4,16.7H630.9z M625.8,324l-2.4,5.1h4.8L625.8,324z"/>
	<path class="st8" d="M635.6,334.5v-16h3v13.3h6.7v2.7H635.6z"/>
</g>
<g>
	<rect x="316.6" y="474.6" class="st10" width="566.6" height="253.1"/>
</g>
<g>
	<rect x="316.6" y="429.9" class="st3" width="566.6" height="44.7"/>
</g>
<g>
	<path class="st8" d="M520.5,460.3v-16h3v13.3h6.7v2.7H520.5z"/>
	<path class="st8" d="M532.2,460.3v-16h9.5v2.7h-6.5v3.4h5.2v2.7h-5.2v4.4h7.2v2.7H532.2z"/>
	<path class="st8" d="M556.3,460.4l-1.4-2.9h-7.3l-1.4,2.9h-3.3l8.4-16.7l8.4,16.7H556.3z M551.3,449.8l-2.4,5.1h4.8L551.3,449.8z"
		/>
	<path class="st8" d="M561,460.4v-16h4.9c4.8,0,8.7,2.8,8.7,8c0,5.1-3.6,8-9.2,8H561z M565.9,457.6c3,0,5.5-1.4,5.5-5.3
		c0-3-2.1-5.2-5.1-5.2H564v10.6H565.9z"/>
	<path class="st8" d="M577.2,460.3v-16h9.5v2.7h-6.5v3.4h5.2v2.7h-5.2v4.4h7.2v2.7H577.2z"/>
	<path class="st8" d="M599.2,460.4l-6-6h-0.3v6h-3v-16h3.3c3.1,0,7.2,0.6,7.2,4.9c0,3-1.8,4.3-3.8,4.8l6.8,6.2H599.2z M593.9,451.7
		c2.3,0,3.3-0.8,3.3-2.4c0-1.3-1-2.2-3.2-2.2h-1.1v4.6H593.9z"/>
	<path class="st8" d="M604.1,460.4v-16h3.9c3.3,0,6.1,0.9,6.1,4.2c0,1.4-1.3,2.7-2.3,3.1c1.5,0.3,3.6,1.7,3.6,3.9
		c0,3-2.2,4.8-6.6,4.8H604.1z M608.3,450.8c1.6,0,2.6-0.7,2.6-1.9c0-1.4-1-1.8-2.3-1.8h-1.5v3.7H608.3z M609.4,457.6
		c2,0,2.8-0.8,2.8-2.2c0-1-1.1-1.9-3-1.9h-2.2v4.1H609.4z"/>
	<path class="st8" d="M625.7,460.7c-4.9,0-8.8-3.8-8.8-8.4c0-4.6,3.9-8.4,8.8-8.4c4.8,0,8.7,3.6,8.7,8.4
		C634.5,457,630.4,460.7,625.7,460.7z M625.7,446.7c-3.1,0-5.6,2.5-5.6,5.6c0,3,2.5,5.8,5.5,5.8c3.2,0,5.7-2.5,5.7-5.6
		C631.2,449.1,628.7,446.7,625.7,446.7z"/>
	<path class="st8" d="M647.7,460.4l-1.4-2.9H639l-1.4,2.9h-3.3l8.4-16.7l8.4,16.7H647.7z M642.6,449.8l-2.4,5.1h4.8L642.6,449.8z"/>
	<path class="st8" d="M661.7,460.4l-6-6h-0.3v6h-3v-16h3.3c3.1,0,7.2,0.6,7.2,4.9c0,3-1.8,4.3-3.8,4.8l6.8,6.2H661.7z M656.4,451.7
		c2.3,0,3.3-0.8,3.3-2.4c0-1.3-1-2.2-3.2-2.2h-1.1v4.6H656.4z"/>
	<path class="st8" d="M666.6,460.4v-16h4.9c4.8,0,8.7,2.8,8.7,8c0,5.1-3.6,8-9.2,8H666.6z M671.4,457.6c3,0,5.5-1.4,5.5-5.3
		c0-3-2.1-5.2-5.1-5.2h-2.2v10.6H671.4z"/>
</g>
<g>
	<rect x="331.2" y="514" class="st9" width="261" height="196.2"/>
</g>
<g>
	<rect x="607.3" y="514" class="st9" width="261.3" height="196.2"/>
</g>
<g>
	<path class="st3" d="M556.5,553.9v-2.3H550v-1.6l7.2-10.4h1.7v10.1l2,0v2h-2v2.3H556.5z M556.5,544.2l-3.8,5.5l3.8,0V544.2z"/>
	<path class="st3" d="M562.6,547.1c0-2.8,0.7-7.1,5.1-7.1c4.4,0,5.2,4,5.2,7.1c0,3-0.8,7.1-5.2,7.1S562.6,550,562.6,547.1z
		 M570.4,547.1c0-1.8-0.3-5-2.6-5c-2.3,0-2.6,3.1-2.6,5c0,1.6,0.3,5,2.6,5C570.2,552.1,570.4,548.7,570.4,547.1z"/>
</g>
<g>
	<path class="st3" d="M370.9,553.9v-10.8l-2.3,0.7l-0.7-1.8l5.5-2.2v14.1H370.9z"/>
	<path class="st3" d="M377.4,554.1c-0.8,0-1.4-0.7-1.4-1.4c0-0.8,0.7-1.4,1.4-1.4c0.8,0,1.5,0.6,1.5,1.4
		C378.8,553.4,378.2,554.1,377.4,554.1z"/>
</g>
<g>
	<path class="st3" d="M405.6,553.9v-6.4h-7.5v6.4h-1.3v-13.7h1.3v6.1h7.5v-6.1h1.3v13.7H405.6z"/>
	<path class="st3" d="M416,545.1h1.2v7.7c-0.9,0.8-2.1,1.2-3.7,1.2c-2.2,0-3.7-1.1-3.7-3.4v-5.6h1.2v5.3c0,1.8,1,2.6,2.5,2.6
		c1.2,0,2-0.4,2.4-0.7V545.1z"/>
	<path class="st3" d="M426.5,552.7c-0.7,0.9-1.9,1.4-3,1.4c-2.1,0-4.2-1.7-4.2-4.6c0-3,2.3-4.6,4.8-4.6c1.8,0,3,0.6,3.6,1.1v8.3
		c0,3.3-2.1,4.3-4.1,4.3c-1.3,0-2.5-0.4-3.5-1l0.5-0.9c0.8,0.5,2,0.9,3,0.9c1.3,0,2.8-0.5,2.8-3.1V552.7z M426.5,546.6
		c-0.3-0.2-1.2-0.7-2.4-0.7c-1.8,0-3.5,1.1-3.5,3.6c0,1.6,0.9,3.5,3.2,3.5c1,0,2.2-0.7,2.7-1.6V546.6z"/>
	<path class="st3" d="M434.5,554.1c-2.6,0-4.7-2-4.7-4.6s2-4.6,4.7-4.6c2.6,0,4.6,2.1,4.6,4.6C439.1,552.1,437.1,554.1,434.5,554.1z
		 M437.8,549.5c0-2-1.6-3.6-3.4-3.6c-2,0-3.4,1.5-3.4,3.6c0,2,1.6,3.5,3.4,3.5C436.5,553,437.8,551.6,437.8,549.5z"/>
	<path class="st3" d="M446.1,553.9v-13.7h7v1.2h-5.7v4.6h4.6v1.2h-4.6v6.7H446.1z"/>
	<path class="st3" d="M461.6,552.6c-0.6,0.8-1.9,1.5-3.6,1.5c-2.6,0-4.5-1.8-4.5-4.6c0-2.7,1.8-4.6,4.4-4.6c2.7,0,3.9,2.1,3.9,4.4
		v0.3h-7.2c0,2.2,1.4,3.5,3.5,3.5c1.5,0,2.4-0.7,2.8-1.1L461.6,552.6z M460.6,548.6c-0.1-1.5-1.1-2.7-2.8-2.7
		c-1.5,0-2.9,0.9-3.1,2.7H460.6z"/>
	<path class="st3" d="M464,553.9v-8.7h1.2v1.3c0.1-0.4,0.9-1.5,1.9-1.5c0.7,0,1.3,0.3,1.5,0.4l-0.6,1.1c-0.2-0.1-0.5-0.4-1-0.4
		c-1,0-1.7,1.1-1.8,1.8v5.9H464z"/>
	<path class="st3" d="M470.1,553.9v-8.7h1.2v1.3c0.1-0.4,0.9-1.5,1.9-1.5c0.7,0,1.3,0.3,1.5,0.4l-0.6,1.1c-0.2-0.1-0.5-0.4-1-0.4
		c-1,0-1.7,1.1-1.8,1.8v5.9H470.1z"/>
	<path class="st3" d="M482.7,552.9c-0.8,0.8-2.1,1.2-3.8,1.2c-2.5,0-3.7-1.5-3.7-3.2c0-2,2.1-2.8,3.6-2.8c0.9,0,2.1,0.3,2.7,1v-1.2
		c0-1.1-0.8-1.9-2.4-1.9c-1.2,0-2.2,0.4-2.4,0.5l-0.5-0.9c0.6-0.3,1.6-0.7,2.9-0.7c2.8,0,3.6,1.3,3.6,3.3V552.9z M481.5,550.1
		c-0.5-0.5-1.4-1-2.6-1c-1.1,0-2.5,0.6-2.5,1.9c0,1.4,1.2,2.2,2.5,2.2c1.1,0,2-0.3,2.6-0.7V550.1z"/>
	<path class="st3" d="M485.2,553.9v-8.7h1.2v1.3c0.1-0.4,0.9-1.5,1.9-1.5c0.7,0,1.3,0.3,1.5,0.4l-0.6,1.1c-0.2-0.1-0.5-0.4-1-0.4
		c-1,0-1.7,1.1-1.8,1.8v5.9H485.2z"/>
	<path class="st3" d="M495,554.1c-2.6,0-4.7-2-4.7-4.6s2-4.6,4.7-4.6c2.6,0,4.6,2.1,4.6,4.6C499.6,552.1,497.6,554.1,495,554.1z
		 M498.4,549.5c0-2-1.6-3.6-3.4-3.6c-2,0-3.4,1.5-3.4,3.6c0,2,1.6,3.5,3.4,3.5C497,553,498.4,551.6,498.4,549.5z"/>
</g>
<g>
	<path class="st3" d="M557.3,578.5c1.7,0.7,2.5,2.3,2.5,3.9c0,2-1.8,3.9-4.9,3.9c-2.2,0-3.7-1.1-4.1-1.5l1.1-1.7
		c0.4,0.5,1.6,1.2,3,1.2c1.7,0,2.5-1.1,2.5-2.2c0-1.5-1.3-2.8-3.3-2.8c-0.2,0-0.4,0-0.6,0v-1.5c0.2,0,0.4,0.1,0.6,0.1
		c1.5,0,2.6-1,2.6-2c0-1-0.6-1.5-1.8-1.5c-0.7,0-1.7,0.3-2.1,0.6l-0.7-1.8c0.5-0.4,1.8-1,3.3-1c2.3,0,3.8,1.8,3.8,3.3
		C559.2,576.6,558.8,577.7,557.3,578.5L557.3,578.5z"/>
	<path class="st3" d="M561.8,579.3c0-2.8,0.7-7.1,5.1-7.1c4.4,0,5.2,4,5.2,7.1c0,3-0.8,7.1-5.2,7.1
		C562.5,586.4,561.8,582.2,561.8,579.3z M569.5,579.3c0-1.8-0.3-5-2.6-5c-2.3,0-2.6,3.1-2.6,5c0,1.6,0.3,5,2.6,5
		C569.3,584.3,569.5,581,569.5,579.3z"/>
</g>
<g>
	<path class="st3" d="M368.2,586.1v-1.5c1.2-0.5,3.4-2.1,4.6-3.5c1.6-1.7,2.2-3.1,2.2-4.6c0-1.1-0.8-2.1-2-2.1
		c-1.3,0-2.3,0.9-2.8,1.5l-1.2-1.6c0.7-0.7,2.2-1.9,4.3-1.9c2.6,0,4.4,1.9,4.4,4.2c0,2.5-2,4.6-3.1,5.7c-0.7,0.7-1.5,1.4-2.1,1.9
		l5.7,0v2.1H368.2z"/>
	<path class="st3" d="M381.3,586.4c-0.8,0-1.4-0.7-1.4-1.4c0-0.8,0.7-1.4,1.4-1.4c0.8,0,1.5,0.6,1.5,1.4
		C382.7,585.6,382.1,586.4,381.3,586.4z"/>
</g>
<g>
	<path class="st3" d="M394,589.7c2.2-0.9,2.8-1.6,2.8-5v-12.3h1.3v12.4c0,3.9-0.9,4.9-3.6,6.1L394,589.7z"/>
	<path class="st3" d="M408.6,584.9c-0.6,0.8-1.9,1.5-3.6,1.5c-2.6,0-4.5-1.8-4.5-4.5c0-2.7,1.8-4.6,4.4-4.6c2.7,0,3.9,2.1,3.9,4.4
		v0.3h-7.2c0,2.2,1.4,3.5,3.5,3.5c1.5,0,2.4-0.7,2.8-1.1L408.6,584.9z M407.6,580.9c-0.1-1.5-1.1-2.7-2.8-2.7
		c-1.5,0-2.9,0.9-3.1,2.7H407.6z"/>
	<path class="st3" d="M418.5,584.9c-0.6,0.8-1.9,1.5-3.6,1.5c-2.6,0-4.5-1.8-4.5-4.5c0-2.7,1.8-4.6,4.4-4.6c2.7,0,3.9,2.1,3.9,4.4
		v0.3h-7.2c0,2.2,1.4,3.5,3.5,3.5c1.5,0,2.4-0.7,2.8-1.1L418.5,584.9z M417.5,580.9c-0.1-1.5-1.1-2.7-2.8-2.7
		c-1.5,0-2.9,0.9-3.1,2.7H417.5z"/>
	<path class="st3" d="M423.6,586.4l-4-9h1.3l2.4,5.6c0.3,0.8,0.5,1.2,0.5,1.4h0c0-0.2,0.1-0.6,0.5-1.4l2.3-5.6h1.3l-4,9H423.6z"/>
	<path class="st3" d="M433.7,583.6c0.5,0.6,1.6,1.6,3.5,1.6c1.6,0,2.8-1,2.8-2.5c0-3.9-6.3-3-6.3-7.1c0-2.3,1.9-3.5,3.9-3.5
		c1.7,0,3,0.9,3.4,1.4l-0.7,0.9c-0.6-0.6-1.4-1.1-2.6-1.1c-1.3,0-2.6,0.7-2.6,2.2c0,3.3,6.4,2.3,6.4,7.2c0,1.9-1.6,3.7-4.4,3.7
		c-1.9,0-3.6-1-4.2-1.8L433.7,583.6z"/>
	<path class="st3" d="M444.2,575.6c-0.5,0-0.9-0.4-0.9-0.9c0-0.6,0.4-0.9,0.9-0.9c0.5,0,0.9,0.4,0.9,0.9
		C445.1,575.2,444.7,575.6,444.2,575.6z M443.6,586.1v-8.7h1.2v8.7H443.6z"/>
	<path class="st3" d="M453.7,586.1V581c0-1.9-0.6-2.7-2.3-2.7c-1.2,0-2.2,0.7-2.6,1.2v6.7h-1.2v-8.7h1.2v0.9
		c0.5-0.4,1.5-1.2,2.9-1.2c2,0,3.2,1,3.2,3.2v5.7H453.7z"/>
	<path class="st3" d="M464.1,584.9c-0.7,0.9-1.9,1.4-3,1.4c-2.1,0-4.2-1.7-4.2-4.6c0-3,2.3-4.6,4.8-4.6c1.8,0,3,0.6,3.6,1.1v8.3
		c0,3.3-2.1,4.3-4.1,4.3c-1.3,0-2.5-0.4-3.5-1l0.5-0.9c0.8,0.5,2,0.9,3,0.9c1.3,0,2.8-0.5,2.8-3.1V584.9z M464.1,578.8
		c-0.3-0.2-1.2-0.7-2.4-0.7c-1.8,0-3.5,1.1-3.5,3.6c0,1.6,0.9,3.5,3.2,3.5c1,0,2.2-0.7,2.7-1.6V578.8z"/>
	<path class="st3" d="M474.1,586.1V581c0-1.9-0.6-2.7-2.3-2.7c-1.2,0-2.2,0.7-2.6,1.2v6.7H468v-14.9h1.2v7.1
		c0.5-0.4,1.5-1.2,2.9-1.2c2,0,3.2,1,3.2,3.2v5.7H474.1z"/>
</g>
<g>
	<path class="st3" d="M550.5,618.6v-1.5c1.2-0.5,3.4-2.1,4.6-3.5c1.6-1.7,2.2-3.1,2.2-4.6c0-1.1-0.8-2.1-2-2.1
		c-1.3,0-2.3,0.9-2.8,1.5l-1.2-1.6c0.7-0.7,2.2-1.9,4.3-1.9c2.6,0,4.4,1.9,4.4,4.2c0,2.5-2,4.6-3.1,5.7c-0.7,0.7-1.5,1.4-2.1,1.9
		l5.7,0v2.1H550.5z"/>
	<path class="st3" d="M562.3,611.8c0-2.8,0.7-7.1,5.1-7.1c4.4,0,5.2,4,5.2,7.1c0,3-0.8,7.1-5.2,7.1S562.3,614.7,562.3,611.8z
		 M570,611.8c0-1.8-0.3-5-2.6-5c-2.3,0-2.6,3.1-2.6,5c0,1.6,0.3,5,2.6,5C569.8,616.8,570,613.5,570,611.8z"/>
</g>
<g>
	<path class="st3" d="M374.5,610.5c1.7,0.7,2.5,2.3,2.5,3.9c0,2-1.8,3.9-4.9,3.9c-2.2,0-3.7-1.1-4.1-1.5l1.1-1.7
		c0.4,0.5,1.6,1.2,3,1.2c1.7,0,2.5-1.1,2.5-2.2c0-1.5-1.3-2.8-3.3-2.8c-0.2,0-0.4,0-0.6,0v-1.5c0.2,0,0.4,0.1,0.6,0.1
		c1.5,0,2.6-1,2.6-2c0-1-0.6-1.5-1.8-1.5c-0.7,0-1.7,0.3-2.1,0.6l-0.7-1.8c0.5-0.4,1.8-1,3.3-1c2.3,0,3.8,1.8,3.8,3.3
		C376.4,608.6,376,609.7,374.5,610.5L374.5,610.5z"/>
	<path class="st3" d="M380.3,618.3c-0.8,0-1.4-0.7-1.4-1.4c0-0.8,0.7-1.4,1.4-1.4c0.8,0,1.5,0.6,1.5,1.4
		C381.7,617.6,381.1,618.3,380.3,618.3z"/>
</g>
<g>
	<path class="st3" d="M396.8,618.1v-13.7h2.7c2.5,0,4.5,0.7,4.5,3.4c0,1.4-1.1,2.6-2.2,2.9c1.4,0.2,3.4,1.3,3.4,3.5
		c0,2.4-1.7,3.9-4.9,3.9H396.8z M399.2,610.5c2.1,0,3.5-1.1,3.5-2.6c0-1.8-1.2-2.3-2.9-2.3h-1.6v4.9H399.2z M400.5,616.9
		c2.3,0,3.4-1.1,3.4-2.7c0-1.5-1.4-2.6-3.3-2.6h-2.4v5.3H400.5z"/>
	<path class="st3" d="M415.1,616.9c-0.6,0.8-1.9,1.5-3.6,1.5c-2.6,0-4.5-1.8-4.5-4.5c0-2.7,1.8-4.6,4.4-4.6c2.7,0,3.9,2.1,3.9,4.4
		v0.3h-7.2c0,2.2,1.4,3.5,3.5,3.5c1.5,0,2.4-0.7,2.8-1.1L415.1,616.9z M414.1,612.9c-0.1-1.5-1.1-2.7-2.8-2.7
		c-1.5,0-2.9,0.9-3.1,2.7H414.1z"/>
	<path class="st3" d="M418.1,618.1v-7.7h-1.6v-1h1.6v-3.1h1.2v3.1h2.1v1h-2.1v7.7H418.1z"/>
	<path class="st3" d="M422.8,616.2c0.4,0.5,1.2,1.1,2.4,1.1c1,0,1.8-0.5,1.8-1.7c0-1.9-4.2-1.8-4.2-4.2c0-1.3,1.1-2.3,2.7-2.3
		c1.1,0,2.1,0.5,2.6,1l-0.5,0.9c-0.2-0.2-1-0.9-2-0.9c-1.1,0-1.5,0.7-1.5,1.3c0,1.7,4.2,1.4,4.2,4.3c0,1.6-1.3,2.7-3.1,2.7
		c-1.5,0-2.5-0.7-3.1-1.3L422.8,616.2z"/>
	<path class="st3" d="M430,622.8l2.8-5.5l-3.6-7.9h1.3l2.9,6.7l3.2-6.7h1.3l-6.7,13.4H430z"/>
	<path class="st3" d="M457.4,618.1l-0.9-9.5c0-0.1,0-0.5,0-0.6c0,0.1-0.2,0.4-0.2,0.5l-5.1,10.1l-5.1-10.1c-0.1-0.2-0.2-0.3-0.2-0.5
		c0,0.2,0,0.4,0,0.6l-0.9,9.5h-1.4l1.5-14.1l5.9,11.2c0.1,0.1,0.2,0.5,0.3,0.7c0-0.2,0.2-0.6,0.3-0.7l5.8-11.2l1.5,14.1H457.4z"/>
	<path class="st3" d="M468,617.1c-0.8,0.8-2.1,1.2-3.8,1.2c-2.5,0-3.7-1.5-3.7-3.2c0-2,2.1-2.8,3.6-2.8c0.9,0,2.1,0.3,2.7,1v-1.2
		c0-1.1-0.8-1.9-2.4-1.9c-1.2,0-2.2,0.4-2.4,0.5l-0.5-0.9c0.6-0.3,1.6-0.7,2.9-0.7c2.8,0,3.6,1.3,3.6,3.3V617.1z M466.8,614.3
		c-0.5-0.5-1.4-1-2.6-1c-1.1,0-2.5,0.6-2.5,1.9c0,1.4,1.2,2.2,2.5,2.2c1.1,0,2-0.3,2.6-0.7V614.3z"/>
	<path class="st3" d="M470.5,618.1v-8.7h1.2v1.3c0.1-0.4,0.9-1.5,1.9-1.5c0.7,0,1.3,0.3,1.5,0.4l-0.6,1.1c-0.2-0.1-0.5-0.4-1-0.4
		c-1,0-1.7,1.1-1.8,1.8v5.9H470.5z"/>
	<path class="st3" d="M476.2,616.2c0.4,0.5,1.2,1.1,2.4,1.1c1,0,1.8-0.5,1.8-1.7c0-1.9-4.2-1.8-4.2-4.2c0-1.3,1.1-2.3,2.7-2.3
		c1.1,0,2.1,0.5,2.6,1L481,611c-0.2-0.2-1-0.9-2-0.9c-1.1,0-1.5,0.7-1.5,1.3c0,1.7,4.2,1.4,4.2,4.3c0,1.6-1.3,2.7-3.1,2.7
		c-1.5,0-2.5-0.7-3.1-1.3L476.2,616.2z"/>
	<path class="st3" d="M490,618.1v-5.1c0-1.9-0.6-2.7-2.3-2.7c-1.2,0-2.2,0.7-2.6,1.2v6.7h-1.2v-14.9h1.2v7.1
		c0.5-0.4,1.5-1.2,2.9-1.2c2,0,3.2,1,3.2,3.2v5.7H490z"/>
</g>
<g>
	<path class="st3" d="M556.1,650.7v-10.8l-2.3,0.7l-0.7-1.8l5.5-2.2v14.1H556.1z"/>
	<path class="st3" d="M561.5,647.7c0.6,0.5,1.7,1.1,2.8,1.1c1.9,0,2.9-1.2,2.9-2.6c0-1.4-0.8-2.7-2.9-2.7c-0.7,0-1.4,0.1-2.6,0.5
		l1.8-6.9h5.9l-0.6,1.9h-3.7l-0.8,2.9c0.3-0.1,0.6-0.1,1-0.1c2.4,0,4.5,1.9,4.5,4.3c0,2.5-1.5,4.7-5.1,4.7c-1.9,0-3.6-0.8-4.1-1.2
		L561.5,647.7z"/>
</g>
<g>
	<path class="st3" d="M374.6,650.7v-2.3H368v-1.6l7.2-10.4h1.7v10.1l2,0v2h-2v2.3H374.6z M374.6,640.9l-3.8,5.5l3.8,0V640.9z"/>
	<path class="st3" d="M382,650.9c-0.8,0-1.4-0.7-1.4-1.4c0-0.8,0.7-1.4,1.4-1.4c0.8,0,1.5,0.6,1.5,1.4
		C383.4,650.1,382.8,650.9,382,650.9z"/>
</g>
<g>
	<path class="st3" d="M394.9,636.9h1.5l4.3,10.6c0.1,0.2,0.1,0.5,0.1,0.7c0-0.2,0-0.5,0.1-0.7l4.3-10.6h1.5l-5.9,14.3L394.9,636.9z"
		/>
	<path class="st3" d="M408.5,640.1c-0.5,0-0.9-0.4-0.9-0.9c0-0.6,0.4-0.9,0.9-0.9c0.5,0,0.9,0.4,0.9,0.9
		C409.4,639.7,409,640.1,408.5,640.1z M407.9,650.6v-8.7h1.2v8.7H407.9z"/>
	<path class="st3" d="M414.6,650.9l-4-9h1.3l2.4,5.6c0.3,0.8,0.5,1.2,0.5,1.4h0c0-0.2,0.1-0.6,0.5-1.4l2.3-5.6h1.3l-4,9H414.6z"/>
	<path class="st3" d="M421.1,640.1c-0.5,0-0.9-0.4-0.9-0.9c0-0.6,0.4-0.9,0.9-0.9c0.5,0,0.9,0.4,0.9,0.9
		C422.1,639.7,421.7,640.1,421.1,640.1z M420.5,650.6v-8.7h1.2v8.7H420.5z"/>
	<path class="st3" d="M431.2,649.6c-0.8,0.8-2.1,1.2-3.8,1.2c-2.5,0-3.7-1.5-3.7-3.2c0-2,2.1-2.8,3.6-2.8c0.9,0,2.1,0.3,2.7,1v-1.2
		c0-1.1-0.8-1.9-2.4-1.9c-1.2,0-2.2,0.4-2.4,0.5l-0.5-0.9c0.6-0.3,1.6-0.7,2.9-0.7c2.8,0,3.6,1.3,3.6,3.3V649.6z M430.1,646.8
		c-0.5-0.5-1.4-1-2.6-1c-1.1,0-2.5,0.6-2.5,1.9c0,1.4,1.2,2.2,2.5,2.2c1.1,0,2-0.3,2.6-0.7V646.8z"/>
	<path class="st3" d="M439.9,650.6v-5.1c0-1.9-0.6-2.7-2.3-2.7c-1.2,0-2.2,0.7-2.6,1.2v6.7h-1.2v-8.7h1.2v0.9
		c0.5-0.4,1.5-1.2,2.9-1.2c2,0,3.2,1,3.2,3.2v5.7H439.9z"/>
	<path class="st3" d="M448.5,650.6v-13.7h1.3v12.5h5.9v1.2H448.5z"/>
	<path class="st3" d="M458.1,640.1c-0.5,0-0.9-0.4-0.9-0.9c0-0.6,0.4-0.9,0.9-0.9c0.5,0,0.9,0.4,0.9,0.9
		C459,639.7,458.6,640.1,458.1,640.1z M457.5,650.6v-8.7h1.2v8.7H457.5z"/>
	<path class="st3" d="M468.2,649.6c-0.8,0.8-2.1,1.2-3.8,1.2c-2.5,0-3.7-1.5-3.7-3.2c0-2,2.1-2.8,3.6-2.8c0.9,0,2.1,0.3,2.7,1v-1.2
		c0-1.1-0.8-1.9-2.4-1.9c-1.2,0-2.2,0.4-2.4,0.5l-0.5-0.9c0.6-0.3,1.6-0.7,2.9-0.7c2.8,0,3.6,1.3,3.6,3.3V649.6z M467.1,646.8
		c-0.5-0.5-1.4-1-2.6-1c-1.1,0-2.5,0.6-2.5,1.9c0,1.4,1.2,2.2,2.5,2.2c1.1,0,2-0.3,2.6-0.7V646.8z"/>
	<path class="st3" d="M476.9,650.6v-5.1c0-1.9-0.6-2.7-2.3-2.7c-1.2,0-2.2,0.7-2.6,1.2v6.7h-1.2v-8.7h1.2v0.9
		c0.5-0.4,1.5-1.2,2.9-1.2c2,0,3.2,1,3.2,3.2v5.7H476.9z"/>
	<path class="st3" d="M487.3,649.4c-0.7,0.9-1.9,1.4-3,1.4c-2.1,0-4.2-1.7-4.2-4.6c0-3,2.3-4.6,4.8-4.6c1.8,0,3,0.6,3.6,1.1v8.3
		c0,3.3-2.1,4.3-4.1,4.3c-1.3,0-2.5-0.4-3.5-1l0.5-0.9c0.8,0.5,2,0.9,3,0.9c1.3,0,2.8-0.5,2.8-3.1V649.4z M487.3,643.3
		c-0.3-0.2-1.2-0.7-2.4-0.7c-1.8,0-3.5,1.1-3.5,3.6c0,1.6,0.9,3.5,3.2,3.5c1,0,2.2-0.7,2.7-1.6V643.3z"/>
</g>
<g>
	<path class="st3" d="M555.2,682.9v-10.8l-2.3,0.7l-0.7-1.8l5.5-2.2v14.1H555.2z"/>
	<path class="st3" d="M560.3,676.1c0-2.8,0.7-7.1,5.1-7.1c4.4,0,5.2,4,5.2,7.1c0,3-0.8,7.1-5.2,7.1S560.3,679,560.3,676.1z
		 M568.1,676.1c0-1.8-0.3-5-2.6-5c-2.3,0-2.6,3.1-2.6,5c0,1.6,0.3,5,2.6,5C567.9,681.1,568.1,677.7,568.1,676.1z"/>
</g>
<g>
	<path class="st3" d="M368.9,679.9c0.6,0.5,1.7,1.1,2.8,1.1c1.9,0,2.9-1.2,2.9-2.6c0-1.4-0.8-2.7-2.9-2.7c-0.7,0-1.4,0.1-2.6,0.5
		l1.8-6.9h5.9l-0.6,1.9h-3.7l-0.8,2.9c0.3-0.1,0.6-0.1,1-0.1c2.4,0,4.5,1.9,4.5,4.3c0,2.5-1.5,4.7-5.1,4.7c-1.9,0-3.6-0.8-4.1-1.2
		L368.9,679.9z"/>
	<path class="st3" d="M380.5,683.1c-0.8,0-1.4-0.7-1.4-1.4c0-0.8,0.7-1.4,1.4-1.4c0.8,0,1.5,0.6,1.5,1.4
		C382,682.4,381.3,683.1,380.5,683.1z"/>
</g>
<g>
	<path class="st3" d="M406.2,682.8l-1.6-3.7h-6.7l-1.6,3.7h-1.4l6.4-14.1l6.4,14.1H406.2z M401.6,672.3c-0.1-0.2-0.3-0.7-0.3-0.8
		c-0.1,0.2-0.2,0.6-0.3,0.8l-2.5,5.7h5.7L401.6,672.3z"/>
	<path class="st3" d="M409,682.8V668h1.2v14.9H409z"/>
	<path class="st3" d="M419.8,681.8c-0.8,0.8-2.1,1.2-3.8,1.2c-2.5,0-3.7-1.5-3.7-3.2c0-2,2.1-2.8,3.6-2.8c0.9,0,2.1,0.3,2.7,1v-1.2
		c0-1.1-0.8-1.9-2.4-1.9c-1.2,0-2.2,0.4-2.4,0.5l-0.5-0.9c0.6-0.3,1.6-0.7,2.9-0.7c2.8,0,3.6,1.3,3.6,3.3V681.8z M418.6,679.1
		c-0.5-0.5-1.4-1-2.6-1c-1.1,0-2.5,0.6-2.5,1.9c0,1.4,1.2,2.2,2.5,2.2c1.1,0,2-0.3,2.6-0.7V679.1z"/>
	<path class="st3" d="M428.4,682.8v-5.1c0-1.9-0.6-2.7-2.3-2.7c-1.2,0-2.2,0.7-2.6,1.2v6.7h-1.2v-8.7h1.2v0.9
		c0.5-0.4,1.5-1.2,2.9-1.2c2,0,3.2,1,3.2,3.2v5.7H428.4z"/>
	<path class="st3" d="M450.3,682.8l-0.9-9.5c0-0.1,0-0.5,0-0.6c0,0.1-0.2,0.4-0.2,0.5l-5.1,10.1l-5.1-10.1c-0.1-0.2-0.2-0.3-0.2-0.5
		c0,0.2,0,0.4,0,0.6l-0.9,9.5h-1.4l1.5-14.1l5.9,11.2c0.1,0.1,0.2,0.5,0.3,0.7c0-0.2,0.2-0.6,0.3-0.7l5.8-11.2l1.5,14.1H450.3z"/>
	<path class="st3" d="M454.9,672.4c-0.5,0-0.9-0.4-0.9-0.9c0-0.6,0.4-0.9,0.9-0.9c0.5,0,0.9,0.4,0.9,0.9
		C455.8,672,455.4,672.4,454.9,672.4z M454.2,682.8v-8.7h1.2v8.7H454.2z"/>
	<path class="st3" d="M465.7,681.6c-0.7,0.9-2,1.5-3.5,1.5c-2.6,0-4.5-2-4.5-4.6c0-2.7,1.9-4.6,4.6-4.6c1.6,0,2.8,0.9,3.1,1.2
		l-0.6,0.8c-0.2-0.2-1.1-0.9-2.4-0.9c-1.6,0-3.4,1.2-3.4,3.6c0,2.2,1.6,3.5,3.4,3.5c1.5,0,2.2-0.5,2.8-1.1L465.7,681.6z"/>
	<path class="st3" d="M473.7,682.8v-5.1c0-1.9-0.6-2.7-2.3-2.7c-1.2,0-2.2,0.7-2.6,1.2v6.7h-1.2V668h1.2v7.1
		c0.5-0.4,1.5-1.2,2.9-1.2c2,0,3.2,1,3.2,3.2v5.7H473.7z"/>
	<path class="st3" d="M484.3,681.8c-0.8,0.8-2.1,1.2-3.8,1.2c-2.5,0-3.7-1.5-3.7-3.2c0-2,2.1-2.8,3.6-2.8c0.9,0,2.1,0.3,2.7,1v-1.2
		c0-1.1-0.8-1.9-2.4-1.9c-1.2,0-2.2,0.4-2.4,0.5l-0.5-0.9c0.6-0.3,1.6-0.7,2.9-0.7c2.8,0,3.6,1.3,3.6,3.3V681.8z M483.1,679.1
		c-0.5-0.5-1.4-1-2.6-1c-1.1,0-2.5,0.6-2.5,1.9c0,1.4,1.2,2.2,2.5,2.2c1.1,0,2-0.3,2.6-0.7V679.1z"/>
	<path class="st3" d="M494.4,681.6c-0.6,0.8-1.9,1.5-3.6,1.5c-2.6,0-4.5-1.8-4.5-4.5c0-2.7,1.8-4.6,4.4-4.6c2.7,0,3.9,2.1,3.9,4.4
		v0.3h-7.2c0,2.2,1.4,3.5,3.5,3.5c1.5,0,2.4-0.7,2.8-1.1L494.4,681.6z M493.4,677.6c-0.1-1.5-1.1-2.7-2.8-2.7
		c-1.5,0-2.9,0.9-3.1,2.7H493.4z"/>
	<path class="st3" d="M496.9,682.8V668h1.2v14.9H496.9z"/>
	<path class="st3" d="M500.6,681c0.4,0.5,1.2,1.1,2.4,1.1c1,0,1.8-0.5,1.8-1.7c0-1.9-4.2-1.8-4.2-4.2c0-1.3,1.1-2.3,2.7-2.3
		c1.1,0,2.1,0.5,2.6,1l-0.5,0.9c-0.2-0.2-1-0.9-2-0.9c-1.1,0-1.5,0.7-1.5,1.3c0,1.7,4.2,1.4,4.2,4.3c0,1.6-1.3,2.7-3.1,2.7
		c-1.5,0-2.5-0.7-3.1-1.3L500.6,681z"/>
	<path class="st3" d="M512.4,683.1c-2.6,0-4.7-2-4.7-4.6s2-4.6,4.7-4.6c2.6,0,4.6,2.1,4.6,4.6C517,681,515,683.1,512.4,683.1z
		 M515.7,678.5c0-2-1.6-3.6-3.4-3.6c-2,0-3.4,1.5-3.4,3.6c0,2,1.6,3.5,3.4,3.5C514.4,682,515.7,680.6,515.7,678.5z"/>
	<path class="st3" d="M525.2,682.8v-5.1c0-1.9-0.6-2.7-2.3-2.7c-1.2,0-2.2,0.7-2.6,1.2v6.7h-1.2v-8.7h1.2v0.9
		c0.5-0.4,1.5-1.2,2.9-1.2c2,0,3.2,1,3.2,3.2v5.7H525.2z"/>
</g>
<g>
	<path class="st8" d="M826.9,551c0.6,0.5,1.7,1.1,2.8,1.1c1.9,0,2.9-1.2,2.9-2.6c0-1.4-0.8-2.7-2.9-2.7c-0.7,0-1.4,0.1-2.6,0.5
		l1.8-6.9h5.9l-0.6,1.9h-3.7l-0.8,2.9c0.3-0.1,0.6-0.1,1-0.1c2.4,0,4.5,1.9,4.5,4.3c0,2.5-1.5,4.7-5.1,4.7c-1.9,0-3.6-0.8-4.1-1.2
		L826.9,551z"/>
	<path class="st8" d="M837.3,547.1c0-2.8,0.7-7.1,5.1-7.1c4.4,0,5.2,4,5.2,7.1c0,3-0.8,7.1-5.2,7.1C838,554.1,837.3,550,837.3,547.1
		z M845,547.1c0-1.8-0.3-5-2.6-5c-2.3,0-2.6,3.1-2.6,5c0,1.6,0.3,5,2.6,5C844.8,552.1,845,548.7,845,547.1z"/>
</g>
<g>
	<path class="st8" d="M646.3,553.9v-10.8l-2.3,0.7l-0.7-1.8l5.5-2.2v14.1H646.3z"/>
	<path class="st8" d="M652.7,554.1c-0.8,0-1.4-0.7-1.4-1.4c0-0.8,0.7-1.4,1.4-1.4c0.8,0,1.5,0.6,1.5,1.4
		C654.2,553.4,653.6,554.1,652.7,554.1z"/>
</g>
<g>
	<path class="st8" d="M669.4,557.5c2.2-0.9,2.8-1.6,2.8-5v-12.3h1.3v12.4c0,3.9-0.9,4.9-3.6,6.1L669.4,557.5z"/>
	<path class="st8" d="M683.1,552.9c-0.8,0.8-2.1,1.2-3.8,1.2c-2.5,0-3.7-1.5-3.7-3.2c0-2,2.1-2.8,3.6-2.8c0.9,0,2.1,0.3,2.7,1v-1.2
		c0-1.1-0.8-1.9-2.4-1.9c-1.2,0-2.2,0.4-2.4,0.5l-0.5-0.9c0.6-0.3,1.6-0.7,2.9-0.7c2.8,0,3.6,1.3,3.6,3.3V552.9z M681.9,550.1
		c-0.5-0.5-1.4-1-2.6-1c-1.1,0-2.5,0.6-2.5,1.9c0,1.4,1.2,2.2,2.5,2.2c1.1,0,2-0.3,2.6-0.7V550.1z"/>
	<path class="st8" d="M696.9,553.9v-5.7c0-1.6-0.7-2.1-2-2.1c-1.1,0-2.1,0.7-2.5,1.2c0,0.3,0.1,0.5,0.1,0.8v5.9h-1.2v-5.7
		c0-1.6-0.7-2.1-2-2.1c-1.1,0-2.1,0.7-2.4,1.1v6.7h-1.2v-8.7h1.2v0.9c0.5-0.4,1.5-1.2,2.9-1.2c1.3,0,2,0.7,2.4,1.3
		c0.7-0.6,1.8-1.3,3.2-1.3c1.7,0,2.8,1,2.8,3.2v5.8H696.9z"/>
	<path class="st8" d="M708.3,552.6c-0.6,0.8-1.9,1.5-3.6,1.5c-2.6,0-4.5-1.8-4.5-4.6c0-2.7,1.8-4.6,4.4-4.6c2.7,0,3.9,2.1,3.9,4.4
		v0.3h-7.2c0,2.2,1.4,3.5,3.5,3.5c1.5,0,2.4-0.7,2.8-1.1L708.3,552.6z M707.4,548.6c-0.1-1.5-1.1-2.7-2.8-2.7
		c-1.5,0-2.9,0.9-3.1,2.7H707.4z"/>
	<path class="st8" d="M710.4,552c0.4,0.5,1.2,1.1,2.4,1.1c1,0,1.8-0.5,1.8-1.7c0-1.9-4.2-1.8-4.2-4.2c0-1.3,1.1-2.3,2.7-2.3
		c1.1,0,2.1,0.5,2.6,1l-0.5,0.9c-0.2-0.2-1-0.9-2-0.9c-1.1,0-1.5,0.7-1.5,1.3c0,1.7,4.2,1.4,4.2,4.3c0,1.6-1.3,2.7-3.1,2.7
		c-1.5,0-2.5-0.7-3.1-1.3L710.4,552z"/>
	<path class="st8" d="M730.4,548.5v-1.2h5.1c-0.1,4.7-3.2,6.8-6.4,6.8c-3.9,0-7.1-3.1-7.1-7.1c0-4.2,3.2-7.2,7.2-7.2
		c3.2,0,5,1.8,5.1,1.9l-0.7,1c-0.1-0.1-1.7-1.7-4.3-1.7c-3.7,0-5.9,2.6-5.9,6c0,3.2,2.5,5.9,5.8,5.9c2.6,0,4.8-1.6,5.1-4.4H730.4z"
		/>
	<path class="st8" d="M737.5,553.9v-8.7h1.2v1.3c0.1-0.4,0.9-1.5,1.9-1.5c0.7,0,1.3,0.3,1.5,0.4l-0.6,1.1c-0.2-0.1-0.5-0.4-1-0.4
		c-1,0-1.7,1.1-1.8,1.8v5.9H737.5z"/>
	<path class="st8" d="M750.1,552.9c-0.8,0.8-2.1,1.2-3.8,1.2c-2.5,0-3.7-1.5-3.7-3.2c0-2,2.1-2.8,3.6-2.8c0.9,0,2.1,0.3,2.7,1v-1.2
		c0-1.1-0.8-1.9-2.4-1.9c-1.2,0-2.2,0.4-2.4,0.5l-0.5-0.9c0.6-0.3,1.6-0.7,2.9-0.7c2.8,0,3.6,1.3,3.6,3.3V552.9z M748.9,550.1
		c-0.5-0.5-1.4-1-2.6-1c-1.1,0-2.5,0.6-2.5,1.9c0,1.4,1.2,2.2,2.5,2.2c1.1,0,2-0.3,2.6-0.7V550.1z"/>
	<path class="st8" d="M758.8,553.9v-5.1c0-1.9-0.6-2.7-2.3-2.7c-1.2,0-2.2,0.7-2.6,1.2v6.7h-1.2v-8.7h1.2v0.9
		c0.5-0.4,1.5-1.2,2.9-1.2c2,0,3.2,1,3.2,3.2v5.7H758.8z"/>
	<path class="st8" d="M769.2,552.7c-0.7,0.9-1.9,1.4-3,1.4c-2.1,0-4.2-1.7-4.2-4.6c0-3,2.3-4.6,4.8-4.6c1.8,0,3,0.6,3.6,1.1v8.3
		c0,3.3-2.1,4.3-4.1,4.3c-1.3,0-2.5-0.4-3.5-1l0.5-0.9c0.8,0.5,2,0.9,3,0.9c1.3,0,2.8-0.5,2.8-3.1V552.7z M769.2,546.6
		c-0.3-0.2-1.2-0.7-2.4-0.7c-1.8,0-3.5,1.1-3.5,3.6c0,1.6,0.9,3.5,3.2,3.5c1,0,2.2-0.7,2.7-1.6V546.6z"/>
	<path class="st8" d="M780.7,552.6c-0.6,0.8-1.9,1.5-3.6,1.5c-2.6,0-4.5-1.8-4.5-4.6c0-2.7,1.8-4.6,4.4-4.6c2.7,0,3.9,2.1,3.9,4.4
		v0.3h-7.2c0,2.2,1.4,3.5,3.5,3.5c1.5,0,2.4-0.7,2.8-1.1L780.7,552.6z M779.7,548.6c-0.1-1.5-1.1-2.7-2.8-2.7
		c-1.5,0-2.9,0.9-3.1,2.7H779.7z"/>
	<path class="st8" d="M783,553.9v-8.7h1.2v1.3c0.1-0.4,0.9-1.5,1.9-1.5c0.7,0,1.3,0.3,1.5,0.4l-0.6,1.1c-0.2-0.1-0.5-0.4-1-0.4
		c-1,0-1.7,1.1-1.8,1.8v5.9H783z"/>
</g>
<g>
	<path class="st8" d="M832.8,586.2v-2.3h-6.5v-1.6l7.2-10.4h1.7v10.1l2,0v2h-2v2.3H832.8z M832.8,576.4L829,582l3.8,0V576.4z"/>
	<path class="st8" d="M839.1,583.2c0.6,0.5,1.7,1.1,2.8,1.1c1.9,0,2.9-1.2,2.9-2.6c0-1.4-0.8-2.7-2.9-2.7c-0.7,0-1.4,0.1-2.6,0.5
		l1.8-6.9h5.9l-0.6,1.9h-3.7l-0.8,2.9c0.3-0.1,0.6-0.1,1-0.1c2.4,0,4.5,1.9,4.5,4.3c0,2.5-1.5,4.7-5.1,4.7c-1.9,0-3.6-0.8-4.1-1.2
		L839.1,583.2z"/>
</g>
<g>
	<path class="st8" d="M643.5,586.1v-1.5c1.2-0.5,3.4-2.1,4.6-3.5c1.6-1.7,2.2-3.1,2.2-4.6c0-1.1-0.8-2.1-2-2.1
		c-1.3,0-2.3,0.9-2.8,1.5l-1.2-1.6c0.7-0.7,2.2-1.9,4.3-1.9c2.6,0,4.4,1.9,4.4,4.2c0,2.5-2,4.6-3.1,5.7c-0.7,0.7-1.5,1.4-2.1,1.9
		l5.7,0v2.1H643.5z"/>
	<path class="st8" d="M656.7,586.4c-0.8,0-1.4-0.7-1.4-1.4c0-0.8,0.7-1.4,1.4-1.4c0.8,0,1.5,0.6,1.5,1.4
		C658.1,585.6,657.5,586.4,656.7,586.4z"/>
</g>
<g>
	<path class="st8" d="M670.3,572.4h1.5l4.3,10.6c0.1,0.2,0.1,0.5,0.1,0.7c0-0.2,0-0.5,0.1-0.7l4.3-10.6h1.5l-5.9,14.3L670.3,572.4z"
		/>
	<path class="st8" d="M683.9,575.6c-0.5,0-0.9-0.4-0.9-0.9c0-0.6,0.4-0.9,0.9-0.9c0.5,0,0.9,0.4,0.9,0.9
		C684.8,575.2,684.4,575.6,683.9,575.6z M683.3,586.1v-8.7h1.2v8.7H683.3z"/>
	<path class="st8" d="M690,586.4l-4-9h1.3l2.4,5.6c0.3,0.8,0.5,1.2,0.5,1.4h0c0-0.2,0.1-0.6,0.5-1.4l2.3-5.6h1.3l-4,9H690z"/>
	<path class="st8" d="M696.5,575.6c-0.5,0-0.9-0.4-0.9-0.9c0-0.6,0.4-0.9,0.9-0.9c0.5,0,0.9,0.4,0.9,0.9
		C697.4,575.2,697,575.6,696.5,575.6z M695.9,586.1v-8.7h1.2v8.7H695.9z"/>
	<path class="st8" d="M706.6,585.1c-0.8,0.8-2.1,1.2-3.8,1.2c-2.5,0-3.7-1.5-3.7-3.2c0-2,2.1-2.8,3.6-2.8c0.9,0,2.1,0.3,2.7,1v-1.2
		c0-1.1-0.8-1.9-2.4-1.9c-1.2,0-2.2,0.4-2.4,0.5l-0.5-0.9c0.6-0.3,1.6-0.7,2.9-0.7c2.8,0,3.6,1.3,3.6,3.3V585.1z M705.4,582.3
		c-0.5-0.5-1.4-1-2.6-1c-1.1,0-2.5,0.6-2.5,1.9c0,1.4,1.2,2.2,2.5,2.2c1.1,0,2-0.3,2.6-0.7V582.3z"/>
	<path class="st8" d="M715.3,586.1V581c0-1.9-0.6-2.7-2.3-2.7c-1.2,0-2.2,0.7-2.6,1.2v6.7h-1.2v-8.7h1.2v0.9
		c0.5-0.4,1.5-1.2,2.9-1.2c2,0,3.2,1,3.2,3.2v5.7H715.3z"/>
	<path class="st8" d="M723.9,586.1v-13.7h1.3v12.5h5.9v1.2H723.9z"/>
	<path class="st8" d="M733.5,575.6c-0.5,0-0.9-0.4-0.9-0.9c0-0.6,0.4-0.9,0.9-0.9c0.5,0,0.9,0.4,0.9,0.9
		C734.4,575.2,734,575.6,733.5,575.6z M732.9,586.1v-8.7h1.2v8.7H732.9z"/>
	<path class="st8" d="M743.6,585.1c-0.8,0.8-2.1,1.2-3.8,1.2c-2.5,0-3.7-1.5-3.7-3.2c0-2,2.1-2.8,3.6-2.8c0.9,0,2.1,0.3,2.7,1v-1.2
		c0-1.1-0.8-1.9-2.4-1.9c-1.2,0-2.2,0.4-2.4,0.5l-0.5-0.9c0.6-0.3,1.6-0.7,2.9-0.7c2.8,0,3.6,1.3,3.6,3.3V585.1z M742.4,582.3
		c-0.5-0.5-1.4-1-2.6-1c-1.1,0-2.5,0.6-2.5,1.9c0,1.4,1.2,2.2,2.5,2.2c1.1,0,2-0.3,2.6-0.7V582.3z"/>
	<path class="st8" d="M752.2,586.1V581c0-1.9-0.6-2.7-2.3-2.7c-1.2,0-2.2,0.7-2.6,1.2v6.7h-1.2v-8.7h1.2v0.9
		c0.5-0.4,1.5-1.2,2.9-1.2c2,0,3.2,1,3.2,3.2v5.7H752.2z"/>
	<path class="st8" d="M762.7,584.9c-0.7,0.9-1.9,1.4-3,1.4c-2.1,0-4.2-1.7-4.2-4.6c0-3,2.3-4.6,4.8-4.6c1.8,0,3,0.6,3.6,1.1v8.3
		c0,3.3-2.1,4.3-4.1,4.3c-1.3,0-2.5-0.4-3.5-1l0.5-0.9c0.8,0.5,2,0.9,3,0.9c1.3,0,2.8-0.5,2.8-3.1V584.9z M762.7,578.8
		c-0.3-0.2-1.2-0.7-2.4-0.7c-1.8,0-3.5,1.1-3.5,3.6c0,1.6,0.9,3.5,3.2,3.5c1,0,2.2-0.7,2.7-1.6V578.8z"/>
</g>
<g>
	<path class="st8" d="M826.7,618.6v-1.5c1.2-0.5,3.4-2.1,4.6-3.5c1.6-1.7,2.2-3.1,2.2-4.6c0-1.1-0.8-2.1-2-2.1
		c-1.3,0-2.3,0.9-2.8,1.5l-1.2-1.6c0.7-0.7,2.2-1.9,4.3-1.9c2.6,0,4.4,1.9,4.4,4.2c0,2.5-2,4.6-3.1,5.7c-0.7,0.7-1.5,1.4-2.1,1.9
		l5.7,0v2.1H826.7z"/>
	<path class="st8" d="M838.8,615.7c0.6,0.5,1.7,1.1,2.8,1.1c1.9,0,2.9-1.2,2.9-2.6c0-1.4-0.8-2.7-2.9-2.7c-0.7,0-1.4,0.1-2.6,0.5
		l1.8-6.9h5.9l-0.6,1.9h-3.7l-0.8,2.9c0.3-0.1,0.6-0.1,1-0.1c2.4,0,4.5,1.9,4.5,4.3c0,2.5-1.5,4.7-5.1,4.7c-1.9,0-3.6-0.8-4.1-1.2
		L838.8,615.7z"/>
</g>
<g>
	<path class="st8" d="M649.9,610.5c1.7,0.7,2.5,2.3,2.5,3.9c0,2-1.8,3.9-4.9,3.9c-2.2,0-3.7-1.1-4.1-1.5l1.1-1.7
		c0.4,0.5,1.7,1.2,3,1.2c1.7,0,2.5-1.1,2.5-2.2c0-1.5-1.3-2.8-3.3-2.8c-0.2,0-0.4,0-0.6,0v-1.5c0.2,0,0.4,0.1,0.6,0.1
		c1.5,0,2.6-1,2.6-2c0-1-0.6-1.5-1.8-1.5c-0.7,0-1.7,0.3-2.1,0.6l-0.7-1.8c0.5-0.4,1.8-1,3.3-1c2.3,0,3.8,1.8,3.8,3.3
		C651.8,608.6,651.4,609.7,649.9,610.5L649.9,610.5z"/>
	<path class="st8" d="M655.6,618.3c-0.8,0-1.4-0.7-1.4-1.4c0-0.8,0.7-1.4,1.4-1.4c0.8,0,1.5,0.6,1.5,1.4
		C657.1,617.6,656.5,618.3,655.6,618.3z"/>
</g>
<g>
	<path class="st8" d="M679.7,618.1l-5.4-5.4h-0.8v5.4h-1.3v-13.7h2.7c2.2,0,5,0.8,5,4c0,2.4-1.5,4-4,4.3l5.7,5.5H679.7z
		 M674.5,611.5c2.7,0,4-1.4,4-3.2c0-1.9-1.4-2.8-3.5-2.8h-1.6v6H674.5z"/>
	<path class="st8" d="M689.3,617.1c-0.8,0.8-2.1,1.2-3.8,1.2c-2.5,0-3.7-1.5-3.7-3.2c0-2,2.1-2.8,3.6-2.8c0.9,0,2.1,0.3,2.7,1v-1.2
		c0-1.1-0.8-1.9-2.4-1.9c-1.2,0-2.2,0.4-2.4,0.5l-0.5-0.9c0.6-0.3,1.6-0.7,2.9-0.7c2.8,0,3.6,1.3,3.6,3.3V617.1z M688.1,614.3
		c-0.5-0.5-1.4-1-2.6-1c-1.1,0-2.5,0.6-2.5,1.9c0,1.4,1.2,2.2,2.5,2.2c1.1,0,2-0.3,2.6-0.7V614.3z"/>
	<path class="st8" d="M698,618.1v-5.1c0-1.9-0.6-2.7-2.3-2.7c-1.2,0-2.2,0.7-2.6,1.2v6.7h-1.2v-8.7h1.2v0.9c0.5-0.4,1.5-1.2,2.9-1.2
		c2,0,3.2,1,3.2,3.2v5.7H698z"/>
	<path class="st8" d="M708.4,603.2h1.2v13.9c-1.1,0.8-2.4,1.2-3.6,1.2c-2.4,0-4.8-1.4-4.8-4.5c0-2.9,1.8-4.7,4.5-4.7
		c1,0,2,0.3,2.7,0.9V603.2z M708.4,611.4c-0.5-0.7-1.6-1.3-2.7-1.3c-2,0-3.2,1.4-3.2,3.7c0,2.2,1.6,3.4,3.5,3.4
		c0.7,0,1.6-0.2,2.4-0.7V611.4z"/>
	<path class="st8" d="M711.9,622.8l2.8-5.5l-3.6-7.9h1.3l2.9,6.7l3.2-6.7h1.3l-6.7,13.4H711.9z"/>
	<path class="st8" d="M726.1,618.1v-13.7h7v1.2h-5.7v4.6h4.6v1.2h-4.6v6.7H726.1z"/>
	<path class="st8" d="M740.6,617.1c-0.8,0.8-2.1,1.2-3.8,1.2c-2.5,0-3.7-1.5-3.7-3.2c0-2,2.1-2.8,3.6-2.8c0.9,0,2.1,0.3,2.7,1v-1.2
		c0-1.1-0.8-1.9-2.4-1.9c-1.2,0-2.2,0.4-2.4,0.5l-0.5-0.9c0.6-0.3,1.6-0.7,2.9-0.7c2.8,0,3.6,1.3,3.6,3.3V617.1z M739.4,614.3
		c-0.5-0.5-1.4-1-2.6-1c-1.1,0-2.5,0.6-2.5,1.9c0,1.4,1.2,2.2,2.5,2.2c1.1,0,2-0.3,2.6-0.7V614.3z"/>
	<path class="st8" d="M743.2,618.1v-8.7h1.2v1.3c0.1-0.4,0.9-1.5,1.9-1.5c0.7,0,1.3,0.3,1.5,0.4l-0.6,1.1c-0.2-0.1-0.5-0.4-1-0.4
		c-1,0-1.7,1.1-1.8,1.8v5.9H743.2z"/>
	<path class="st8" d="M760.5,618.1v-5.7c0-1.6-0.7-2.1-2-2.1c-1.1,0-2.1,0.7-2.5,1.2c0,0.3,0.1,0.5,0.1,0.8v5.9h-1.2v-5.7
		c0-1.6-0.7-2.1-2-2.1c-1.1,0-2.1,0.7-2.4,1.1v6.7h-1.2v-8.7h1.2v0.9c0.5-0.4,1.5-1.2,2.9-1.2c1.3,0,2,0.7,2.4,1.3
		c0.7-0.6,1.8-1.3,3.2-1.3c1.7,0,2.8,1,2.8,3.2v5.8H760.5z"/>
	<path class="st8" d="M771.9,616.9c-0.6,0.8-1.9,1.5-3.6,1.5c-2.6,0-4.5-1.8-4.5-4.5c0-2.7,1.8-4.6,4.4-4.6c2.7,0,3.9,2.1,3.9,4.4
		v0.3H765c0,2.2,1.4,3.5,3.5,3.5c1.5,0,2.4-0.7,2.8-1.1L771.9,616.9z M770.9,612.9c-0.1-1.5-1.1-2.7-2.8-2.7c-1.5,0-2.9,0.9-3.1,2.7
		H770.9z"/>
	<path class="st8" d="M774.3,618.1v-8.7h1.2v1.3c0.1-0.4,0.9-1.5,1.9-1.5c0.7,0,1.3,0.3,1.5,0.4l-0.6,1.1c-0.2-0.1-0.5-0.4-1-0.4
		c-1,0-1.7,1.1-1.8,1.8v5.9H774.3z"/>
</g>
<g>
	<path class="st8" d="M825.8,650.6v-1.5c1.2-0.5,3.4-2.1,4.6-3.5c1.6-1.7,2.2-3.1,2.2-4.6c0-1.1-0.8-2.1-2-2.1
		c-1.3,0-2.3,0.9-2.8,1.5l-1.2-1.6c0.7-0.7,2.2-1.9,4.3-1.9c2.6,0,4.4,1.9,4.4,4.2c0,2.5-2,4.6-3.1,5.7c-0.7,0.7-1.5,1.4-2.1,1.9
		l5.7,0v2.1H825.8z"/>
	<path class="st8" d="M837.7,643.8c0-2.8,0.7-7.1,5.1-7.1c4.4,0,5.2,4,5.2,7.1c0,3-0.8,7.1-5.2,7.1
		C838.4,650.9,837.7,646.7,837.7,643.8z M845.4,643.8c0-1.8-0.3-5-2.6-5c-2.3,0-2.6,3.1-2.6,5c0,1.6,0.3,5,2.6,5
		C845.2,648.8,845.4,645.5,845.4,643.8z"/>
</g>
<g>
	<path class="st8" d="M649.9,650.7v-2.3h-6.5v-1.6l7.2-10.4h1.7v10.1l2,0v2h-2v2.3H649.9z M649.9,640.9l-3.8,5.5l3.8,0V640.9z"/>
	<path class="st8" d="M657.4,650.9c-0.8,0-1.4-0.7-1.4-1.4c0-0.8,0.7-1.4,1.4-1.4c0.8,0,1.5,0.6,1.5,1.4
		C658.8,650.1,658.2,650.9,657.4,650.9z"/>
</g>
<g>
	<path class="st8" d="M672.2,650.6v-13.7h1.3v12.5h5.9v1.2H672.2z"/>
	<path class="st8" d="M687.8,649.6c-0.8,0.8-2.1,1.2-3.8,1.2c-2.5,0-3.7-1.5-3.7-3.2c0-2,2.1-2.8,3.6-2.8c0.9,0,2.1,0.3,2.7,1v-1.2
		c0-1.1-0.8-1.9-2.4-1.9c-1.2,0-2.2,0.4-2.4,0.5l-0.5-0.9c0.6-0.3,1.6-0.7,2.9-0.7c2.8,0,3.6,1.3,3.6,3.3V649.6z M686.6,646.8
		c-0.5-0.5-1.4-1-2.6-1c-1.1,0-2.5,0.6-2.5,1.9c0,1.4,1.2,2.2,2.5,2.2c1.1,0,2-0.3,2.6-0.7V646.8z"/>
	<path class="st8" d="M698.1,650.9l-2.6-6.6l-2.6,6.6h-0.3l-3.5-9h1.3l2.5,6.5l2.6-6.8h0.1l2.6,6.8l2.5-6.5h1.3l-3.5,9H698.1z"/>
	<path class="st8" d="M703.5,650.6v-8.7h1.2v1.3c0.1-0.4,0.9-1.5,1.9-1.5c0.7,0,1.3,0.3,1.5,0.4l-0.6,1.1c-0.2-0.1-0.5-0.4-1-0.4
		c-1,0-1.7,1.1-1.8,1.8v5.9H703.5z"/>
	<path class="st8" d="M716.8,649.4c-0.6,0.8-1.9,1.5-3.6,1.5c-2.6,0-4.5-1.8-4.5-4.5c0-2.7,1.8-4.6,4.4-4.6c2.7,0,3.9,2.1,3.9,4.4
		v0.3h-7.2c0,2.2,1.4,3.5,3.5,3.5c1.5,0,2.4-0.7,2.8-1.1L716.8,649.4z M715.8,645.4c-0.1-1.5-1.1-2.7-2.8-2.7
		c-1.5,0-2.9,0.9-3.1,2.7H715.8z"/>
	<path class="st8" d="M725.2,650.6v-5.1c0-1.9-0.6-2.7-2.3-2.7c-1.2,0-2.2,0.7-2.6,1.2v6.7h-1.2v-8.7h1.2v0.9
		c0.5-0.4,1.5-1.2,2.9-1.2c2,0,3.2,1,3.2,3.2v5.7H725.2z"/>
	<path class="st8" d="M736.5,649.4c-0.7,0.9-2,1.5-3.5,1.5c-2.6,0-4.5-2-4.5-4.6c0-2.7,1.9-4.6,4.6-4.6c1.6,0,2.8,0.9,3.1,1.2
		l-0.6,0.8c-0.2-0.2-1.1-0.9-2.4-0.9c-1.6,0-3.4,1.2-3.4,3.6c0,2.2,1.6,3.5,3.4,3.5c1.5,0,2.2-0.5,2.8-1.1L736.5,649.4z"/>
	<path class="st8" d="M745.8,649.4c-0.6,0.8-1.9,1.5-3.6,1.5c-2.6,0-4.5-1.8-4.5-4.5c0-2.7,1.8-4.6,4.4-4.6c2.7,0,3.9,2.1,3.9,4.4
		v0.3h-7.2c0,2.2,1.4,3.5,3.5,3.5c1.5,0,2.4-0.7,2.8-1.1L745.8,649.4z M744.8,645.4c-0.1-1.5-1.1-2.7-2.8-2.7
		c-1.5,0-2.9,0.9-3.1,2.7H744.8z"/>
	<path class="st8" d="M759.4,650.9c-4.1,0-7.3-3.2-7.3-7.1c0-4,3.2-7.1,7.3-7.1c4,0,7.2,3,7.2,7.2
		C766.6,647.7,763.3,650.9,759.4,650.9z M759.4,637.8c-3.3,0-5.9,2.5-5.9,5.9c0,3.2,2.6,6,5.8,6c3.4,0,6-2.6,6-5.9
		C765.2,640.3,762.6,637.8,759.4,637.8z"/>
	<path class="st8" d="M769.6,650.6v-7.7h-1.6v-1h1.6v-3.1h1.2v3.1h2.1v1h-2.1v7.7H769.6z"/>
	<path class="st8" d="M781.9,649.4c-0.6,0.8-1.9,1.5-3.6,1.5c-2.6,0-4.5-1.8-4.5-4.5c0-2.7,1.8-4.6,4.4-4.6c2.7,0,3.9,2.1,3.9,4.4
		v0.3H775c0,2.2,1.4,3.5,3.5,3.5c1.5,0,2.4-0.7,2.8-1.1L781.9,649.4z M780.9,645.4c-0.1-1.5-1.1-2.7-2.8-2.7c-1.5,0-2.9,0.9-3.1,2.7
		H780.9z"/>
	<path class="st8" d="M784.3,650.6v-8.7h1.2v1.3c0.1-0.4,0.9-1.5,1.9-1.5c0.7,0,1.3,0.3,1.5,0.4l-0.6,1.1c-0.2-0.1-0.5-0.4-1-0.4
		c-1,0-1.7,1.1-1.8,1.8v5.9H784.3z"/>
	<path class="st8" d="M794.1,650.8c-2.6,0-4.7-2-4.7-4.6s2-4.6,4.7-4.6c2.6,0,4.6,2.1,4.6,4.6C798.7,648.8,796.7,650.8,794.1,650.8z
		 M797.4,646.2c0-2-1.6-3.6-3.4-3.6c-2,0-3.4,1.5-3.4,3.6c0,2,1.6,3.5,3.4,3.5C796,649.8,797.4,648.4,797.4,646.2z"/>
</g>
<g>
	<path class="st8" d="M831.5,682.9v-10.8l-2.3,0.7l-0.7-1.8l5.5-2.2v14.1H831.5z"/>
	<path class="st8" d="M836.8,679.9c0.6,0.5,1.7,1.1,2.8,1.1c1.9,0,2.9-1.2,2.9-2.6c0-1.4-0.8-2.7-2.9-2.7c-0.7,0-1.4,0.1-2.6,0.5
		l1.8-6.9h5.9l-0.6,1.9h-3.7l-0.8,2.9c0.3-0.1,0.6-0.1,1-0.1c2.4,0,4.5,1.9,4.5,4.3c0,2.5-1.5,4.7-5.1,4.7c-1.9,0-3.6-0.8-4.1-1.2
		L836.8,679.9z"/>
</g>
<g>
	<path class="st8" d="M644.2,679.9c0.6,0.5,1.7,1.1,2.8,1.1c1.9,0,2.9-1.2,2.9-2.6c0-1.4-0.8-2.7-2.9-2.7c-0.7,0-1.4,0.1-2.6,0.5
		l1.8-6.9h5.9l-0.6,1.9h-3.7l-0.8,2.9c0.3-0.1,0.6-0.1,1-0.1c2.4,0,4.5,1.9,4.5,4.3c0,2.5-1.5,4.7-5.1,4.7c-1.9,0-3.6-0.8-4.1-1.2
		L644.2,679.9z"/>
	<path class="st8" d="M655.9,683.1c-0.8,0-1.4-0.7-1.4-1.4c0-0.8,0.7-1.4,1.4-1.4c0.8,0,1.5,0.6,1.5,1.4
		C657.3,682.4,656.7,683.1,655.9,683.1z"/>
</g>
<g>
	<path class="st8" d="M683.2,681.4c-1.3,1.1-2.8,1.7-4.6,1.7c-4.2,0-7.3-3.2-7.3-7.1c0-3.9,3-7.1,7.2-7.1c2,0,3.6,0.8,4.6,1.8
		l-0.7,0.9c-0.8-0.8-2.1-1.5-4.1-1.5c-3.2,0-5.7,2.5-5.7,6c0,3.3,2.7,5.8,5.9,5.8c1.8,0,3.2-0.6,4-1.4L683.2,681.4z"/>
	<path class="st8" d="M685.3,682.8V668h1.2v14.9H685.3z"/>
	<path class="st8" d="M696,681.8c-0.8,0.8-2.1,1.2-3.8,1.2c-2.5,0-3.7-1.5-3.7-3.2c0-2,2.1-2.8,3.6-2.8c0.9,0,2.1,0.3,2.7,1v-1.2
		c0-1.1-0.8-1.9-2.4-1.9c-1.2,0-2.2,0.4-2.4,0.5l-0.5-0.9c0.6-0.3,1.6-0.7,2.9-0.7c2.8,0,3.6,1.3,3.6,3.3V681.8z M694.9,679.1
		c-0.5-0.5-1.4-1-2.6-1c-1.1,0-2.5,0.6-2.5,1.9c0,1.4,1.2,2.2,2.5,2.2c1.1,0,2-0.3,2.6-0.7V679.1z"/>
	<path class="st8" d="M699.3,672.4c-0.5,0-0.9-0.4-0.9-0.9c0-0.6,0.4-0.9,0.9-0.9c0.5,0,0.9,0.4,0.9,0.9
		C700.2,672,699.8,672.4,699.3,672.4z M698.7,682.8v-8.7h1.2v8.7H698.7z"/>
	<path class="st8" d="M702.6,682.8v-8.7h1.2v1.3c0.1-0.4,0.9-1.5,1.9-1.5c0.7,0,1.3,0.3,1.5,0.4l-0.6,1.1c-0.2-0.1-0.5-0.4-1-0.4
		c-1,0-1.7,1.1-1.8,1.8v5.9H702.6z"/>
	<path class="st8" d="M715.9,681.6c-0.6,0.8-1.9,1.5-3.6,1.5c-2.6,0-4.5-1.8-4.5-4.5c0-2.7,1.8-4.6,4.4-4.6c2.7,0,3.9,2.1,3.9,4.4
		v0.3H709c0,2.2,1.4,3.5,3.5,3.5c1.5,0,2.4-0.7,2.8-1.1L715.9,681.6z M714.9,677.6c-0.1-1.5-1.1-2.7-2.8-2.7c-1.5,0-2.9,0.9-3.1,2.7
		H714.9z"/>
	<path class="st8" d="M730.7,673c-0.1-0.3-0.2-0.5-0.3-0.9c-0.1,0.4-0.1,0.5-0.3,0.9l-4.1,10.4l-4.8-14.3h1.5l3.3,10.3
		c0.1,0.2,0.1,0.5,0.1,0.7c0-0.2,0.1-0.5,0.1-0.7l4-10.8l4.2,10.8c0.1,0.2,0.1,0.5,0.1,0.7c0-0.2,0.1-0.5,0.1-0.7l3.2-10.3h1.4
		l-4.7,14.3L730.7,673z"/>
	<path class="st8" d="M746.9,681.8c-0.8,0.8-2.1,1.2-3.8,1.2c-2.5,0-3.7-1.5-3.7-3.2c0-2,2.1-2.8,3.6-2.8c0.9,0,2.1,0.3,2.7,1v-1.2
		c0-1.1-0.8-1.9-2.4-1.9c-1.2,0-2.2,0.4-2.4,0.5l-0.5-0.9c0.6-0.3,1.6-0.7,2.9-0.7c2.8,0,3.6,1.3,3.6,3.3V681.8z M745.7,679.1
		c-0.5-0.5-1.4-1-2.6-1c-1.1,0-2.5,0.6-2.5,1.9c0,1.4,1.2,2.2,2.5,2.2c1.1,0,2-0.3,2.6-0.7V679.1z"/>
	<path class="st8" d="M749.1,681c0.4,0.5,1.2,1.1,2.4,1.1c1,0,1.8-0.5,1.8-1.7c0-1.9-4.2-1.8-4.2-4.2c0-1.3,1.1-2.3,2.7-2.3
		c1.1,0,2.1,0.5,2.6,1l-0.5,0.9c-0.2-0.2-1-0.9-2-0.9c-1.1,0-1.5,0.7-1.5,1.3c0,1.7,4.2,1.4,4.2,4.3c0,1.6-1.3,2.7-3.1,2.7
		c-1.5,0-2.5-0.7-3.1-1.3L749.1,681z"/>
	<path class="st8" d="M762.9,682.8v-5.1c0-1.9-0.6-2.7-2.3-2.7c-1.2,0-2.2,0.7-2.6,1.2v6.7h-1.2V668h1.2v7.1
		c0.5-0.4,1.5-1.2,2.9-1.2c2,0,3.2,1,3.2,3.2v5.7H762.9z"/>
	<path class="st8" d="M767.4,672.4c-0.5,0-0.9-0.4-0.9-0.9c0-0.6,0.4-0.9,0.9-0.9c0.5,0,0.9,0.4,0.9,0.9
		C768.3,672,767.9,672.4,767.4,672.4z M766.8,682.8v-8.7h1.2v8.7H766.8z"/>
	<path class="st8" d="M776.9,682.8v-5.1c0-1.9-0.6-2.7-2.3-2.7c-1.2,0-2.2,0.7-2.6,1.2v6.7h-1.2v-8.7h1.2v0.9
		c0.5-0.4,1.5-1.2,2.9-1.2c2,0,3.2,1,3.2,3.2v5.7H776.9z"/>
	<path class="st8" d="M787.4,681.7c-0.7,0.9-1.9,1.4-3,1.4c-2.1,0-4.2-1.7-4.2-4.6c0-3,2.3-4.6,4.8-4.6c1.8,0,3,0.6,3.6,1.1v8.3
		c0,3.3-2.1,4.3-4.1,4.3c-1.3,0-2.5-0.4-3.5-1l0.5-0.9c0.8,0.5,2,0.9,3,0.9c1.3,0,2.8-0.5,2.8-3.1V681.7z M787.4,675.6
		c-0.3-0.2-1.2-0.7-2.4-0.7c-1.8,0-3.5,1.1-3.5,3.6c0,1.6,0.9,3.5,3.2,3.5c1,0,2.2-0.7,2.7-1.6V675.6z"/>
	<path class="st8" d="M791.9,682.8v-7.7h-1.6v-1h1.6V671h1.2v3.1h2.1v1h-2.1v7.7H791.9z"/>
	<path class="st8" d="M800.7,683.1c-2.6,0-4.7-2-4.7-4.6s2-4.6,4.7-4.6c2.6,0,4.6,2.1,4.6,4.6C805.4,681,803.4,683.1,800.7,683.1z
		 M804.1,678.5c0-2-1.6-3.6-3.4-3.6c-2,0-3.4,1.5-3.4,3.6c0,2,1.6,3.5,3.4,3.5C802.7,682,804.1,680.6,804.1,678.5z"/>
	<path class="st8" d="M813.6,682.8v-5.1c0-1.9-0.6-2.7-2.3-2.7c-1.2,0-2.2,0.7-2.6,1.2v6.7h-1.2v-8.7h1.2v0.9
		c0.5-0.4,1.5-1.2,2.9-1.2c2,0,3.2,1,3.2,3.2v5.7H813.6z"/>
</g>
<g>
	<path class="st9" d="M383.6,500.6v-11.4h-4v-2.3h10.7v2.3h-4.1v11.4H383.6z"/>
	<path class="st9" d="M398.2,500.9c-4.2,0-7.5-3.2-7.5-7.2c0-3.9,3.4-7.2,7.5-7.2c4.1,0,7.5,3.1,7.5,7.2
		C405.7,497.7,402.3,500.9,398.2,500.9z M398.2,488.9c-2.6,0-4.8,2.1-4.8,4.8c0,2.6,2.1,4.9,4.7,4.9c2.7,0,4.9-2.1,4.9-4.8
		C403,491,400.8,488.9,398.2,488.9z"/>
	<path class="st9" d="M407.9,500.6v-13.7h3.1c3.4,0,5.9,1,5.9,4.4c0,2.7-1.7,4.5-5.5,4.5h-1v4.7H407.9z M411.4,493.5
		c1.9,0,2.8-0.9,2.8-2.2c0-1.3-0.8-2.1-2.5-2.1h-1.2v4.3H411.4z"/>
	<path class="st9" d="M430.7,495.4v-2.2h6.2c0,5.8-3.4,7.8-6.6,7.8c-4.2,0-7.7-3.1-7.7-7.1c0-4.2,3.2-7.3,7.4-7.3
		c3.4,0,5.2,1.7,5.3,1.8l-1.3,1.9c-0.1-0.1-1.5-1.4-4-1.4c-2.9,0-4.7,2.1-4.7,4.9c0,2.5,2,4.8,4.9,4.8c2.1,0,3.8-1.4,3.9-3.2H430.7z
		"/>
	<path class="st9" d="M438.8,500.6v-13.7h2.6v13.7H438.8z"/>
	<path class="st9" d="M442.5,486.9h2.9l4.1,9.1l3.9-9.1h2.9l-6.9,14.5L442.5,486.9z"/>
	<path class="st9" d="M457.5,500.6v-13.7h8.2v2.3H460v3h4.5v2.3H460v3.7h6.1v2.3H457.5z"/>
	<path class="st9" d="M476.4,500.6l-5.1-5.1h-0.3v5.1h-2.6v-13.7h2.8c2.6,0,6.2,0.5,6.2,4.2c0,2.6-1.5,3.7-3.3,4.2l5.8,5.3H476.4z
		 M471.8,493.2c1.9,0,2.8-0.7,2.8-2c0-1.1-0.8-1.9-2.8-1.9h-0.9v3.9H471.8z"/>
	<path class="st9" d="M480.8,497.1c0.7,0.7,2,1.5,3.5,1.5c1.4,0,2.1-0.7,2.1-1.6c0-2.9-6.1-2.4-6.1-6.6c0-2.4,2.2-3.8,4.5-3.8
		c2.1,0,3.6,1.3,3.9,1.6l-1.3,1.9c-0.7-0.7-1.7-1.2-2.6-1.2c-0.9,0-1.8,0.4-1.8,1.3c0,2.4,6.1,1.9,6.1,6.7c0,2.1-1.9,4-5.1,4
		c-2,0-3.9-1.2-4.7-2L480.8,497.1z"/>
</g>
<g>
	<path class="st9" d="M691.2,502.1v-11.4h-4v-2.3h10.7v2.3h-4.1v11.4H691.2z"/>
	<path class="st9" d="M705.8,502.4c-4.2,0-7.5-3.2-7.5-7.2c0-3.9,3.4-7.2,7.5-7.2c4.1,0,7.5,3.1,7.5,7.2
		C713.3,499.2,709.8,502.4,705.8,502.4z M705.8,490.4c-2.6,0-4.8,2.1-4.8,4.8c0,2.6,2.1,4.9,4.7,4.9c2.7,0,4.9-2.1,4.9-4.8
		C710.5,492.5,708.3,490.4,705.8,490.4z"/>
	<path class="st9" d="M715.5,502.1v-13.7h3.1c3.4,0,5.9,1,5.9,4.4c0,2.7-1.7,4.5-5.5,4.5h-1v4.7H715.5z M718.9,495
		c1.9,0,2.8-0.9,2.8-2.2c0-1.3-0.8-2.1-2.5-2.1H718v4.3H718.9z"/>
	<path class="st9" d="M730.8,502.1v-13.7h8.2v2.3h-5.6v3h4.5v2.3h-4.5v3.7h6.1v2.3H730.8z"/>
	<path class="st9" d="M751.5,502.1l-1.2-2.5H744l-1.2,2.5H740l7.2-14.3l7.2,14.3H751.5z M747.1,493.1l-2,4.4h4.1L747.1,493.1z"/>
	<path class="st9" d="M763.5,502.1l-5.1-5.1h-0.3v5.1h-2.6v-13.7h2.8c2.6,0,6.2,0.5,6.2,4.2c0,2.6-1.5,3.7-3.3,4.2l5.8,5.3H763.5z
		 M759,494.7c1.9,0,2.8-0.7,2.8-2c0-1.1-0.8-1.9-2.8-1.9h-0.9v3.9H759z"/>
	<path class="st9" d="M770.2,493.7l0,8.4h-2.6l0-14.1l10.1,9.1l0-8.7h2.6l0,14.2L770.2,493.7z"/>
	<path class="st9" d="M783.2,502.1v-13.7h8.2v2.3h-5.6v3h4.5v2.3h-4.5v3.7h6.1v2.3H783.2z"/>
	<path class="st9" d="M802.1,502.1L797,497h-0.3v5.1h-2.6v-13.7h2.8c2.6,0,6.2,0.5,6.2,4.2c0,2.6-1.5,3.7-3.3,4.2l5.8,5.3H802.1z
		 M797.6,494.7c1.9,0,2.8-0.7,2.8-2c0-1.1-0.8-1.9-2.8-1.9h-0.9v3.9H797.6z"/>
	<path class="st9" d="M806.5,498.6c0.7,0.7,2,1.5,3.5,1.5c1.4,0,2.1-0.7,2.1-1.6c0-2.9-6.1-2.4-6.1-6.6c0-2.4,2.2-3.8,4.5-3.8
		c2.1,0,3.6,1.3,3.9,1.6l-1.3,1.9c-0.7-0.7-1.7-1.2-2.6-1.2c-0.9,0-1.8,0.4-1.8,1.3c0,2.4,6.1,1.9,6.1,6.7c0,2.1-1.9,4-5.1,4
		c-2,0-3.9-1.2-4.7-2L806.5,498.6z"/>
</g>
<g>
	<path class="st3" d="M561.4,500.7v-9.5h-3.4v-1.9h8.9v1.9h-3.4v9.5H561.4z"/>
	<path class="st3" d="M575.8,500.7v-4.9h-5.2v4.9h-2.1v-11.4h2.1v4.6h5.2v-4.6h2.1v11.4H575.8z"/>
	<path class="st3" d="M580.3,500.7v-11.4h2.1v11.4H580.3z"/>
	<path class="st3" d="M585.2,497.7c0.6,0.5,1.7,1.2,2.9,1.2c1.2,0,1.8-0.5,1.8-1.4c0-2.4-5.1-2-5.1-5.5c0-2,1.8-3.1,3.7-3.1
		c1.8,0,3,1.1,3.2,1.3l-1,1.6c-0.6-0.6-1.4-1-2.2-1s-1.5,0.3-1.5,1.1c0,2,5.1,1.6,5.1,5.6c0,1.8-1.6,3.3-4.2,3.3
		c-1.6,0-3.3-1-3.9-1.6L585.2,497.7z"/>
	<path class="st3" d="M604.6,493.6l-3.5,7.6l-4.9-12h2.4l2.6,7l3.4-7.5l3.4,7.5l2.6-7h2.4l-4.8,12L604.6,493.6z"/>
	<path class="st3" d="M614,500.6v-11.4h6.8v1.9h-4.7v2.5h3.7v1.9h-3.7v3.1h5.1v1.9H614z"/>
	<path class="st3" d="M623.1,500.6v-11.4h6.8v1.9h-4.7v2.5h3.7v1.9h-3.7v3.1h5.1v1.9H623.1z"/>
	<path class="st3" d="M639.2,500.7l-4.8-4.4v4.4h-2.1v-11.4h2.1v4.4l4.1-4.4h2.8l-5.5,5.6l6.6,5.9H639.2z"/>
</g>
<g>
	<polygon class="st3" points="549.1,491.1 530.1,491.1 530.1,486.4 519.7,495.2 530.1,503.3 530.1,498.6 549.1,498.6 	"/>
</g>
<g>
	<polygon class="st3" points="678.8,494.5 668.4,486.4 668.4,491.1 649.4,491.1 649.4,498.6 668.4,498.6 668.4,503.3 	"/>
</g>
<g>
	<polygon class="st3" points="355.6,561.9 351.7,558.9 347.7,561.9 347.7,545.1 355.6,545.1 	"/>
</g>
<g>
	<polygon class="st3" points="354,531.3 355.6,533 357.9,533.6 358.5,535.9 360.1,537.5 359.5,539.8 360.1,542.1 358.4,543.7 
		357.8,546 355.5,546.6 353.9,548.2 351.6,547.6 349.3,548.2 347.7,546.5 345.4,545.9 344.8,543.6 343.2,542 343.8,539.7 
		343.2,537.4 344.9,535.8 345.5,533.5 347.8,532.9 349.4,531.3 351.7,531.9 	"/>
</g>
<g>
	<path class="st1" d="M349.5,539.2v-1.3c0.9-0.1,1.6-0.5,2-1.2h1.2v6.6h-1.7v-4.7C350.8,538.9,350.2,539.1,349.5,539.2z"/>
</g>
<g>
	<polygon class="st8" points="631.9,558.3 628,555.3 624,558.3 624,541.5 631.9,541.5 	"/>
</g>
<g>
	<polygon class="st8" points="630.3,531.3 631.9,533 634.2,533.6 634.8,535.9 636.4,537.5 635.8,539.8 636.4,542.1 634.7,543.7 
		634.1,546 631.8,546.6 630.2,548.2 627.9,547.6 625.6,548.2 624,546.5 621.7,545.9 621.1,543.6 619.5,542 620.1,539.7 619.5,537.4 
		621.2,535.8 621.8,533.5 624.1,532.9 625.8,531.3 628,531.9 	"/>
</g>
<g>
	<path class="st9" d="M625.8,539.2v-1.3c0.9-0.1,1.6-0.5,2-1.2h1.2v6.6h-1.7v-4.7C627.1,538.9,626.6,539.1,625.8,539.2z"/>
</g>
<g>
	<rect x="405.3" y="1005" class="st9" width="397.6" height="8.5"/>
</g>
<g>
	
		<rect x="308.5" y="916.8" transform="matrix(-1.836970e-16 1 -1 -1.836970e-16 1322.0566 519.8333)" class="st9" width="185.1" height="8.4"/>
</g>
</svg>
