<?xml version="1.0" encoding="utf-8"?>
<!-- Generator: Adobe Illustrator 21.0.0, SVG Export Plug-In . SVG Version: 6.00 Build 0)  -->
<!DOCTYPE svg PUBLIC "-//W3C//DTD SVG 1.1//EN" "http://www.w3.org/Graphics/SVG/1.1/DTD/svg11.dtd">
<svg version="1.1" id="Layer_1" xmlns="http://www.w3.org/2000/svg" xmlns:xlink="http://www.w3.org/1999/xlink" x="0px" y="0px"
	 viewBox="0 0 300 300" style="enable-background:new 0 0 300 300;" xml:space="preserve">
<style type="text/css">
	.st0{fill:#7E6E7A;}
</style>
<g>
	<polygon class="st0" points="214.9,2 202.3,7.3 204.6,12.9 122.9,105.8 149.1,168.2 271.8,172.7 275.1,180.6 287.7,175.3 	"/>
	<path class="st0" d="M14.7,188c5.6,13.4,20,20.5,33.8,17.5l-22.6-53.8C14,159.4,9,174.6,14.7,188z"/>
	<polygon class="st0" points="143.3,168 119,110.2 116.2,103.5 27,141 57,212.1 67.8,207.6 69.9,212.4 101.9,288.7 99.4,289.3 
		101.6,298 137.7,288.9 135.5,280.2 130.9,281.3 112.4,194.6 111.3,189.3 146.1,174.7 	"/>
</g>
</svg>
