<?xml version="1.0" encoding="utf-8"?>
<!-- Generator: Adobe Illustrator 21.0.0, SVG Export Plug-In . SVG Version: 6.00 Build 0)  -->
<!DOCTYPE svg PUBLIC "-//W3C//DTD SVG 1.1//EN" "http://www.w3.org/Graphics/SVG/1.1/DTD/svg11.dtd">
<svg version="1.1" id="Layer_1" xmlns="http://www.w3.org/2000/svg" xmlns:xlink="http://www.w3.org/1999/xlink" x="0px" y="0px"
	 viewBox="0 0 300 300" style="enable-background:new 0 0 300 300;" xml:space="preserve">
<style type="text/css">
	.st0{fill:#7E6E7A;}
</style>
<g>
	<path class="st0" d="M243,70.6l-18-18.3l-6.5-24.8l-24.8-6.8l-18-18.3l-24.8,6.5l-24.8-6.8l-18.3,18L83,26.6l-6.8,24.8l-18.3,18
		l6.5,24.8L57.6,119l18,18.3l6.5,24.8l24.8,6.8l0.5,0.5v128.4l43-32.9l43,32.9V169.3l24.4-6.4l6.8-24.8l18.3-18l-6.5-24.8L243,70.6z
		 M126.7,74.5c10.3-1.4,17.8-5.8,22.2-13.2h13.5v72.4h-18.1V82.4c-3.7,2.8-9.5,5.1-17.6,6.7V74.5z"/>
</g>
</svg>
