<?xml version="1.0" encoding="utf-8"?>
<!-- Generator: Adobe Illustrator 21.0.0, SVG Export Plug-In . SVG Version: 6.00 Build 0)  -->
<!DOCTYPE svg PUBLIC "-//W3C//DTD SVG 1.1//EN" "http://www.w3.org/Graphics/SVG/1.1/DTD/svg11.dtd">
<svg version="1.1" id="Layer_1" xmlns="http://www.w3.org/2000/svg" xmlns:xlink="http://www.w3.org/1999/xlink" x="0px" y="0px"
	 viewBox="0 0 300 300" style="enable-background:new 0 0 300 300;" xml:space="preserve">
<style type="text/css">
	.st0{fill:#7E6E7A;}
	.st1{fill:#55465A;}
</style>
<g>
	<path class="st0" d="M237.3,135.3l3.3-1.7c10.9-5.5,17.7-16.5,17.7-28.7c0-17.7-14.4-32.1-32.1-32.1c-17.7,0-32.1,14.4-32.1,32.1
		c0,12.2,6.8,23.2,17.7,28.7l3.3,1.7v20.8h-59v47.2h1.5c8-13.1,22.1-21,37.6-21c24.3,0,44.1,19.8,44.1,44.1s-19.8,44.1-44.1,44.1
		c-15.5,0-29.6-8-37.6-21h-1.5v48.2c37.1-1.5,71.8-16.7,98.2-43.1c26.5-26.5,41.7-61.2,43.1-98.4h-60.2V135.3z"/>
	<path class="st1" d="M166.6,240.8c5.5,10.9,16.5,17.7,28.7,17.7c17.7,0,32.1-14.4,32.1-32.1c0-17.7-14.4-32.1-32.1-32.1
		c-12.2,0-23.2,6.8-28.7,17.7l-1.7,3.3h-20.8v-59.2H96.9v1.3c13.1,8,21,22.1,21,37.6c0,24.3-19.8,44.1-44.1,44.1
		c-24.3,0-44.1-19.8-44.1-44.1c0-15.5,8-29.6,21-37.6v-1.3H2.5c1.5,37.2,16.7,71.9,43.1,98.4c26.5,26.5,61.2,41.7,98.4,43.1v-60.2
		h20.8L166.6,240.8z"/>
	<path class="st0" d="M62.7,164.7l-3.3,1.7c-10.9,5.5-17.7,16.5-17.7,28.7c0,17.7,14.4,32.1,32.1,32.1c17.7,0,32.1-14.4,32.1-32.1
		c0-12.2-6.8-23.2-17.7-28.7l-3.3-1.7v-20.8h58.9V96.7h-1.4h-0.1c-8,13.1-22.1,21-37.6,21c-24.3,0-44.1-19.8-44.1-44.1
		s19.8-44.1,44.1-44.1c15.5,0,29.6,8,37.6,21h0.1h1.4V2.3C106.7,3.9,72,19.1,45.6,45.5C19.2,71.9,4,106.7,2.5,143.9h60.2V164.7z"/>
	<path class="st1" d="M198,10.2L198,10.2c-13.4-4.6-27.6-7.3-42.1-7.9v60.2h-20.7H135l-1.7-3.3c-5.5-10.9-16.5-17.7-28.7-17.7
		c-17.7,0-32.1,14.4-32.1,32.1s14.4,32.1,32.1,32.1c12.2,0,23.2-6.8,28.7-17.7l1.7-3.3h0.1h20.7v59.2h0.1h42h5.1v-1.3
		c-13.1-8-21-22.1-21-37.6c0-24.3,19.8-44.1,44.1-44.1c24.3,0,44.1,19.8,44.1,44.1c0,15.5-8,29.6-21,37.6v1.3h48.2
		c-1.5-37.2-16.7-71.9-43.1-98.4C238.2,29.3,219,17.4,198,10.2z"/>
</g>
</svg>
